<?xml version="1.0" encoding="utf-8" standalone="no"?>
<!DOCTYPE svg PUBLIC "-//W3C//DTD SVG 1.1//EN"
  "http://www.w3.org/Graphics/SVG/1.1/DTD/svg11.dtd">
<svg xmlns:xlink="http://www.w3.org/1999/xlink" width="246.987589pt" height="119.624783pt" viewBox="0 0 246.987589 119.624783" xmlns="http://www.w3.org/2000/svg" version="1.1">
 <metadata>
  <rdf:RDF xmlns:dc="http://purl.org/dc/elements/1.1/" xmlns:cc="http://creativecommons.org/ns#" xmlns:rdf="http://www.w3.org/1999/02/22-rdf-syntax-ns#">
   <cc:Work>
    <dc:type rdf:resource="http://purl.org/dc/dcmitype/StillImage"/>
    <dc:date>2023-11-14T19:37:17.905894</dc:date>
    <dc:format>image/svg+xml</dc:format>
    <dc:creator>
     <cc:Agent>
      <dc:title>Matplotlib v3.7.2, https://matplotlib.org/</dc:title>
     </cc:Agent>
    </dc:creator>
   </cc:Work>
  </rdf:RDF>
 </metadata>
 <defs>
  <style type="text/css">*{stroke-linejoin: round; stroke-linecap: butt}</style>
 </defs>
 <g id="figure_1">
  <g id="patch_1">
   <path d="M 0 119.624783 
L 246.987589 119.624783 
L 246.987589 0 
L 0 0 
z
" style="fill: #ffffff"/>
  </g>
  <g id="axes_1">
   <g id="patch_2">
    <path d="M 31.96625 88.392283 
L 239.787589 88.392283 
L 239.787589 7.2 
L 31.96625 7.2 
z
" style="fill: #ffffff"/>
   </g>
   <g id="matplotlib.axis_1">
    <g id="xtick_1">
     <g id="line2d_1">
      <defs>
       <path id="m57160ea1f3" d="M 0 0 
L 0 2 
" style="stroke: #808080; stroke-width: 0.5"/>
      </defs>
      <g>
       <use xlink:href="#m57160ea1f3" x="38.986513" y="88.392283" style="fill: #808080; stroke: #808080; stroke-width: 0.5"/>
      </g>
     </g>
     <g id="text_1">
      <!-- 12 -->
      <g style="fill: #262626" transform="translate(34.986513 99.447283) scale(0.08 -0.08)">
       <defs>
        <path id="TimesNewRomanPSMT-31" d="M 750 3822 
L 1781 4325 
L 1884 4325 
L 1884 747 
Q 1884 391 1914 303 
Q 1944 216 2037 169 
Q 2131 122 2419 116 
L 2419 0 
L 825 0 
L 825 116 
Q 1125 122 1212 167 
Q 1300 213 1334 289 
Q 1369 366 1369 747 
L 1369 3034 
Q 1369 3497 1338 3628 
Q 1316 3728 1258 3775 
Q 1200 3822 1119 3822 
Q 1003 3822 797 3725 
L 750 3822 
z
" transform="scale(0.015625)"/>
        <path id="TimesNewRomanPSMT-32" d="M 2934 816 
L 2638 0 
L 138 0 
L 138 116 
Q 1241 1122 1691 1759 
Q 2141 2397 2141 2925 
Q 2141 3328 1894 3587 
Q 1647 3847 1303 3847 
Q 991 3847 742 3664 
Q 494 3481 375 3128 
L 259 3128 
Q 338 3706 661 4015 
Q 984 4325 1469 4325 
Q 1984 4325 2329 3994 
Q 2675 3663 2675 3213 
Q 2675 2891 2525 2569 
Q 2294 2063 1775 1497 
Q 997 647 803 472 
L 1909 472 
Q 2247 472 2383 497 
Q 2519 522 2628 598 
Q 2738 675 2819 816 
L 2934 816 
z
" transform="scale(0.015625)"/>
       </defs>
       <use xlink:href="#TimesNewRomanPSMT-31"/>
       <use xlink:href="#TimesNewRomanPSMT-32" x="50"/>
      </g>
     </g>
    </g>
    <g id="xtick_2">
     <g id="line2d_2">
      <g>
       <use xlink:href="#m57160ea1f3" x="53.380194" y="88.392283" style="fill: #808080; stroke: #808080; stroke-width: 0.5"/>
      </g>
     </g>
     <g id="text_2">
      <!-- 14 -->
      <g style="fill: #262626" transform="translate(49.380194 99.447283) scale(0.08 -0.08)">
       <defs>
        <path id="TimesNewRomanPSMT-34" d="M 2978 1563 
L 2978 1119 
L 2409 1119 
L 2409 0 
L 1894 0 
L 1894 1119 
L 100 1119 
L 100 1519 
L 2066 4325 
L 2409 4325 
L 2409 1563 
L 2978 1563 
z
M 1894 1563 
L 1894 3666 
L 406 1563 
L 1894 1563 
z
" transform="scale(0.015625)"/>
       </defs>
       <use xlink:href="#TimesNewRomanPSMT-31"/>
       <use xlink:href="#TimesNewRomanPSMT-34" x="50"/>
      </g>
     </g>
    </g>
    <g id="xtick_3">
     <g id="line2d_3">
      <g>
       <use xlink:href="#m57160ea1f3" x="67.773875" y="88.392283" style="fill: #808080; stroke: #808080; stroke-width: 0.5"/>
      </g>
     </g>
     <g id="text_3">
      <!-- 16 -->
      <g style="fill: #262626" transform="translate(63.773875 99.447283) scale(0.08 -0.08)">
       <defs>
        <path id="TimesNewRomanPSMT-36" d="M 2869 4325 
L 2869 4209 
Q 2456 4169 2195 4045 
Q 1934 3922 1679 3669 
Q 1425 3416 1258 3105 
Q 1091 2794 978 2366 
Q 1428 2675 1881 2675 
Q 2316 2675 2634 2325 
Q 2953 1975 2953 1425 
Q 2953 894 2631 456 
Q 2244 -75 1606 -75 
Q 1172 -75 869 213 
Q 275 772 275 1663 
Q 275 2231 503 2743 
Q 731 3256 1154 3653 
Q 1578 4050 1965 4187 
Q 2353 4325 2688 4325 
L 2869 4325 
z
M 925 2138 
Q 869 1716 869 1456 
Q 869 1156 980 804 
Q 1091 453 1309 247 
Q 1469 100 1697 100 
Q 1969 100 2183 356 
Q 2397 613 2397 1088 
Q 2397 1622 2184 2012 
Q 1972 2403 1581 2403 
Q 1463 2403 1327 2353 
Q 1191 2303 925 2138 
z
" transform="scale(0.015625)"/>
       </defs>
       <use xlink:href="#TimesNewRomanPSMT-31"/>
       <use xlink:href="#TimesNewRomanPSMT-36" x="50"/>
      </g>
     </g>
    </g>
    <g id="xtick_4">
     <g id="line2d_4">
      <g>
       <use xlink:href="#m57160ea1f3" x="82.167557" y="88.392283" style="fill: #808080; stroke: #808080; stroke-width: 0.5"/>
      </g>
     </g>
     <g id="text_4">
      <!-- 18 -->
      <g style="fill: #262626" transform="translate(78.167557 99.447283) scale(0.08 -0.08)">
       <defs>
        <path id="TimesNewRomanPSMT-38" d="M 1228 2134 
Q 725 2547 579 2797 
Q 434 3047 434 3316 
Q 434 3728 753 4026 
Q 1072 4325 1600 4325 
Q 2113 4325 2425 4047 
Q 2738 3769 2738 3413 
Q 2738 3175 2569 2928 
Q 2400 2681 1866 2347 
Q 2416 1922 2594 1678 
Q 2831 1359 2831 1006 
Q 2831 559 2490 242 
Q 2150 -75 1597 -75 
Q 994 -75 656 303 
Q 388 606 388 966 
Q 388 1247 577 1523 
Q 766 1800 1228 2134 
z
M 1719 2469 
Q 2094 2806 2194 3001 
Q 2294 3197 2294 3444 
Q 2294 3772 2109 3958 
Q 1925 4144 1606 4144 
Q 1288 4144 1088 3959 
Q 888 3775 888 3528 
Q 888 3366 970 3203 
Q 1053 3041 1206 2894 
L 1719 2469 
z
M 1375 2016 
Q 1116 1797 991 1539 
Q 866 1281 866 981 
Q 866 578 1086 336 
Q 1306 94 1647 94 
Q 1984 94 2187 284 
Q 2391 475 2391 747 
Q 2391 972 2272 1150 
Q 2050 1481 1375 2016 
z
" transform="scale(0.015625)"/>
       </defs>
       <use xlink:href="#TimesNewRomanPSMT-31"/>
       <use xlink:href="#TimesNewRomanPSMT-38" x="50"/>
      </g>
     </g>
    </g>
    <g id="xtick_5">
     <g id="line2d_5">
      <g>
       <use xlink:href="#m57160ea1f3" x="96.561238" y="88.392283" style="fill: #808080; stroke: #808080; stroke-width: 0.5"/>
      </g>
     </g>
     <g id="text_5">
      <!-- 20 -->
      <g style="fill: #262626" transform="translate(92.561238 99.447283) scale(0.08 -0.08)">
       <defs>
        <path id="TimesNewRomanPSMT-30" d="M 231 2094 
Q 231 2819 450 3342 
Q 669 3866 1031 4122 
Q 1313 4325 1613 4325 
Q 2100 4325 2488 3828 
Q 2972 3213 2972 2159 
Q 2972 1422 2759 906 
Q 2547 391 2217 158 
Q 1888 -75 1581 -75 
Q 975 -75 572 641 
Q 231 1244 231 2094 
z
M 844 2016 
Q 844 1141 1059 588 
Q 1238 122 1591 122 
Q 1759 122 1940 273 
Q 2122 425 2216 781 
Q 2359 1319 2359 2297 
Q 2359 3022 2209 3506 
Q 2097 3866 1919 4016 
Q 1791 4119 1609 4119 
Q 1397 4119 1231 3928 
Q 1006 3669 925 3112 
Q 844 2556 844 2016 
z
" transform="scale(0.015625)"/>
       </defs>
       <use xlink:href="#TimesNewRomanPSMT-32"/>
       <use xlink:href="#TimesNewRomanPSMT-30" x="50"/>
      </g>
     </g>
    </g>
    <g id="xtick_6">
     <g id="line2d_6">
      <g>
       <use xlink:href="#m57160ea1f3" x="110.95492" y="88.392283" style="fill: #808080; stroke: #808080; stroke-width: 0.5"/>
      </g>
     </g>
     <g id="text_6">
      <!-- 22 -->
      <g style="fill: #262626" transform="translate(106.95492 99.447283) scale(0.08 -0.08)">
       <use xlink:href="#TimesNewRomanPSMT-32"/>
       <use xlink:href="#TimesNewRomanPSMT-32" x="50"/>
      </g>
     </g>
    </g>
    <g id="xtick_7">
     <g id="line2d_7">
      <g>
       <use xlink:href="#m57160ea1f3" x="125.348601" y="88.392283" style="fill: #808080; stroke: #808080; stroke-width: 0.5"/>
      </g>
     </g>
     <g id="text_7">
      <!-- 24 -->
      <g style="fill: #262626" transform="translate(121.348601 99.447283) scale(0.08 -0.08)">
       <use xlink:href="#TimesNewRomanPSMT-32"/>
       <use xlink:href="#TimesNewRomanPSMT-34" x="50"/>
      </g>
     </g>
    </g>
    <g id="xtick_8">
     <g id="line2d_8">
      <g>
       <use xlink:href="#m57160ea1f3" x="139.742283" y="88.392283" style="fill: #808080; stroke: #808080; stroke-width: 0.5"/>
      </g>
     </g>
     <g id="text_8">
      <!-- 26 -->
      <g style="fill: #262626" transform="translate(135.742283 99.447283) scale(0.08 -0.08)">
       <use xlink:href="#TimesNewRomanPSMT-32"/>
       <use xlink:href="#TimesNewRomanPSMT-36" x="50"/>
      </g>
     </g>
    </g>
    <g id="xtick_9">
     <g id="line2d_9">
      <g>
       <use xlink:href="#m57160ea1f3" x="154.135964" y="88.392283" style="fill: #808080; stroke: #808080; stroke-width: 0.5"/>
      </g>
     </g>
     <g id="text_9">
      <!-- 28 -->
      <g style="fill: #262626" transform="translate(150.135964 99.447283) scale(0.08 -0.08)">
       <use xlink:href="#TimesNewRomanPSMT-32"/>
       <use xlink:href="#TimesNewRomanPSMT-38" x="50"/>
      </g>
     </g>
    </g>
    <g id="xtick_10">
     <g id="line2d_10">
      <g>
       <use xlink:href="#m57160ea1f3" x="168.529646" y="88.392283" style="fill: #808080; stroke: #808080; stroke-width: 0.5"/>
      </g>
     </g>
     <g id="text_10">
      <!-- 30 -->
      <g style="fill: #262626" transform="translate(164.529646 99.447283) scale(0.08 -0.08)">
       <defs>
        <path id="TimesNewRomanPSMT-33" d="M 325 3431 
Q 506 3859 782 4092 
Q 1059 4325 1472 4325 
Q 1981 4325 2253 3994 
Q 2459 3747 2459 3466 
Q 2459 3003 1878 2509 
Q 2269 2356 2469 2072 
Q 2669 1788 2669 1403 
Q 2669 853 2319 450 
Q 1863 -75 997 -75 
Q 569 -75 414 31 
Q 259 138 259 259 
Q 259 350 332 419 
Q 406 488 509 488 
Q 588 488 669 463 
Q 722 447 909 348 
Q 1097 250 1169 231 
Q 1284 197 1416 197 
Q 1734 197 1970 444 
Q 2206 691 2206 1028 
Q 2206 1275 2097 1509 
Q 2016 1684 1919 1775 
Q 1784 1900 1550 2001 
Q 1316 2103 1072 2103 
L 972 2103 
L 972 2197 
Q 1219 2228 1467 2375 
Q 1716 2522 1828 2728 
Q 1941 2934 1941 3181 
Q 1941 3503 1739 3701 
Q 1538 3900 1238 3900 
Q 753 3900 428 3381 
L 325 3431 
z
" transform="scale(0.015625)"/>
       </defs>
       <use xlink:href="#TimesNewRomanPSMT-33"/>
       <use xlink:href="#TimesNewRomanPSMT-30" x="50"/>
      </g>
     </g>
    </g>
    <g id="xtick_11">
     <g id="line2d_11">
      <g>
       <use xlink:href="#m57160ea1f3" x="182.923327" y="88.392283" style="fill: #808080; stroke: #808080; stroke-width: 0.5"/>
      </g>
     </g>
     <g id="text_11">
      <!-- 32 -->
      <g style="fill: #262626" transform="translate(178.923327 99.447283) scale(0.08 -0.08)">
       <use xlink:href="#TimesNewRomanPSMT-33"/>
       <use xlink:href="#TimesNewRomanPSMT-32" x="50"/>
      </g>
     </g>
    </g>
    <g id="xtick_12">
     <g id="line2d_12">
      <g>
       <use xlink:href="#m57160ea1f3" x="197.317009" y="88.392283" style="fill: #808080; stroke: #808080; stroke-width: 0.5"/>
      </g>
     </g>
     <g id="text_12">
      <!-- 34 -->
      <g style="fill: #262626" transform="translate(193.317009 99.447283) scale(0.08 -0.08)">
       <use xlink:href="#TimesNewRomanPSMT-33"/>
       <use xlink:href="#TimesNewRomanPSMT-34" x="50"/>
      </g>
     </g>
    </g>
    <g id="xtick_13">
     <g id="line2d_13">
      <g>
       <use xlink:href="#m57160ea1f3" x="211.71069" y="88.392283" style="fill: #808080; stroke: #808080; stroke-width: 0.5"/>
      </g>
     </g>
     <g id="text_13">
      <!-- 36 -->
      <g style="fill: #262626" transform="translate(207.71069 99.447283) scale(0.08 -0.08)">
       <use xlink:href="#TimesNewRomanPSMT-33"/>
       <use xlink:href="#TimesNewRomanPSMT-36" x="50"/>
      </g>
     </g>
    </g>
    <g id="xtick_14">
     <g id="line2d_14">
      <g>
       <use xlink:href="#m57160ea1f3" x="226.104372" y="88.392283" style="fill: #808080; stroke: #808080; stroke-width: 0.5"/>
      </g>
     </g>
     <g id="text_14">
      <!-- 38 -->
      <g style="fill: #262626" transform="translate(222.104372 99.447283) scale(0.08 -0.08)">
       <use xlink:href="#TimesNewRomanPSMT-33"/>
       <use xlink:href="#TimesNewRomanPSMT-38" x="50"/>
      </g>
     </g>
    </g>
    <g id="text_15">
     <!-- Anatomical SNR-standard (dB) -->
     <g style="fill: #262626" transform="translate(85.220044 110.713533) scale(0.08 -0.08)">
      <defs>
       <path id="TimesNewRomanPSMT-41" d="M 2928 1419 
L 1288 1419 
L 1000 750 
Q 894 503 894 381 
Q 894 284 986 211 
Q 1078 138 1384 116 
L 1384 0 
L 50 0 
L 50 116 
Q 316 163 394 238 
Q 553 388 747 847 
L 2238 4334 
L 2347 4334 
L 3822 809 
Q 4000 384 4145 257 
Q 4291 131 4550 116 
L 4550 0 
L 2878 0 
L 2878 116 
Q 3131 128 3220 200 
Q 3309 272 3309 375 
Q 3309 513 3184 809 
L 2928 1419 
z
M 2841 1650 
L 2122 3363 
L 1384 1650 
L 2841 1650 
z
" transform="scale(0.015625)"/>
       <path id="TimesNewRomanPSMT-6e" d="M 1034 2341 
Q 1538 2947 1994 2947 
Q 2228 2947 2397 2830 
Q 2566 2713 2666 2444 
Q 2734 2256 2734 1869 
L 2734 647 
Q 2734 375 2778 278 
Q 2813 200 2889 156 
Q 2966 113 3172 113 
L 3172 0 
L 1756 0 
L 1756 113 
L 1816 113 
Q 2016 113 2095 173 
Q 2175 234 2206 353 
Q 2219 400 2219 647 
L 2219 1819 
Q 2219 2209 2117 2386 
Q 2016 2563 1775 2563 
Q 1403 2563 1034 2156 
L 1034 647 
Q 1034 356 1069 288 
Q 1113 197 1189 155 
Q 1266 113 1500 113 
L 1500 0 
L 84 0 
L 84 113 
L 147 113 
Q 366 113 442 223 
Q 519 334 519 647 
L 519 1709 
Q 519 2225 495 2337 
Q 472 2450 423 2490 
Q 375 2531 294 2531 
Q 206 2531 84 2484 
L 38 2597 
L 900 2947 
L 1034 2947 
L 1034 2341 
z
" transform="scale(0.015625)"/>
       <path id="TimesNewRomanPSMT-61" d="M 1822 413 
Q 1381 72 1269 19 
Q 1100 -59 909 -59 
Q 613 -59 420 144 
Q 228 347 228 678 
Q 228 888 322 1041 
Q 450 1253 767 1440 
Q 1084 1628 1822 1897 
L 1822 2009 
Q 1822 2438 1686 2597 
Q 1550 2756 1291 2756 
Q 1094 2756 978 2650 
Q 859 2544 859 2406 
L 866 2225 
Q 866 2081 792 2003 
Q 719 1925 600 1925 
Q 484 1925 411 2006 
Q 338 2088 338 2228 
Q 338 2497 613 2722 
Q 888 2947 1384 2947 
Q 1766 2947 2009 2819 
Q 2194 2722 2281 2516 
Q 2338 2381 2338 1966 
L 2338 994 
Q 2338 584 2353 492 
Q 2369 400 2405 369 
Q 2441 338 2488 338 
Q 2538 338 2575 359 
Q 2641 400 2828 588 
L 2828 413 
Q 2478 -56 2159 -56 
Q 2006 -56 1915 50 
Q 1825 156 1822 413 
z
M 1822 616 
L 1822 1706 
Q 1350 1519 1213 1441 
Q 966 1303 859 1153 
Q 753 1003 753 825 
Q 753 600 887 451 
Q 1022 303 1197 303 
Q 1434 303 1822 616 
z
" transform="scale(0.015625)"/>
       <path id="TimesNewRomanPSMT-74" d="M 1031 3803 
L 1031 2863 
L 1700 2863 
L 1700 2644 
L 1031 2644 
L 1031 788 
Q 1031 509 1111 412 
Q 1191 316 1316 316 
Q 1419 316 1516 380 
Q 1613 444 1666 569 
L 1788 569 
Q 1678 263 1478 108 
Q 1278 -47 1066 -47 
Q 922 -47 784 33 
Q 647 113 581 261 
Q 516 409 516 719 
L 516 2644 
L 63 2644 
L 63 2747 
Q 234 2816 414 2980 
Q 594 3144 734 3369 
Q 806 3488 934 3803 
L 1031 3803 
z
" transform="scale(0.015625)"/>
       <path id="TimesNewRomanPSMT-6f" d="M 1600 2947 
Q 2250 2947 2644 2453 
Q 2978 2031 2978 1484 
Q 2978 1100 2793 706 
Q 2609 313 2286 112 
Q 1963 -88 1566 -88 
Q 919 -88 538 428 
Q 216 863 216 1403 
Q 216 1797 411 2186 
Q 606 2575 925 2761 
Q 1244 2947 1600 2947 
z
M 1503 2744 
Q 1338 2744 1170 2645 
Q 1003 2547 900 2300 
Q 797 2053 797 1666 
Q 797 1041 1045 587 
Q 1294 134 1700 134 
Q 2003 134 2200 384 
Q 2397 634 2397 1244 
Q 2397 2006 2069 2444 
Q 1847 2744 1503 2744 
z
" transform="scale(0.015625)"/>
       <path id="TimesNewRomanPSMT-6d" d="M 1050 2338 
Q 1363 2650 1419 2697 
Q 1559 2816 1721 2881 
Q 1884 2947 2044 2947 
Q 2313 2947 2506 2790 
Q 2700 2634 2766 2338 
Q 3088 2713 3309 2830 
Q 3531 2947 3766 2947 
Q 3994 2947 4170 2830 
Q 4347 2713 4450 2447 
Q 4519 2266 4519 1878 
L 4519 647 
Q 4519 378 4559 278 
Q 4591 209 4675 161 
Q 4759 113 4950 113 
L 4950 0 
L 3538 0 
L 3538 113 
L 3597 113 
Q 3781 113 3884 184 
Q 3956 234 3988 344 
Q 4000 397 4000 647 
L 4000 1878 
Q 4000 2228 3916 2372 
Q 3794 2572 3525 2572 
Q 3359 2572 3192 2489 
Q 3025 2406 2788 2181 
L 2781 2147 
L 2788 2013 
L 2788 647 
Q 2788 353 2820 281 
Q 2853 209 2943 161 
Q 3034 113 3253 113 
L 3253 0 
L 1806 0 
L 1806 113 
Q 2044 113 2133 169 
Q 2222 225 2256 338 
Q 2272 391 2272 647 
L 2272 1878 
Q 2272 2228 2169 2381 
Q 2031 2581 1784 2581 
Q 1616 2581 1450 2491 
Q 1191 2353 1050 2181 
L 1050 647 
Q 1050 366 1089 281 
Q 1128 197 1204 155 
Q 1281 113 1516 113 
L 1516 0 
L 100 0 
L 100 113 
Q 297 113 375 155 
Q 453 197 493 289 
Q 534 381 534 647 
L 534 1741 
Q 534 2213 506 2350 
Q 484 2453 437 2492 
Q 391 2531 309 2531 
Q 222 2531 100 2484 
L 53 2597 
L 916 2947 
L 1050 2947 
L 1050 2338 
z
" transform="scale(0.015625)"/>
       <path id="TimesNewRomanPSMT-69" d="M 928 4444 
Q 1059 4444 1151 4351 
Q 1244 4259 1244 4128 
Q 1244 3997 1151 3903 
Q 1059 3809 928 3809 
Q 797 3809 703 3903 
Q 609 3997 609 4128 
Q 609 4259 701 4351 
Q 794 4444 928 4444 
z
M 1188 2947 
L 1188 647 
Q 1188 378 1227 289 
Q 1266 200 1342 156 
Q 1419 113 1622 113 
L 1622 0 
L 231 0 
L 231 113 
Q 441 113 512 153 
Q 584 194 626 287 
Q 669 381 669 647 
L 669 1750 
Q 669 2216 641 2353 
Q 619 2453 572 2492 
Q 525 2531 444 2531 
Q 356 2531 231 2484 
L 188 2597 
L 1050 2947 
L 1188 2947 
z
" transform="scale(0.015625)"/>
       <path id="TimesNewRomanPSMT-63" d="M 2631 1088 
Q 2516 522 2178 217 
Q 1841 -88 1431 -88 
Q 944 -88 581 321 
Q 219 731 219 1428 
Q 219 2103 620 2525 
Q 1022 2947 1584 2947 
Q 2006 2947 2278 2723 
Q 2550 2500 2550 2259 
Q 2550 2141 2473 2067 
Q 2397 1994 2259 1994 
Q 2075 1994 1981 2113 
Q 1928 2178 1911 2362 
Q 1894 2547 1784 2644 
Q 1675 2738 1481 2738 
Q 1169 2738 978 2506 
Q 725 2200 725 1697 
Q 725 1184 976 792 
Q 1228 400 1656 400 
Q 1963 400 2206 609 
Q 2378 753 2541 1131 
L 2631 1088 
z
" transform="scale(0.015625)"/>
       <path id="TimesNewRomanPSMT-6c" d="M 1184 4444 
L 1184 647 
Q 1184 378 1223 290 
Q 1263 203 1344 158 
Q 1425 113 1647 113 
L 1647 0 
L 244 0 
L 244 113 
Q 441 113 512 153 
Q 584 194 625 287 
Q 666 381 666 647 
L 666 3247 
Q 666 3731 644 3842 
Q 622 3953 573 3993 
Q 525 4034 450 4034 
Q 369 4034 244 3984 
L 191 4094 
L 1044 4444 
L 1184 4444 
z
" transform="scale(0.015625)"/>
       <path id="TimesNewRomanPSMT-20" transform="scale(0.015625)"/>
       <path id="TimesNewRomanPSMT-53" d="M 2934 4334 
L 2934 2869 
L 2819 2869 
Q 2763 3291 2617 3541 
Q 2472 3791 2203 3937 
Q 1934 4084 1647 4084 
Q 1322 4084 1109 3886 
Q 897 3688 897 3434 
Q 897 3241 1031 3081 
Q 1225 2847 1953 2456 
Q 2547 2138 2764 1967 
Q 2981 1797 3098 1565 
Q 3216 1334 3216 1081 
Q 3216 600 2842 251 
Q 2469 -97 1881 -97 
Q 1697 -97 1534 -69 
Q 1438 -53 1133 45 
Q 828 144 747 144 
Q 669 144 623 97 
Q 578 50 556 -97 
L 441 -97 
L 441 1356 
L 556 1356 
Q 638 900 775 673 
Q 913 447 1195 297 
Q 1478 147 1816 147 
Q 2206 147 2432 353 
Q 2659 559 2659 841 
Q 2659 997 2573 1156 
Q 2488 1316 2306 1453 
Q 2184 1547 1640 1851 
Q 1097 2156 867 2337 
Q 638 2519 519 2737 
Q 400 2956 400 3219 
Q 400 3675 750 4004 
Q 1100 4334 1641 4334 
Q 1978 4334 2356 4169 
Q 2531 4091 2603 4091 
Q 2684 4091 2736 4139 
Q 2788 4188 2819 4334 
L 2934 4334 
z
" transform="scale(0.015625)"/>
       <path id="TimesNewRomanPSMT-4e" d="M -84 4238 
L 1066 4238 
L 3656 1059 
L 3656 3503 
Q 3656 3894 3569 3991 
Q 3453 4122 3203 4122 
L 3056 4122 
L 3056 4238 
L 4531 4238 
L 4531 4122 
L 4381 4122 
Q 4113 4122 4000 3959 
Q 3931 3859 3931 3503 
L 3931 -69 
L 3819 -69 
L 1025 3344 
L 1025 734 
Q 1025 344 1109 247 
Q 1228 116 1475 116 
L 1625 116 
L 1625 0 
L 150 0 
L 150 116 
L 297 116 
Q 569 116 681 278 
Q 750 378 750 734 
L 750 3681 
Q 566 3897 470 3965 
Q 375 4034 191 4094 
Q 100 4122 -84 4122 
L -84 4238 
z
" transform="scale(0.015625)"/>
       <path id="TimesNewRomanPSMT-52" d="M 4325 0 
L 3194 0 
L 1759 1981 
Q 1600 1975 1500 1975 
Q 1459 1975 1412 1976 
Q 1366 1978 1316 1981 
L 1316 750 
Q 1316 350 1403 253 
Q 1522 116 1759 116 
L 1925 116 
L 1925 0 
L 109 0 
L 109 116 
L 269 116 
Q 538 116 653 291 
Q 719 388 719 750 
L 719 3488 
Q 719 3888 631 3984 
Q 509 4122 269 4122 
L 109 4122 
L 109 4238 
L 1653 4238 
Q 2328 4238 2648 4139 
Q 2969 4041 3192 3777 
Q 3416 3513 3416 3147 
Q 3416 2756 3161 2468 
Q 2906 2181 2372 2063 
L 3247 847 
Q 3547 428 3762 290 
Q 3978 153 4325 116 
L 4325 0 
z
M 1316 2178 
Q 1375 2178 1419 2176 
Q 1463 2175 1491 2175 
Q 2097 2175 2405 2437 
Q 2713 2700 2713 3106 
Q 2713 3503 2464 3751 
Q 2216 4000 1806 4000 
Q 1625 4000 1316 3941 
L 1316 2178 
z
" transform="scale(0.015625)"/>
       <path id="TimesNewRomanPSMT-2d" d="M 259 1672 
L 1875 1672 
L 1875 1200 
L 259 1200 
L 259 1672 
z
" transform="scale(0.015625)"/>
       <path id="TimesNewRomanPSMT-73" d="M 2050 2947 
L 2050 1972 
L 1947 1972 
Q 1828 2431 1642 2597 
Q 1456 2763 1169 2763 
Q 950 2763 815 2647 
Q 681 2531 681 2391 
Q 681 2216 781 2091 
Q 878 1963 1175 1819 
L 1631 1597 
Q 2266 1288 2266 781 
Q 2266 391 1970 151 
Q 1675 -88 1309 -88 
Q 1047 -88 709 6 
Q 606 38 541 38 
Q 469 38 428 -44 
L 325 -44 
L 325 978 
L 428 978 
Q 516 541 762 319 
Q 1009 97 1316 97 
Q 1531 97 1667 223 
Q 1803 350 1803 528 
Q 1803 744 1651 891 
Q 1500 1038 1047 1263 
Q 594 1488 453 1669 
Q 313 1847 313 2119 
Q 313 2472 555 2709 
Q 797 2947 1181 2947 
Q 1350 2947 1591 2875 
Q 1750 2828 1803 2828 
Q 1853 2828 1881 2850 
Q 1909 2872 1947 2947 
L 2050 2947 
z
" transform="scale(0.015625)"/>
       <path id="TimesNewRomanPSMT-64" d="M 2222 322 
Q 2013 103 1813 7 
Q 1613 -88 1381 -88 
Q 913 -88 563 304 
Q 213 697 213 1313 
Q 213 1928 600 2439 
Q 988 2950 1597 2950 
Q 1975 2950 2222 2709 
L 2222 3238 
Q 2222 3728 2198 3840 
Q 2175 3953 2125 3993 
Q 2075 4034 2000 4034 
Q 1919 4034 1784 3984 
L 1744 4094 
L 2597 4444 
L 2738 4444 
L 2738 1134 
Q 2738 631 2761 520 
Q 2784 409 2836 365 
Q 2888 322 2956 322 
Q 3041 322 3181 375 
L 3216 266 
L 2366 -88 
L 2222 -88 
L 2222 322 
z
M 2222 541 
L 2222 2016 
Q 2203 2228 2109 2403 
Q 2016 2578 1861 2667 
Q 1706 2756 1559 2756 
Q 1284 2756 1069 2509 
Q 784 2184 784 1559 
Q 784 928 1059 592 
Q 1334 256 1672 256 
Q 1956 256 2222 541 
z
" transform="scale(0.015625)"/>
       <path id="TimesNewRomanPSMT-72" d="M 1038 2947 
L 1038 2303 
Q 1397 2947 1775 2947 
Q 1947 2947 2059 2842 
Q 2172 2738 2172 2600 
Q 2172 2478 2090 2393 
Q 2009 2309 1897 2309 
Q 1788 2309 1652 2417 
Q 1516 2525 1450 2525 
Q 1394 2525 1328 2463 
Q 1188 2334 1038 2041 
L 1038 669 
Q 1038 431 1097 309 
Q 1138 225 1241 169 
Q 1344 113 1538 113 
L 1538 0 
L 72 0 
L 72 113 
Q 291 113 397 181 
Q 475 231 506 341 
Q 522 394 522 644 
L 522 1753 
Q 522 2253 501 2348 
Q 481 2444 426 2487 
Q 372 2531 291 2531 
Q 194 2531 72 2484 
L 41 2597 
L 906 2947 
L 1038 2947 
z
" transform="scale(0.015625)"/>
       <path id="TimesNewRomanPSMT-28" d="M 1988 -1253 
L 1988 -1369 
Q 1516 -1131 1200 -813 
Q 750 -359 506 256 
Q 263 872 263 1534 
Q 263 2503 741 3301 
Q 1219 4100 1988 4444 
L 1988 4313 
Q 1603 4100 1356 3731 
Q 1109 3363 987 2797 
Q 866 2231 866 1616 
Q 866 947 969 400 
Q 1050 -31 1165 -292 
Q 1281 -553 1476 -793 
Q 1672 -1034 1988 -1253 
z
" transform="scale(0.015625)"/>
       <path id="TimesNewRomanPSMT-42" d="M 2956 2163 
Q 3397 2069 3616 1863 
Q 3919 1575 3919 1159 
Q 3919 844 3719 555 
Q 3519 266 3170 133 
Q 2822 0 2106 0 
L 106 0 
L 106 116 
L 266 116 
Q 531 116 647 284 
Q 719 394 719 750 
L 719 3488 
Q 719 3881 628 3984 
Q 506 4122 266 4122 
L 106 4122 
L 106 4238 
L 1938 4238 
Q 2450 4238 2759 4163 
Q 3228 4050 3475 3764 
Q 3722 3478 3722 3106 
Q 3722 2788 3528 2536 
Q 3334 2284 2956 2163 
z
M 1319 2331 
Q 1434 2309 1582 2298 
Q 1731 2288 1909 2288 
Q 2366 2288 2595 2386 
Q 2825 2484 2947 2687 
Q 3069 2891 3069 3131 
Q 3069 3503 2766 3765 
Q 2463 4028 1881 4028 
Q 1569 4028 1319 3959 
L 1319 2331 
z
M 1319 306 
Q 1681 222 2034 222 
Q 2600 222 2897 476 
Q 3194 731 3194 1106 
Q 3194 1353 3059 1581 
Q 2925 1809 2622 1940 
Q 2319 2072 1872 2072 
Q 1678 2072 1540 2065 
Q 1403 2059 1319 2044 
L 1319 306 
z
" transform="scale(0.015625)"/>
       <path id="TimesNewRomanPSMT-29" d="M 144 4313 
L 144 4444 
Q 619 4209 934 3891 
Q 1381 3434 1625 2820 
Q 1869 2206 1869 1541 
Q 1869 572 1392 -226 
Q 916 -1025 144 -1369 
L 144 -1253 
Q 528 -1038 776 -670 
Q 1025 -303 1145 264 
Q 1266 831 1266 1447 
Q 1266 2113 1163 2663 
Q 1084 3094 967 3353 
Q 850 3613 656 3853 
Q 463 4094 144 4313 
z
" transform="scale(0.015625)"/>
      </defs>
      <use xlink:href="#TimesNewRomanPSMT-41"/>
      <use xlink:href="#TimesNewRomanPSMT-6e" x="72.216797"/>
      <use xlink:href="#TimesNewRomanPSMT-61" x="122.216797"/>
      <use xlink:href="#TimesNewRomanPSMT-74" x="166.601562"/>
      <use xlink:href="#TimesNewRomanPSMT-6f" x="194.384766"/>
      <use xlink:href="#TimesNewRomanPSMT-6d" x="244.384766"/>
      <use xlink:href="#TimesNewRomanPSMT-69" x="322.167969"/>
      <use xlink:href="#TimesNewRomanPSMT-63" x="349.951172"/>
      <use xlink:href="#TimesNewRomanPSMT-61" x="394.335938"/>
      <use xlink:href="#TimesNewRomanPSMT-6c" x="438.720703"/>
      <use xlink:href="#TimesNewRomanPSMT-20" x="466.503906"/>
      <use xlink:href="#TimesNewRomanPSMT-53" x="491.503906"/>
      <use xlink:href="#TimesNewRomanPSMT-4e" x="547.119141"/>
      <use xlink:href="#TimesNewRomanPSMT-52" x="619.335938"/>
      <use xlink:href="#TimesNewRomanPSMT-2d" x="686.035156"/>
      <use xlink:href="#TimesNewRomanPSMT-73" x="719.335938"/>
      <use xlink:href="#TimesNewRomanPSMT-74" x="758.251953"/>
      <use xlink:href="#TimesNewRomanPSMT-61" x="786.035156"/>
      <use xlink:href="#TimesNewRomanPSMT-6e" x="830.419922"/>
      <use xlink:href="#TimesNewRomanPSMT-64" x="880.419922"/>
      <use xlink:href="#TimesNewRomanPSMT-61" x="930.419922"/>
      <use xlink:href="#TimesNewRomanPSMT-72" x="974.804688"/>
      <use xlink:href="#TimesNewRomanPSMT-64" x="1008.105469"/>
      <use xlink:href="#TimesNewRomanPSMT-20" x="1058.105469"/>
      <use xlink:href="#TimesNewRomanPSMT-28" x="1083.105469"/>
      <use xlink:href="#TimesNewRomanPSMT-64" x="1116.40625"/>
      <use xlink:href="#TimesNewRomanPSMT-42" x="1166.40625"/>
      <use xlink:href="#TimesNewRomanPSMT-29" x="1233.105469"/>
     </g>
    </g>
   </g>
   <g id="matplotlib.axis_2">
    <g id="ytick_1">
     <g id="line2d_15">
      <defs>
       <path id="m8ede84655f" d="M 0 0 
L -2 0 
" style="stroke: #808080; stroke-width: 0.5"/>
      </defs>
      <g>
       <use xlink:href="#m8ede84655f" x="31.96625" y="85.162915" style="fill: #808080; stroke: #808080; stroke-width: 0.5"/>
      </g>
     </g>
     <g id="text_16">
      <!-- 10 -->
      <g style="fill: #262626" transform="translate(18.46625 87.940415) scale(0.08 -0.08)">
       <use xlink:href="#TimesNewRomanPSMT-31"/>
       <use xlink:href="#TimesNewRomanPSMT-30" x="50"/>
      </g>
     </g>
    </g>
    <g id="ytick_2">
     <g id="line2d_16">
      <g>
       <use xlink:href="#m8ede84655f" x="31.96625" y="71.248402" style="fill: #808080; stroke: #808080; stroke-width: 0.5"/>
      </g>
     </g>
     <g id="text_17">
      <!-- 15 -->
      <g style="fill: #262626" transform="translate(18.46625 74.025902) scale(0.08 -0.08)">
       <defs>
        <path id="TimesNewRomanPSMT-35" d="M 2778 4238 
L 2534 3706 
L 1259 3706 
L 981 3138 
Q 1809 3016 2294 2522 
Q 2709 2097 2709 1522 
Q 2709 1188 2573 903 
Q 2438 619 2231 419 
Q 2025 219 1772 97 
Q 1413 -75 1034 -75 
Q 653 -75 479 54 
Q 306 184 306 341 
Q 306 428 378 495 
Q 450 563 559 563 
Q 641 563 702 538 
Q 763 513 909 409 
Q 1144 247 1384 247 
Q 1750 247 2026 523 
Q 2303 800 2303 1197 
Q 2303 1581 2056 1914 
Q 1809 2247 1375 2428 
Q 1034 2569 447 2591 
L 1259 4238 
L 2778 4238 
z
" transform="scale(0.015625)"/>
       </defs>
       <use xlink:href="#TimesNewRomanPSMT-31"/>
       <use xlink:href="#TimesNewRomanPSMT-35" x="50"/>
      </g>
     </g>
    </g>
    <g id="ytick_3">
     <g id="line2d_17">
      <g>
       <use xlink:href="#m8ede84655f" x="31.96625" y="57.333889" style="fill: #808080; stroke: #808080; stroke-width: 0.5"/>
      </g>
     </g>
     <g id="text_18">
      <!-- 20 -->
      <g style="fill: #262626" transform="translate(18.46625 60.111389) scale(0.08 -0.08)">
       <use xlink:href="#TimesNewRomanPSMT-32"/>
       <use xlink:href="#TimesNewRomanPSMT-30" x="50"/>
      </g>
     </g>
    </g>
    <g id="ytick_4">
     <g id="line2d_18">
      <g>
       <use xlink:href="#m8ede84655f" x="31.96625" y="43.419375" style="fill: #808080; stroke: #808080; stroke-width: 0.5"/>
      </g>
     </g>
     <g id="text_19">
      <!-- 25 -->
      <g style="fill: #262626" transform="translate(18.46625 46.196875) scale(0.08 -0.08)">
       <use xlink:href="#TimesNewRomanPSMT-32"/>
       <use xlink:href="#TimesNewRomanPSMT-35" x="50"/>
      </g>
     </g>
    </g>
    <g id="ytick_5">
     <g id="line2d_19">
      <g>
       <use xlink:href="#m8ede84655f" x="31.96625" y="29.504862" style="fill: #808080; stroke: #808080; stroke-width: 0.5"/>
      </g>
     </g>
     <g id="text_20">
      <!-- 30 -->
      <g style="fill: #262626" transform="translate(18.46625 32.282362) scale(0.08 -0.08)">
       <use xlink:href="#TimesNewRomanPSMT-33"/>
       <use xlink:href="#TimesNewRomanPSMT-30" x="50"/>
      </g>
     </g>
    </g>
    <g id="ytick_6">
     <g id="line2d_20">
      <g>
       <use xlink:href="#m8ede84655f" x="31.96625" y="15.590348" style="fill: #808080; stroke: #808080; stroke-width: 0.5"/>
      </g>
     </g>
     <g id="text_21">
      <!-- 35 -->
      <g style="fill: #262626" transform="translate(18.46625 18.367848) scale(0.08 -0.08)">
       <use xlink:href="#TimesNewRomanPSMT-33"/>
       <use xlink:href="#TimesNewRomanPSMT-35" x="50"/>
      </g>
     </g>
    </g>
    <g id="text_22">
     <!-- Functional tSNR (dB) -->
     <g style="fill: #262626" transform="translate(12.755 83.129892) rotate(-90) scale(0.08 -0.08)">
      <defs>
       <path id="TimesNewRomanPSMT-46" d="M 1309 4006 
L 1309 2341 
L 2081 2341 
Q 2347 2341 2470 2458 
Q 2594 2575 2634 2922 
L 2750 2922 
L 2750 1488 
L 2634 1488 
Q 2631 1734 2570 1850 
Q 2509 1966 2401 2023 
Q 2294 2081 2081 2081 
L 1309 2081 
L 1309 750 
Q 1309 428 1350 325 
Q 1381 247 1481 191 
Q 1619 116 1769 116 
L 1922 116 
L 1922 0 
L 103 0 
L 103 116 
L 253 116 
Q 516 116 634 269 
Q 709 369 709 750 
L 709 3488 
Q 709 3809 669 3913 
Q 638 3991 541 4047 
Q 406 4122 253 4122 
L 103 4122 
L 103 4238 
L 3256 4238 
L 3297 3306 
L 3188 3306 
Q 3106 3603 2998 3742 
Q 2891 3881 2733 3943 
Q 2575 4006 2244 4006 
L 1309 4006 
z
" transform="scale(0.015625)"/>
       <path id="TimesNewRomanPSMT-75" d="M 2709 2863 
L 2709 1128 
Q 2709 631 2732 520 
Q 2756 409 2807 365 
Q 2859 322 2928 322 
Q 3025 322 3147 375 
L 3191 266 
L 2334 -88 
L 2194 -88 
L 2194 519 
Q 1825 119 1631 15 
Q 1438 -88 1222 -88 
Q 981 -88 804 51 
Q 628 191 559 409 
Q 491 628 491 1028 
L 491 2306 
Q 491 2509 447 2587 
Q 403 2666 317 2708 
Q 231 2750 6 2747 
L 6 2863 
L 1009 2863 
L 1009 947 
Q 1009 547 1148 422 
Q 1288 297 1484 297 
Q 1619 297 1789 381 
Q 1959 466 2194 703 
L 2194 2325 
Q 2194 2569 2105 2655 
Q 2016 2741 1734 2747 
L 1734 2863 
L 2709 2863 
z
" transform="scale(0.015625)"/>
      </defs>
      <use xlink:href="#TimesNewRomanPSMT-46"/>
      <use xlink:href="#TimesNewRomanPSMT-75" x="55.615234"/>
      <use xlink:href="#TimesNewRomanPSMT-6e" x="105.615234"/>
      <use xlink:href="#TimesNewRomanPSMT-63" x="155.615234"/>
      <use xlink:href="#TimesNewRomanPSMT-74" x="200"/>
      <use xlink:href="#TimesNewRomanPSMT-69" x="227.783203"/>
      <use xlink:href="#TimesNewRomanPSMT-6f" x="255.566406"/>
      <use xlink:href="#TimesNewRomanPSMT-6e" x="305.566406"/>
      <use xlink:href="#TimesNewRomanPSMT-61" x="355.566406"/>
      <use xlink:href="#TimesNewRomanPSMT-6c" x="399.951172"/>
      <use xlink:href="#TimesNewRomanPSMT-20" x="427.734375"/>
      <use xlink:href="#TimesNewRomanPSMT-74" x="452.734375"/>
      <use xlink:href="#TimesNewRomanPSMT-53" x="480.517578"/>
      <use xlink:href="#TimesNewRomanPSMT-4e" x="536.132812"/>
      <use xlink:href="#TimesNewRomanPSMT-52" x="608.349609"/>
      <use xlink:href="#TimesNewRomanPSMT-20" x="675.048828"/>
      <use xlink:href="#TimesNewRomanPSMT-28" x="700.048828"/>
      <use xlink:href="#TimesNewRomanPSMT-64" x="733.349609"/>
      <use xlink:href="#TimesNewRomanPSMT-42" x="783.349609"/>
      <use xlink:href="#TimesNewRomanPSMT-29" x="850.048828"/>
     </g>
    </g>
   </g>
   <g id="PathCollection_1">
    <defs>
     <path id="m138108720e" d="M 0 1.414214 
C 0.375054 1.414214 0.734797 1.265203 1 1 
C 1.265203 0.734797 1.414214 0.375054 1.414214 0 
C 1.414214 -0.375054 1.265203 -0.734797 1 -1 
C 0.734797 -1.265203 0.375054 -1.414214 0 -1.414214 
C -0.375054 -1.414214 -0.734797 -1.265203 -1 -1 
C -1.265203 -0.734797 -1.414214 -0.375054 -1.414214 0 
C -1.414214 0.375054 -1.265203 0.734797 -1 1 
C -0.734797 1.265203 -0.375054 1.414214 0 1.414214 
z
" style="stroke: #ffffff; stroke-opacity: 0.8; stroke-width: 0.3"/>
    </defs>
    <g clip-path="url(#p89d0e78396)">
     <use xlink:href="#m138108720e" x="109.633822" y="48.619033" style="fill: #4c72b0; fill-opacity: 0.8; stroke: #ffffff; stroke-opacity: 0.8; stroke-width: 0.3"/>
     <use xlink:href="#m138108720e" x="195.421693" y="43.99128" style="fill: #4c72b0; fill-opacity: 0.8; stroke: #ffffff; stroke-opacity: 0.8; stroke-width: 0.3"/>
     <use xlink:href="#m138108720e" x="52.443158" y="45.142926" style="fill: #4c72b0; fill-opacity: 0.8; stroke: #ffffff; stroke-opacity: 0.8; stroke-width: 0.3"/>
     <use xlink:href="#m138108720e" x="187.090801" y="17.727925" style="fill: #4c72b0; fill-opacity: 0.8; stroke: #ffffff; stroke-opacity: 0.8; stroke-width: 0.3"/>
     <use xlink:href="#m138108720e" x="127.098583" y="60.64754" style="fill: #4c72b0; fill-opacity: 0.8; stroke: #ffffff; stroke-opacity: 0.8; stroke-width: 0.3"/>
     <use xlink:href="#m138108720e" x="182.382987" y="31.741111" style="fill: #4c72b0; fill-opacity: 0.8; stroke: #ffffff; stroke-opacity: 0.8; stroke-width: 0.3"/>
     <use xlink:href="#m138108720e" x="184.839152" y="43.189691" style="fill: #4c72b0; fill-opacity: 0.8; stroke: #ffffff; stroke-opacity: 0.8; stroke-width: 0.3"/>
     <use xlink:href="#m138108720e" x="181.858848" y="34.398548" style="fill: #4c72b0; fill-opacity: 0.8; stroke: #ffffff; stroke-opacity: 0.8; stroke-width: 0.3"/>
     <use xlink:href="#m138108720e" x="175.242369" y="30.629475" style="fill: #4c72b0; fill-opacity: 0.8; stroke: #ffffff; stroke-opacity: 0.8; stroke-width: 0.3"/>
     <use xlink:href="#m138108720e" x="186.61782" y="84.701725" style="fill: #4c72b0; fill-opacity: 0.8; stroke: #ffffff; stroke-opacity: 0.8; stroke-width: 0.3"/>
     <use xlink:href="#m138108720e" x="160.073277" y="30.279768" style="fill: #4c72b0; fill-opacity: 0.8; stroke: #ffffff; stroke-opacity: 0.8; stroke-width: 0.3"/>
     <use xlink:href="#m138108720e" x="116.820362" y="41.749945" style="fill: #4c72b0; fill-opacity: 0.8; stroke: #ffffff; stroke-opacity: 0.8; stroke-width: 0.3"/>
     <use xlink:href="#m138108720e" x="170.894915" y="29.525069" style="fill: #4c72b0; fill-opacity: 0.8; stroke: #ffffff; stroke-opacity: 0.8; stroke-width: 0.3"/>
     <use xlink:href="#m138108720e" x="178.123368" y="23.334468" style="fill: #4c72b0; fill-opacity: 0.8; stroke: #ffffff; stroke-opacity: 0.8; stroke-width: 0.3"/>
     <use xlink:href="#m138108720e" x="97.402447" y="42.326145" style="fill: #4c72b0; fill-opacity: 0.8; stroke: #ffffff; stroke-opacity: 0.8; stroke-width: 0.3"/>
     <use xlink:href="#m138108720e" x="105.402263" y="43.084001" style="fill: #4c72b0; fill-opacity: 0.8; stroke: #ffffff; stroke-opacity: 0.8; stroke-width: 0.3"/>
     <use xlink:href="#m138108720e" x="41.412674" y="42.711804" style="fill: #4c72b0; fill-opacity: 0.8; stroke: #ffffff; stroke-opacity: 0.8; stroke-width: 0.3"/>
     <use xlink:href="#m138108720e" x="224.885241" y="28.60117" style="fill: #4c72b0; fill-opacity: 0.8; stroke: #ffffff; stroke-opacity: 0.8; stroke-width: 0.3"/>
     <use xlink:href="#m138108720e" x="140.628593" y="64.11915" style="fill: #4c72b0; fill-opacity: 0.8; stroke: #ffffff; stroke-opacity: 0.8; stroke-width: 0.3"/>
     <use xlink:href="#m138108720e" x="144.690658" y="41.837895" style="fill: #4c72b0; fill-opacity: 0.8; stroke: #ffffff; stroke-opacity: 0.8; stroke-width: 0.3"/>
     <use xlink:href="#m138108720e" x="157.356484" y="29.498337" style="fill: #4c72b0; fill-opacity: 0.8; stroke: #ffffff; stroke-opacity: 0.8; stroke-width: 0.3"/>
     <use xlink:href="#m138108720e" x="189.228534" y="17.624537" style="fill: #4c72b0; fill-opacity: 0.8; stroke: #ffffff; stroke-opacity: 0.8; stroke-width: 0.3"/>
     <use xlink:href="#m138108720e" x="199.897721" y="18.730848" style="fill: #4c72b0; fill-opacity: 0.8; stroke: #ffffff; stroke-opacity: 0.8; stroke-width: 0.3"/>
     <use xlink:href="#m138108720e" x="160.189876" y="30.875505" style="fill: #4c72b0; fill-opacity: 0.8; stroke: #ffffff; stroke-opacity: 0.8; stroke-width: 0.3"/>
     <use xlink:href="#m138108720e" x="179.829938" y="56.551878" style="fill: #4c72b0; fill-opacity: 0.8; stroke: #ffffff; stroke-opacity: 0.8; stroke-width: 0.3"/>
     <use xlink:href="#m138108720e" x="193.488619" y="31.554281" style="fill: #4c72b0; fill-opacity: 0.8; stroke: #ffffff; stroke-opacity: 0.8; stroke-width: 0.3"/>
     <use xlink:href="#m138108720e" x="187.920778" y="21.878576" style="fill: #4c72b0; fill-opacity: 0.8; stroke: #ffffff; stroke-opacity: 0.8; stroke-width: 0.3"/>
     <use xlink:href="#m138108720e" x="138.262397" y="32.291354" style="fill: #4c72b0; fill-opacity: 0.8; stroke: #ffffff; stroke-opacity: 0.8; stroke-width: 0.3"/>
     <use xlink:href="#m138108720e" x="180.362749" y="32.542789" style="fill: #4c72b0; fill-opacity: 0.8; stroke: #ffffff; stroke-opacity: 0.8; stroke-width: 0.3"/>
     <use xlink:href="#m138108720e" x="191.504169" y="45.094096" style="fill: #4c72b0; fill-opacity: 0.8; stroke: #ffffff; stroke-opacity: 0.8; stroke-width: 0.3"/>
     <use xlink:href="#m138108720e" x="65.116862" y="43.907066" style="fill: #4c72b0; fill-opacity: 0.8; stroke: #ffffff; stroke-opacity: 0.8; stroke-width: 0.3"/>
     <use xlink:href="#m138108720e" x="105.649365" y="44.040585" style="fill: #4c72b0; fill-opacity: 0.8; stroke: #ffffff; stroke-opacity: 0.8; stroke-width: 0.3"/>
     <use xlink:href="#m138108720e" x="169.559856" y="31.606948" style="fill: #4c72b0; fill-opacity: 0.8; stroke: #ffffff; stroke-opacity: 0.8; stroke-width: 0.3"/>
     <use xlink:href="#m138108720e" x="196.078572" y="31.60001" style="fill: #4c72b0; fill-opacity: 0.8; stroke: #ffffff; stroke-opacity: 0.8; stroke-width: 0.3"/>
     <use xlink:href="#m138108720e" x="80.076902" y="46.355517" style="fill: #4c72b0; fill-opacity: 0.8; stroke: #ffffff; stroke-opacity: 0.8; stroke-width: 0.3"/>
     <use xlink:href="#m138108720e" x="187.199831" y="31.434308" style="fill: #4c72b0; fill-opacity: 0.8; stroke: #ffffff; stroke-opacity: 0.8; stroke-width: 0.3"/>
     <use xlink:href="#m138108720e" x="177.249066" y="45.400053" style="fill: #4c72b0; fill-opacity: 0.8; stroke: #ffffff; stroke-opacity: 0.8; stroke-width: 0.3"/>
     <use xlink:href="#m138108720e" x="166.717008" y="33.163763" style="fill: #4c72b0; fill-opacity: 0.8; stroke: #ffffff; stroke-opacity: 0.8; stroke-width: 0.3"/>
     <use xlink:href="#m138108720e" x="136.973698" y="62.260751" style="fill: #4c72b0; fill-opacity: 0.8; stroke: #ffffff; stroke-opacity: 0.8; stroke-width: 0.3"/>
     <use xlink:href="#m138108720e" x="176.818701" y="41.954087" style="fill: #4c72b0; fill-opacity: 0.8; stroke: #ffffff; stroke-opacity: 0.8; stroke-width: 0.3"/>
     <use xlink:href="#m138108720e" x="205.78344" y="23.611218" style="fill: #4c72b0; fill-opacity: 0.8; stroke: #ffffff; stroke-opacity: 0.8; stroke-width: 0.3"/>
     <use xlink:href="#m138108720e" x="175.16843" y="41.424533" style="fill: #4c72b0; fill-opacity: 0.8; stroke: #ffffff; stroke-opacity: 0.8; stroke-width: 0.3"/>
     <use xlink:href="#m138108720e" x="100.97272" y="43.298901" style="fill: #4c72b0; fill-opacity: 0.8; stroke: #ffffff; stroke-opacity: 0.8; stroke-width: 0.3"/>
     <use xlink:href="#m138108720e" x="170.771481" y="30.726549" style="fill: #4c72b0; fill-opacity: 0.8; stroke: #ffffff; stroke-opacity: 0.8; stroke-width: 0.3"/>
     <use xlink:href="#m138108720e" x="59.762661" y="44.204157" style="fill: #4c72b0; fill-opacity: 0.8; stroke: #ffffff; stroke-opacity: 0.8; stroke-width: 0.3"/>
     <use xlink:href="#m138108720e" x="198.598316" y="28.155374" style="fill: #4c72b0; fill-opacity: 0.8; stroke: #ffffff; stroke-opacity: 0.8; stroke-width: 0.3"/>
     <use xlink:href="#m138108720e" x="104.836149" y="43.542569" style="fill: #4c72b0; fill-opacity: 0.8; stroke: #ffffff; stroke-opacity: 0.8; stroke-width: 0.3"/>
     <use xlink:href="#m138108720e" x="167.672552" y="33.978892" style="fill: #4c72b0; fill-opacity: 0.8; stroke: #ffffff; stroke-opacity: 0.8; stroke-width: 0.3"/>
     <use xlink:href="#m138108720e" x="89.128956" y="45.651187" style="fill: #4c72b0; fill-opacity: 0.8; stroke: #ffffff; stroke-opacity: 0.8; stroke-width: 0.3"/>
     <use xlink:href="#m138108720e" x="163.306737" y="38.03587" style="fill: #4c72b0; fill-opacity: 0.8; stroke: #ffffff; stroke-opacity: 0.8; stroke-width: 0.3"/>
     <use xlink:href="#m138108720e" x="71.085312" y="46.886341" style="fill: #4c72b0; fill-opacity: 0.8; stroke: #ffffff; stroke-opacity: 0.8; stroke-width: 0.3"/>
     <use xlink:href="#m138108720e" x="152.593446" y="32.152245" style="fill: #4c72b0; fill-opacity: 0.8; stroke: #ffffff; stroke-opacity: 0.8; stroke-width: 0.3"/>
     <use xlink:href="#m138108720e" x="134.786348" y="34.619246" style="fill: #4c72b0; fill-opacity: 0.8; stroke: #ffffff; stroke-opacity: 0.8; stroke-width: 0.3"/>
     <use xlink:href="#m138108720e" x="180.360276" y="40.219319" style="fill: #4c72b0; fill-opacity: 0.8; stroke: #ffffff; stroke-opacity: 0.8; stroke-width: 0.3"/>
     <use xlink:href="#m138108720e" x="194.799266" y="21.410451" style="fill: #4c72b0; fill-opacity: 0.8; stroke: #ffffff; stroke-opacity: 0.8; stroke-width: 0.3"/>
     <use xlink:href="#m138108720e" x="97.361893" y="41.403129" style="fill: #4c72b0; fill-opacity: 0.8; stroke: #ffffff; stroke-opacity: 0.8; stroke-width: 0.3"/>
     <use xlink:href="#m138108720e" x="171.182878" y="42.863975" style="fill: #4c72b0; fill-opacity: 0.8; stroke: #ffffff; stroke-opacity: 0.8; stroke-width: 0.3"/>
     <use xlink:href="#m138108720e" x="204.041092" y="20.578255" style="fill: #4c72b0; fill-opacity: 0.8; stroke: #ffffff; stroke-opacity: 0.8; stroke-width: 0.3"/>
     <use xlink:href="#m138108720e" x="84.263273" y="41.495007" style="fill: #4c72b0; fill-opacity: 0.8; stroke: #ffffff; stroke-opacity: 0.8; stroke-width: 0.3"/>
     <use xlink:href="#m138108720e" x="179.085651" y="31.53" style="fill: #4c72b0; fill-opacity: 0.8; stroke: #ffffff; stroke-opacity: 0.8; stroke-width: 0.3"/>
     <use xlink:href="#m138108720e" x="184.382414" y="37.037675" style="fill: #4c72b0; fill-opacity: 0.8; stroke: #ffffff; stroke-opacity: 0.8; stroke-width: 0.3"/>
     <use xlink:href="#m138108720e" x="185.683495" y="40.732521" style="fill: #4c72b0; fill-opacity: 0.8; stroke: #ffffff; stroke-opacity: 0.8; stroke-width: 0.3"/>
     <use xlink:href="#m138108720e" x="148.909293" y="33.98197" style="fill: #4c72b0; fill-opacity: 0.8; stroke: #ffffff; stroke-opacity: 0.8; stroke-width: 0.3"/>
     <use xlink:href="#m138108720e" x="190.010422" y="37.107006" style="fill: #4c72b0; fill-opacity: 0.8; stroke: #ffffff; stroke-opacity: 0.8; stroke-width: 0.3"/>
     <use xlink:href="#m138108720e" x="205.060547" y="32.640633" style="fill: #4c72b0; fill-opacity: 0.8; stroke: #ffffff; stroke-opacity: 0.8; stroke-width: 0.3"/>
     <use xlink:href="#m138108720e" x="190.272464" y="31.254464" style="fill: #4c72b0; fill-opacity: 0.8; stroke: #ffffff; stroke-opacity: 0.8; stroke-width: 0.3"/>
     <use xlink:href="#m138108720e" x="161.05547" y="33.112277" style="fill: #4c72b0; fill-opacity: 0.8; stroke: #ffffff; stroke-opacity: 0.8; stroke-width: 0.3"/>
     <use xlink:href="#m138108720e" x="200.060225" y="25.216016" style="fill: #4c72b0; fill-opacity: 0.8; stroke: #ffffff; stroke-opacity: 0.8; stroke-width: 0.3"/>
     <use xlink:href="#m138108720e" x="177.165668" y="24.286297" style="fill: #4c72b0; fill-opacity: 0.8; stroke: #ffffff; stroke-opacity: 0.8; stroke-width: 0.3"/>
     <use xlink:href="#m138108720e" x="95.943839" y="44.477046" style="fill: #4c72b0; fill-opacity: 0.8; stroke: #ffffff; stroke-opacity: 0.8; stroke-width: 0.3"/>
     <use xlink:href="#m138108720e" x="157.240308" y="26.354777" style="fill: #4c72b0; fill-opacity: 0.8; stroke: #ffffff; stroke-opacity: 0.8; stroke-width: 0.3"/>
     <use xlink:href="#m138108720e" x="160.066993" y="27.380904" style="fill: #4c72b0; fill-opacity: 0.8; stroke: #ffffff; stroke-opacity: 0.8; stroke-width: 0.3"/>
     <use xlink:href="#m138108720e" x="182.363022" y="19.727751" style="fill: #4c72b0; fill-opacity: 0.8; stroke: #ffffff; stroke-opacity: 0.8; stroke-width: 0.3"/>
     <use xlink:href="#m138108720e" x="133.117486" y="44.659069" style="fill: #4c72b0; fill-opacity: 0.8; stroke: #ffffff; stroke-opacity: 0.8; stroke-width: 0.3"/>
     <use xlink:href="#m138108720e" x="171.127923" y="36.331859" style="fill: #4c72b0; fill-opacity: 0.8; stroke: #ffffff; stroke-opacity: 0.8; stroke-width: 0.3"/>
     <use xlink:href="#m138108720e" x="160.536032" y="32.434484" style="fill: #4c72b0; fill-opacity: 0.8; stroke: #ffffff; stroke-opacity: 0.8; stroke-width: 0.3"/>
     <use xlink:href="#m138108720e" x="84.555076" y="43.452854" style="fill: #4c72b0; fill-opacity: 0.8; stroke: #ffffff; stroke-opacity: 0.8; stroke-width: 0.3"/>
     <use xlink:href="#m138108720e" x="222.466771" y="33.150791" style="fill: #4c72b0; fill-opacity: 0.8; stroke: #ffffff; stroke-opacity: 0.8; stroke-width: 0.3"/>
     <use xlink:href="#m138108720e" x="189.012729" y="26.833399" style="fill: #4c72b0; fill-opacity: 0.8; stroke: #ffffff; stroke-opacity: 0.8; stroke-width: 0.3"/>
     <use xlink:href="#m138108720e" x="79.087799" y="44.724517" style="fill: #4c72b0; fill-opacity: 0.8; stroke: #ffffff; stroke-opacity: 0.8; stroke-width: 0.3"/>
     <use xlink:href="#m138108720e" x="179.746823" y="22.95789" style="fill: #4c72b0; fill-opacity: 0.8; stroke: #ffffff; stroke-opacity: 0.8; stroke-width: 0.3"/>
     <use xlink:href="#m138108720e" x="161.67617" y="32.677634" style="fill: #4c72b0; fill-opacity: 0.8; stroke: #ffffff; stroke-opacity: 0.8; stroke-width: 0.3"/>
     <use xlink:href="#m138108720e" x="201.525833" y="30.567153" style="fill: #4c72b0; fill-opacity: 0.8; stroke: #ffffff; stroke-opacity: 0.8; stroke-width: 0.3"/>
     <use xlink:href="#m138108720e" x="149.527114" y="46.658777" style="fill: #4c72b0; fill-opacity: 0.8; stroke: #ffffff; stroke-opacity: 0.8; stroke-width: 0.3"/>
     <use xlink:href="#m138108720e" x="175.343219" y="31.673616" style="fill: #4c72b0; fill-opacity: 0.8; stroke: #ffffff; stroke-opacity: 0.8; stroke-width: 0.3"/>
     <use xlink:href="#m138108720e" x="219.496016" y="39.780558" style="fill: #4c72b0; fill-opacity: 0.8; stroke: #ffffff; stroke-opacity: 0.8; stroke-width: 0.3"/>
     <use xlink:href="#m138108720e" x="134.730216" y="33.999628" style="fill: #4c72b0; fill-opacity: 0.8; stroke: #ffffff; stroke-opacity: 0.8; stroke-width: 0.3"/>
     <use xlink:href="#m138108720e" x="148.105017" y="52.19211" style="fill: #4c72b0; fill-opacity: 0.8; stroke: #ffffff; stroke-opacity: 0.8; stroke-width: 0.3"/>
     <use xlink:href="#m138108720e" x="176.738049" y="23.772192" style="fill: #4c72b0; fill-opacity: 0.8; stroke: #ffffff; stroke-opacity: 0.8; stroke-width: 0.3"/>
     <use xlink:href="#m138108720e" x="187.674661" y="35.096822" style="fill: #4c72b0; fill-opacity: 0.8; stroke: #ffffff; stroke-opacity: 0.8; stroke-width: 0.3"/>
     <use xlink:href="#m138108720e" x="120.836179" y="63.200914" style="fill: #4c72b0; fill-opacity: 0.8; stroke: #ffffff; stroke-opacity: 0.8; stroke-width: 0.3"/>
     <use xlink:href="#m138108720e" x="164.961518" y="48.930322" style="fill: #4c72b0; fill-opacity: 0.8; stroke: #ffffff; stroke-opacity: 0.8; stroke-width: 0.3"/>
     <use xlink:href="#m138108720e" x="168.371255" y="31.751508" style="fill: #4c72b0; fill-opacity: 0.8; stroke: #ffffff; stroke-opacity: 0.8; stroke-width: 0.3"/>
     <use xlink:href="#m138108720e" x="178.468677" y="33.493952" style="fill: #4c72b0; fill-opacity: 0.8; stroke: #ffffff; stroke-opacity: 0.8; stroke-width: 0.3"/>
     <use xlink:href="#m138108720e" x="134.371191" y="69.263826" style="fill: #4c72b0; fill-opacity: 0.8; stroke: #ffffff; stroke-opacity: 0.8; stroke-width: 0.3"/>
     <use xlink:href="#m138108720e" x="171.102927" y="24.064383" style="fill: #4c72b0; fill-opacity: 0.8; stroke: #ffffff; stroke-opacity: 0.8; stroke-width: 0.3"/>
     <use xlink:href="#m138108720e" x="122.910195" y="65.378029" style="fill: #4c72b0; fill-opacity: 0.8; stroke: #ffffff; stroke-opacity: 0.8; stroke-width: 0.3"/>
     <use xlink:href="#m138108720e" x="133.581146" y="74.965866" style="fill: #4c72b0; fill-opacity: 0.8; stroke: #ffffff; stroke-opacity: 0.8; stroke-width: 0.3"/>
     <use xlink:href="#m138108720e" x="133.598475" y="78.820022" style="fill: #4c72b0; fill-opacity: 0.8; stroke: #ffffff; stroke-opacity: 0.8; stroke-width: 0.3"/>
     <use xlink:href="#m138108720e" x="170.238519" y="22.134768" style="fill: #4c72b0; fill-opacity: 0.8; stroke: #ffffff; stroke-opacity: 0.8; stroke-width: 0.3"/>
     <use xlink:href="#m138108720e" x="173.292265" y="35.676075" style="fill: #4c72b0; fill-opacity: 0.8; stroke: #ffffff; stroke-opacity: 0.8; stroke-width: 0.3"/>
     <use xlink:href="#m138108720e" x="182.470726" y="23.934177" style="fill: #4c72b0; fill-opacity: 0.8; stroke: #ffffff; stroke-opacity: 0.8; stroke-width: 0.3"/>
     <use xlink:href="#m138108720e" x="181.140207" y="44.345733" style="fill: #4c72b0; fill-opacity: 0.8; stroke: #ffffff; stroke-opacity: 0.8; stroke-width: 0.3"/>
     <use xlink:href="#m138108720e" x="99.750616" y="45.292012" style="fill: #4c72b0; fill-opacity: 0.8; stroke: #ffffff; stroke-opacity: 0.8; stroke-width: 0.3"/>
     <use xlink:href="#m138108720e" x="158.097813" y="33.437286" style="fill: #4c72b0; fill-opacity: 0.8; stroke: #ffffff; stroke-opacity: 0.8; stroke-width: 0.3"/>
     <use xlink:href="#m138108720e" x="143.574331" y="37.314822" style="fill: #4c72b0; fill-opacity: 0.8; stroke: #ffffff; stroke-opacity: 0.8; stroke-width: 0.3"/>
     <use xlink:href="#m138108720e" x="143.912539" y="36.489476" style="fill: #4c72b0; fill-opacity: 0.8; stroke: #ffffff; stroke-opacity: 0.8; stroke-width: 0.3"/>
     <use xlink:href="#m138108720e" x="190.520841" y="27.857769" style="fill: #4c72b0; fill-opacity: 0.8; stroke: #ffffff; stroke-opacity: 0.8; stroke-width: 0.3"/>
     <use xlink:href="#m138108720e" x="102.721404" y="44.268115" style="fill: #4c72b0; fill-opacity: 0.8; stroke: #ffffff; stroke-opacity: 0.8; stroke-width: 0.3"/>
     <use xlink:href="#m138108720e" x="171.539474" y="30.386717" style="fill: #4c72b0; fill-opacity: 0.8; stroke: #ffffff; stroke-opacity: 0.8; stroke-width: 0.3"/>
     <use xlink:href="#m138108720e" x="161.918025" y="36.225648" style="fill: #4c72b0; fill-opacity: 0.8; stroke: #ffffff; stroke-opacity: 0.8; stroke-width: 0.3"/>
     <use xlink:href="#m138108720e" x="60.456331" y="42.244062" style="fill: #4c72b0; fill-opacity: 0.8; stroke: #ffffff; stroke-opacity: 0.8; stroke-width: 0.3"/>
     <use xlink:href="#m138108720e" x="81.355431" y="43.133141" style="fill: #4c72b0; fill-opacity: 0.8; stroke: #ffffff; stroke-opacity: 0.8; stroke-width: 0.3"/>
     <use xlink:href="#m138108720e" x="230.341164" y="31.213778" style="fill: #4c72b0; fill-opacity: 0.8; stroke: #ffffff; stroke-opacity: 0.8; stroke-width: 0.3"/>
     <use xlink:href="#m138108720e" x="226.480949" y="41.079923" style="fill: #4c72b0; fill-opacity: 0.8; stroke: #ffffff; stroke-opacity: 0.8; stroke-width: 0.3"/>
     <use xlink:href="#m138108720e" x="157.044801" y="31.323805" style="fill: #4c72b0; fill-opacity: 0.8; stroke: #ffffff; stroke-opacity: 0.8; stroke-width: 0.3"/>
     <use xlink:href="#m138108720e" x="186.58211" y="25.341908" style="fill: #4c72b0; fill-opacity: 0.8; stroke: #ffffff; stroke-opacity: 0.8; stroke-width: 0.3"/>
     <use xlink:href="#m138108720e" x="173.081099" y="27.164358" style="fill: #4c72b0; fill-opacity: 0.8; stroke: #ffffff; stroke-opacity: 0.8; stroke-width: 0.3"/>
     <use xlink:href="#m138108720e" x="151.050114" y="33.222892" style="fill: #4c72b0; fill-opacity: 0.8; stroke: #ffffff; stroke-opacity: 0.8; stroke-width: 0.3"/>
     <use xlink:href="#m138108720e" x="95.462685" y="73.072041" style="fill: #4c72b0; fill-opacity: 0.8; stroke: #ffffff; stroke-opacity: 0.8; stroke-width: 0.3"/>
     <use xlink:href="#m138108720e" x="190.496934" y="30.440416" style="fill: #4c72b0; fill-opacity: 0.8; stroke: #ffffff; stroke-opacity: 0.8; stroke-width: 0.3"/>
     <use xlink:href="#m138108720e" x="59.324061" y="43.194857" style="fill: #4c72b0; fill-opacity: 0.8; stroke: #ffffff; stroke-opacity: 0.8; stroke-width: 0.3"/>
     <use xlink:href="#m138108720e" x="195.483818" y="45.075596" style="fill: #4c72b0; fill-opacity: 0.8; stroke: #ffffff; stroke-opacity: 0.8; stroke-width: 0.3"/>
     <use xlink:href="#m138108720e" x="64.624934" y="44.961433" style="fill: #4c72b0; fill-opacity: 0.8; stroke: #ffffff; stroke-opacity: 0.8; stroke-width: 0.3"/>
     <use xlink:href="#m138108720e" x="146.106112" y="38.223978" style="fill: #4c72b0; fill-opacity: 0.8; stroke: #ffffff; stroke-opacity: 0.8; stroke-width: 0.3"/>
     <use xlink:href="#m138108720e" x="117.823707" y="64.295779" style="fill: #4c72b0; fill-opacity: 0.8; stroke: #ffffff; stroke-opacity: 0.8; stroke-width: 0.3"/>
     <use xlink:href="#m138108720e" x="152.214628" y="36.649645" style="fill: #4c72b0; fill-opacity: 0.8; stroke: #ffffff; stroke-opacity: 0.8; stroke-width: 0.3"/>
     <use xlink:href="#m138108720e" x="143.232144" y="35.49899" style="fill: #4c72b0; fill-opacity: 0.8; stroke: #ffffff; stroke-opacity: 0.8; stroke-width: 0.3"/>
     <use xlink:href="#m138108720e" x="131.715299" y="40.020489" style="fill: #4c72b0; fill-opacity: 0.8; stroke: #ffffff; stroke-opacity: 0.8; stroke-width: 0.3"/>
     <use xlink:href="#m138108720e" x="147.64765" y="32.267894" style="fill: #4c72b0; fill-opacity: 0.8; stroke: #ffffff; stroke-opacity: 0.8; stroke-width: 0.3"/>
     <use xlink:href="#m138108720e" x="174.719186" y="21.750573" style="fill: #4c72b0; fill-opacity: 0.8; stroke: #ffffff; stroke-opacity: 0.8; stroke-width: 0.3"/>
     <use xlink:href="#m138108720e" x="200.291576" y="19.200997" style="fill: #4c72b0; fill-opacity: 0.8; stroke: #ffffff; stroke-opacity: 0.8; stroke-width: 0.3"/>
     <use xlink:href="#m138108720e" x="189.103421" y="25.90624" style="fill: #4c72b0; fill-opacity: 0.8; stroke: #ffffff; stroke-opacity: 0.8; stroke-width: 0.3"/>
     <use xlink:href="#m138108720e" x="186.033026" y="31.600425" style="fill: #4c72b0; fill-opacity: 0.8; stroke: #ffffff; stroke-opacity: 0.8; stroke-width: 0.3"/>
     <use xlink:href="#m138108720e" x="183.357818" y="18.091091" style="fill: #4c72b0; fill-opacity: 0.8; stroke: #ffffff; stroke-opacity: 0.8; stroke-width: 0.3"/>
     <use xlink:href="#m138108720e" x="172.546234" y="49.848601" style="fill: #4c72b0; fill-opacity: 0.8; stroke: #ffffff; stroke-opacity: 0.8; stroke-width: 0.3"/>
     <use xlink:href="#m138108720e" x="178.042331" y="47.826258" style="fill: #4c72b0; fill-opacity: 0.8; stroke: #ffffff; stroke-opacity: 0.8; stroke-width: 0.3"/>
     <use xlink:href="#m138108720e" x="148.278309" y="27.911324" style="fill: #4c72b0; fill-opacity: 0.8; stroke: #ffffff; stroke-opacity: 0.8; stroke-width: 0.3"/>
     <use xlink:href="#m138108720e" x="185.618873" y="43.05758" style="fill: #4c72b0; fill-opacity: 0.8; stroke: #ffffff; stroke-opacity: 0.8; stroke-width: 0.3"/>
     <use xlink:href="#m138108720e" x="126.143324" y="42.770673" style="fill: #4c72b0; fill-opacity: 0.8; stroke: #ffffff; stroke-opacity: 0.8; stroke-width: 0.3"/>
     <use xlink:href="#m138108720e" x="179.632537" y="32.357182" style="fill: #4c72b0; fill-opacity: 0.8; stroke: #ffffff; stroke-opacity: 0.8; stroke-width: 0.3"/>
     <use xlink:href="#m138108720e" x="137.06849" y="62.929839" style="fill: #4c72b0; fill-opacity: 0.8; stroke: #ffffff; stroke-opacity: 0.8; stroke-width: 0.3"/>
     <use xlink:href="#m138108720e" x="194.768367" y="34.130694" style="fill: #4c72b0; fill-opacity: 0.8; stroke: #ffffff; stroke-opacity: 0.8; stroke-width: 0.3"/>
     <use xlink:href="#m138108720e" x="199.390844" y="34.610691" style="fill: #4c72b0; fill-opacity: 0.8; stroke: #ffffff; stroke-opacity: 0.8; stroke-width: 0.3"/>
     <use xlink:href="#m138108720e" x="190.229737" y="21.558321" style="fill: #4c72b0; fill-opacity: 0.8; stroke: #ffffff; stroke-opacity: 0.8; stroke-width: 0.3"/>
     <use xlink:href="#m138108720e" x="105.906498" y="46.243171" style="fill: #4c72b0; fill-opacity: 0.8; stroke: #ffffff; stroke-opacity: 0.8; stroke-width: 0.3"/>
     <use xlink:href="#m138108720e" x="147.871454" y="41.167667" style="fill: #4c72b0; fill-opacity: 0.8; stroke: #ffffff; stroke-opacity: 0.8; stroke-width: 0.3"/>
     <use xlink:href="#m138108720e" x="162.510372" y="59.545641" style="fill: #4c72b0; fill-opacity: 0.8; stroke: #ffffff; stroke-opacity: 0.8; stroke-width: 0.3"/>
     <use xlink:href="#m138108720e" x="153.337589" y="35.412927" style="fill: #4c72b0; fill-opacity: 0.8; stroke: #ffffff; stroke-opacity: 0.8; stroke-width: 0.3"/>
     <use xlink:href="#m138108720e" x="185.634946" y="47.406844" style="fill: #4c72b0; fill-opacity: 0.8; stroke: #ffffff; stroke-opacity: 0.8; stroke-width: 0.3"/>
     <use xlink:href="#m138108720e" x="165.752537" y="32.971404" style="fill: #4c72b0; fill-opacity: 0.8; stroke: #ffffff; stroke-opacity: 0.8; stroke-width: 0.3"/>
     <use xlink:href="#m138108720e" x="167.386623" y="35.21611" style="fill: #4c72b0; fill-opacity: 0.8; stroke: #ffffff; stroke-opacity: 0.8; stroke-width: 0.3"/>
     <use xlink:href="#m138108720e" x="199.676249" y="10.890558" style="fill: #4c72b0; fill-opacity: 0.8; stroke: #ffffff; stroke-opacity: 0.8; stroke-width: 0.3"/>
     <use xlink:href="#m138108720e" x="133.995031" y="75.750859" style="fill: #4c72b0; fill-opacity: 0.8; stroke: #ffffff; stroke-opacity: 0.8; stroke-width: 0.3"/>
     <use xlink:href="#m138108720e" x="161.455699" y="31.797644" style="fill: #4c72b0; fill-opacity: 0.8; stroke: #ffffff; stroke-opacity: 0.8; stroke-width: 0.3"/>
     <use xlink:href="#m138108720e" x="147.23665" y="44.891301" style="fill: #4c72b0; fill-opacity: 0.8; stroke: #ffffff; stroke-opacity: 0.8; stroke-width: 0.3"/>
     <use xlink:href="#m138108720e" x="166.731491" y="50.758581" style="fill: #4c72b0; fill-opacity: 0.8; stroke: #ffffff; stroke-opacity: 0.8; stroke-width: 0.3"/>
     <use xlink:href="#m138108720e" x="179.580922" y="37.996109" style="fill: #4c72b0; fill-opacity: 0.8; stroke: #ffffff; stroke-opacity: 0.8; stroke-width: 0.3"/>
     <use xlink:href="#m138108720e" x="180.592784" y="30.460106" style="fill: #4c72b0; fill-opacity: 0.8; stroke: #ffffff; stroke-opacity: 0.8; stroke-width: 0.3"/>
     <use xlink:href="#m138108720e" x="113.588689" y="43.013988" style="fill: #4c72b0; fill-opacity: 0.8; stroke: #ffffff; stroke-opacity: 0.8; stroke-width: 0.3"/>
     <use xlink:href="#m138108720e" x="147.11582" y="43.795241" style="fill: #4c72b0; fill-opacity: 0.8; stroke: #ffffff; stroke-opacity: 0.8; stroke-width: 0.3"/>
     <use xlink:href="#m138108720e" x="196.700108" y="19.075519" style="fill: #4c72b0; fill-opacity: 0.8; stroke: #ffffff; stroke-opacity: 0.8; stroke-width: 0.3"/>
     <use xlink:href="#m138108720e" x="186.599971" y="22.522028" style="fill: #4c72b0; fill-opacity: 0.8; stroke: #ffffff; stroke-opacity: 0.8; stroke-width: 0.3"/>
     <use xlink:href="#m138108720e" x="162.982318" y="29.385192" style="fill: #4c72b0; fill-opacity: 0.8; stroke: #ffffff; stroke-opacity: 0.8; stroke-width: 0.3"/>
     <use xlink:href="#m138108720e" x="106.178988" y="41.234035" style="fill: #4c72b0; fill-opacity: 0.8; stroke: #ffffff; stroke-opacity: 0.8; stroke-width: 0.3"/>
     <use xlink:href="#m138108720e" x="141.681453" y="57.215968" style="fill: #4c72b0; fill-opacity: 0.8; stroke: #ffffff; stroke-opacity: 0.8; stroke-width: 0.3"/>
     <use xlink:href="#m138108720e" x="176.369323" y="33.972436" style="fill: #4c72b0; fill-opacity: 0.8; stroke: #ffffff; stroke-opacity: 0.8; stroke-width: 0.3"/>
     <use xlink:href="#m138108720e" x="197.386934" y="42.930057" style="fill: #4c72b0; fill-opacity: 0.8; stroke: #ffffff; stroke-opacity: 0.8; stroke-width: 0.3"/>
     <use xlink:href="#m138108720e" x="79.574847" y="44.565374" style="fill: #4c72b0; fill-opacity: 0.8; stroke: #ffffff; stroke-opacity: 0.8; stroke-width: 0.3"/>
     <use xlink:href="#m138108720e" x="169.354965" y="41.123312" style="fill: #4c72b0; fill-opacity: 0.8; stroke: #ffffff; stroke-opacity: 0.8; stroke-width: 0.3"/>
    </g>
   </g>
   <g id="PolyCollection_1">
    <defs>
     <path id="m0a0c6e5eb4" d="M 41.412674 -70.527088 
L 41.412674 -55.285515 
L 43.321043 -55.701935 
L 45.229412 -56.118355 
L 47.13778 -56.534774 
L 49.046149 -56.951194 
L 50.954517 -57.367614 
L 52.862886 -57.784033 
L 54.771255 -58.200453 
L 56.679623 -58.616873 
L 58.587992 -59.033292 
L 60.49636 -59.449712 
L 62.404729 -59.866132 
L 64.313097 -60.282551 
L 66.221466 -60.698971 
L 68.129835 -61.115391 
L 70.038203 -61.53181 
L 71.946572 -61.94823 
L 73.85494 -62.36465 
L 75.763309 -62.781069 
L 77.671678 -63.197489 
L 79.580046 -63.613909 
L 81.488415 -64.030328 
L 83.396783 -64.446748 
L 85.305152 -64.863168 
L 87.21352 -65.279587 
L 89.121889 -65.696007 
L 91.030258 -66.112427 
L 92.938626 -66.528846 
L 94.846995 -66.945266 
L 96.755363 -67.361685 
L 98.663732 -67.778105 
L 100.572101 -68.194525 
L 102.480469 -68.610944 
L 104.388838 -69.027364 
L 106.297206 -69.443784 
L 108.205575 -69.860203 
L 110.113943 -70.276623 
L 112.022312 -70.693043 
L 113.930681 -71.109462 
L 115.839049 -71.525882 
L 117.747418 -71.942302 
L 119.655786 -72.358721 
L 121.564155 -72.775141 
L 123.472524 -73.191561 
L 125.380892 -73.60798 
L 127.289261 -74.0244 
L 129.197629 -74.44082 
L 131.105998 -74.811239 
L 133.014366 -75.118972 
L 134.922735 -75.426704 
L 136.831104 -75.734437 
L 138.739472 -76.04217 
L 140.647841 -76.349902 
L 142.556209 -76.657635 
L 144.464578 -76.965368 
L 146.372946 -77.252657 
L 148.281315 -77.463072 
L 150.189684 -77.673486 
L 152.098052 -77.8839 
L 154.006421 -78.094315 
L 155.914789 -78.304729 
L 157.823158 -78.515143 
L 159.731527 -78.725558 
L 161.639895 -78.935972 
L 163.548264 -79.146386 
L 165.456632 -79.3568 
L 167.365001 -79.567215 
L 169.273369 -79.777629 
L 171.181738 -79.988043 
L 173.090107 -80.198458 
L 174.998475 -80.408872 
L 176.906844 -80.619286 
L 178.815212 -80.829701 
L 180.723581 -81.040115 
L 182.63195 -81.250529 
L 184.540318 -81.460944 
L 186.448687 -81.671358 
L 188.357055 -81.881772 
L 190.265424 -82.092187 
L 192.173792 -82.302601 
L 194.082161 -82.513015 
L 195.99053 -82.72343 
L 197.898898 -82.933844 
L 199.807267 -83.144258 
L 201.715635 -83.354673 
L 203.624004 -83.565087 
L 205.532373 -83.775501 
L 207.440741 -83.985916 
L 209.34911 -84.19633 
L 211.257478 -84.406744 
L 213.165847 -84.617158 
L 215.074215 -84.827573 
L 216.982584 -85.037987 
L 218.890953 -85.248401 
L 220.799321 -85.458816 
L 222.70769 -85.66923 
L 224.616058 -85.879644 
L 226.524427 -86.090059 
L 228.432796 -86.300473 
L 230.341164 -86.510887 
L 230.341164 -96.857973 
L 230.341164 -96.857973 
L 228.432796 -96.482195 
L 226.524427 -96.106417 
L 224.616058 -95.730639 
L 222.70769 -95.354862 
L 220.799321 -94.979084 
L 218.890953 -94.603306 
L 216.982584 -94.227528 
L 215.074215 -93.85175 
L 213.165847 -93.475972 
L 211.257478 -93.100194 
L 209.34911 -92.729323 
L 207.440741 -92.371814 
L 205.532373 -92.014306 
L 203.624004 -91.656797 
L 201.715635 -91.327432 
L 199.807267 -91.009042 
L 197.898898 -90.690653 
L 195.99053 -90.372264 
L 194.082161 -90.053875 
L 192.173792 -89.735486 
L 190.265424 -89.417096 
L 188.357055 -89.098707 
L 186.448687 -88.780318 
L 184.540318 -88.461929 
L 182.63195 -88.143539 
L 180.723581 -87.82515 
L 178.815212 -87.506761 
L 176.906844 -87.188372 
L 174.998475 -86.869982 
L 173.090107 -86.551593 
L 171.181738 -86.233204 
L 169.273369 -85.914815 
L 167.365001 -85.596426 
L 165.456632 -85.278036 
L 163.548264 -84.991979 
L 161.639895 -84.724064 
L 159.731527 -84.456149 
L 157.823158 -84.188234 
L 155.914789 -83.920319 
L 154.006421 -83.652404 
L 152.098052 -83.384489 
L 150.189684 -83.116574 
L 148.281315 -82.848659 
L 146.372946 -82.580745 
L 144.464578 -82.31283 
L 142.556209 -82.044915 
L 140.647841 -81.777 
L 138.739472 -81.509085 
L 136.831104 -81.24117 
L 134.922735 -80.973255 
L 133.014366 -80.70534 
L 131.105998 -80.437425 
L 129.197629 -80.16951 
L 127.289261 -79.914453 
L 125.380892 -79.677838 
L 123.472524 -79.441223 
L 121.564155 -79.204608 
L 119.655786 -78.967993 
L 117.747418 -78.731377 
L 115.839049 -78.494762 
L 113.930681 -78.258147 
L 112.022312 -78.021532 
L 110.113943 -77.784917 
L 108.205575 -77.548301 
L 106.297206 -77.315186 
L 104.388838 -77.115536 
L 102.480469 -76.915886 
L 100.572101 -76.716237 
L 98.663732 -76.516587 
L 96.755363 -76.316937 
L 94.846995 -76.117287 
L 92.938626 -75.917637 
L 91.030258 -75.717987 
L 89.121889 -75.518337 
L 87.21352 -75.318687 
L 85.305152 -75.119037 
L 83.396783 -74.919387 
L 81.488415 -74.719737 
L 79.580046 -74.520087 
L 77.671678 -74.320437 
L 75.763309 -74.120787 
L 73.85494 -73.921137 
L 71.946572 -73.721487 
L 70.038203 -73.521837 
L 68.129835 -73.322188 
L 66.221466 -73.122538 
L 64.313097 -72.922888 
L 62.404729 -72.723238 
L 60.49636 -72.523588 
L 58.587992 -72.323938 
L 56.679623 -72.124288 
L 54.771255 -71.924638 
L 52.862886 -71.724988 
L 50.954517 -71.525338 
L 49.046149 -71.325688 
L 47.13778 -71.126038 
L 45.229412 -70.926388 
L 43.321043 -70.726738 
L 41.412674 -70.527088 
z
" style="stroke: #ffffff; stroke-opacity: 0.15"/>
    </defs>
    <g clip-path="url(#p89d0e78396)">
     <use xlink:href="#m0a0c6e5eb4" x="0" y="119.624783" style="fill: #4682b4; fill-opacity: 0.15; stroke: #ffffff; stroke-opacity: 0.15"/>
    </g>
   </g>
   <g id="line2d_21">
    <path d="M 41.412674 54.950684 
L 43.321043 54.67228 
L 45.229412 54.393875 
L 47.13778 54.115471 
L 49.046149 53.837066 
L 50.954517 53.558662 
L 52.862886 53.280258 
L 54.771255 53.001853 
L 56.679623 52.723449 
L 58.587992 52.445044 
L 60.49636 52.16664 
L 62.404729 51.888235 
L 64.313097 51.609831 
L 66.221466 51.331426 
L 68.129835 51.053022 
L 70.038203 50.774618 
L 71.946572 50.496213 
L 73.85494 50.217809 
L 75.763309 49.939404 
L 77.671678 49.661 
L 79.580046 49.382595 
L 81.488415 49.104191 
L 83.396783 48.825786 
L 85.305152 48.547382 
L 87.21352 48.268978 
L 89.121889 47.990573 
L 91.030258 47.712169 
L 92.938626 47.433764 
L 94.846995 47.15536 
L 96.755363 46.876955 
L 98.663732 46.598551 
L 100.572101 46.320146 
L 102.480469 46.041742 
L 104.388838 45.763338 
L 106.297206 45.484933 
L 108.205575 45.206529 
L 110.113943 44.928124 
L 112.022312 44.64972 
L 113.930681 44.371315 
L 115.839049 44.092911 
L 117.747418 43.814506 
L 119.655786 43.536102 
L 121.564155 43.257698 
L 123.472524 42.979293 
L 125.380892 42.700889 
L 127.289261 42.422484 
L 129.197629 42.14408 
L 131.105998 41.865675 
L 133.014366 41.587271 
L 134.922735 41.308866 
L 136.831104 41.030462 
L 138.739472 40.752058 
L 140.647841 40.473653 
L 142.556209 40.195249 
L 144.464578 39.916844 
L 146.372946 39.63844 
L 148.281315 39.360035 
L 150.189684 39.081631 
L 152.098052 38.803226 
L 154.006421 38.524822 
L 155.914789 38.246418 
L 157.823158 37.968013 
L 159.731527 37.689609 
L 161.639895 37.411204 
L 163.548264 37.1328 
L 165.456632 36.854395 
L 167.365001 36.575991 
L 169.273369 36.297586 
L 171.181738 36.019182 
L 173.090107 35.740778 
L 174.998475 35.462373 
L 176.906844 35.183969 
L 178.815212 34.905564 
L 180.723581 34.62716 
L 182.63195 34.348755 
L 184.540318 34.070351 
L 186.448687 33.791946 
L 188.357055 33.513542 
L 190.265424 33.235138 
L 192.173792 32.956733 
L 194.082161 32.678329 
L 195.99053 32.399924 
L 197.898898 32.12152 
L 199.807267 31.843115 
L 201.715635 31.564711 
L 203.624004 31.286306 
L 205.532373 31.007902 
L 207.440741 30.729498 
L 209.34911 30.451093 
L 211.257478 30.172689 
L 213.165847 29.894284 
L 215.074215 29.61588 
L 216.982584 29.337475 
L 218.890953 29.059071 
L 220.799321 28.780666 
L 222.70769 28.502262 
L 224.616058 28.223858 
L 226.524427 27.945453 
L 228.432796 27.667049 
L 230.341164 27.388644 
" clip-path="url(#p89d0e78396)" style="fill: none; stroke: #4682b4; stroke-width: 2; stroke-linecap: round"/>
   </g>
   <g id="patch_3">
    <path d="M 31.96625 88.392283 
L 31.96625 7.2 
" style="fill: none; stroke: #262626; stroke-width: 0.5; stroke-linejoin: miter; stroke-linecap: square"/>
   </g>
   <g id="patch_4">
    <path d="M 239.787589 88.392283 
L 239.787589 7.2 
" style="fill: none; stroke: #262626; stroke-width: 0.5; stroke-linejoin: miter; stroke-linecap: square"/>
   </g>
   <g id="patch_5">
    <path d="M 31.96625 88.392283 
L 239.787589 88.392283 
" style="fill: none; stroke: #262626; stroke-width: 0.5; stroke-linejoin: miter; stroke-linecap: square"/>
   </g>
   <g id="patch_6">
    <path d="M 31.96625 7.2 
L 239.787589 7.2 
" style="fill: none; stroke: #262626; stroke-width: 0.5; stroke-linejoin: miter; stroke-linecap: square"/>
   </g>
  </g>
 </g>
 <defs>
  <clipPath id="p89d0e78396">
   <rect x="31.96625" y="7.2" width="207.821339" height="81.192283"/>
  </clipPath>
 </defs>
</svg>
