<?xml version="1.0" encoding="utf-8" standalone="no"?>
<!DOCTYPE svg PUBLIC "-//W3C//DTD SVG 1.1//EN"
  "http://www.w3.org/Graphics/SVG/1.1/DTD/svg11.dtd">
<svg xmlns:xlink="http://www.w3.org/1999/xlink" width="201.865327pt" height="115.775807pt" viewBox="0 0 201.865327 115.775807" xmlns="http://www.w3.org/2000/svg" version="1.1">
 <metadata>
  <rdf:RDF xmlns:dc="http://purl.org/dc/elements/1.1/" xmlns:cc="http://creativecommons.org/ns#" xmlns:rdf="http://www.w3.org/1999/02/22-rdf-syntax-ns#">
   <cc:Work>
    <dc:type rdf:resource="http://purl.org/dc/dcmitype/StillImage"/>
    <dc:date>2023-11-14T19:24:36.970099</dc:date>
    <dc:format>image/svg+xml</dc:format>
    <dc:creator>
     <cc:Agent>
      <dc:title>Matplotlib v3.7.2, https://matplotlib.org/</dc:title>
     </cc:Agent>
    </dc:creator>
   </cc:Work>
  </rdf:RDF>
 </metadata>
 <defs>
  <style type="text/css">*{stroke-linejoin: round; stroke-linecap: butt}</style>
 </defs>
 <g id="figure_1">
  <g id="patch_1">
   <path d="M 0 115.775807 
L 201.865327 115.775807 
L 201.865327 0 
L 0 0 
z
" style="fill: #ffffff"/>
  </g>
  <g id="axes_1">
   <g id="patch_2">
    <path d="M 33.96625 84.543307 
L 192.933179 84.543307 
L 192.933179 7.2 
L 33.96625 7.2 
z
" style="fill: #ffffff"/>
   </g>
   <g id="matplotlib.axis_1">
    <g id="xtick_1">
     <g id="line2d_1">
      <defs>
       <path id="m0d547733f6" d="M 0 0 
L 0 2 
" style="stroke: #808080; stroke-width: 0.5"/>
      </defs>
      <g>
       <use xlink:href="#m0d547733f6" x="40.76946" y="84.543307" style="fill: #808080; stroke: #808080; stroke-width: 0.5"/>
      </g>
     </g>
     <g id="text_1">
      <!-- 0 -->
      <g style="fill: #262626" transform="translate(38.76946 95.598307) scale(0.08 -0.08)">
       <defs>
        <path id="TimesNewRomanPSMT-30" d="M 231 2094 
Q 231 2819 450 3342 
Q 669 3866 1031 4122 
Q 1313 4325 1613 4325 
Q 2100 4325 2488 3828 
Q 2972 3213 2972 2159 
Q 2972 1422 2759 906 
Q 2547 391 2217 158 
Q 1888 -75 1581 -75 
Q 975 -75 572 641 
Q 231 1244 231 2094 
z
M 844 2016 
Q 844 1141 1059 588 
Q 1238 122 1591 122 
Q 1759 122 1940 273 
Q 2122 425 2216 781 
Q 2359 1319 2359 2297 
Q 2359 3022 2209 3506 
Q 2097 3866 1919 4016 
Q 1791 4119 1609 4119 
Q 1397 4119 1231 3928 
Q 1006 3669 925 3112 
Q 844 2556 844 2016 
z
" transform="scale(0.015625)"/>
       </defs>
       <use xlink:href="#TimesNewRomanPSMT-30"/>
      </g>
     </g>
    </g>
    <g id="xtick_2">
     <g id="line2d_2">
      <g>
       <use xlink:href="#m0d547733f6" x="61.897441" y="84.543307" style="fill: #808080; stroke: #808080; stroke-width: 0.5"/>
      </g>
     </g>
     <g id="text_2">
      <!-- 50 -->
      <g style="fill: #262626" transform="translate(57.897441 95.598307) scale(0.08 -0.08)">
       <defs>
        <path id="TimesNewRomanPSMT-35" d="M 2778 4238 
L 2534 3706 
L 1259 3706 
L 981 3138 
Q 1809 3016 2294 2522 
Q 2709 2097 2709 1522 
Q 2709 1188 2573 903 
Q 2438 619 2231 419 
Q 2025 219 1772 97 
Q 1413 -75 1034 -75 
Q 653 -75 479 54 
Q 306 184 306 341 
Q 306 428 378 495 
Q 450 563 559 563 
Q 641 563 702 538 
Q 763 513 909 409 
Q 1144 247 1384 247 
Q 1750 247 2026 523 
Q 2303 800 2303 1197 
Q 2303 1581 2056 1914 
Q 1809 2247 1375 2428 
Q 1034 2569 447 2591 
L 1259 4238 
L 2778 4238 
z
" transform="scale(0.015625)"/>
       </defs>
       <use xlink:href="#TimesNewRomanPSMT-35"/>
       <use xlink:href="#TimesNewRomanPSMT-30" x="50"/>
      </g>
     </g>
    </g>
    <g id="xtick_3">
     <g id="line2d_3">
      <g>
       <use xlink:href="#m0d547733f6" x="83.025422" y="84.543307" style="fill: #808080; stroke: #808080; stroke-width: 0.5"/>
      </g>
     </g>
     <g id="text_3">
      <!-- 100 -->
      <g style="fill: #262626" transform="translate(77.025422 95.598307) scale(0.08 -0.08)">
       <defs>
        <path id="TimesNewRomanPSMT-31" d="M 750 3822 
L 1781 4325 
L 1884 4325 
L 1884 747 
Q 1884 391 1914 303 
Q 1944 216 2037 169 
Q 2131 122 2419 116 
L 2419 0 
L 825 0 
L 825 116 
Q 1125 122 1212 167 
Q 1300 213 1334 289 
Q 1369 366 1369 747 
L 1369 3034 
Q 1369 3497 1338 3628 
Q 1316 3728 1258 3775 
Q 1200 3822 1119 3822 
Q 1003 3822 797 3725 
L 750 3822 
z
" transform="scale(0.015625)"/>
       </defs>
       <use xlink:href="#TimesNewRomanPSMT-31"/>
       <use xlink:href="#TimesNewRomanPSMT-30" x="50"/>
       <use xlink:href="#TimesNewRomanPSMT-30" x="100"/>
      </g>
     </g>
    </g>
    <g id="xtick_4">
     <g id="line2d_4">
      <g>
       <use xlink:href="#m0d547733f6" x="104.153403" y="84.543307" style="fill: #808080; stroke: #808080; stroke-width: 0.5"/>
      </g>
     </g>
     <g id="text_4">
      <!-- 150 -->
      <g style="fill: #262626" transform="translate(98.153403 95.598307) scale(0.08 -0.08)">
       <use xlink:href="#TimesNewRomanPSMT-31"/>
       <use xlink:href="#TimesNewRomanPSMT-35" x="50"/>
       <use xlink:href="#TimesNewRomanPSMT-30" x="100"/>
      </g>
     </g>
    </g>
    <g id="xtick_5">
     <g id="line2d_5">
      <g>
       <use xlink:href="#m0d547733f6" x="125.281384" y="84.543307" style="fill: #808080; stroke: #808080; stroke-width: 0.5"/>
      </g>
     </g>
     <g id="text_5">
      <!-- 200 -->
      <g style="fill: #262626" transform="translate(119.281384 95.598307) scale(0.08 -0.08)">
       <defs>
        <path id="TimesNewRomanPSMT-32" d="M 2934 816 
L 2638 0 
L 138 0 
L 138 116 
Q 1241 1122 1691 1759 
Q 2141 2397 2141 2925 
Q 2141 3328 1894 3587 
Q 1647 3847 1303 3847 
Q 991 3847 742 3664 
Q 494 3481 375 3128 
L 259 3128 
Q 338 3706 661 4015 
Q 984 4325 1469 4325 
Q 1984 4325 2329 3994 
Q 2675 3663 2675 3213 
Q 2675 2891 2525 2569 
Q 2294 2063 1775 1497 
Q 997 647 803 472 
L 1909 472 
Q 2247 472 2383 497 
Q 2519 522 2628 598 
Q 2738 675 2819 816 
L 2934 816 
z
" transform="scale(0.015625)"/>
       </defs>
       <use xlink:href="#TimesNewRomanPSMT-32"/>
       <use xlink:href="#TimesNewRomanPSMT-30" x="50"/>
       <use xlink:href="#TimesNewRomanPSMT-30" x="100"/>
      </g>
     </g>
    </g>
    <g id="xtick_6">
     <g id="line2d_6">
      <g>
       <use xlink:href="#m0d547733f6" x="146.409365" y="84.543307" style="fill: #808080; stroke: #808080; stroke-width: 0.5"/>
      </g>
     </g>
     <g id="text_6">
      <!-- 250 -->
      <g style="fill: #262626" transform="translate(140.409365 95.598307) scale(0.08 -0.08)">
       <use xlink:href="#TimesNewRomanPSMT-32"/>
       <use xlink:href="#TimesNewRomanPSMT-35" x="50"/>
       <use xlink:href="#TimesNewRomanPSMT-30" x="100"/>
      </g>
     </g>
    </g>
    <g id="xtick_7">
     <g id="line2d_7">
      <g>
       <use xlink:href="#m0d547733f6" x="167.537346" y="84.543307" style="fill: #808080; stroke: #808080; stroke-width: 0.5"/>
      </g>
     </g>
     <g id="text_7">
      <!-- 300 -->
      <g style="fill: #262626" transform="translate(161.537346 95.598307) scale(0.08 -0.08)">
       <defs>
        <path id="TimesNewRomanPSMT-33" d="M 325 3431 
Q 506 3859 782 4092 
Q 1059 4325 1472 4325 
Q 1981 4325 2253 3994 
Q 2459 3747 2459 3466 
Q 2459 3003 1878 2509 
Q 2269 2356 2469 2072 
Q 2669 1788 2669 1403 
Q 2669 853 2319 450 
Q 1863 -75 997 -75 
Q 569 -75 414 31 
Q 259 138 259 259 
Q 259 350 332 419 
Q 406 488 509 488 
Q 588 488 669 463 
Q 722 447 909 348 
Q 1097 250 1169 231 
Q 1284 197 1416 197 
Q 1734 197 1970 444 
Q 2206 691 2206 1028 
Q 2206 1275 2097 1509 
Q 2016 1684 1919 1775 
Q 1784 1900 1550 2001 
Q 1316 2103 1072 2103 
L 972 2103 
L 972 2197 
Q 1219 2228 1467 2375 
Q 1716 2522 1828 2728 
Q 1941 2934 1941 3181 
Q 1941 3503 1739 3701 
Q 1538 3900 1238 3900 
Q 753 3900 428 3381 
L 325 3431 
z
" transform="scale(0.015625)"/>
       </defs>
       <use xlink:href="#TimesNewRomanPSMT-33"/>
       <use xlink:href="#TimesNewRomanPSMT-30" x="50"/>
       <use xlink:href="#TimesNewRomanPSMT-30" x="100"/>
      </g>
     </g>
    </g>
    <g id="xtick_8">
     <g id="line2d_8">
      <g>
       <use xlink:href="#m0d547733f6" x="188.665327" y="84.543307" style="fill: #808080; stroke: #808080; stroke-width: 0.5"/>
      </g>
     </g>
     <g id="text_8">
      <!-- 350 -->
      <g style="fill: #262626" transform="translate(182.665327 95.598307) scale(0.08 -0.08)">
       <use xlink:href="#TimesNewRomanPSMT-33"/>
       <use xlink:href="#TimesNewRomanPSMT-35" x="50"/>
       <use xlink:href="#TimesNewRomanPSMT-30" x="100"/>
      </g>
     </g>
    </g>
    <g id="text_9">
     <!-- Shift (Voxel) -->
     <g style="fill: #262626" transform="translate(92.74659 106.864557) scale(0.08 -0.08)">
      <defs>
       <path id="TimesNewRomanPSMT-53" d="M 2934 4334 
L 2934 2869 
L 2819 2869 
Q 2763 3291 2617 3541 
Q 2472 3791 2203 3937 
Q 1934 4084 1647 4084 
Q 1322 4084 1109 3886 
Q 897 3688 897 3434 
Q 897 3241 1031 3081 
Q 1225 2847 1953 2456 
Q 2547 2138 2764 1967 
Q 2981 1797 3098 1565 
Q 3216 1334 3216 1081 
Q 3216 600 2842 251 
Q 2469 -97 1881 -97 
Q 1697 -97 1534 -69 
Q 1438 -53 1133 45 
Q 828 144 747 144 
Q 669 144 623 97 
Q 578 50 556 -97 
L 441 -97 
L 441 1356 
L 556 1356 
Q 638 900 775 673 
Q 913 447 1195 297 
Q 1478 147 1816 147 
Q 2206 147 2432 353 
Q 2659 559 2659 841 
Q 2659 997 2573 1156 
Q 2488 1316 2306 1453 
Q 2184 1547 1640 1851 
Q 1097 2156 867 2337 
Q 638 2519 519 2737 
Q 400 2956 400 3219 
Q 400 3675 750 4004 
Q 1100 4334 1641 4334 
Q 1978 4334 2356 4169 
Q 2531 4091 2603 4091 
Q 2684 4091 2736 4139 
Q 2788 4188 2819 4334 
L 2934 4334 
z
" transform="scale(0.015625)"/>
       <path id="TimesNewRomanPSMT-68" d="M 1041 4444 
L 1041 2350 
Q 1388 2731 1591 2839 
Q 1794 2947 1997 2947 
Q 2241 2947 2416 2812 
Q 2591 2678 2675 2391 
Q 2734 2191 2734 1659 
L 2734 647 
Q 2734 375 2778 275 
Q 2809 200 2884 156 
Q 2959 113 3159 113 
L 3159 0 
L 1753 0 
L 1753 113 
L 1819 113 
Q 2019 113 2097 173 
Q 2175 234 2206 353 
Q 2216 403 2216 647 
L 2216 1659 
Q 2216 2128 2167 2275 
Q 2119 2422 2012 2495 
Q 1906 2569 1756 2569 
Q 1603 2569 1437 2487 
Q 1272 2406 1041 2159 
L 1041 647 
Q 1041 353 1073 281 
Q 1106 209 1195 161 
Q 1284 113 1503 113 
L 1503 0 
L 84 0 
L 84 113 
Q 275 113 384 172 
Q 447 203 484 290 
Q 522 378 522 647 
L 522 3238 
Q 522 3728 498 3840 
Q 475 3953 426 3993 
Q 378 4034 297 4034 
Q 231 4034 84 3984 
L 41 4094 
L 897 4444 
L 1041 4444 
z
" transform="scale(0.015625)"/>
       <path id="TimesNewRomanPSMT-69" d="M 928 4444 
Q 1059 4444 1151 4351 
Q 1244 4259 1244 4128 
Q 1244 3997 1151 3903 
Q 1059 3809 928 3809 
Q 797 3809 703 3903 
Q 609 3997 609 4128 
Q 609 4259 701 4351 
Q 794 4444 928 4444 
z
M 1188 2947 
L 1188 647 
Q 1188 378 1227 289 
Q 1266 200 1342 156 
Q 1419 113 1622 113 
L 1622 0 
L 231 0 
L 231 113 
Q 441 113 512 153 
Q 584 194 626 287 
Q 669 381 669 647 
L 669 1750 
Q 669 2216 641 2353 
Q 619 2453 572 2492 
Q 525 2531 444 2531 
Q 356 2531 231 2484 
L 188 2597 
L 1050 2947 
L 1188 2947 
z
" transform="scale(0.015625)"/>
       <path id="TimesNewRomanPSMT-66" d="M 1319 2638 
L 1319 756 
Q 1319 356 1406 250 
Q 1522 113 1716 113 
L 1975 113 
L 1975 0 
L 266 0 
L 266 113 
L 394 113 
Q 519 113 622 175 
Q 725 238 764 344 
Q 803 450 803 756 
L 803 2638 
L 247 2638 
L 247 2863 
L 803 2863 
L 803 3050 
Q 803 3478 940 3775 
Q 1078 4072 1361 4255 
Q 1644 4438 1997 4438 
Q 2325 4438 2600 4225 
Q 2781 4084 2781 3909 
Q 2781 3816 2700 3733 
Q 2619 3650 2525 3650 
Q 2453 3650 2373 3701 
Q 2294 3753 2178 3923 
Q 2063 4094 1966 4153 
Q 1869 4213 1750 4213 
Q 1606 4213 1506 4136 
Q 1406 4059 1362 3898 
Q 1319 3738 1319 3069 
L 1319 2863 
L 2056 2863 
L 2056 2638 
L 1319 2638 
z
" transform="scale(0.015625)"/>
       <path id="TimesNewRomanPSMT-74" d="M 1031 3803 
L 1031 2863 
L 1700 2863 
L 1700 2644 
L 1031 2644 
L 1031 788 
Q 1031 509 1111 412 
Q 1191 316 1316 316 
Q 1419 316 1516 380 
Q 1613 444 1666 569 
L 1788 569 
Q 1678 263 1478 108 
Q 1278 -47 1066 -47 
Q 922 -47 784 33 
Q 647 113 581 261 
Q 516 409 516 719 
L 516 2644 
L 63 2644 
L 63 2747 
Q 234 2816 414 2980 
Q 594 3144 734 3369 
Q 806 3488 934 3803 
L 1031 3803 
z
" transform="scale(0.015625)"/>
       <path id="TimesNewRomanPSMT-20" transform="scale(0.015625)"/>
       <path id="TimesNewRomanPSMT-28" d="M 1988 -1253 
L 1988 -1369 
Q 1516 -1131 1200 -813 
Q 750 -359 506 256 
Q 263 872 263 1534 
Q 263 2503 741 3301 
Q 1219 4100 1988 4444 
L 1988 4313 
Q 1603 4100 1356 3731 
Q 1109 3363 987 2797 
Q 866 2231 866 1616 
Q 866 947 969 400 
Q 1050 -31 1165 -292 
Q 1281 -553 1476 -793 
Q 1672 -1034 1988 -1253 
z
" transform="scale(0.015625)"/>
       <path id="TimesNewRomanPSMT-56" d="M 4544 4238 
L 4544 4122 
Q 4319 4081 4203 3978 
Q 4038 3825 3909 3509 
L 2431 -97 
L 2316 -97 
L 728 3556 
Q 606 3838 556 3900 
Q 478 3997 364 4051 
Q 250 4106 56 4122 
L 56 4238 
L 1788 4238 
L 1788 4122 
Q 1494 4094 1406 4022 
Q 1319 3950 1319 3838 
Q 1319 3681 1463 3350 
L 2541 866 
L 3541 3319 
Q 3688 3681 3688 3822 
Q 3688 3913 3597 3995 
Q 3506 4078 3291 4113 
Q 3275 4116 3238 4122 
L 3238 4238 
L 4544 4238 
z
" transform="scale(0.015625)"/>
       <path id="TimesNewRomanPSMT-6f" d="M 1600 2947 
Q 2250 2947 2644 2453 
Q 2978 2031 2978 1484 
Q 2978 1100 2793 706 
Q 2609 313 2286 112 
Q 1963 -88 1566 -88 
Q 919 -88 538 428 
Q 216 863 216 1403 
Q 216 1797 411 2186 
Q 606 2575 925 2761 
Q 1244 2947 1600 2947 
z
M 1503 2744 
Q 1338 2744 1170 2645 
Q 1003 2547 900 2300 
Q 797 2053 797 1666 
Q 797 1041 1045 587 
Q 1294 134 1700 134 
Q 2003 134 2200 384 
Q 2397 634 2397 1244 
Q 2397 2006 2069 2444 
Q 1847 2744 1503 2744 
z
" transform="scale(0.015625)"/>
       <path id="TimesNewRomanPSMT-78" d="M 84 2863 
L 1431 2863 
L 1431 2747 
Q 1303 2747 1251 2703 
Q 1200 2659 1200 2588 
Q 1200 2513 1309 2356 
Q 1344 2306 1413 2200 
L 1616 1875 
L 1850 2200 
Q 2075 2509 2075 2591 
Q 2075 2656 2022 2701 
Q 1969 2747 1850 2747 
L 1850 2863 
L 2819 2863 
L 2819 2747 
Q 2666 2738 2553 2663 
Q 2400 2556 2134 2200 
L 1744 1678 
L 2456 653 
Q 2719 275 2831 198 
Q 2944 122 3122 113 
L 3122 0 
L 1772 0 
L 1772 113 
Q 1913 113 1991 175 
Q 2050 219 2050 291 
Q 2050 363 1850 653 
L 1431 1266 
L 972 653 
Q 759 369 759 316 
Q 759 241 829 180 
Q 900 119 1041 113 
L 1041 0 
L 106 0 
L 106 113 
Q 219 128 303 191 
Q 422 281 703 653 
L 1303 1450 
L 759 2238 
Q 528 2575 401 2661 
Q 275 2747 84 2747 
L 84 2863 
z
" transform="scale(0.015625)"/>
       <path id="TimesNewRomanPSMT-65" d="M 681 1784 
Q 678 1147 991 784 
Q 1303 422 1725 422 
Q 2006 422 2214 576 
Q 2422 731 2563 1106 
L 2659 1044 
Q 2594 616 2278 264 
Q 1963 -88 1488 -88 
Q 972 -88 605 314 
Q 238 716 238 1394 
Q 238 2128 614 2539 
Q 991 2950 1559 2950 
Q 2041 2950 2350 2633 
Q 2659 2316 2659 1784 
L 681 1784 
z
M 681 1966 
L 2006 1966 
Q 1991 2241 1941 2353 
Q 1863 2528 1708 2628 
Q 1553 2728 1384 2728 
Q 1125 2728 920 2526 
Q 716 2325 681 1966 
z
" transform="scale(0.015625)"/>
       <path id="TimesNewRomanPSMT-6c" d="M 1184 4444 
L 1184 647 
Q 1184 378 1223 290 
Q 1263 203 1344 158 
Q 1425 113 1647 113 
L 1647 0 
L 244 0 
L 244 113 
Q 441 113 512 153 
Q 584 194 625 287 
Q 666 381 666 647 
L 666 3247 
Q 666 3731 644 3842 
Q 622 3953 573 3993 
Q 525 4034 450 4034 
Q 369 4034 244 3984 
L 191 4094 
L 1044 4444 
L 1184 4444 
z
" transform="scale(0.015625)"/>
       <path id="TimesNewRomanPSMT-29" d="M 144 4313 
L 144 4444 
Q 619 4209 934 3891 
Q 1381 3434 1625 2820 
Q 1869 2206 1869 1541 
Q 1869 572 1392 -226 
Q 916 -1025 144 -1369 
L 144 -1253 
Q 528 -1038 776 -670 
Q 1025 -303 1145 264 
Q 1266 831 1266 1447 
Q 1266 2113 1163 2663 
Q 1084 3094 967 3353 
Q 850 3613 656 3853 
Q 463 4094 144 4313 
z
" transform="scale(0.015625)"/>
      </defs>
      <use xlink:href="#TimesNewRomanPSMT-53"/>
      <use xlink:href="#TimesNewRomanPSMT-68" x="55.615234"/>
      <use xlink:href="#TimesNewRomanPSMT-69" x="105.615234"/>
      <use xlink:href="#TimesNewRomanPSMT-66" x="133.398438"/>
      <use xlink:href="#TimesNewRomanPSMT-74" x="166.699219"/>
      <use xlink:href="#TimesNewRomanPSMT-20" x="194.482422"/>
      <use xlink:href="#TimesNewRomanPSMT-28" x="219.482422"/>
      <use xlink:href="#TimesNewRomanPSMT-56" x="252.783203"/>
      <use xlink:href="#TimesNewRomanPSMT-6f" x="312.125"/>
      <use xlink:href="#TimesNewRomanPSMT-78" x="362.125"/>
      <use xlink:href="#TimesNewRomanPSMT-65" x="412.125"/>
      <use xlink:href="#TimesNewRomanPSMT-6c" x="456.509766"/>
      <use xlink:href="#TimesNewRomanPSMT-29" x="484.292969"/>
     </g>
    </g>
   </g>
   <g id="matplotlib.axis_2">
    <g id="ytick_1">
     <g id="line2d_9">
      <defs>
       <path id="mcd7c45fa2f" d="M 0 0 
L -2 0 
" style="stroke: #808080; stroke-width: 0.5"/>
      </defs>
      <g>
       <use xlink:href="#mcd7c45fa2f" x="33.96625" y="84.221102" style="fill: #808080; stroke: #808080; stroke-width: 0.5"/>
      </g>
     </g>
     <g id="text_10">
      <!-- 0.0 -->
      <g style="fill: #262626" transform="translate(18.46625 86.998602) scale(0.08 -0.08)">
       <defs>
        <path id="TimesNewRomanPSMT-2e" d="M 800 606 
Q 947 606 1047 504 
Q 1147 403 1147 259 
Q 1147 116 1045 14 
Q 944 -88 800 -88 
Q 656 -88 554 14 
Q 453 116 453 259 
Q 453 406 554 506 
Q 656 606 800 606 
z
" transform="scale(0.015625)"/>
       </defs>
       <use xlink:href="#TimesNewRomanPSMT-30"/>
       <use xlink:href="#TimesNewRomanPSMT-2e" x="50"/>
       <use xlink:href="#TimesNewRomanPSMT-30" x="75"/>
      </g>
     </g>
    </g>
    <g id="ytick_2">
     <g id="line2d_10">
      <g>
       <use xlink:href="#mcd7c45fa2f" x="33.96625" y="69.568211" style="fill: #808080; stroke: #808080; stroke-width: 0.5"/>
      </g>
     </g>
     <g id="text_11">
      <!-- 0.2 -->
      <g style="fill: #262626" transform="translate(18.46625 72.345711) scale(0.08 -0.08)">
       <use xlink:href="#TimesNewRomanPSMT-30"/>
       <use xlink:href="#TimesNewRomanPSMT-2e" x="50"/>
       <use xlink:href="#TimesNewRomanPSMT-32" x="75"/>
      </g>
     </g>
    </g>
    <g id="ytick_3">
     <g id="line2d_11">
      <g>
       <use xlink:href="#mcd7c45fa2f" x="33.96625" y="54.915319" style="fill: #808080; stroke: #808080; stroke-width: 0.5"/>
      </g>
     </g>
     <g id="text_12">
      <!-- 0.4 -->
      <g style="fill: #262626" transform="translate(18.46625 57.692819) scale(0.08 -0.08)">
       <defs>
        <path id="TimesNewRomanPSMT-34" d="M 2978 1563 
L 2978 1119 
L 2409 1119 
L 2409 0 
L 1894 0 
L 1894 1119 
L 100 1119 
L 100 1519 
L 2066 4325 
L 2409 4325 
L 2409 1563 
L 2978 1563 
z
M 1894 1563 
L 1894 3666 
L 406 1563 
L 1894 1563 
z
" transform="scale(0.015625)"/>
       </defs>
       <use xlink:href="#TimesNewRomanPSMT-30"/>
       <use xlink:href="#TimesNewRomanPSMT-2e" x="50"/>
       <use xlink:href="#TimesNewRomanPSMT-34" x="75"/>
      </g>
     </g>
    </g>
    <g id="ytick_4">
     <g id="line2d_12">
      <g>
       <use xlink:href="#mcd7c45fa2f" x="33.96625" y="40.262428" style="fill: #808080; stroke: #808080; stroke-width: 0.5"/>
      </g>
     </g>
     <g id="text_13">
      <!-- 0.6 -->
      <g style="fill: #262626" transform="translate(18.46625 43.039928) scale(0.08 -0.08)">
       <defs>
        <path id="TimesNewRomanPSMT-36" d="M 2869 4325 
L 2869 4209 
Q 2456 4169 2195 4045 
Q 1934 3922 1679 3669 
Q 1425 3416 1258 3105 
Q 1091 2794 978 2366 
Q 1428 2675 1881 2675 
Q 2316 2675 2634 2325 
Q 2953 1975 2953 1425 
Q 2953 894 2631 456 
Q 2244 -75 1606 -75 
Q 1172 -75 869 213 
Q 275 772 275 1663 
Q 275 2231 503 2743 
Q 731 3256 1154 3653 
Q 1578 4050 1965 4187 
Q 2353 4325 2688 4325 
L 2869 4325 
z
M 925 2138 
Q 869 1716 869 1456 
Q 869 1156 980 804 
Q 1091 453 1309 247 
Q 1469 100 1697 100 
Q 1969 100 2183 356 
Q 2397 613 2397 1088 
Q 2397 1622 2184 2012 
Q 1972 2403 1581 2403 
Q 1463 2403 1327 2353 
Q 1191 2303 925 2138 
z
" transform="scale(0.015625)"/>
       </defs>
       <use xlink:href="#TimesNewRomanPSMT-30"/>
       <use xlink:href="#TimesNewRomanPSMT-2e" x="50"/>
       <use xlink:href="#TimesNewRomanPSMT-36" x="75"/>
      </g>
     </g>
    </g>
    <g id="ytick_5">
     <g id="line2d_13">
      <g>
       <use xlink:href="#mcd7c45fa2f" x="33.96625" y="25.609536" style="fill: #808080; stroke: #808080; stroke-width: 0.5"/>
      </g>
     </g>
     <g id="text_14">
      <!-- 0.8 -->
      <g style="fill: #262626" transform="translate(18.46625 28.387036) scale(0.08 -0.08)">
       <defs>
        <path id="TimesNewRomanPSMT-38" d="M 1228 2134 
Q 725 2547 579 2797 
Q 434 3047 434 3316 
Q 434 3728 753 4026 
Q 1072 4325 1600 4325 
Q 2113 4325 2425 4047 
Q 2738 3769 2738 3413 
Q 2738 3175 2569 2928 
Q 2400 2681 1866 2347 
Q 2416 1922 2594 1678 
Q 2831 1359 2831 1006 
Q 2831 559 2490 242 
Q 2150 -75 1597 -75 
Q 994 -75 656 303 
Q 388 606 388 966 
Q 388 1247 577 1523 
Q 766 1800 1228 2134 
z
M 1719 2469 
Q 2094 2806 2194 3001 
Q 2294 3197 2294 3444 
Q 2294 3772 2109 3958 
Q 1925 4144 1606 4144 
Q 1288 4144 1088 3959 
Q 888 3775 888 3528 
Q 888 3366 970 3203 
Q 1053 3041 1206 2894 
L 1719 2469 
z
M 1375 2016 
Q 1116 1797 991 1539 
Q 866 1281 866 981 
Q 866 578 1086 336 
Q 1306 94 1647 94 
Q 1984 94 2187 284 
Q 2391 475 2391 747 
Q 2391 972 2272 1150 
Q 2050 1481 1375 2016 
z
" transform="scale(0.015625)"/>
       </defs>
       <use xlink:href="#TimesNewRomanPSMT-30"/>
       <use xlink:href="#TimesNewRomanPSMT-2e" x="50"/>
       <use xlink:href="#TimesNewRomanPSMT-38" x="75"/>
      </g>
     </g>
    </g>
    <g id="ytick_6">
     <g id="line2d_14">
      <g>
       <use xlink:href="#mcd7c45fa2f" x="33.96625" y="10.956645" style="fill: #808080; stroke: #808080; stroke-width: 0.5"/>
      </g>
     </g>
     <g id="text_15">
      <!-- 1.0 -->
      <g style="fill: #262626" transform="translate(18.46625 13.734145) scale(0.08 -0.08)">
       <use xlink:href="#TimesNewRomanPSMT-31"/>
       <use xlink:href="#TimesNewRomanPSMT-2e" x="50"/>
       <use xlink:href="#TimesNewRomanPSMT-30" x="75"/>
      </g>
     </g>
    </g>
    <g id="text_16">
     <!-- Mutual information (a.u) -->
     <g style="fill: #262626" transform="translate(12.755 85.750404) rotate(-90) scale(0.08 -0.08)">
      <defs>
       <path id="TimesNewRomanPSMT-4d" d="M 2619 0 
L 981 3566 
L 981 734 
Q 981 344 1066 247 
Q 1181 116 1431 116 
L 1581 116 
L 1581 0 
L 106 0 
L 106 116 
L 256 116 
Q 525 116 638 278 
Q 706 378 706 734 
L 706 3503 
Q 706 3784 644 3909 
Q 600 4000 483 4061 
Q 366 4122 106 4122 
L 106 4238 
L 1306 4238 
L 2844 922 
L 4356 4238 
L 5556 4238 
L 5556 4122 
L 5409 4122 
Q 5138 4122 5025 3959 
Q 4956 3859 4956 3503 
L 4956 734 
Q 4956 344 5044 247 
Q 5159 116 5409 116 
L 5556 116 
L 5556 0 
L 3756 0 
L 3756 116 
L 3906 116 
Q 4178 116 4288 278 
Q 4356 378 4356 734 
L 4356 3566 
L 2722 0 
L 2619 0 
z
" transform="scale(0.015625)"/>
       <path id="TimesNewRomanPSMT-75" d="M 2709 2863 
L 2709 1128 
Q 2709 631 2732 520 
Q 2756 409 2807 365 
Q 2859 322 2928 322 
Q 3025 322 3147 375 
L 3191 266 
L 2334 -88 
L 2194 -88 
L 2194 519 
Q 1825 119 1631 15 
Q 1438 -88 1222 -88 
Q 981 -88 804 51 
Q 628 191 559 409 
Q 491 628 491 1028 
L 491 2306 
Q 491 2509 447 2587 
Q 403 2666 317 2708 
Q 231 2750 6 2747 
L 6 2863 
L 1009 2863 
L 1009 947 
Q 1009 547 1148 422 
Q 1288 297 1484 297 
Q 1619 297 1789 381 
Q 1959 466 2194 703 
L 2194 2325 
Q 2194 2569 2105 2655 
Q 2016 2741 1734 2747 
L 1734 2863 
L 2709 2863 
z
" transform="scale(0.015625)"/>
       <path id="TimesNewRomanPSMT-61" d="M 1822 413 
Q 1381 72 1269 19 
Q 1100 -59 909 -59 
Q 613 -59 420 144 
Q 228 347 228 678 
Q 228 888 322 1041 
Q 450 1253 767 1440 
Q 1084 1628 1822 1897 
L 1822 2009 
Q 1822 2438 1686 2597 
Q 1550 2756 1291 2756 
Q 1094 2756 978 2650 
Q 859 2544 859 2406 
L 866 2225 
Q 866 2081 792 2003 
Q 719 1925 600 1925 
Q 484 1925 411 2006 
Q 338 2088 338 2228 
Q 338 2497 613 2722 
Q 888 2947 1384 2947 
Q 1766 2947 2009 2819 
Q 2194 2722 2281 2516 
Q 2338 2381 2338 1966 
L 2338 994 
Q 2338 584 2353 492 
Q 2369 400 2405 369 
Q 2441 338 2488 338 
Q 2538 338 2575 359 
Q 2641 400 2828 588 
L 2828 413 
Q 2478 -56 2159 -56 
Q 2006 -56 1915 50 
Q 1825 156 1822 413 
z
M 1822 616 
L 1822 1706 
Q 1350 1519 1213 1441 
Q 966 1303 859 1153 
Q 753 1003 753 825 
Q 753 600 887 451 
Q 1022 303 1197 303 
Q 1434 303 1822 616 
z
" transform="scale(0.015625)"/>
       <path id="TimesNewRomanPSMT-6e" d="M 1034 2341 
Q 1538 2947 1994 2947 
Q 2228 2947 2397 2830 
Q 2566 2713 2666 2444 
Q 2734 2256 2734 1869 
L 2734 647 
Q 2734 375 2778 278 
Q 2813 200 2889 156 
Q 2966 113 3172 113 
L 3172 0 
L 1756 0 
L 1756 113 
L 1816 113 
Q 2016 113 2095 173 
Q 2175 234 2206 353 
Q 2219 400 2219 647 
L 2219 1819 
Q 2219 2209 2117 2386 
Q 2016 2563 1775 2563 
Q 1403 2563 1034 2156 
L 1034 647 
Q 1034 356 1069 288 
Q 1113 197 1189 155 
Q 1266 113 1500 113 
L 1500 0 
L 84 0 
L 84 113 
L 147 113 
Q 366 113 442 223 
Q 519 334 519 647 
L 519 1709 
Q 519 2225 495 2337 
Q 472 2450 423 2490 
Q 375 2531 294 2531 
Q 206 2531 84 2484 
L 38 2597 
L 900 2947 
L 1034 2947 
L 1034 2341 
z
" transform="scale(0.015625)"/>
       <path id="TimesNewRomanPSMT-72" d="M 1038 2947 
L 1038 2303 
Q 1397 2947 1775 2947 
Q 1947 2947 2059 2842 
Q 2172 2738 2172 2600 
Q 2172 2478 2090 2393 
Q 2009 2309 1897 2309 
Q 1788 2309 1652 2417 
Q 1516 2525 1450 2525 
Q 1394 2525 1328 2463 
Q 1188 2334 1038 2041 
L 1038 669 
Q 1038 431 1097 309 
Q 1138 225 1241 169 
Q 1344 113 1538 113 
L 1538 0 
L 72 0 
L 72 113 
Q 291 113 397 181 
Q 475 231 506 341 
Q 522 394 522 644 
L 522 1753 
Q 522 2253 501 2348 
Q 481 2444 426 2487 
Q 372 2531 291 2531 
Q 194 2531 72 2484 
L 41 2597 
L 906 2947 
L 1038 2947 
z
" transform="scale(0.015625)"/>
       <path id="TimesNewRomanPSMT-6d" d="M 1050 2338 
Q 1363 2650 1419 2697 
Q 1559 2816 1721 2881 
Q 1884 2947 2044 2947 
Q 2313 2947 2506 2790 
Q 2700 2634 2766 2338 
Q 3088 2713 3309 2830 
Q 3531 2947 3766 2947 
Q 3994 2947 4170 2830 
Q 4347 2713 4450 2447 
Q 4519 2266 4519 1878 
L 4519 647 
Q 4519 378 4559 278 
Q 4591 209 4675 161 
Q 4759 113 4950 113 
L 4950 0 
L 3538 0 
L 3538 113 
L 3597 113 
Q 3781 113 3884 184 
Q 3956 234 3988 344 
Q 4000 397 4000 647 
L 4000 1878 
Q 4000 2228 3916 2372 
Q 3794 2572 3525 2572 
Q 3359 2572 3192 2489 
Q 3025 2406 2788 2181 
L 2781 2147 
L 2788 2013 
L 2788 647 
Q 2788 353 2820 281 
Q 2853 209 2943 161 
Q 3034 113 3253 113 
L 3253 0 
L 1806 0 
L 1806 113 
Q 2044 113 2133 169 
Q 2222 225 2256 338 
Q 2272 391 2272 647 
L 2272 1878 
Q 2272 2228 2169 2381 
Q 2031 2581 1784 2581 
Q 1616 2581 1450 2491 
Q 1191 2353 1050 2181 
L 1050 647 
Q 1050 366 1089 281 
Q 1128 197 1204 155 
Q 1281 113 1516 113 
L 1516 0 
L 100 0 
L 100 113 
Q 297 113 375 155 
Q 453 197 493 289 
Q 534 381 534 647 
L 534 1741 
Q 534 2213 506 2350 
Q 484 2453 437 2492 
Q 391 2531 309 2531 
Q 222 2531 100 2484 
L 53 2597 
L 916 2947 
L 1050 2947 
L 1050 2338 
z
" transform="scale(0.015625)"/>
      </defs>
      <use xlink:href="#TimesNewRomanPSMT-4d"/>
      <use xlink:href="#TimesNewRomanPSMT-75" x="88.916016"/>
      <use xlink:href="#TimesNewRomanPSMT-74" x="138.916016"/>
      <use xlink:href="#TimesNewRomanPSMT-75" x="166.699219"/>
      <use xlink:href="#TimesNewRomanPSMT-61" x="216.699219"/>
      <use xlink:href="#TimesNewRomanPSMT-6c" x="261.083984"/>
      <use xlink:href="#TimesNewRomanPSMT-20" x="288.867188"/>
      <use xlink:href="#TimesNewRomanPSMT-69" x="313.867188"/>
      <use xlink:href="#TimesNewRomanPSMT-6e" x="341.650391"/>
      <use xlink:href="#TimesNewRomanPSMT-66" x="391.650391"/>
      <use xlink:href="#TimesNewRomanPSMT-6f" x="424.951172"/>
      <use xlink:href="#TimesNewRomanPSMT-72" x="474.951172"/>
      <use xlink:href="#TimesNewRomanPSMT-6d" x="508.251953"/>
      <use xlink:href="#TimesNewRomanPSMT-61" x="586.035156"/>
      <use xlink:href="#TimesNewRomanPSMT-74" x="630.419922"/>
      <use xlink:href="#TimesNewRomanPSMT-69" x="658.203125"/>
      <use xlink:href="#TimesNewRomanPSMT-6f" x="685.986328"/>
      <use xlink:href="#TimesNewRomanPSMT-6e" x="735.986328"/>
      <use xlink:href="#TimesNewRomanPSMT-20" x="785.986328"/>
      <use xlink:href="#TimesNewRomanPSMT-28" x="810.986328"/>
      <use xlink:href="#TimesNewRomanPSMT-61" x="844.287109"/>
      <use xlink:href="#TimesNewRomanPSMT-2e" x="888.671875"/>
      <use xlink:href="#TimesNewRomanPSMT-75" x="913.671875"/>
      <use xlink:href="#TimesNewRomanPSMT-29" x="963.671875"/>
     </g>
    </g>
   </g>
   <g id="line2d_15">
    <path d="M 41.19202 17.756319 
L 41.614579 10.842352 
L 42.037139 23.020297 
L 42.459698 21.460643 
L 42.882258 14.987509 
L 43.304818 25.489896 
L 43.727377 66.81398 
L 44.149937 10.715605 
L 44.572496 21.420494 
L 44.995056 12.680484 
L 45.417616 24.028343 
L 45.840175 13.890593 
L 46.262735 11.939488 
L 46.685295 19.124313 
L 47.107854 21.086775 
L 47.530414 17.344573 
L 47.952973 15.119165 
L 48.375533 18.441781 
L 48.798093 23.046746 
L 49.220652 18.132972 
L 49.643212 20.655101 
L 50.065772 18.898146 
L 50.488331 20.294786 
L 50.910891 20.103566 
L 51.33345 19.654748 
L 52.17857 18.39372 
L 52.601129 18.674396 
L 53.023689 27.428253 
L 53.446248 27.293447 
L 53.868808 67.27518 
L 54.291368 21.267152 
L 54.713927 66.938823 
L 55.136487 67.37775 
L 55.559047 28.990691 
L 55.981606 18.72656 
L 56.404166 30.352824 
L 56.826725 28.81427 
L 57.249285 67.144842 
L 58.094404 67.160887 
L 58.516964 67.199204 
L 58.939524 69.245114 
L 59.362083 39.517768 
L 59.784643 36.845007 
L 60.207202 35.199341 
L 60.629762 36.877244 
L 61.052322 37.755172 
L 61.474881 41.397294 
L 61.897441 36.634592 
L 62.320001 67.223235 
L 62.74256 54.047355 
L 63.16512 67.210121 
L 63.587679 35.941803 
L 64.010239 34.818879 
L 64.432799 36.796286 
L 64.855358 36.52616 
L 65.277918 36.709761 
L 65.700477 62.948034 
L 66.123037 31.267457 
L 66.545597 33.890398 
L 66.968156 27.013796 
L 67.390716 25.462934 
L 67.813276 67.158762 
L 68.235835 67.672493 
L 68.658395 25.406594 
L 69.503514 15.673337 
L 69.926074 16.80161 
L 70.348633 13.924075 
L 70.771193 12.866576 
L 71.193753 15.460797 
L 71.616312 19.037495 
L 72.038872 16.315647 
L 72.461431 66.967322 
L 72.883991 19.782961 
L 73.306551 15.357201 
L 73.72911 21.630617 
L 74.15167 30.068191 
L 74.57423 68.104607 
L 74.996789 19.632988 
L 75.419349 27.859488 
L 75.841908 22.256955 
L 76.264468 33.381577 
L 76.687028 21.140844 
L 77.109587 66.323328 
L 77.532147 31.559489 
L 77.954706 17.335561 
L 78.377266 15.962585 
L 79.222385 33.596315 
L 79.644945 27.592512 
L 80.067505 18.553583 
L 80.490064 18.861807 
L 80.912624 28.691552 
L 81.335183 29.14418 
L 81.757743 32.70432 
L 82.180303 67.366834 
L 82.602862 19.778785 
L 83.025422 40.325655 
L 83.447982 24.86158 
L 84.293101 34.896612 
L 84.71566 36.789693 
L 85.56078 22.282085 
L 85.983339 20.350101 
L 86.405899 27.292421 
L 86.828458 36.459929 
L 87.251018 41.973006 
L 87.673578 35.875938 
L 88.096137 31.449739 
L 88.518697 40.784584 
L 88.941257 34.186167 
L 89.363816 29.405075 
L 89.786376 33.16823 
L 90.631495 46.362207 
L 91.054055 40.853599 
L 91.476614 67.272176 
L 91.899174 42.150819 
L 92.321734 42.699497 
L 92.744293 43.619698 
L 93.166853 36.395456 
L 93.589412 37.96273 
L 94.011972 42.669532 
L 94.434532 46.068709 
L 94.857091 42.172652 
L 95.279651 45.943061 
L 95.702211 41.82362 
L 96.12477 42.266797 
L 96.54733 46.797324 
L 96.969889 42.034622 
L 97.392449 43.176815 
L 97.815009 45.637694 
L 98.237568 42.107593 
L 98.660128 41.616575 
L 99.082687 45.282655 
L 99.505247 40.384853 
L 99.927807 45.029306 
L 100.350366 40.514604 
L 100.772926 44.024631 
L 101.618045 44.434472 
L 102.040605 40.681794 
L 102.463164 43.533026 
L 102.885724 41.631447 
L 103.308284 40.895726 
L 103.730843 38.301505 
L 104.153403 54.3473 
L 104.575963 56.103302 
L 104.998522 55.596605 
L 105.421082 58.397945 
L 105.843641 73.194142 
L 106.266201 77.471387 
L 106.688761 79.654331 
L 107.11132 80.374674 
L 107.53388 63.008917 
L 107.95644 68.623099 
L 108.378999 65.655083 
L 109.224118 77.370949 
L 109.646678 81.027702 
L 110.069238 69.612316 
L 110.491797 76.771426 
L 110.914357 76.387227 
L 111.336916 71.519609 
L 112.604595 69.791741 
L 113.027155 69.722432 
L 113.449715 68.955427 
L 114.294834 68.604563 
L 114.717393 76.132559 
L 115.139953 76.107796 
L 115.562513 75.453911 
L 115.985072 76.022663 
L 116.407632 75.722791 
L 116.830192 67.421416 
L 117.252751 75.918774 
L 117.675311 70.581092 
L 118.09787 70.312284 
L 118.94299 71.004341 
L 119.365549 75.708578 
L 119.788109 75.966469 
L 120.633228 74.211932 
L 121.055788 75.889908 
L 121.478347 68.623099 
L 121.900907 67.605749 
L 122.323467 76.611782 
L 122.746026 68.112446 
L 123.168586 68.972644 
L 123.591145 67.255252 
L 124.013705 68.461038 
L 124.436265 68.316634 
L 124.858824 67.62238 
L 125.703944 68.361032 
L 126.549063 68.311505 
L 126.971622 67.530287 
L 127.394182 67.852797 
L 127.816742 67.986944 
L 128.239301 67.69352 
L 129.084421 68.330041 
L 129.50698 67.897488 
L 129.92954 67.844957 
L 130.352099 67.596005 
L 130.774659 67.209315 
L 131.197219 67.264043 
L 132.042338 67.750373 
L 132.464897 69.009789 
L 132.887457 69.454138 
L 133.310017 70.899426 
L 133.732576 73.038968 
L 134.155136 71.890621 
L 134.577696 71.770174 
L 135.422815 74.207975 
L 136.267934 73.436574 
L 137.113053 75.200709 
L 137.535613 75.165688 
L 137.958173 74.624997 
L 138.380732 75.196606 
L 138.803292 75.058576 
L 139.225851 74.472533 
L 139.648411 74.553051 
L 140.49353 74.028331 
L 140.91609 73.85887 
L 141.33865 74.114197 
L 142.183769 73.069666 
L 142.606328 73.419796 
L 143.028888 73.024242 
L 143.874007 72.803642 
L 144.719126 72.678946 
L 145.141686 72.247712 
L 145.986805 72.523992 
L 146.409365 72.376144 
L 146.831925 72.452559 
L 147.254484 71.446345 
L 147.677044 71.706361 
L 148.944723 71.010861 
L 150.212402 71.490011 
L 150.634961 71.521734 
L 151.90264 72.308228 
L 152.3252 72.000371 
L 152.747759 72.463329 
L 153.170319 72.341344 
L 153.592878 71.837577 
L 154.015438 72.316873 
L 154.860557 71.945129 
L 155.283117 72.089753 
L 155.705677 71.948426 
L 156.128236 71.980882 
L 156.973355 71.41997 
L 157.395915 71.571334 
L 158.241034 71.699694 
L 158.663594 71.414182 
L 159.086154 71.433084 
L 159.508713 71.198272 
L 159.931273 71.174534 
L 160.353832 70.775829 
L 160.776392 71.071671 
L 161.198952 70.780005 
L 161.621511 70.950711 
L 162.044071 70.755681 
L 162.466631 71.315788 
L 162.88919 70.85261 
L 163.31175 71.075041 
L 163.734309 70.952469 
L 164.156869 69.16445 
L 164.579429 69.407908 
L 165.001988 68.072737 
L 165.424548 64.928373 
L 165.847107 66.226546 
L 166.269667 77.017514 
L 166.692227 66.016057 
L 167.114786 78.904066 
L 167.537346 66.000598 
L 167.959906 63.822226 
L 168.382465 65.589731 
L 168.805025 73.163078 
L 169.227584 63.417659 
L 169.650144 72.335922 
L 170.072704 62.671608 
L 170.495263 72.31365 
L 170.917823 63.581625 
L 171.340383 71.664087 
L 171.762942 62.409614 
L 172.185502 64.492009 
L 172.608061 70.970639 
L 173.030621 63.987437 
L 173.453181 63.920107 
L 173.87574 70.190006 
L 174.2983 62.409614 
L 175.143419 68.915717 
L 175.565979 68.402646 
L 176.411098 58.550555 
L 176.833658 68.418472 
L 177.256217 61.939476 
L 177.678777 60.927694 
L 178.101336 60.670902 
L 178.523896 68.837324 
L 178.946456 66.388094 
L 179.369015 62.774984 
L 179.791575 68.487047 
L 180.214135 66.51953 
L 180.636694 63.452607 
L 181.059254 67.649488 
L 181.481813 66.135917 
L 181.904373 61.946143 
L 182.326933 67.013919 
L 182.749492 65.453459 
L 183.172052 62.162859 
L 183.594612 66.223468 
L 184.017171 63.326958 
L 184.439731 63.724125 
L 184.86229 63.599502 
L 185.28485 65.297992 
L 185.70741 74.938788 
L 185.70741 74.938788 
" clip-path="url(#p7ff9ff2c6b)" style="fill: none; stroke: #e41a1c; stroke-linecap: round"/>
   </g>
   <g id="line2d_16">
    <path d="M 41.19202 20.437798 
L 41.614579 20.164009 
L 42.037139 20.58821 
L 42.459698 19.78025 
L 42.882258 19.970078 
L 43.304818 20.596196 
L 43.727377 19.982606 
L 44.149937 20.487911 
L 44.572496 20.540955 
L 44.995056 19.536572 
L 45.417616 20.746315 
L 45.840175 20.212437 
L 46.262735 20.14518 
L 46.685295 20.382044 
L 47.107854 21.012265 
L 47.530414 20.369809 
L 47.952973 20.609823 
L 48.798093 19.605001 
L 49.220652 20.792545 
L 49.643212 19.760981 
L 50.065772 20.576634 
L 50.488331 20.419922 
L 50.910891 21.277262 
L 51.33345 20.072941 
L 51.75601 20.784412 
L 52.601129 21.056736 
L 53.023689 20.357574 
L 53.868808 20.482783 
L 54.291368 20.624623 
L 54.713927 20.994095 
L 55.136487 20.609237 
L 55.559047 20.6984 
L 55.981606 20.43201 
L 56.404166 20.613853 
L 56.826725 19.972862 
L 57.249285 20.874454 
L 58.094404 21.282831 
L 58.516964 20.029496 
L 58.939524 20.588577 
L 59.362083 20.523225 
L 59.784643 20.253978 
L 60.207202 20.366878 
L 60.629762 20.904713 
L 61.052322 20.740381 
L 61.474881 21.259093 
L 61.897441 20.785585 
L 62.320001 21.079522 
L 62.74256 20.812033 
L 63.16512 22.10288 
L 63.587679 21.014902 
L 64.010239 21.176963 
L 64.432799 20.982593 
L 65.277918 21.004938 
L 65.700477 21.304004 
L 66.123037 21.093442 
L 66.545597 20.422266 
L 66.968156 20.58484 
L 67.390716 20.267092 
L 67.813276 20.242768 
L 68.235835 21.035417 
L 68.658395 20.218151 
L 69.080954 22.02456 
L 69.926074 20.742066 
L 70.771193 20.451645 
L 71.193753 20.957756 
L 71.616312 21.125971 
L 72.038872 20.370322 
L 72.461431 21.557719 
L 72.883991 20.523884 
L 73.306551 21.209053 
L 73.72911 20.391715 
L 74.15167 20.582569 
L 74.57423 20.169064 
L 75.419349 20.853647 
L 75.841908 20.870938 
L 76.264468 20.630118 
L 76.687028 20.927205 
L 77.109587 20.075872 
L 77.532147 22.359891 
L 77.954706 20.97131 
L 78.377266 20.440363 
L 78.799826 21.512881 
L 79.222385 21.075272 
L 79.644945 20.909695 
L 80.067505 20.409885 
L 80.490064 20.641254 
L 81.335183 20.567769 
L 81.757743 20.951016 
L 82.180303 20.660742 
L 82.602862 20.812033 
L 83.025422 20.819579 
L 83.447982 22.054305 
L 84.293101 21.16634 
L 85.13822 21.330379 
L 85.56078 20.664772 
L 85.983339 20.808223 
L 86.405899 20.813132 
L 86.828458 21.19865 
L 87.251018 20.760308 
L 87.673578 20.782068 
L 88.096137 22.483195 
L 88.518697 21.016294 
L 88.941257 20.257788 
L 89.363816 21.2514 
L 89.786376 20.93226 
L 90.208935 22.187866 
L 90.631495 21.032559 
L 91.054055 21.029775 
L 91.476614 21.658531 
L 91.899174 21.139159 
L 92.321734 20.324605 
L 92.744293 22.159733 
L 93.166853 20.762067 
L 93.589412 21.002594 
L 94.011972 21.944409 
L 94.434532 21.00655 
L 94.857091 20.817381 
L 95.279651 21.567536 
L 95.702211 20.752396 
L 96.54733 20.391056 
L 96.969889 20.650925 
L 97.392449 21.236015 
L 97.815009 21.582043 
L 98.237568 20.690121 
L 98.660128 20.736278 
L 99.082687 20.073015 
L 99.505247 20.415892 
L 99.927807 21.219823 
L 100.350366 20.594511 
L 100.772926 21.797733 
L 101.195486 21.420714 
L 101.618045 20.518902 
L 102.040605 20.988454 
L 102.463164 21.672964 
L 102.885724 20.865883 
L 103.308284 21.729377 
L 103.730843 20.843171 
L 104.153403 20.652024 
L 104.998522 21.09161 
L 105.421082 20.114556 
L 105.843641 21.184436 
L 106.266201 21.189785 
L 106.688761 21.506067 
L 107.11132 20.379187 
L 107.53388 20.072209 
L 107.95644 21.502111 
L 108.378999 20.867348 
L 108.801559 21.241729 
L 109.224118 20.734226 
L 109.646678 20.758623 
L 110.069238 20.939367 
L 110.491797 20.827272 
L 110.914357 20.924641 
L 111.336916 20.696861 
L 111.759476 21.151101 
L 112.182036 20.676494 
L 112.604595 21.40423 
L 113.027155 21.50365 
L 113.449715 20.722944 
L 113.872274 20.642206 
L 114.294834 21.200188 
L 114.717393 21.288179 
L 115.139953 21.172861 
L 115.562513 21.440715 
L 115.985072 21.001788 
L 116.407632 20.303065 
L 116.830192 20.835844 
L 117.252751 21.62732 
L 117.675311 21.143775 
L 118.09787 21.661461 
L 118.52043 21.018419 
L 118.94299 21.620726 
L 119.788109 21.12055 
L 120.210668 21.302539 
L 120.633228 21.25858 
L 121.055788 21.607612 
L 121.478347 21.194693 
L 121.900907 21.883526 
L 122.746026 20.840973 
L 123.168586 21.102966 
L 124.013705 21.144507 
L 124.436265 20.868227 
L 124.858824 21.392434 
L 125.281384 21.113736 
L 125.703944 21.417637 
L 126.126503 20.835844 
L 126.549063 21.035856 
L 126.971622 20.44278 
L 127.394182 21.856858 
L 127.816742 21.160332 
L 128.239301 20.87973 
L 128.661861 21.218358 
L 129.084421 20.817162 
L 129.50698 21.527021 
L 129.92954 20.93944 
L 130.352099 21.367817 
L 130.774659 22.533821 
L 131.197219 21.118205 
L 131.619778 21.663366 
L 132.042338 20.741333 
L 132.887457 21.25902 
L 133.310017 21.125971 
L 133.732576 21.848505 
L 134.155136 21.354337 
L 134.577696 21.427528 
L 135.000255 20.867201 
L 135.422815 21.057323 
L 135.845374 21.502844 
L 136.267934 21.210519 
L 137.113053 21.253598 
L 137.535613 20.790567 
L 137.958173 21.79766 
L 138.803292 21.094394 
L 139.225851 21.238652 
L 140.070971 21.05681 
L 140.49353 21.181799 
L 141.33865 21.271328 
L 141.761209 21.520867 
L 142.183769 21.401006 
L 142.606328 20.827052 
L 143.028888 21.384815 
L 143.874007 21.102453 
L 144.296567 21.770332 
L 144.719126 21.662194 
L 145.141686 21.763299 
L 145.564246 21.040252 
L 145.986805 20.995707 
L 146.409365 20.667336 
L 146.831925 20.861194 
L 147.254484 21.629298 
L 147.677044 21.496177 
L 148.522163 20.881927 
L 149.367282 21.808283 
L 149.789842 21.072708 
L 150.212402 21.097911 
L 150.634961 21.470827 
L 151.057521 21.011093 
L 151.48008 21.358733 
L 151.90264 21.365546 
L 152.3252 22.363994 
L 153.170319 21.455149 
L 153.592878 21.240264 
L 154.015438 21.541967 
L 154.437998 21.086262 
L 154.860557 21.594937 
L 155.283117 21.534494 
L 155.705677 21.82235 
L 156.128236 21.921404 
L 156.550796 21.023767 
L 156.973355 21.438224 
L 157.395915 21.092636 
L 157.818475 21.42848 
L 158.663594 21.502331 
L 159.086154 21.661681 
L 159.508713 22.291023 
L 160.353832 21.112711 
L 160.776392 21.612374 
L 161.621511 20.981714 
L 162.466631 22.125152 
L 163.31175 20.719427 
L 164.156869 21.930269 
L 164.579429 21.144727 
L 165.001988 21.2229 
L 165.424548 21.481963 
L 165.847107 21.277043 
L 166.269667 20.821191 
L 166.692227 21.254331 
L 167.114786 21.126557 
L 167.537346 21.375217 
L 167.959906 20.787343 
L 168.382465 21.196379 
L 168.805025 20.820825 
L 169.227584 21.658384 
L 169.650144 20.700744 
L 170.072704 21.786304 
L 170.495263 21.390163 
L 170.917823 21.727033 
L 171.340383 21.104651 
L 171.762942 21.603436 
L 172.185502 20.828225 
L 173.030621 21.156596 
L 173.453181 22.086981 
L 173.87574 21.417417 
L 174.2983 21.679924 
L 174.72086 21.211398 
L 175.143419 21.783959 
L 176.411098 20.773569 
L 177.256217 21.215061 
L 177.678777 21.876786 
L 178.101336 20.977831 
L 178.946456 21.352432 
L 179.369015 20.862879 
L 179.791575 21.963018 
L 180.214135 21.885357 
L 180.636694 21.386427 
L 181.481813 21.624463 
L 181.904373 21.444159 
L 182.326933 21.614059 
L 183.172052 21.202166 
L 183.594612 21.524164 
L 184.017171 21.556693 
L 184.439731 21.459398 
L 184.86229 21.706812 
L 185.28485 22.321647 
L 185.70741 21.669008 
L 185.70741 21.669008 
" clip-path="url(#p7ff9ff2c6b)" style="fill: none; stroke: #0000ff; stroke-linecap: round"/>
   </g>
   <g id="patch_3">
    <path d="M 33.96625 84.543307 
L 33.96625 7.2 
" style="fill: none; stroke: #262626; stroke-width: 0.5; stroke-linejoin: miter; stroke-linecap: square"/>
   </g>
   <g id="patch_4">
    <path d="M 192.933179 84.543307 
L 192.933179 7.2 
" style="fill: none; stroke: #262626; stroke-width: 0.5; stroke-linejoin: miter; stroke-linecap: square"/>
   </g>
   <g id="patch_5">
    <path d="M 33.96625 84.543307 
L 192.933179 84.543307 
" style="fill: none; stroke: #262626; stroke-width: 0.5; stroke-linejoin: miter; stroke-linecap: square"/>
   </g>
   <g id="patch_6">
    <path d="M 33.96625 7.2 
L 192.933179 7.2 
" style="fill: none; stroke: #262626; stroke-width: 0.5; stroke-linejoin: miter; stroke-linecap: square"/>
   </g>
   <g id="legend_1">
    <g id="line2d_17">
     <path d="M 135.907867 40.988216 
L 141.907867 40.988216 
L 147.907867 40.988216 
" style="fill: none; stroke: #e41a1c; stroke-linecap: round"/>
    </g>
    <g id="text_17">
     <!-- Severe motion -->
     <g style="fill: #262626" transform="translate(152.707867 43.088216) scale(0.06 -0.06)">
      <defs>
       <path id="TimesNewRomanPSMT-76" d="M 53 2863 
L 1400 2863 
L 1400 2747 
L 1313 2747 
Q 1191 2747 1127 2687 
Q 1063 2628 1063 2528 
Q 1063 2419 1128 2269 
L 1794 688 
L 2463 2328 
Q 2534 2503 2534 2594 
Q 2534 2638 2509 2666 
Q 2475 2713 2422 2730 
Q 2369 2747 2206 2747 
L 2206 2863 
L 3141 2863 
L 3141 2747 
Q 2978 2734 2916 2681 
Q 2806 2588 2719 2369 
L 1703 -88 
L 1575 -88 
L 553 2328 
Q 484 2497 421 2570 
Q 359 2644 263 2694 
Q 209 2722 53 2747 
L 53 2863 
z
" transform="scale(0.015625)"/>
      </defs>
      <use xlink:href="#TimesNewRomanPSMT-53"/>
      <use xlink:href="#TimesNewRomanPSMT-65" x="55.615234"/>
      <use xlink:href="#TimesNewRomanPSMT-76" x="100"/>
      <use xlink:href="#TimesNewRomanPSMT-65" x="150"/>
      <use xlink:href="#TimesNewRomanPSMT-72" x="194.384766"/>
      <use xlink:href="#TimesNewRomanPSMT-65" x="227.685547"/>
      <use xlink:href="#TimesNewRomanPSMT-20" x="272.070312"/>
      <use xlink:href="#TimesNewRomanPSMT-6d" x="297.070312"/>
      <use xlink:href="#TimesNewRomanPSMT-6f" x="374.853516"/>
      <use xlink:href="#TimesNewRomanPSMT-74" x="424.853516"/>
      <use xlink:href="#TimesNewRomanPSMT-69" x="452.636719"/>
      <use xlink:href="#TimesNewRomanPSMT-6f" x="480.419922"/>
      <use xlink:href="#TimesNewRomanPSMT-6e" x="530.419922"/>
     </g>
    </g>
    <g id="line2d_18">
     <path d="M 135.907867 49.471654 
L 141.907867 49.471654 
L 147.907867 49.471654 
" style="fill: none; stroke: #0000ff; stroke-linecap: round"/>
    </g>
    <g id="text_18">
     <!-- No motion -->
     <g style="fill: #262626" transform="translate(152.707867 51.571654) scale(0.06 -0.06)">
      <defs>
       <path id="TimesNewRomanPSMT-4e" d="M -84 4238 
L 1066 4238 
L 3656 1059 
L 3656 3503 
Q 3656 3894 3569 3991 
Q 3453 4122 3203 4122 
L 3056 4122 
L 3056 4238 
L 4531 4238 
L 4531 4122 
L 4381 4122 
Q 4113 4122 4000 3959 
Q 3931 3859 3931 3503 
L 3931 -69 
L 3819 -69 
L 1025 3344 
L 1025 734 
Q 1025 344 1109 247 
Q 1228 116 1475 116 
L 1625 116 
L 1625 0 
L 150 0 
L 150 116 
L 297 116 
Q 569 116 681 278 
Q 750 378 750 734 
L 750 3681 
Q 566 3897 470 3965 
Q 375 4034 191 4094 
Q 100 4122 -84 4122 
L -84 4238 
z
" transform="scale(0.015625)"/>
      </defs>
      <use xlink:href="#TimesNewRomanPSMT-4e"/>
      <use xlink:href="#TimesNewRomanPSMT-6f" x="72.216797"/>
      <use xlink:href="#TimesNewRomanPSMT-20" x="122.216797"/>
      <use xlink:href="#TimesNewRomanPSMT-6d" x="147.216797"/>
      <use xlink:href="#TimesNewRomanPSMT-6f" x="225"/>
      <use xlink:href="#TimesNewRomanPSMT-74" x="275"/>
      <use xlink:href="#TimesNewRomanPSMT-69" x="302.783203"/>
      <use xlink:href="#TimesNewRomanPSMT-6f" x="330.566406"/>
      <use xlink:href="#TimesNewRomanPSMT-6e" x="380.566406"/>
     </g>
    </g>
   </g>
  </g>
 </g>
 <defs>
  <clipPath id="p7ff9ff2c6b">
   <rect x="33.96625" y="7.2" width="158.966929" height="77.343307"/>
  </clipPath>
 </defs>
</svg>
