<?xml version="1.0" encoding="utf-8" standalone="no"?>
<!DOCTYPE svg PUBLIC "-//W3C//DTD SVG 1.1//EN"
  "http://www.w3.org/Graphics/SVG/1.1/DTD/svg11.dtd">
<svg xmlns:xlink="http://www.w3.org/1999/xlink" width="170.992274pt" height="121.033395pt" viewBox="0 0 170.992274 121.033395" xmlns="http://www.w3.org/2000/svg" version="1.1">
 <metadata>
  <rdf:RDF xmlns:dc="http://purl.org/dc/elements/1.1/" xmlns:cc="http://creativecommons.org/ns#" xmlns:rdf="http://www.w3.org/1999/02/22-rdf-syntax-ns#">
   <cc:Work>
    <dc:type rdf:resource="http://purl.org/dc/dcmitype/StillImage"/>
    <dc:date>2024-04-15T15:27:42.442484</dc:date>
    <dc:format>image/svg+xml</dc:format>
    <dc:creator>
     <cc:Agent>
      <dc:title>Matplotlib v3.8.3, https://matplotlib.org/</dc:title>
     </cc:Agent>
    </dc:creator>
   </cc:Work>
  </rdf:RDF>
 </metadata>
 <defs>
  <style type="text/css">*{stroke-linejoin: round; stroke-linecap: butt}</style>
 </defs>
 <g id="figure_1">
  <g id="patch_1">
   <path d="M 0 121.033395 
L 170.992274 121.033395 
L 170.992274 0 
L 0 0 
z
" style="fill: #ffffff"/>
  </g>
  <g id="axes_1">
   <g id="patch_2">
    <path d="M 31.98125 84.026599 
L 163.792274 84.026599 
L 163.792274 19.821875 
L 31.98125 19.821875 
z
" style="fill: #ffffff"/>
   </g>
   <g id="matplotlib.axis_1">
    <g id="xtick_1">
     <g id="line2d_1">
      <path d="M 97.886762 84.026599 
L 97.886762 19.821875 
" clip-path="url(#p02eeee0df3)" style="fill: none"/>
     </g>
     <g id="line2d_2">
      <defs>
       <path id="mc4d7d53fe6" d="M 0 0 
L 0 2 
" style="stroke: #808080; stroke-width: 0.5"/>
      </defs>
      <g>
       <use xlink:href="#mc4d7d53fe6" x="97.886762" y="84.026599" style="fill: #808080; stroke: #808080; stroke-width: 0.5"/>
      </g>
     </g>
     <g id="text_1">
      <!-- 7_m_Lo -->
      <g style="fill: #262626" transform="translate(77.497338 112.612752) rotate(-45) scale(0.08 -0.08)">
       <defs>
        <path id="TimesNewRomanPSMT-37" d="M 644 4238 
L 2916 4238 
L 2916 4119 
L 1503 -88 
L 1153 -88 
L 2419 3728 
L 1253 3728 
Q 900 3728 750 3644 
Q 488 3500 328 3200 
L 238 3234 
L 644 4238 
z
" transform="scale(0.015625)"/>
        <path id="TimesNewRomanPSMT-5f" d="M 3256 -1381 
L -53 -1381 
L -53 -1119 
L 3256 -1119 
L 3256 -1381 
z
" transform="scale(0.015625)"/>
        <path id="TimesNewRomanPSMT-6d" d="M 1050 2338 
Q 1363 2650 1419 2697 
Q 1559 2816 1721 2881 
Q 1884 2947 2044 2947 
Q 2313 2947 2506 2790 
Q 2700 2634 2766 2338 
Q 3088 2713 3309 2830 
Q 3531 2947 3766 2947 
Q 3994 2947 4170 2830 
Q 4347 2713 4450 2447 
Q 4519 2266 4519 1878 
L 4519 647 
Q 4519 378 4559 278 
Q 4591 209 4675 161 
Q 4759 113 4950 113 
L 4950 0 
L 3538 0 
L 3538 113 
L 3597 113 
Q 3781 113 3884 184 
Q 3956 234 3988 344 
Q 4000 397 4000 647 
L 4000 1878 
Q 4000 2228 3916 2372 
Q 3794 2572 3525 2572 
Q 3359 2572 3192 2489 
Q 3025 2406 2788 2181 
L 2781 2147 
L 2788 2013 
L 2788 647 
Q 2788 353 2820 281 
Q 2853 209 2943 161 
Q 3034 113 3253 113 
L 3253 0 
L 1806 0 
L 1806 113 
Q 2044 113 2133 169 
Q 2222 225 2256 338 
Q 2272 391 2272 647 
L 2272 1878 
Q 2272 2228 2169 2381 
Q 2031 2581 1784 2581 
Q 1616 2581 1450 2491 
Q 1191 2353 1050 2181 
L 1050 647 
Q 1050 366 1089 281 
Q 1128 197 1204 155 
Q 1281 113 1516 113 
L 1516 0 
L 100 0 
L 100 113 
Q 297 113 375 155 
Q 453 197 493 289 
Q 534 381 534 647 
L 534 1741 
Q 534 2213 506 2350 
Q 484 2453 437 2492 
Q 391 2531 309 2531 
Q 222 2531 100 2484 
L 53 2597 
L 916 2947 
L 1050 2947 
L 1050 2338 
z
" transform="scale(0.015625)"/>
        <path id="TimesNewRomanPSMT-4c" d="M 3669 1172 
L 3772 1150 
L 3409 0 
L 128 0 
L 128 116 
L 288 116 
Q 556 116 672 291 
Q 738 391 738 753 
L 738 3488 
Q 738 3884 650 3984 
Q 528 4122 288 4122 
L 128 4122 
L 128 4238 
L 2047 4238 
L 2047 4122 
Q 1709 4125 1573 4059 
Q 1438 3994 1388 3894 
Q 1338 3794 1338 3416 
L 1338 753 
Q 1338 494 1388 397 
Q 1425 331 1503 300 
Q 1581 269 1991 269 
L 2300 269 
Q 2788 269 2984 341 
Q 3181 413 3343 595 
Q 3506 778 3669 1172 
z
" transform="scale(0.015625)"/>
        <path id="TimesNewRomanPSMT-6f" d="M 1600 2947 
Q 2250 2947 2644 2453 
Q 2978 2031 2978 1484 
Q 2978 1100 2793 706 
Q 2609 313 2286 112 
Q 1963 -88 1566 -88 
Q 919 -88 538 428 
Q 216 863 216 1403 
Q 216 1797 411 2186 
Q 606 2575 925 2761 
Q 1244 2947 1600 2947 
z
M 1503 2744 
Q 1338 2744 1170 2645 
Q 1003 2547 900 2300 
Q 797 2053 797 1666 
Q 797 1041 1045 587 
Q 1294 134 1700 134 
Q 2003 134 2200 384 
Q 2397 634 2397 1244 
Q 2397 2006 2069 2444 
Q 1847 2744 1503 2744 
z
" transform="scale(0.015625)"/>
       </defs>
       <use xlink:href="#TimesNewRomanPSMT-37"/>
       <use xlink:href="#TimesNewRomanPSMT-5f" x="50"/>
       <use xlink:href="#TimesNewRomanPSMT-6d" x="100"/>
       <use xlink:href="#TimesNewRomanPSMT-5f" x="177.783203"/>
       <use xlink:href="#TimesNewRomanPSMT-4c" x="227.783203"/>
       <use xlink:href="#TimesNewRomanPSMT-6f" x="288.867188"/>
      </g>
     </g>
    </g>
   </g>
   <g id="matplotlib.axis_2">
    <g id="ytick_1">
     <g id="line2d_3">
      <path d="M 31.98125 79.029732 
L 163.792274 79.029732 
" clip-path="url(#p02eeee0df3)" style="fill: none"/>
     </g>
     <g id="line2d_4">
      <defs>
       <path id="ma349f07877" d="M 0 0 
L -2 0 
" style="stroke: #808080; stroke-width: 0.5"/>
      </defs>
      <g>
       <use xlink:href="#ma349f07877" x="31.98125" y="79.029732" style="fill: #808080; stroke: #808080; stroke-width: 0.5"/>
      </g>
     </g>
     <g id="text_2">
      <!-- 30 -->
      <g style="fill: #262626" transform="translate(18.48125 81.807232) scale(0.08 -0.08)">
       <defs>
        <path id="TimesNewRomanPSMT-33" d="M 325 3431 
Q 506 3859 782 4092 
Q 1059 4325 1472 4325 
Q 1981 4325 2253 3994 
Q 2459 3747 2459 3466 
Q 2459 3003 1878 2509 
Q 2269 2356 2469 2072 
Q 2669 1788 2669 1403 
Q 2669 853 2319 450 
Q 1863 -75 997 -75 
Q 569 -75 414 31 
Q 259 138 259 259 
Q 259 350 332 419 
Q 406 488 509 488 
Q 588 488 669 463 
Q 722 447 909 348 
Q 1097 250 1169 231 
Q 1284 197 1416 197 
Q 1734 197 1970 444 
Q 2206 691 2206 1028 
Q 2206 1275 2097 1509 
Q 2016 1684 1919 1775 
Q 1784 1900 1550 2001 
Q 1316 2103 1072 2103 
L 972 2103 
L 972 2197 
Q 1219 2228 1467 2375 
Q 1716 2522 1828 2728 
Q 1941 2934 1941 3181 
Q 1941 3503 1739 3701 
Q 1538 3900 1238 3900 
Q 753 3900 428 3381 
L 325 3431 
z
" transform="scale(0.015625)"/>
        <path id="TimesNewRomanPSMT-30" d="M 231 2094 
Q 231 2819 450 3342 
Q 669 3866 1031 4122 
Q 1313 4325 1613 4325 
Q 2100 4325 2488 3828 
Q 2972 3213 2972 2159 
Q 2972 1422 2759 906 
Q 2547 391 2217 158 
Q 1888 -75 1581 -75 
Q 975 -75 572 641 
Q 231 1244 231 2094 
z
M 844 2016 
Q 844 1141 1059 588 
Q 1238 122 1591 122 
Q 1759 122 1940 273 
Q 2122 425 2216 781 
Q 2359 1319 2359 2297 
Q 2359 3022 2209 3506 
Q 2097 3866 1919 4016 
Q 1791 4119 1609 4119 
Q 1397 4119 1231 3928 
Q 1006 3669 925 3112 
Q 844 2556 844 2016 
z
" transform="scale(0.015625)"/>
       </defs>
       <use xlink:href="#TimesNewRomanPSMT-33"/>
       <use xlink:href="#TimesNewRomanPSMT-30" x="50"/>
      </g>
     </g>
    </g>
    <g id="ytick_2">
     <g id="line2d_5">
      <path d="M 31.98125 65.346664 
L 163.792274 65.346664 
" clip-path="url(#p02eeee0df3)" style="fill: none"/>
     </g>
     <g id="line2d_6">
      <g>
       <use xlink:href="#ma349f07877" x="31.98125" y="65.346664" style="fill: #808080; stroke: #808080; stroke-width: 0.5"/>
      </g>
     </g>
     <g id="text_3">
      <!-- 35 -->
      <g style="fill: #262626" transform="translate(18.48125 68.124164) scale(0.08 -0.08)">
       <defs>
        <path id="TimesNewRomanPSMT-35" d="M 2778 4238 
L 2534 3706 
L 1259 3706 
L 981 3138 
Q 1809 3016 2294 2522 
Q 2709 2097 2709 1522 
Q 2709 1188 2573 903 
Q 2438 619 2231 419 
Q 2025 219 1772 97 
Q 1413 -75 1034 -75 
Q 653 -75 479 54 
Q 306 184 306 341 
Q 306 428 378 495 
Q 450 563 559 563 
Q 641 563 702 538 
Q 763 513 909 409 
Q 1144 247 1384 247 
Q 1750 247 2026 523 
Q 2303 800 2303 1197 
Q 2303 1581 2056 1914 
Q 1809 2247 1375 2428 
Q 1034 2569 447 2591 
L 1259 4238 
L 2778 4238 
z
" transform="scale(0.015625)"/>
       </defs>
       <use xlink:href="#TimesNewRomanPSMT-33"/>
       <use xlink:href="#TimesNewRomanPSMT-35" x="50"/>
      </g>
     </g>
    </g>
    <g id="ytick_3">
     <g id="line2d_7">
      <path d="M 31.98125 51.663597 
L 163.792274 51.663597 
" clip-path="url(#p02eeee0df3)" style="fill: none"/>
     </g>
     <g id="line2d_8">
      <g>
       <use xlink:href="#ma349f07877" x="31.98125" y="51.663597" style="fill: #808080; stroke: #808080; stroke-width: 0.5"/>
      </g>
     </g>
     <g id="text_4">
      <!-- 40 -->
      <g style="fill: #262626" transform="translate(18.48125 54.441097) scale(0.08 -0.08)">
       <defs>
        <path id="TimesNewRomanPSMT-34" d="M 2978 1563 
L 2978 1119 
L 2409 1119 
L 2409 0 
L 1894 0 
L 1894 1119 
L 100 1119 
L 100 1519 
L 2066 4325 
L 2409 4325 
L 2409 1563 
L 2978 1563 
z
M 1894 1563 
L 1894 3666 
L 406 1563 
L 1894 1563 
z
" transform="scale(0.015625)"/>
       </defs>
       <use xlink:href="#TimesNewRomanPSMT-34"/>
       <use xlink:href="#TimesNewRomanPSMT-30" x="50"/>
      </g>
     </g>
    </g>
    <g id="ytick_4">
     <g id="line2d_9">
      <path d="M 31.98125 37.980529 
L 163.792274 37.980529 
" clip-path="url(#p02eeee0df3)" style="fill: none"/>
     </g>
     <g id="line2d_10">
      <g>
       <use xlink:href="#ma349f07877" x="31.98125" y="37.980529" style="fill: #808080; stroke: #808080; stroke-width: 0.5"/>
      </g>
     </g>
     <g id="text_5">
      <!-- 45 -->
      <g style="fill: #262626" transform="translate(18.48125 40.758029) scale(0.08 -0.08)">
       <use xlink:href="#TimesNewRomanPSMT-34"/>
       <use xlink:href="#TimesNewRomanPSMT-35" x="50"/>
      </g>
     </g>
    </g>
    <g id="ytick_5">
     <g id="line2d_11">
      <path d="M 31.98125 24.297461 
L 163.792274 24.297461 
" clip-path="url(#p02eeee0df3)" style="fill: none"/>
     </g>
     <g id="line2d_12">
      <g>
       <use xlink:href="#ma349f07877" x="31.98125" y="24.297461" style="fill: #808080; stroke: #808080; stroke-width: 0.5"/>
      </g>
     </g>
     <g id="text_6">
      <!-- 50 -->
      <g style="fill: #262626" transform="translate(18.48125 27.074961) scale(0.08 -0.08)">
       <use xlink:href="#TimesNewRomanPSMT-35"/>
       <use xlink:href="#TimesNewRomanPSMT-30" x="50"/>
      </g>
     </g>
    </g>
    <g id="text_7">
     <!-- SNR-Chang (dB) -->
     <g style="fill: #262626" transform="translate(12.755 79.812987) rotate(-90) scale(0.08 -0.08)">
      <defs>
       <path id="TimesNewRomanPSMT-53" d="M 2934 4334 
L 2934 2869 
L 2819 2869 
Q 2763 3291 2617 3541 
Q 2472 3791 2203 3937 
Q 1934 4084 1647 4084 
Q 1322 4084 1109 3886 
Q 897 3688 897 3434 
Q 897 3241 1031 3081 
Q 1225 2847 1953 2456 
Q 2547 2138 2764 1967 
Q 2981 1797 3098 1565 
Q 3216 1334 3216 1081 
Q 3216 600 2842 251 
Q 2469 -97 1881 -97 
Q 1697 -97 1534 -69 
Q 1438 -53 1133 45 
Q 828 144 747 144 
Q 669 144 623 97 
Q 578 50 556 -97 
L 441 -97 
L 441 1356 
L 556 1356 
Q 638 900 775 673 
Q 913 447 1195 297 
Q 1478 147 1816 147 
Q 2206 147 2432 353 
Q 2659 559 2659 841 
Q 2659 997 2573 1156 
Q 2488 1316 2306 1453 
Q 2184 1547 1640 1851 
Q 1097 2156 867 2337 
Q 638 2519 519 2737 
Q 400 2956 400 3219 
Q 400 3675 750 4004 
Q 1100 4334 1641 4334 
Q 1978 4334 2356 4169 
Q 2531 4091 2603 4091 
Q 2684 4091 2736 4139 
Q 2788 4188 2819 4334 
L 2934 4334 
z
" transform="scale(0.015625)"/>
       <path id="TimesNewRomanPSMT-4e" d="M -84 4238 
L 1066 4238 
L 3656 1059 
L 3656 3503 
Q 3656 3894 3569 3991 
Q 3453 4122 3203 4122 
L 3056 4122 
L 3056 4238 
L 4531 4238 
L 4531 4122 
L 4381 4122 
Q 4113 4122 4000 3959 
Q 3931 3859 3931 3503 
L 3931 -69 
L 3819 -69 
L 1025 3344 
L 1025 734 
Q 1025 344 1109 247 
Q 1228 116 1475 116 
L 1625 116 
L 1625 0 
L 150 0 
L 150 116 
L 297 116 
Q 569 116 681 278 
Q 750 378 750 734 
L 750 3681 
Q 566 3897 470 3965 
Q 375 4034 191 4094 
Q 100 4122 -84 4122 
L -84 4238 
z
" transform="scale(0.015625)"/>
       <path id="TimesNewRomanPSMT-52" d="M 4325 0 
L 3194 0 
L 1759 1981 
Q 1600 1975 1500 1975 
Q 1459 1975 1412 1976 
Q 1366 1978 1316 1981 
L 1316 750 
Q 1316 350 1403 253 
Q 1522 116 1759 116 
L 1925 116 
L 1925 0 
L 109 0 
L 109 116 
L 269 116 
Q 538 116 653 291 
Q 719 388 719 750 
L 719 3488 
Q 719 3888 631 3984 
Q 509 4122 269 4122 
L 109 4122 
L 109 4238 
L 1653 4238 
Q 2328 4238 2648 4139 
Q 2969 4041 3192 3777 
Q 3416 3513 3416 3147 
Q 3416 2756 3161 2468 
Q 2906 2181 2372 2063 
L 3247 847 
Q 3547 428 3762 290 
Q 3978 153 4325 116 
L 4325 0 
z
M 1316 2178 
Q 1375 2178 1419 2176 
Q 1463 2175 1491 2175 
Q 2097 2175 2405 2437 
Q 2713 2700 2713 3106 
Q 2713 3503 2464 3751 
Q 2216 4000 1806 4000 
Q 1625 4000 1316 3941 
L 1316 2178 
z
" transform="scale(0.015625)"/>
       <path id="TimesNewRomanPSMT-2d" d="M 259 1672 
L 1875 1672 
L 1875 1200 
L 259 1200 
L 259 1672 
z
" transform="scale(0.015625)"/>
       <path id="TimesNewRomanPSMT-43" d="M 3853 4334 
L 3950 2894 
L 3853 2894 
Q 3659 3541 3300 3825 
Q 2941 4109 2438 4109 
Q 2016 4109 1675 3895 
Q 1334 3681 1139 3212 
Q 944 2744 944 2047 
Q 944 1472 1128 1050 
Q 1313 628 1683 403 
Q 2053 178 2528 178 
Q 2941 178 3256 354 
Q 3572 531 3950 1056 
L 4047 994 
Q 3728 428 3303 165 
Q 2878 -97 2294 -97 
Q 1241 -97 663 684 
Q 231 1266 231 2053 
Q 231 2688 515 3219 
Q 800 3750 1298 4042 
Q 1797 4334 2388 4334 
Q 2847 4334 3294 4109 
Q 3425 4041 3481 4041 
Q 3566 4041 3628 4100 
Q 3709 4184 3744 4334 
L 3853 4334 
z
" transform="scale(0.015625)"/>
       <path id="TimesNewRomanPSMT-68" d="M 1041 4444 
L 1041 2350 
Q 1388 2731 1591 2839 
Q 1794 2947 1997 2947 
Q 2241 2947 2416 2812 
Q 2591 2678 2675 2391 
Q 2734 2191 2734 1659 
L 2734 647 
Q 2734 375 2778 275 
Q 2809 200 2884 156 
Q 2959 113 3159 113 
L 3159 0 
L 1753 0 
L 1753 113 
L 1819 113 
Q 2019 113 2097 173 
Q 2175 234 2206 353 
Q 2216 403 2216 647 
L 2216 1659 
Q 2216 2128 2167 2275 
Q 2119 2422 2012 2495 
Q 1906 2569 1756 2569 
Q 1603 2569 1437 2487 
Q 1272 2406 1041 2159 
L 1041 647 
Q 1041 353 1073 281 
Q 1106 209 1195 161 
Q 1284 113 1503 113 
L 1503 0 
L 84 0 
L 84 113 
Q 275 113 384 172 
Q 447 203 484 290 
Q 522 378 522 647 
L 522 3238 
Q 522 3728 498 3840 
Q 475 3953 426 3993 
Q 378 4034 297 4034 
Q 231 4034 84 3984 
L 41 4094 
L 897 4444 
L 1041 4444 
z
" transform="scale(0.015625)"/>
       <path id="TimesNewRomanPSMT-61" d="M 1822 413 
Q 1381 72 1269 19 
Q 1100 -59 909 -59 
Q 613 -59 420 144 
Q 228 347 228 678 
Q 228 888 322 1041 
Q 450 1253 767 1440 
Q 1084 1628 1822 1897 
L 1822 2009 
Q 1822 2438 1686 2597 
Q 1550 2756 1291 2756 
Q 1094 2756 978 2650 
Q 859 2544 859 2406 
L 866 2225 
Q 866 2081 792 2003 
Q 719 1925 600 1925 
Q 484 1925 411 2006 
Q 338 2088 338 2228 
Q 338 2497 613 2722 
Q 888 2947 1384 2947 
Q 1766 2947 2009 2819 
Q 2194 2722 2281 2516 
Q 2338 2381 2338 1966 
L 2338 994 
Q 2338 584 2353 492 
Q 2369 400 2405 369 
Q 2441 338 2488 338 
Q 2538 338 2575 359 
Q 2641 400 2828 588 
L 2828 413 
Q 2478 -56 2159 -56 
Q 2006 -56 1915 50 
Q 1825 156 1822 413 
z
M 1822 616 
L 1822 1706 
Q 1350 1519 1213 1441 
Q 966 1303 859 1153 
Q 753 1003 753 825 
Q 753 600 887 451 
Q 1022 303 1197 303 
Q 1434 303 1822 616 
z
" transform="scale(0.015625)"/>
       <path id="TimesNewRomanPSMT-6e" d="M 1034 2341 
Q 1538 2947 1994 2947 
Q 2228 2947 2397 2830 
Q 2566 2713 2666 2444 
Q 2734 2256 2734 1869 
L 2734 647 
Q 2734 375 2778 278 
Q 2813 200 2889 156 
Q 2966 113 3172 113 
L 3172 0 
L 1756 0 
L 1756 113 
L 1816 113 
Q 2016 113 2095 173 
Q 2175 234 2206 353 
Q 2219 400 2219 647 
L 2219 1819 
Q 2219 2209 2117 2386 
Q 2016 2563 1775 2563 
Q 1403 2563 1034 2156 
L 1034 647 
Q 1034 356 1069 288 
Q 1113 197 1189 155 
Q 1266 113 1500 113 
L 1500 0 
L 84 0 
L 84 113 
L 147 113 
Q 366 113 442 223 
Q 519 334 519 647 
L 519 1709 
Q 519 2225 495 2337 
Q 472 2450 423 2490 
Q 375 2531 294 2531 
Q 206 2531 84 2484 
L 38 2597 
L 900 2947 
L 1034 2947 
L 1034 2341 
z
" transform="scale(0.015625)"/>
       <path id="TimesNewRomanPSMT-67" d="M 966 1044 
Q 703 1172 562 1401 
Q 422 1631 422 1909 
Q 422 2334 742 2640 
Q 1063 2947 1563 2947 
Q 1972 2947 2272 2747 
L 2878 2747 
Q 3013 2747 3034 2739 
Q 3056 2731 3066 2713 
Q 3084 2684 3084 2613 
Q 3084 2531 3069 2500 
Q 3059 2484 3036 2475 
Q 3013 2466 2878 2466 
L 2506 2466 
Q 2681 2241 2681 1891 
Q 2681 1491 2375 1206 
Q 2069 922 1553 922 
Q 1341 922 1119 984 
Q 981 866 932 777 
Q 884 688 884 625 
Q 884 572 936 522 
Q 988 472 1138 450 
Q 1225 438 1575 428 
Q 2219 413 2409 384 
Q 2700 344 2873 169 
Q 3047 -6 3047 -263 
Q 3047 -616 2716 -925 
Q 2228 -1381 1444 -1381 
Q 841 -1381 425 -1109 
Q 191 -953 191 -784 
Q 191 -709 225 -634 
Q 278 -519 444 -313 
Q 466 -284 763 25 
Q 600 122 533 198 
Q 466 275 466 372 
Q 466 481 555 628 
Q 644 775 966 1044 
z
M 1509 2797 
Q 1278 2797 1122 2612 
Q 966 2428 966 2047 
Q 966 1553 1178 1281 
Q 1341 1075 1591 1075 
Q 1828 1075 1981 1253 
Q 2134 1431 2134 1813 
Q 2134 2309 1919 2591 
Q 1759 2797 1509 2797 
z
M 934 0 
Q 788 -159 713 -296 
Q 638 -434 638 -550 
Q 638 -700 819 -813 
Q 1131 -1006 1722 -1006 
Q 2284 -1006 2551 -807 
Q 2819 -609 2819 -384 
Q 2819 -222 2659 -153 
Q 2497 -84 2016 -72 
Q 1313 -53 934 0 
z
" transform="scale(0.015625)"/>
       <path id="TimesNewRomanPSMT-20" transform="scale(0.015625)"/>
       <path id="TimesNewRomanPSMT-28" d="M 1988 -1253 
L 1988 -1369 
Q 1516 -1131 1200 -813 
Q 750 -359 506 256 
Q 263 872 263 1534 
Q 263 2503 741 3301 
Q 1219 4100 1988 4444 
L 1988 4313 
Q 1603 4100 1356 3731 
Q 1109 3363 987 2797 
Q 866 2231 866 1616 
Q 866 947 969 400 
Q 1050 -31 1165 -292 
Q 1281 -553 1476 -793 
Q 1672 -1034 1988 -1253 
z
" transform="scale(0.015625)"/>
       <path id="TimesNewRomanPSMT-64" d="M 2222 322 
Q 2013 103 1813 7 
Q 1613 -88 1381 -88 
Q 913 -88 563 304 
Q 213 697 213 1313 
Q 213 1928 600 2439 
Q 988 2950 1597 2950 
Q 1975 2950 2222 2709 
L 2222 3238 
Q 2222 3728 2198 3840 
Q 2175 3953 2125 3993 
Q 2075 4034 2000 4034 
Q 1919 4034 1784 3984 
L 1744 4094 
L 2597 4444 
L 2738 4444 
L 2738 1134 
Q 2738 631 2761 520 
Q 2784 409 2836 365 
Q 2888 322 2956 322 
Q 3041 322 3181 375 
L 3216 266 
L 2366 -88 
L 2222 -88 
L 2222 322 
z
M 2222 541 
L 2222 2016 
Q 2203 2228 2109 2403 
Q 2016 2578 1861 2667 
Q 1706 2756 1559 2756 
Q 1284 2756 1069 2509 
Q 784 2184 784 1559 
Q 784 928 1059 592 
Q 1334 256 1672 256 
Q 1956 256 2222 541 
z
" transform="scale(0.015625)"/>
       <path id="TimesNewRomanPSMT-42" d="M 2956 2163 
Q 3397 2069 3616 1863 
Q 3919 1575 3919 1159 
Q 3919 844 3719 555 
Q 3519 266 3170 133 
Q 2822 0 2106 0 
L 106 0 
L 106 116 
L 266 116 
Q 531 116 647 284 
Q 719 394 719 750 
L 719 3488 
Q 719 3881 628 3984 
Q 506 4122 266 4122 
L 106 4122 
L 106 4238 
L 1938 4238 
Q 2450 4238 2759 4163 
Q 3228 4050 3475 3764 
Q 3722 3478 3722 3106 
Q 3722 2788 3528 2536 
Q 3334 2284 2956 2163 
z
M 1319 2331 
Q 1434 2309 1582 2298 
Q 1731 2288 1909 2288 
Q 2366 2288 2595 2386 
Q 2825 2484 2947 2687 
Q 3069 2891 3069 3131 
Q 3069 3503 2766 3765 
Q 2463 4028 1881 4028 
Q 1569 4028 1319 3959 
L 1319 2331 
z
M 1319 306 
Q 1681 222 2034 222 
Q 2600 222 2897 476 
Q 3194 731 3194 1106 
Q 3194 1353 3059 1581 
Q 2925 1809 2622 1940 
Q 2319 2072 1872 2072 
Q 1678 2072 1540 2065 
Q 1403 2059 1319 2044 
L 1319 306 
z
" transform="scale(0.015625)"/>
       <path id="TimesNewRomanPSMT-29" d="M 144 4313 
L 144 4444 
Q 619 4209 934 3891 
Q 1381 3434 1625 2820 
Q 1869 2206 1869 1541 
Q 1869 572 1392 -226 
Q 916 -1025 144 -1369 
L 144 -1253 
Q 528 -1038 776 -670 
Q 1025 -303 1145 264 
Q 1266 831 1266 1447 
Q 1266 2113 1163 2663 
Q 1084 3094 967 3353 
Q 850 3613 656 3853 
Q 463 4094 144 4313 
z
" transform="scale(0.015625)"/>
      </defs>
      <use xlink:href="#TimesNewRomanPSMT-53"/>
      <use xlink:href="#TimesNewRomanPSMT-4e" x="55.615234"/>
      <use xlink:href="#TimesNewRomanPSMT-52" x="127.832031"/>
      <use xlink:href="#TimesNewRomanPSMT-2d" x="194.53125"/>
      <use xlink:href="#TimesNewRomanPSMT-43" x="227.832031"/>
      <use xlink:href="#TimesNewRomanPSMT-68" x="294.53125"/>
      <use xlink:href="#TimesNewRomanPSMT-61" x="344.53125"/>
      <use xlink:href="#TimesNewRomanPSMT-6e" x="388.916016"/>
      <use xlink:href="#TimesNewRomanPSMT-67" x="438.916016"/>
      <use xlink:href="#TimesNewRomanPSMT-20" x="488.916016"/>
      <use xlink:href="#TimesNewRomanPSMT-28" x="513.916016"/>
      <use xlink:href="#TimesNewRomanPSMT-64" x="547.216797"/>
      <use xlink:href="#TimesNewRomanPSMT-42" x="597.216797"/>
      <use xlink:href="#TimesNewRomanPSMT-29" x="663.916016"/>
     </g>
    </g>
   </g>
   <g id="PolyCollection_1">
    <defs>
     <path id="m357299b707" d="M 98.575388 -39.925192 
L 97.198135 -39.925192 
L 96.970627 -40.514767 
L 96.686318 -41.104342 
L 96.336964 -41.693917 
L 95.914704 -42.283492 
L 95.412423 -42.873067 
L 94.824087 -43.462643 
L 94.144957 -44.052218 
L 93.371658 -44.641793 
L 92.502026 -45.231368 
L 91.534732 -45.820943 
L 90.468666 -46.410518 
L 89.302146 -47.000093 
L 88.03202 -47.589668 
L 86.652812 -48.179243 
L 85.156087 -48.768818 
L 83.530218 -49.358393 
L 81.760753 -49.947968 
L 79.831546 -50.537543 
L 77.726713 -51.127118 
L 75.433421 -51.716693 
L 72.945324 -52.306268 
L 70.26638 -52.895844 
L 67.414601 -53.485419 
L 64.425227 -54.074994 
L 61.352781 -54.664569 
L 58.271473 -55.254144 
L 55.273616 -55.843719 
L 52.465856 -56.433294 
L 49.963332 -57.022869 
L 47.882157 -57.612444 
L 46.330857 -58.202019 
L 45.401631 -58.791594 
L 45.162352 -59.381169 
L 45.650224 -59.970744 
L 46.867832 -60.560319 
L 48.782068 -61.149894 
L 51.326053 -61.73947 
L 54.40386 -62.329045 
L 57.897487 -62.91862 
L 61.675311 -63.508195 
L 65.601117 -64.09777 
L 69.542809 -64.687345 
L 73.379986 -65.27692 
L 77.009829 -65.866495 
L 80.350941 -66.45607 
L 83.345088 -67.045645 
L 85.957018 -67.63522 
L 88.172692 -68.224795 
L 89.996419 -68.81437 
L 91.447343 -69.403945 
L 92.555762 -69.99352 
L 93.359613 -70.583095 
L 93.901376 -71.172671 
L 94.225498 -71.762246 
L 94.37638 -72.351821 
L 94.396826 -72.941396 
L 94.326878 -73.530971 
L 94.202914 -74.120546 
L 94.056918 -74.710121 
L 93.915862 -75.299696 
L 93.801199 -75.889271 
L 93.728481 -76.478846 
L 93.707165 -77.068421 
L 93.740649 -77.657996 
L 93.8266 -78.247571 
L 93.957593 -78.837146 
L 94.122041 -79.426721 
L 94.305391 -80.016296 
L 94.491485 -80.605872 
L 94.66401 -81.195447 
L 94.807921 -81.785022 
L 94.910721 -82.374597 
L 94.963516 -82.964172 
L 94.96176 -83.553747 
L 94.905637 -84.143322 
L 94.80006 -84.732897 
L 94.654276 -85.322472 
L 94.48113 -85.912047 
L 94.296029 -86.501622 
L 94.115699 -87.091197 
L 93.956844 -87.680772 
L 93.834809 -88.270347 
L 93.762389 -88.859922 
L 93.748871 -89.449497 
L 93.79941 -90.039073 
L 93.914782 -90.628648 
L 94.091528 -91.218223 
L 94.322465 -91.807798 
L 94.597477 -92.397373 
L 94.904504 -92.986948 
L 95.230611 -93.576523 
L 95.563016 -94.166098 
L 95.88999 -94.755673 
L 96.201545 -95.345248 
L 96.489881 -95.934823 
L 96.749576 -96.524398 
L 96.977547 -97.113973 
L 97.172822 -97.703548 
L 97.336189 -98.293123 
L 98.437334 -98.293123 
L 98.437334 -98.293123 
L 98.600702 -97.703548 
L 98.795977 -97.113973 
L 99.023947 -96.524398 
L 99.283642 -95.934823 
L 99.571978 -95.345248 
L 99.883534 -94.755673 
L 100.210508 -94.166098 
L 100.542913 -93.576523 
L 100.86902 -92.986948 
L 101.176047 -92.397373 
L 101.451058 -91.807798 
L 101.681995 -91.218223 
L 101.858742 -90.628648 
L 101.974114 -90.039073 
L 102.024653 -89.449497 
L 102.011135 -88.859922 
L 101.938715 -88.270347 
L 101.81668 -87.680772 
L 101.657824 -87.091197 
L 101.477495 -86.501622 
L 101.292394 -85.912047 
L 101.119248 -85.322472 
L 100.973464 -84.732897 
L 100.867886 -84.143322 
L 100.811764 -83.553747 
L 100.810008 -82.964172 
L 100.862802 -82.374597 
L 100.965602 -81.785022 
L 101.109513 -81.195447 
L 101.282039 -80.605872 
L 101.468133 -80.016296 
L 101.651482 -79.426721 
L 101.815931 -78.837146 
L 101.946923 -78.247571 
L 102.032875 -77.657996 
L 102.066358 -77.068421 
L 102.045042 -76.478846 
L 101.972325 -75.889271 
L 101.857662 -75.299696 
L 101.716606 -74.710121 
L 101.57061 -74.120546 
L 101.446646 -73.530971 
L 101.376698 -72.941396 
L 101.397143 -72.351821 
L 101.548025 -71.762246 
L 101.872148 -71.172671 
L 102.41391 -70.583095 
L 103.217762 -69.99352 
L 104.326181 -69.403945 
L 105.777105 -68.81437 
L 107.600831 -68.224795 
L 109.816506 -67.63522 
L 112.428435 -67.045645 
L 115.422583 -66.45607 
L 118.763694 -65.866495 
L 122.393537 -65.27692 
L 126.230715 -64.687345 
L 130.172406 -64.09777 
L 134.098213 -63.508195 
L 137.876036 -62.91862 
L 141.369663 -62.329045 
L 144.44747 -61.73947 
L 146.991455 -61.149894 
L 148.905691 -60.560319 
L 150.1233 -59.970744 
L 150.611171 -59.381169 
L 150.371892 -58.791594 
L 149.442667 -58.202019 
L 147.891367 -57.612444 
L 145.810192 -57.022869 
L 143.307668 -56.433294 
L 140.499907 -55.843719 
L 137.502051 -55.254144 
L 134.420743 -54.664569 
L 131.348296 -54.074994 
L 128.358923 -53.485419 
L 125.507144 -52.895844 
L 122.8282 -52.306268 
L 120.340103 -51.716693 
L 118.04681 -51.127118 
L 115.941978 -50.537543 
L 114.01277 -49.947968 
L 112.243306 -49.358393 
L 110.617437 -48.768818 
L 109.120712 -48.179243 
L 107.741504 -47.589668 
L 106.471377 -47.000093 
L 105.304857 -46.410518 
L 104.238792 -45.820943 
L 103.271498 -45.231368 
L 102.401866 -44.641793 
L 101.628566 -44.052218 
L 100.949437 -43.462643 
L 100.361101 -42.873067 
L 99.85882 -42.283492 
L 99.436559 -41.693917 
L 99.087206 -41.104342 
L 98.802896 -40.514767 
L 98.575388 -39.925192 
z
" style="stroke: #595959"/>
    </defs>
    <g clip-path="url(#p23a7d8e4c5)">
     <use xlink:href="#m357299b707" x="0" y="121.033395" style="fill: #72b6a1; stroke: #595959"/>
    </g>
   </g>
   <g id="line2d_13">
    <path d="M 97.886762 62.762522 
L 97.886762 64.320227 
" clip-path="url(#p02eeee0df3)" style="fill: none; stroke: #4c4c4c"/>
   </g>
   <g id="line2d_14">
    <path d="M 97.886762 59.907138 
L 97.886762 58.646112 
" clip-path="url(#p02eeee0df3)" style="fill: none; stroke: #4c4c4c"/>
   </g>
   <g id="line2d_15">
    <path d="M 88.000935 64.320227 
L 107.772589 64.320227 
" clip-path="url(#p02eeee0df3)" style="fill: none; stroke: #4c4c4c; stroke-linecap: round"/>
   </g>
   <g id="line2d_16">
    <path d="M 88.000935 58.646112 
L 107.772589 58.646112 
" clip-path="url(#p02eeee0df3)" style="fill: none; stroke: #4c4c4c; stroke-linecap: round"/>
   </g>
   <g id="line2d_17">
    <path d="M 78.115108 61.382413 
L 117.658415 61.382413 
" clip-path="url(#p02eeee0df3)" style="fill: none; stroke: #4c4c4c"/>
   </g>
   <g id="patch_3">
    <path d="M 31.98125 84.026599 
L 31.98125 19.821875 
" style="fill: none; stroke: #262626; stroke-width: 0.5; stroke-linejoin: miter; stroke-linecap: square"/>
   </g>
   <g id="patch_4">
    <path d="M 163.792274 84.026599 
L 163.792274 19.821875 
" style="fill: none; stroke: #262626; stroke-width: 0.5; stroke-linejoin: miter; stroke-linecap: square"/>
   </g>
   <g id="patch_5">
    <path d="M 31.98125 84.026599 
L 163.792274 84.026599 
" style="fill: none; stroke: #262626; stroke-width: 0.5; stroke-linejoin: miter; stroke-linecap: square"/>
   </g>
   <g id="patch_6">
    <path d="M 31.98125 19.821875 
L 163.792274 19.821875 
" style="fill: none; stroke: #262626; stroke-width: 0.5; stroke-linejoin: miter; stroke-linecap: square"/>
   </g>
   <g id="patch_7">
    <path d="M 78.115108 62.762522 
L 117.658415 62.762522 
L 117.658415 59.907138 
L 78.115108 59.907138 
L 78.115108 62.762522 
L 78.115108 62.762522 
z
" clip-path="url(#p02eeee0df3)" style="fill: none; stroke: #4c4c4c; stroke-linejoin: miter"/>
   </g>
   <g id="PathCollection_1">
    <defs>
     <path id="C0_0_2a32931791" d="M 0 0.55 
C 0.145862 0.55 0.285769 0.492049 0.388909 0.388909 
C 0.492049 0.285769 0.55 0.145862 0.55 -0 
C 0.55 -0.145862 0.492049 -0.285769 0.388909 -0.388909 
C 0.285769 -0.492049 0.145862 -0.55 0 -0.55 
C -0.145862 -0.55 -0.285769 -0.492049 -0.388909 -0.388909 
C -0.492049 -0.285769 -0.55 -0.145862 -0.55 0 
C -0.55 0.145862 -0.492049 0.285769 -0.388909 0.388909 
C -0.285769 0.492049 -0.145862 0.55 0 0.55 
z
"/>
    </defs>
    <g clip-path="url(#p02eeee0df3)">
     <use xlink:href="#C0_0_2a32931791" x="125.503861" y="59.783732" style="fill: #66c2a5"/>
    </g>
    <g clip-path="url(#p02eeee0df3)">
     <use xlink:href="#C0_0_2a32931791" x="121.874225" y="44.07571" style="fill: #66c2a5"/>
    </g>
    <g clip-path="url(#p02eeee0df3)">
     <use xlink:href="#C0_0_2a32931791" x="114.015075" y="44.07571" style="fill: #66c2a5"/>
    </g>
    <g clip-path="url(#p02eeee0df3)">
     <use xlink:href="#C0_0_2a32931791" x="103.962938" y="72.336421" style="fill: #66c2a5"/>
    </g>
    <g clip-path="url(#p02eeee0df3)">
     <use xlink:href="#C0_0_2a32931791" x="100.706978" y="72.336421" style="fill: #66c2a5"/>
    </g>
    <g clip-path="url(#p02eeee0df3)">
     <use xlink:href="#C0_0_2a32931791" x="110.77965" y="31.512054" style="fill: #66c2a5"/>
    </g>
    <g clip-path="url(#p02eeee0df3)">
     <use xlink:href="#C0_0_2a32931791" x="126.699274" y="31.512054" style="fill: #66c2a5"/>
    </g>
    <g clip-path="url(#p02eeee0df3)">
     <use xlink:href="#C0_0_2a32931791" x="123.95522" y="62.762522" style="fill: #66c2a5"/>
    </g>
    <g clip-path="url(#p02eeee0df3)">
     <use xlink:href="#C0_0_2a32931791" x="119.610559" y="64.320227" style="fill: #66c2a5"/>
    </g>
    <g clip-path="url(#p02eeee0df3)">
     <use xlink:href="#C0_0_2a32931791" x="104.811014" y="60.659104" style="fill: #66c2a5"/>
    </g>
    <g clip-path="url(#p02eeee0df3)">
     <use xlink:href="#C0_0_2a32931791" x="111.25395" y="60.659104" style="fill: #66c2a5"/>
    </g>
    <g clip-path="url(#p02eeee0df3)">
     <use xlink:href="#C0_0_2a32931791" x="119.54919" y="62.223871" style="fill: #66c2a5"/>
    </g>
    <g clip-path="url(#p02eeee0df3)">
     <use xlink:href="#C0_0_2a32931791" x="114.734993" y="62.223871" style="fill: #66c2a5"/>
    </g>
    <g clip-path="url(#p02eeee0df3)">
     <use xlink:href="#C0_0_2a32931791" x="113.931476" y="60.39339" style="fill: #66c2a5"/>
    </g>
    <g clip-path="url(#p02eeee0df3)">
     <use xlink:href="#C0_0_2a32931791" x="101.144226" y="60.39339" style="fill: #66c2a5"/>
    </g>
    <g clip-path="url(#p02eeee0df3)">
     <use xlink:href="#C0_0_2a32931791" x="120.679395" y="64.320227" style="fill: #66c2a5"/>
    </g>
    <g clip-path="url(#p02eeee0df3)">
     <use xlink:href="#C0_0_2a32931791" x="126.402052" y="62.762522" style="fill: #66c2a5"/>
    </g>
    <g clip-path="url(#p02eeee0df3)">
     <use xlink:href="#C0_0_2a32931791" x="111.593631" y="62.437763" style="fill: #66c2a5"/>
    </g>
    <g clip-path="url(#p02eeee0df3)">
     <use xlink:href="#C0_0_2a32931791" x="125.587854" y="62.437763" style="fill: #66c2a5"/>
    </g>
    <g clip-path="url(#p02eeee0df3)">
     <use xlink:href="#C0_0_2a32931791" x="119.510995" y="59.783732" style="fill: #66c2a5"/>
    </g>
    <g clip-path="url(#p02eeee0df3)">
     <use xlink:href="#C0_0_2a32931791" x="116.043162" y="61.046777" style="fill: #66c2a5"/>
    </g>
    <g clip-path="url(#p02eeee0df3)">
     <use xlink:href="#C0_0_2a32931791" x="114.364244" y="61.046777" style="fill: #66c2a5"/>
    </g>
    <g clip-path="url(#p02eeee0df3)">
     <use xlink:href="#C0_0_2a32931791" x="115.557162" y="61.458766" style="fill: #66c2a5"/>
    </g>
    <g clip-path="url(#p02eeee0df3)">
     <use xlink:href="#C0_0_2a32931791" x="107.464252" y="61.458766" style="fill: #66c2a5"/>
    </g>
    <g clip-path="url(#p02eeee0df3)">
     <use xlink:href="#C0_0_2a32931791" x="116.936774" y="58.646112" style="fill: #66c2a5"/>
    </g>
    <g clip-path="url(#p02eeee0df3)">
     <use xlink:href="#C0_0_2a32931791" x="105.270518" y="58.646112" style="fill: #66c2a5"/>
    </g>
    <g clip-path="url(#p02eeee0df3)">
     <use xlink:href="#C0_0_2a32931791" x="119.922677" y="59.907138" style="fill: #66c2a5"/>
    </g>
    <g clip-path="url(#p02eeee0df3)">
     <use xlink:href="#C0_0_2a32931791" x="111.665156" y="59.907138" style="fill: #66c2a5"/>
    </g>
    <g clip-path="url(#p02eeee0df3)">
     <use xlink:href="#C0_0_2a32931791" x="126.036669" y="62.408455" style="fill: #66c2a5"/>
    </g>
    <g clip-path="url(#p02eeee0df3)">
     <use xlink:href="#C0_0_2a32931791" x="117.173998" y="62.408455" style="fill: #66c2a5"/>
    </g>
    <g clip-path="url(#p02eeee0df3)">
     <use xlink:href="#C0_0_2a32931791" x="109.488019" y="68.892836" style="fill: #66c2a5"/>
    </g>
    <g clip-path="url(#p02eeee0df3)">
     <use xlink:href="#C0_0_2a32931791" x="120.44431" y="68.892836" style="fill: #66c2a5"/>
    </g>
    <g clip-path="url(#p02eeee0df3)">
     <use xlink:href="#C0_0_2a32931791" x="105.254789" y="68.059055" style="fill: #66c2a5"/>
    </g>
    <g clip-path="url(#p02eeee0df3)">
     <use xlink:href="#C0_0_2a32931791" x="124.326963" y="68.059055" style="fill: #66c2a5"/>
    </g>
    <g clip-path="url(#p02eeee0df3)">
     <use xlink:href="#C0_0_2a32931791" x="110.248386" y="61.30606" style="fill: #66c2a5"/>
    </g>
    <g clip-path="url(#p02eeee0df3)">
     <use xlink:href="#C0_0_2a32931791" x="101.871758" y="61.30606" style="fill: #66c2a5"/>
    </g>
   </g>
   <g id="text_8">
    <!-- Diff -->
    <g style="fill: #262626" transform="translate(89.557074 13.821875) scale(0.1 -0.1)">
     <defs>
      <path id="TimesNewRomanPS-BoldMT-44" d="M 84 0 
L 84 116 
L 225 116 
Q 409 116 507 173 
Q 606 231 653 331 
Q 681 397 681 725 
L 681 3513 
Q 681 3838 647 3919 
Q 613 4000 508 4061 
Q 403 4122 225 4122 
L 84 4122 
L 84 4238 
L 1981 4238 
Q 2741 4238 3203 4031 
Q 3769 3778 4061 3265 
Q 4353 2753 4353 2106 
Q 4353 1659 4209 1282 
Q 4066 906 3837 661 
Q 3609 416 3311 267 
Q 3013 119 2581 38 
Q 2391 0 1981 0 
L 84 0 
z
M 1700 3997 
L 1700 691 
Q 1700 428 1725 368 
Q 1750 309 1809 278 
Q 1894 231 2053 231 
Q 2575 231 2850 588 
Q 3225 1069 3225 2081 
Q 3225 2897 2969 3384 
Q 2766 3766 2447 3903 
Q 2222 4000 1700 3997 
z
" transform="scale(0.015625)"/>
      <path id="TimesNewRomanPS-BoldMT-69" d="M 919 4338 
Q 1122 4338 1262 4195 
Q 1403 4053 1403 3853 
Q 1403 3653 1261 3512 
Q 1119 3372 919 3372 
Q 719 3372 578 3512 
Q 438 3653 438 3853 
Q 438 4053 578 4195 
Q 719 4338 919 4338 
z
M 1356 2922 
L 1356 606 
Q 1356 297 1428 211 
Q 1500 125 1709 113 
L 1709 0 
L 131 0 
L 131 113 
Q 325 119 419 225 
Q 481 297 481 606 
L 481 2313 
Q 481 2622 409 2708 
Q 338 2794 131 2806 
L 131 2922 
L 1356 2922 
z
" transform="scale(0.015625)"/>
      <path id="TimesNewRomanPS-BoldMT-66" d="M 1497 2616 
L 1497 588 
Q 1497 294 1559 219 
Q 1659 103 1928 113 
L 1928 0 
L 206 0 
L 206 113 
Q 403 116 486 158 
Q 569 200 600 275 
Q 631 350 631 588 
L 631 2616 
L 206 2616 
L 206 2922 
L 631 2922 
L 631 3138 
L 628 3284 
Q 628 3734 958 4034 
Q 1288 4334 1850 4334 
Q 2234 4334 2420 4190 
Q 2606 4047 2606 3872 
Q 2606 3731 2490 3628 
Q 2375 3525 2184 3525 
Q 2022 3525 1926 3609 
Q 1831 3694 1831 3797 
Q 1831 3825 1850 3913 
Q 1863 3966 1863 4013 
Q 1863 4078 1825 4109 
Q 1775 4156 1703 4156 
Q 1613 4156 1552 4081 
Q 1491 4006 1491 3841 
L 1497 3294 
L 1497 2922 
L 1928 2922 
L 1928 2616 
L 1497 2616 
z
" transform="scale(0.015625)"/>
     </defs>
     <use xlink:href="#TimesNewRomanPS-BoldMT-44"/>
     <use xlink:href="#TimesNewRomanPS-BoldMT-69" x="72.216797"/>
     <use xlink:href="#TimesNewRomanPS-BoldMT-66" x="100"/>
     <use xlink:href="#TimesNewRomanPS-BoldMT-66" x="133.300781"/>
    </g>
   </g>
  </g>
 </g>
 <defs>
  <clipPath id="p02eeee0df3">
   <rect x="31.98125" y="19.821875" width="131.811024" height="64.204724"/>
  </clipPath>
  <clipPath id="p23a7d8e4c5">
   <rect x="45.162352" y="22.740272" width="52.724409" height="58.367931"/>
  </clipPath>
 </defs>
</svg>
