<?xml version="1.0" encoding="utf-8" standalone="no"?>
<!DOCTYPE svg PUBLIC "-//W3C//DTD SVG 1.1//EN"
  "http://www.w3.org/Graphics/SVG/1.1/DTD/svg11.dtd">
<svg xmlns:xlink="http://www.w3.org/1999/xlink" width="170.977274pt" height="121.033395pt" viewBox="0 0 170.977274 121.033395" xmlns="http://www.w3.org/2000/svg" version="1.1">
 <metadata>
  <rdf:RDF xmlns:dc="http://purl.org/dc/elements/1.1/" xmlns:cc="http://creativecommons.org/ns#" xmlns:rdf="http://www.w3.org/1999/02/22-rdf-syntax-ns#">
   <cc:Work>
    <dc:type rdf:resource="http://purl.org/dc/dcmitype/StillImage"/>
    <dc:date>2024-04-15T15:27:42.648541</dc:date>
    <dc:format>image/svg+xml</dc:format>
    <dc:creator>
     <cc:Agent>
      <dc:title>Matplotlib v3.8.3, https://matplotlib.org/</dc:title>
     </cc:Agent>
    </dc:creator>
   </cc:Work>
  </rdf:RDF>
 </metadata>
 <defs>
  <style type="text/css">*{stroke-linejoin: round; stroke-linecap: butt}</style>
 </defs>
 <g id="figure_1">
  <g id="patch_1">
   <path d="M 0 121.033395 
L 170.977274 121.033395 
L 170.977274 0 
L 0 0 
z
" style="fill: #ffffff"/>
  </g>
  <g id="axes_1">
   <g id="patch_2">
    <path d="M 31.96625 84.026599 
L 163.777274 84.026599 
L 163.777274 19.821875 
L 31.96625 19.821875 
z
" style="fill: #ffffff"/>
   </g>
   <g id="matplotlib.axis_1">
    <g id="xtick_1">
     <g id="line2d_1">
      <path d="M 97.871762 84.026599 
L 97.871762 19.821875 
" clip-path="url(#p7fa60a783b)" style="fill: none"/>
     </g>
     <g id="line2d_2">
      <defs>
       <path id="m8e4fd48a85" d="M 0 0 
L 0 2 
" style="stroke: #808080; stroke-width: 0.5"/>
      </defs>
      <g>
       <use xlink:href="#m8e4fd48a85" x="97.871762" y="84.026599" style="fill: #808080; stroke: #808080; stroke-width: 0.5"/>
      </g>
     </g>
     <g id="text_1">
      <!-- 7_m_Lo -->
      <g style="fill: #262626" transform="translate(77.482338 112.612752) rotate(-45) scale(0.08 -0.08)">
       <defs>
        <path id="TimesNewRomanPSMT-37" d="M 644 4238 
L 2916 4238 
L 2916 4119 
L 1503 -88 
L 1153 -88 
L 2419 3728 
L 1253 3728 
Q 900 3728 750 3644 
Q 488 3500 328 3200 
L 238 3234 
L 644 4238 
z
" transform="scale(0.015625)"/>
        <path id="TimesNewRomanPSMT-5f" d="M 3256 -1381 
L -53 -1381 
L -53 -1119 
L 3256 -1119 
L 3256 -1381 
z
" transform="scale(0.015625)"/>
        <path id="TimesNewRomanPSMT-6d" d="M 1050 2338 
Q 1363 2650 1419 2697 
Q 1559 2816 1721 2881 
Q 1884 2947 2044 2947 
Q 2313 2947 2506 2790 
Q 2700 2634 2766 2338 
Q 3088 2713 3309 2830 
Q 3531 2947 3766 2947 
Q 3994 2947 4170 2830 
Q 4347 2713 4450 2447 
Q 4519 2266 4519 1878 
L 4519 647 
Q 4519 378 4559 278 
Q 4591 209 4675 161 
Q 4759 113 4950 113 
L 4950 0 
L 3538 0 
L 3538 113 
L 3597 113 
Q 3781 113 3884 184 
Q 3956 234 3988 344 
Q 4000 397 4000 647 
L 4000 1878 
Q 4000 2228 3916 2372 
Q 3794 2572 3525 2572 
Q 3359 2572 3192 2489 
Q 3025 2406 2788 2181 
L 2781 2147 
L 2788 2013 
L 2788 647 
Q 2788 353 2820 281 
Q 2853 209 2943 161 
Q 3034 113 3253 113 
L 3253 0 
L 1806 0 
L 1806 113 
Q 2044 113 2133 169 
Q 2222 225 2256 338 
Q 2272 391 2272 647 
L 2272 1878 
Q 2272 2228 2169 2381 
Q 2031 2581 1784 2581 
Q 1616 2581 1450 2491 
Q 1191 2353 1050 2181 
L 1050 647 
Q 1050 366 1089 281 
Q 1128 197 1204 155 
Q 1281 113 1516 113 
L 1516 0 
L 100 0 
L 100 113 
Q 297 113 375 155 
Q 453 197 493 289 
Q 534 381 534 647 
L 534 1741 
Q 534 2213 506 2350 
Q 484 2453 437 2492 
Q 391 2531 309 2531 
Q 222 2531 100 2484 
L 53 2597 
L 916 2947 
L 1050 2947 
L 1050 2338 
z
" transform="scale(0.015625)"/>
        <path id="TimesNewRomanPSMT-4c" d="M 3669 1172 
L 3772 1150 
L 3409 0 
L 128 0 
L 128 116 
L 288 116 
Q 556 116 672 291 
Q 738 391 738 753 
L 738 3488 
Q 738 3884 650 3984 
Q 528 4122 288 4122 
L 128 4122 
L 128 4238 
L 2047 4238 
L 2047 4122 
Q 1709 4125 1573 4059 
Q 1438 3994 1388 3894 
Q 1338 3794 1338 3416 
L 1338 753 
Q 1338 494 1388 397 
Q 1425 331 1503 300 
Q 1581 269 1991 269 
L 2300 269 
Q 2788 269 2984 341 
Q 3181 413 3343 595 
Q 3506 778 3669 1172 
z
" transform="scale(0.015625)"/>
        <path id="TimesNewRomanPSMT-6f" d="M 1600 2947 
Q 2250 2947 2644 2453 
Q 2978 2031 2978 1484 
Q 2978 1100 2793 706 
Q 2609 313 2286 112 
Q 1963 -88 1566 -88 
Q 919 -88 538 428 
Q 216 863 216 1403 
Q 216 1797 411 2186 
Q 606 2575 925 2761 
Q 1244 2947 1600 2947 
z
M 1503 2744 
Q 1338 2744 1170 2645 
Q 1003 2547 900 2300 
Q 797 2053 797 1666 
Q 797 1041 1045 587 
Q 1294 134 1700 134 
Q 2003 134 2200 384 
Q 2397 634 2397 1244 
Q 2397 2006 2069 2444 
Q 1847 2744 1503 2744 
z
" transform="scale(0.015625)"/>
       </defs>
       <use xlink:href="#TimesNewRomanPSMT-37"/>
       <use xlink:href="#TimesNewRomanPSMT-5f" x="50"/>
       <use xlink:href="#TimesNewRomanPSMT-6d" x="100"/>
       <use xlink:href="#TimesNewRomanPSMT-5f" x="177.783203"/>
       <use xlink:href="#TimesNewRomanPSMT-4c" x="227.783203"/>
       <use xlink:href="#TimesNewRomanPSMT-6f" x="288.867188"/>
      </g>
     </g>
    </g>
   </g>
   <g id="matplotlib.axis_2">
    <g id="ytick_1">
     <g id="line2d_3">
      <path d="M 31.96625 71.518137 
L 163.777274 71.518137 
" clip-path="url(#p7fa60a783b)" style="fill: none"/>
     </g>
     <g id="line2d_4">
      <defs>
       <path id="m0cb3a4a0dc" d="M 0 0 
L -2 0 
" style="stroke: #808080; stroke-width: 0.5"/>
      </defs>
      <g>
       <use xlink:href="#m0cb3a4a0dc" x="31.96625" y="71.518137" style="fill: #808080; stroke: #808080; stroke-width: 0.5"/>
      </g>
     </g>
     <g id="text_2">
      <!-- 20 -->
      <g style="fill: #262626" transform="translate(18.46625 74.295637) scale(0.08 -0.08)">
       <defs>
        <path id="TimesNewRomanPSMT-32" d="M 2934 816 
L 2638 0 
L 138 0 
L 138 116 
Q 1241 1122 1691 1759 
Q 2141 2397 2141 2925 
Q 2141 3328 1894 3587 
Q 1647 3847 1303 3847 
Q 991 3847 742 3664 
Q 494 3481 375 3128 
L 259 3128 
Q 338 3706 661 4015 
Q 984 4325 1469 4325 
Q 1984 4325 2329 3994 
Q 2675 3663 2675 3213 
Q 2675 2891 2525 2569 
Q 2294 2063 1775 1497 
Q 997 647 803 472 
L 1909 472 
Q 2247 472 2383 497 
Q 2519 522 2628 598 
Q 2738 675 2819 816 
L 2934 816 
z
" transform="scale(0.015625)"/>
        <path id="TimesNewRomanPSMT-30" d="M 231 2094 
Q 231 2819 450 3342 
Q 669 3866 1031 4122 
Q 1313 4325 1613 4325 
Q 2100 4325 2488 3828 
Q 2972 3213 2972 2159 
Q 2972 1422 2759 906 
Q 2547 391 2217 158 
Q 1888 -75 1581 -75 
Q 975 -75 572 641 
Q 231 1244 231 2094 
z
M 844 2016 
Q 844 1141 1059 588 
Q 1238 122 1591 122 
Q 1759 122 1940 273 
Q 2122 425 2216 781 
Q 2359 1319 2359 2297 
Q 2359 3022 2209 3506 
Q 2097 3866 1919 4016 
Q 1791 4119 1609 4119 
Q 1397 4119 1231 3928 
Q 1006 3669 925 3112 
Q 844 2556 844 2016 
z
" transform="scale(0.015625)"/>
       </defs>
       <use xlink:href="#TimesNewRomanPSMT-32"/>
       <use xlink:href="#TimesNewRomanPSMT-30" x="50"/>
      </g>
     </g>
    </g>
    <g id="ytick_2">
     <g id="line2d_5">
      <path d="M 31.96625 57.354636 
L 163.777274 57.354636 
" clip-path="url(#p7fa60a783b)" style="fill: none"/>
     </g>
     <g id="line2d_6">
      <g>
       <use xlink:href="#m0cb3a4a0dc" x="31.96625" y="57.354636" style="fill: #808080; stroke: #808080; stroke-width: 0.5"/>
      </g>
     </g>
     <g id="text_3">
      <!-- 25 -->
      <g style="fill: #262626" transform="translate(18.46625 60.132136) scale(0.08 -0.08)">
       <defs>
        <path id="TimesNewRomanPSMT-35" d="M 2778 4238 
L 2534 3706 
L 1259 3706 
L 981 3138 
Q 1809 3016 2294 2522 
Q 2709 2097 2709 1522 
Q 2709 1188 2573 903 
Q 2438 619 2231 419 
Q 2025 219 1772 97 
Q 1413 -75 1034 -75 
Q 653 -75 479 54 
Q 306 184 306 341 
Q 306 428 378 495 
Q 450 563 559 563 
Q 641 563 702 538 
Q 763 513 909 409 
Q 1144 247 1384 247 
Q 1750 247 2026 523 
Q 2303 800 2303 1197 
Q 2303 1581 2056 1914 
Q 1809 2247 1375 2428 
Q 1034 2569 447 2591 
L 1259 4238 
L 2778 4238 
z
" transform="scale(0.015625)"/>
       </defs>
       <use xlink:href="#TimesNewRomanPSMT-32"/>
       <use xlink:href="#TimesNewRomanPSMT-35" x="50"/>
      </g>
     </g>
    </g>
    <g id="ytick_3">
     <g id="line2d_7">
      <path d="M 31.96625 43.191136 
L 163.777274 43.191136 
" clip-path="url(#p7fa60a783b)" style="fill: none"/>
     </g>
     <g id="line2d_8">
      <g>
       <use xlink:href="#m0cb3a4a0dc" x="31.96625" y="43.191136" style="fill: #808080; stroke: #808080; stroke-width: 0.5"/>
      </g>
     </g>
     <g id="text_4">
      <!-- 30 -->
      <g style="fill: #262626" transform="translate(18.46625 45.968636) scale(0.08 -0.08)">
       <defs>
        <path id="TimesNewRomanPSMT-33" d="M 325 3431 
Q 506 3859 782 4092 
Q 1059 4325 1472 4325 
Q 1981 4325 2253 3994 
Q 2459 3747 2459 3466 
Q 2459 3003 1878 2509 
Q 2269 2356 2469 2072 
Q 2669 1788 2669 1403 
Q 2669 853 2319 450 
Q 1863 -75 997 -75 
Q 569 -75 414 31 
Q 259 138 259 259 
Q 259 350 332 419 
Q 406 488 509 488 
Q 588 488 669 463 
Q 722 447 909 348 
Q 1097 250 1169 231 
Q 1284 197 1416 197 
Q 1734 197 1970 444 
Q 2206 691 2206 1028 
Q 2206 1275 2097 1509 
Q 2016 1684 1919 1775 
Q 1784 1900 1550 2001 
Q 1316 2103 1072 2103 
L 972 2103 
L 972 2197 
Q 1219 2228 1467 2375 
Q 1716 2522 1828 2728 
Q 1941 2934 1941 3181 
Q 1941 3503 1739 3701 
Q 1538 3900 1238 3900 
Q 753 3900 428 3381 
L 325 3431 
z
" transform="scale(0.015625)"/>
       </defs>
       <use xlink:href="#TimesNewRomanPSMT-33"/>
       <use xlink:href="#TimesNewRomanPSMT-30" x="50"/>
      </g>
     </g>
    </g>
    <g id="ytick_4">
     <g id="line2d_9">
      <path d="M 31.96625 29.027635 
L 163.777274 29.027635 
" clip-path="url(#p7fa60a783b)" style="fill: none"/>
     </g>
     <g id="line2d_10">
      <g>
       <use xlink:href="#m0cb3a4a0dc" x="31.96625" y="29.027635" style="fill: #808080; stroke: #808080; stroke-width: 0.5"/>
      </g>
     </g>
     <g id="text_5">
      <!-- 35 -->
      <g style="fill: #262626" transform="translate(18.46625 31.805135) scale(0.08 -0.08)">
       <use xlink:href="#TimesNewRomanPSMT-33"/>
       <use xlink:href="#TimesNewRomanPSMT-35" x="50"/>
      </g>
     </g>
    </g>
    <g id="text_6">
     <!-- SNR-Standard (dB) -->
     <g style="fill: #262626" transform="translate(12.755 83.587987) rotate(-90) scale(0.08 -0.08)">
      <defs>
       <path id="TimesNewRomanPSMT-53" d="M 2934 4334 
L 2934 2869 
L 2819 2869 
Q 2763 3291 2617 3541 
Q 2472 3791 2203 3937 
Q 1934 4084 1647 4084 
Q 1322 4084 1109 3886 
Q 897 3688 897 3434 
Q 897 3241 1031 3081 
Q 1225 2847 1953 2456 
Q 2547 2138 2764 1967 
Q 2981 1797 3098 1565 
Q 3216 1334 3216 1081 
Q 3216 600 2842 251 
Q 2469 -97 1881 -97 
Q 1697 -97 1534 -69 
Q 1438 -53 1133 45 
Q 828 144 747 144 
Q 669 144 623 97 
Q 578 50 556 -97 
L 441 -97 
L 441 1356 
L 556 1356 
Q 638 900 775 673 
Q 913 447 1195 297 
Q 1478 147 1816 147 
Q 2206 147 2432 353 
Q 2659 559 2659 841 
Q 2659 997 2573 1156 
Q 2488 1316 2306 1453 
Q 2184 1547 1640 1851 
Q 1097 2156 867 2337 
Q 638 2519 519 2737 
Q 400 2956 400 3219 
Q 400 3675 750 4004 
Q 1100 4334 1641 4334 
Q 1978 4334 2356 4169 
Q 2531 4091 2603 4091 
Q 2684 4091 2736 4139 
Q 2788 4188 2819 4334 
L 2934 4334 
z
" transform="scale(0.015625)"/>
       <path id="TimesNewRomanPSMT-4e" d="M -84 4238 
L 1066 4238 
L 3656 1059 
L 3656 3503 
Q 3656 3894 3569 3991 
Q 3453 4122 3203 4122 
L 3056 4122 
L 3056 4238 
L 4531 4238 
L 4531 4122 
L 4381 4122 
Q 4113 4122 4000 3959 
Q 3931 3859 3931 3503 
L 3931 -69 
L 3819 -69 
L 1025 3344 
L 1025 734 
Q 1025 344 1109 247 
Q 1228 116 1475 116 
L 1625 116 
L 1625 0 
L 150 0 
L 150 116 
L 297 116 
Q 569 116 681 278 
Q 750 378 750 734 
L 750 3681 
Q 566 3897 470 3965 
Q 375 4034 191 4094 
Q 100 4122 -84 4122 
L -84 4238 
z
" transform="scale(0.015625)"/>
       <path id="TimesNewRomanPSMT-52" d="M 4325 0 
L 3194 0 
L 1759 1981 
Q 1600 1975 1500 1975 
Q 1459 1975 1412 1976 
Q 1366 1978 1316 1981 
L 1316 750 
Q 1316 350 1403 253 
Q 1522 116 1759 116 
L 1925 116 
L 1925 0 
L 109 0 
L 109 116 
L 269 116 
Q 538 116 653 291 
Q 719 388 719 750 
L 719 3488 
Q 719 3888 631 3984 
Q 509 4122 269 4122 
L 109 4122 
L 109 4238 
L 1653 4238 
Q 2328 4238 2648 4139 
Q 2969 4041 3192 3777 
Q 3416 3513 3416 3147 
Q 3416 2756 3161 2468 
Q 2906 2181 2372 2063 
L 3247 847 
Q 3547 428 3762 290 
Q 3978 153 4325 116 
L 4325 0 
z
M 1316 2178 
Q 1375 2178 1419 2176 
Q 1463 2175 1491 2175 
Q 2097 2175 2405 2437 
Q 2713 2700 2713 3106 
Q 2713 3503 2464 3751 
Q 2216 4000 1806 4000 
Q 1625 4000 1316 3941 
L 1316 2178 
z
" transform="scale(0.015625)"/>
       <path id="TimesNewRomanPSMT-2d" d="M 259 1672 
L 1875 1672 
L 1875 1200 
L 259 1200 
L 259 1672 
z
" transform="scale(0.015625)"/>
       <path id="TimesNewRomanPSMT-74" d="M 1031 3803 
L 1031 2863 
L 1700 2863 
L 1700 2644 
L 1031 2644 
L 1031 788 
Q 1031 509 1111 412 
Q 1191 316 1316 316 
Q 1419 316 1516 380 
Q 1613 444 1666 569 
L 1788 569 
Q 1678 263 1478 108 
Q 1278 -47 1066 -47 
Q 922 -47 784 33 
Q 647 113 581 261 
Q 516 409 516 719 
L 516 2644 
L 63 2644 
L 63 2747 
Q 234 2816 414 2980 
Q 594 3144 734 3369 
Q 806 3488 934 3803 
L 1031 3803 
z
" transform="scale(0.015625)"/>
       <path id="TimesNewRomanPSMT-61" d="M 1822 413 
Q 1381 72 1269 19 
Q 1100 -59 909 -59 
Q 613 -59 420 144 
Q 228 347 228 678 
Q 228 888 322 1041 
Q 450 1253 767 1440 
Q 1084 1628 1822 1897 
L 1822 2009 
Q 1822 2438 1686 2597 
Q 1550 2756 1291 2756 
Q 1094 2756 978 2650 
Q 859 2544 859 2406 
L 866 2225 
Q 866 2081 792 2003 
Q 719 1925 600 1925 
Q 484 1925 411 2006 
Q 338 2088 338 2228 
Q 338 2497 613 2722 
Q 888 2947 1384 2947 
Q 1766 2947 2009 2819 
Q 2194 2722 2281 2516 
Q 2338 2381 2338 1966 
L 2338 994 
Q 2338 584 2353 492 
Q 2369 400 2405 369 
Q 2441 338 2488 338 
Q 2538 338 2575 359 
Q 2641 400 2828 588 
L 2828 413 
Q 2478 -56 2159 -56 
Q 2006 -56 1915 50 
Q 1825 156 1822 413 
z
M 1822 616 
L 1822 1706 
Q 1350 1519 1213 1441 
Q 966 1303 859 1153 
Q 753 1003 753 825 
Q 753 600 887 451 
Q 1022 303 1197 303 
Q 1434 303 1822 616 
z
" transform="scale(0.015625)"/>
       <path id="TimesNewRomanPSMT-6e" d="M 1034 2341 
Q 1538 2947 1994 2947 
Q 2228 2947 2397 2830 
Q 2566 2713 2666 2444 
Q 2734 2256 2734 1869 
L 2734 647 
Q 2734 375 2778 278 
Q 2813 200 2889 156 
Q 2966 113 3172 113 
L 3172 0 
L 1756 0 
L 1756 113 
L 1816 113 
Q 2016 113 2095 173 
Q 2175 234 2206 353 
Q 2219 400 2219 647 
L 2219 1819 
Q 2219 2209 2117 2386 
Q 2016 2563 1775 2563 
Q 1403 2563 1034 2156 
L 1034 647 
Q 1034 356 1069 288 
Q 1113 197 1189 155 
Q 1266 113 1500 113 
L 1500 0 
L 84 0 
L 84 113 
L 147 113 
Q 366 113 442 223 
Q 519 334 519 647 
L 519 1709 
Q 519 2225 495 2337 
Q 472 2450 423 2490 
Q 375 2531 294 2531 
Q 206 2531 84 2484 
L 38 2597 
L 900 2947 
L 1034 2947 
L 1034 2341 
z
" transform="scale(0.015625)"/>
       <path id="TimesNewRomanPSMT-64" d="M 2222 322 
Q 2013 103 1813 7 
Q 1613 -88 1381 -88 
Q 913 -88 563 304 
Q 213 697 213 1313 
Q 213 1928 600 2439 
Q 988 2950 1597 2950 
Q 1975 2950 2222 2709 
L 2222 3238 
Q 2222 3728 2198 3840 
Q 2175 3953 2125 3993 
Q 2075 4034 2000 4034 
Q 1919 4034 1784 3984 
L 1744 4094 
L 2597 4444 
L 2738 4444 
L 2738 1134 
Q 2738 631 2761 520 
Q 2784 409 2836 365 
Q 2888 322 2956 322 
Q 3041 322 3181 375 
L 3216 266 
L 2366 -88 
L 2222 -88 
L 2222 322 
z
M 2222 541 
L 2222 2016 
Q 2203 2228 2109 2403 
Q 2016 2578 1861 2667 
Q 1706 2756 1559 2756 
Q 1284 2756 1069 2509 
Q 784 2184 784 1559 
Q 784 928 1059 592 
Q 1334 256 1672 256 
Q 1956 256 2222 541 
z
" transform="scale(0.015625)"/>
       <path id="TimesNewRomanPSMT-72" d="M 1038 2947 
L 1038 2303 
Q 1397 2947 1775 2947 
Q 1947 2947 2059 2842 
Q 2172 2738 2172 2600 
Q 2172 2478 2090 2393 
Q 2009 2309 1897 2309 
Q 1788 2309 1652 2417 
Q 1516 2525 1450 2525 
Q 1394 2525 1328 2463 
Q 1188 2334 1038 2041 
L 1038 669 
Q 1038 431 1097 309 
Q 1138 225 1241 169 
Q 1344 113 1538 113 
L 1538 0 
L 72 0 
L 72 113 
Q 291 113 397 181 
Q 475 231 506 341 
Q 522 394 522 644 
L 522 1753 
Q 522 2253 501 2348 
Q 481 2444 426 2487 
Q 372 2531 291 2531 
Q 194 2531 72 2484 
L 41 2597 
L 906 2947 
L 1038 2947 
z
" transform="scale(0.015625)"/>
       <path id="TimesNewRomanPSMT-20" transform="scale(0.015625)"/>
       <path id="TimesNewRomanPSMT-28" d="M 1988 -1253 
L 1988 -1369 
Q 1516 -1131 1200 -813 
Q 750 -359 506 256 
Q 263 872 263 1534 
Q 263 2503 741 3301 
Q 1219 4100 1988 4444 
L 1988 4313 
Q 1603 4100 1356 3731 
Q 1109 3363 987 2797 
Q 866 2231 866 1616 
Q 866 947 969 400 
Q 1050 -31 1165 -292 
Q 1281 -553 1476 -793 
Q 1672 -1034 1988 -1253 
z
" transform="scale(0.015625)"/>
       <path id="TimesNewRomanPSMT-42" d="M 2956 2163 
Q 3397 2069 3616 1863 
Q 3919 1575 3919 1159 
Q 3919 844 3719 555 
Q 3519 266 3170 133 
Q 2822 0 2106 0 
L 106 0 
L 106 116 
L 266 116 
Q 531 116 647 284 
Q 719 394 719 750 
L 719 3488 
Q 719 3881 628 3984 
Q 506 4122 266 4122 
L 106 4122 
L 106 4238 
L 1938 4238 
Q 2450 4238 2759 4163 
Q 3228 4050 3475 3764 
Q 3722 3478 3722 3106 
Q 3722 2788 3528 2536 
Q 3334 2284 2956 2163 
z
M 1319 2331 
Q 1434 2309 1582 2298 
Q 1731 2288 1909 2288 
Q 2366 2288 2595 2386 
Q 2825 2484 2947 2687 
Q 3069 2891 3069 3131 
Q 3069 3503 2766 3765 
Q 2463 4028 1881 4028 
Q 1569 4028 1319 3959 
L 1319 2331 
z
M 1319 306 
Q 1681 222 2034 222 
Q 2600 222 2897 476 
Q 3194 731 3194 1106 
Q 3194 1353 3059 1581 
Q 2925 1809 2622 1940 
Q 2319 2072 1872 2072 
Q 1678 2072 1540 2065 
Q 1403 2059 1319 2044 
L 1319 306 
z
" transform="scale(0.015625)"/>
       <path id="TimesNewRomanPSMT-29" d="M 144 4313 
L 144 4444 
Q 619 4209 934 3891 
Q 1381 3434 1625 2820 
Q 1869 2206 1869 1541 
Q 1869 572 1392 -226 
Q 916 -1025 144 -1369 
L 144 -1253 
Q 528 -1038 776 -670 
Q 1025 -303 1145 264 
Q 1266 831 1266 1447 
Q 1266 2113 1163 2663 
Q 1084 3094 967 3353 
Q 850 3613 656 3853 
Q 463 4094 144 4313 
z
" transform="scale(0.015625)"/>
      </defs>
      <use xlink:href="#TimesNewRomanPSMT-53"/>
      <use xlink:href="#TimesNewRomanPSMT-4e" x="55.615234"/>
      <use xlink:href="#TimesNewRomanPSMT-52" x="127.832031"/>
      <use xlink:href="#TimesNewRomanPSMT-2d" x="194.53125"/>
      <use xlink:href="#TimesNewRomanPSMT-53" x="227.832031"/>
      <use xlink:href="#TimesNewRomanPSMT-74" x="283.447266"/>
      <use xlink:href="#TimesNewRomanPSMT-61" x="311.230469"/>
      <use xlink:href="#TimesNewRomanPSMT-6e" x="355.615234"/>
      <use xlink:href="#TimesNewRomanPSMT-64" x="405.615234"/>
      <use xlink:href="#TimesNewRomanPSMT-61" x="455.615234"/>
      <use xlink:href="#TimesNewRomanPSMT-72" x="500"/>
      <use xlink:href="#TimesNewRomanPSMT-64" x="533.300781"/>
      <use xlink:href="#TimesNewRomanPSMT-20" x="583.300781"/>
      <use xlink:href="#TimesNewRomanPSMT-28" x="608.300781"/>
      <use xlink:href="#TimesNewRomanPSMT-64" x="641.601562"/>
      <use xlink:href="#TimesNewRomanPSMT-42" x="691.601562"/>
      <use xlink:href="#TimesNewRomanPSMT-29" x="758.300781"/>
     </g>
    </g>
   </g>
   <g id="PolyCollection_1">
    <defs>
     <path id="me3e83bc80e" d="M 98.607554 -39.925192 
L 97.13597 -39.925192 
L 96.939741 -40.514767 
L 96.708469 -41.104342 
L 96.441031 -41.693917 
L 96.137769 -42.283492 
L 95.800776 -42.873067 
L 95.434093 -43.462643 
L 95.043783 -44.052218 
L 94.637841 -44.641793 
L 94.225914 -45.231368 
L 93.818835 -45.820943 
L 93.427974 -46.410518 
L 93.064448 -47.000093 
L 92.738239 -47.589668 
L 92.457307 -48.179243 
L 92.226757 -48.768818 
L 92.048167 -49.358393 
L 91.919131 -49.947968 
L 91.833093 -50.537543 
L 91.779478 -51.127118 
L 91.744153 -51.716693 
L 91.710166 -52.306268 
L 91.65872 -52.895844 
L 91.570307 -53.485419 
L 91.425907 -54.074994 
L 91.20817 -54.664569 
L 90.902488 -55.254144 
L 90.497891 -55.843719 
L 89.987714 -56.433294 
L 89.369998 -57.022869 
L 88.647631 -57.612444 
L 87.828208 -58.202019 
L 86.92366 -58.791594 
L 85.949656 -59.381169 
L 84.92482 -59.970744 
L 83.869789 -60.560319 
L 82.806143 -61.149894 
L 81.755242 -61.73947 
L 80.737009 -62.329045 
L 79.768698 -62.91862 
L 78.863702 -63.508195 
L 78.030479 -64.09777 
L 77.271662 -64.687345 
L 76.583429 -65.27692 
L 75.955237 -65.866495 
L 75.369949 -66.45607 
L 74.804437 -67.045645 
L 74.23064 -67.63522 
L 73.617082 -68.224795 
L 72.93076 -68.81437 
L 72.139317 -69.403945 
L 71.213356 -69.99352 
L 70.128735 -70.583095 
L 68.868678 -71.172671 
L 67.425543 -71.762246 
L 65.80209 -72.351821 
L 64.012158 -72.941396 
L 62.080666 -73.530971 
L 60.042928 -74.120546 
L 57.943319 -74.710121 
L 55.83337 -75.299696 
L 53.769419 -75.889271 
L 51.809989 -76.478846 
L 50.01305 -77.068421 
L 48.433368 -77.657996 
L 47.120099 -78.247571 
L 46.114771 -78.837146 
L 45.449765 -79.426721 
L 45.147352 -80.016296 
L 45.219299 -80.605872 
L 45.667006 -81.195447 
L 46.482118 -81.785022 
L 47.647501 -82.374597 
L 49.138476 -82.964172 
L 50.924198 -83.553747 
L 52.969081 -84.143322 
L 55.23418 -84.732897 
L 57.678477 -85.322472 
L 60.260028 -85.912047 
L 62.93697 -86.501622 
L 65.668393 -87.091197 
L 68.415082 -87.680772 
L 71.140162 -88.270347 
L 73.809669 -88.859922 
L 76.393032 -89.449497 
L 78.863508 -90.039073 
L 81.198521 -90.628648 
L 83.379928 -91.218223 
L 85.394167 -91.807798 
L 87.23229 -92.397373 
L 88.889855 -92.986948 
L 90.36668 -93.576523 
L 91.666473 -94.166098 
L 92.796329 -94.755673 
L 93.766156 -95.345248 
L 94.588032 -95.934823 
L 95.275542 -96.524398 
L 95.843135 -97.113973 
L 96.305525 -97.703548 
L 96.677168 -98.293123 
L 99.066356 -98.293123 
L 99.066356 -98.293123 
L 99.437998 -97.703548 
L 99.900388 -97.113973 
L 100.467981 -96.524398 
L 101.155492 -95.934823 
L 101.977367 -95.345248 
L 102.947195 -94.755673 
L 104.077051 -94.166098 
L 105.376843 -93.576523 
L 106.853669 -92.986948 
L 108.511233 -92.397373 
L 110.349357 -91.807798 
L 112.363596 -91.218223 
L 114.545003 -90.628648 
L 116.880016 -90.039073 
L 119.350491 -89.449497 
L 121.933855 -88.859922 
L 124.603361 -88.270347 
L 127.328442 -87.680772 
L 130.07513 -87.091197 
L 132.806554 -86.501622 
L 135.483496 -85.912047 
L 138.065046 -85.322472 
L 140.509343 -84.732897 
L 142.774443 -84.143322 
L 144.819326 -83.553747 
L 146.605048 -82.964172 
L 148.096022 -82.374597 
L 149.261405 -81.785022 
L 150.076518 -81.195447 
L 150.524225 -80.605872 
L 150.596171 -80.016296 
L 150.293759 -79.426721 
L 149.628753 -78.837146 
L 148.623425 -78.247571 
L 147.310156 -77.657996 
L 145.730474 -77.068421 
L 143.933535 -76.478846 
L 141.974105 -75.889271 
L 139.910154 -75.299696 
L 137.800204 -74.710121 
L 135.700596 -74.120546 
L 133.662858 -73.530971 
L 131.731366 -72.941396 
L 129.941434 -72.351821 
L 128.317981 -71.762246 
L 126.874845 -71.172671 
L 125.614789 -70.583095 
L 124.530167 -69.99352 
L 123.604206 -69.403945 
L 122.812763 -68.81437 
L 122.126441 -68.224795 
L 121.512883 -67.63522 
L 120.939087 -67.045645 
L 120.373575 -66.45607 
L 119.788287 -65.866495 
L 119.160094 -65.27692 
L 118.471862 -64.687345 
L 117.713044 -64.09777 
L 116.879822 -63.508195 
L 115.974826 -62.91862 
L 115.006515 -62.329045 
L 113.988282 -61.73947 
L 112.937381 -61.149894 
L 111.873734 -60.560319 
L 110.818703 -59.970744 
L 109.793868 -59.381169 
L 108.819864 -58.791594 
L 107.915316 -58.202019 
L 107.095893 -57.612444 
L 106.373525 -57.022869 
L 105.75581 -56.433294 
L 105.245633 -55.843719 
L 104.841036 -55.254144 
L 104.535354 -54.664569 
L 104.317617 -54.074994 
L 104.173217 -53.485419 
L 104.084804 -52.895844 
L 104.033358 -52.306268 
L 103.999371 -51.716693 
L 103.964046 -51.127118 
L 103.910431 -50.537543 
L 103.824392 -49.947968 
L 103.695357 -49.358393 
L 103.516766 -48.768818 
L 103.286216 -48.179243 
L 103.005284 -47.589668 
L 102.679076 -47.000093 
L 102.31555 -46.410518 
L 101.924689 -45.820943 
L 101.51761 -45.231368 
L 101.105683 -44.641793 
L 100.69974 -44.052218 
L 100.30943 -43.462643 
L 99.942747 -42.873067 
L 99.605754 -42.283492 
L 99.302493 -41.693917 
L 99.035055 -41.104342 
L 98.803782 -40.514767 
L 98.607554 -39.925192 
z
" style="stroke: #595959"/>
    </defs>
    <g clip-path="url(#p2f84854951)">
     <use xlink:href="#me3e83bc80e" x="0" y="121.033395" style="fill: #72b6a1; stroke: #595959"/>
    </g>
   </g>
   <g id="line2d_11">
    <path d="M 97.871762 52.364199 
L 97.871762 71.426178 
" clip-path="url(#p7fa60a783b)" style="fill: none; stroke: #4c4c4c"/>
   </g>
   <g id="line2d_12">
    <path d="M 97.871762 38.544198 
L 97.871762 32.422297 
" clip-path="url(#p7fa60a783b)" style="fill: none; stroke: #4c4c4c"/>
   </g>
   <g id="line2d_13">
    <path d="M 87.985935 71.426178 
L 107.757589 71.426178 
" clip-path="url(#p7fa60a783b)" style="fill: none; stroke: #4c4c4c; stroke-linecap: round"/>
   </g>
   <g id="line2d_14">
    <path d="M 87.985935 32.422297 
L 107.757589 32.422297 
" clip-path="url(#p7fa60a783b)" style="fill: none; stroke: #4c4c4c; stroke-linecap: round"/>
   </g>
   <g id="line2d_15">
    <path d="M 78.100108 42.459706 
L 117.643415 42.459706 
" clip-path="url(#p7fa60a783b)" style="fill: none; stroke: #4c4c4c"/>
   </g>
   <g id="patch_3">
    <path d="M 31.96625 84.026599 
L 31.96625 19.821875 
" style="fill: none; stroke: #262626; stroke-width: 0.5; stroke-linejoin: miter; stroke-linecap: square"/>
   </g>
   <g id="patch_4">
    <path d="M 163.777274 84.026599 
L 163.777274 19.821875 
" style="fill: none; stroke: #262626; stroke-width: 0.5; stroke-linejoin: miter; stroke-linecap: square"/>
   </g>
   <g id="patch_5">
    <path d="M 31.96625 84.026599 
L 163.777274 84.026599 
" style="fill: none; stroke: #262626; stroke-width: 0.5; stroke-linejoin: miter; stroke-linecap: square"/>
   </g>
   <g id="patch_6">
    <path d="M 31.96625 19.821875 
L 163.777274 19.821875 
" style="fill: none; stroke: #262626; stroke-width: 0.5; stroke-linejoin: miter; stroke-linecap: square"/>
   </g>
   <g id="patch_7">
    <path d="M 78.100108 52.364199 
L 117.643415 52.364199 
L 117.643415 38.544198 
L 78.100108 38.544198 
L 78.100108 52.364199 
L 78.100108 52.364199 
z
" clip-path="url(#p7fa60a783b)" style="fill: none; stroke: #4c4c4c; stroke-linejoin: miter"/>
   </g>
   <g id="PathCollection_1">
    <defs>
     <path id="C0_0_74a7df3158" d="M 0 0.55 
C 0.145862 0.55 0.285769 0.492049 0.388909 0.388909 
C 0.492049 0.285769 0.55 0.145862 0.55 -0 
C 0.55 -0.145862 0.492049 -0.285769 0.388909 -0.388909 
C 0.285769 -0.492049 0.145862 -0.55 0 -0.55 
C -0.145862 -0.55 -0.285769 -0.492049 -0.388909 -0.388909 
C -0.492049 -0.285769 -0.55 -0.145862 -0.55 0 
C -0.55 0.145862 -0.492049 0.285769 -0.388909 0.388909 
C -0.285769 0.492049 -0.145862 0.55 0 0.55 
z
"/>
    </defs>
    <g clip-path="url(#p7fa60a783b)">
     <use xlink:href="#C0_0_74a7df3158" x="121.17796" y="42.40818" style="fill: #66c2a5"/>
    </g>
    <g clip-path="url(#p7fa60a783b)">
     <use xlink:href="#C0_0_74a7df3158" x="113.860813" y="39.847474" style="fill: #66c2a5"/>
    </g>
    <g clip-path="url(#p7fa60a783b)">
     <use xlink:href="#C0_0_74a7df3158" x="119.259739" y="39.847474" style="fill: #66c2a5"/>
    </g>
    <g clip-path="url(#p7fa60a783b)">
     <use xlink:href="#C0_0_74a7df3158" x="125.180698" y="60.348551" style="fill: #66c2a5"/>
    </g>
    <g clip-path="url(#p7fa60a783b)">
     <use xlink:href="#C0_0_74a7df3158" x="122.647006" y="60.348551" style="fill: #66c2a5"/>
    </g>
    <g clip-path="url(#p7fa60a783b)">
     <use xlink:href="#C0_0_74a7df3158" x="115.621112" y="37.058764" style="fill: #66c2a5"/>
    </g>
    <g clip-path="url(#p7fa60a783b)">
     <use xlink:href="#C0_0_74a7df3158" x="105.610294" y="37.058764" style="fill: #66c2a5"/>
    </g>
    <g clip-path="url(#p7fa60a783b)">
     <use xlink:href="#C0_0_74a7df3158" x="113.556244" y="47.766726" style="fill: #66c2a5"/>
    </g>
    <g clip-path="url(#p7fa60a783b)">
     <use xlink:href="#C0_0_74a7df3158" x="121.833157" y="43.985105" style="fill: #66c2a5"/>
    </g>
    <g clip-path="url(#p7fa60a783b)">
     <use xlink:href="#C0_0_74a7df3158" x="114.474757" y="42.18499" style="fill: #66c2a5"/>
    </g>
    <g clip-path="url(#p7fa60a783b)">
     <use xlink:href="#C0_0_74a7df3158" x="120.168769" y="42.18499" style="fill: #66c2a5"/>
    </g>
    <g clip-path="url(#p7fa60a783b)">
     <use xlink:href="#C0_0_74a7df3158" x="113.052081" y="42.511232" style="fill: #66c2a5"/>
    </g>
    <g clip-path="url(#p7fa60a783b)">
     <use xlink:href="#C0_0_74a7df3158" x="100.967319" y="42.511232" style="fill: #66c2a5"/>
    </g>
    <g clip-path="url(#p7fa60a783b)">
     <use xlink:href="#C0_0_74a7df3158" x="126.565316" y="45.485249" style="fill: #66c2a5"/>
    </g>
    <g clip-path="url(#p7fa60a783b)">
     <use xlink:href="#C0_0_74a7df3158" x="126.134896" y="45.485249" style="fill: #66c2a5"/>
    </g>
    <g clip-path="url(#p7fa60a783b)">
     <use xlink:href="#C0_0_74a7df3158" x="108.038178" y="43.985105" style="fill: #66c2a5"/>
    </g>
    <g clip-path="url(#p7fa60a783b)">
     <use xlink:href="#C0_0_74a7df3158" x="112.216321" y="47.766726" style="fill: #66c2a5"/>
    </g>
    <g clip-path="url(#p7fa60a783b)">
     <use xlink:href="#C0_0_74a7df3158" x="119.835064" y="71.426178" style="fill: #66c2a5"/>
    </g>
    <g clip-path="url(#p7fa60a783b)">
     <use xlink:href="#C0_0_74a7df3158" x="112.159607" y="71.426178" style="fill: #66c2a5"/>
    </g>
    <g clip-path="url(#p7fa60a783b)">
     <use xlink:href="#C0_0_74a7df3158" x="113.620883" y="42.40818" style="fill: #66c2a5"/>
    </g>
    <g clip-path="url(#p7fa60a783b)">
     <use xlink:href="#C0_0_74a7df3158" x="103.509052" y="32.422297" style="fill: #66c2a5"/>
    </g>
    <g clip-path="url(#p7fa60a783b)">
     <use xlink:href="#C0_0_74a7df3158" x="117.032679" y="32.422297" style="fill: #66c2a5"/>
    </g>
    <g clip-path="url(#p7fa60a783b)">
     <use xlink:href="#C0_0_74a7df3158" x="106.572912" y="34.649671" style="fill: #66c2a5"/>
    </g>
    <g clip-path="url(#p7fa60a783b)">
     <use xlink:href="#C0_0_74a7df3158" x="118.224771" y="34.649671" style="fill: #66c2a5"/>
    </g>
    <g clip-path="url(#p7fa60a783b)">
     <use xlink:href="#C0_0_74a7df3158" x="123.832371" y="36.793113" style="fill: #66c2a5"/>
    </g>
    <g clip-path="url(#p7fa60a783b)">
     <use xlink:href="#C0_0_74a7df3158" x="108.876995" y="36.793113" style="fill: #66c2a5"/>
    </g>
    <g clip-path="url(#p7fa60a783b)">
     <use xlink:href="#C0_0_74a7df3158" x="111.138119" y="52.364199" style="fill: #66c2a5"/>
    </g>
    <g clip-path="url(#p7fa60a783b)">
     <use xlink:href="#C0_0_74a7df3158" x="123.929846" y="52.364199" style="fill: #66c2a5"/>
    </g>
    <g clip-path="url(#p7fa60a783b)">
     <use xlink:href="#C0_0_74a7df3158" x="119.410482" y="40.780361" style="fill: #66c2a5"/>
    </g>
    <g clip-path="url(#p7fa60a783b)">
     <use xlink:href="#C0_0_74a7df3158" x="105.772004" y="40.780361" style="fill: #66c2a5"/>
    </g>
    <g clip-path="url(#p7fa60a783b)">
     <use xlink:href="#C0_0_74a7df3158" x="126.659979" y="55.746482" style="fill: #66c2a5"/>
    </g>
    <g clip-path="url(#p7fa60a783b)">
     <use xlink:href="#C0_0_74a7df3158" x="112.069458" y="55.746482" style="fill: #66c2a5"/>
    </g>
    <g clip-path="url(#p7fa60a783b)">
     <use xlink:href="#C0_0_74a7df3158" x="115.018076" y="55.477661" style="fill: #66c2a5"/>
    </g>
    <g clip-path="url(#p7fa60a783b)">
     <use xlink:href="#C0_0_74a7df3158" x="126.72293" y="55.477661" style="fill: #66c2a5"/>
    </g>
    <g clip-path="url(#p7fa60a783b)">
     <use xlink:href="#C0_0_74a7df3158" x="111.241794" y="38.544198" style="fill: #66c2a5"/>
    </g>
    <g clip-path="url(#p7fa60a783b)">
     <use xlink:href="#C0_0_74a7df3158" x="109.477071" y="38.544198" style="fill: #66c2a5"/>
    </g>
   </g>
   <g id="text_7">
    <!-- Diff -->
    <g style="fill: #262626" transform="translate(89.542074 13.821875) scale(0.1 -0.1)">
     <defs>
      <path id="TimesNewRomanPS-BoldMT-44" d="M 84 0 
L 84 116 
L 225 116 
Q 409 116 507 173 
Q 606 231 653 331 
Q 681 397 681 725 
L 681 3513 
Q 681 3838 647 3919 
Q 613 4000 508 4061 
Q 403 4122 225 4122 
L 84 4122 
L 84 4238 
L 1981 4238 
Q 2741 4238 3203 4031 
Q 3769 3778 4061 3265 
Q 4353 2753 4353 2106 
Q 4353 1659 4209 1282 
Q 4066 906 3837 661 
Q 3609 416 3311 267 
Q 3013 119 2581 38 
Q 2391 0 1981 0 
L 84 0 
z
M 1700 3997 
L 1700 691 
Q 1700 428 1725 368 
Q 1750 309 1809 278 
Q 1894 231 2053 231 
Q 2575 231 2850 588 
Q 3225 1069 3225 2081 
Q 3225 2897 2969 3384 
Q 2766 3766 2447 3903 
Q 2222 4000 1700 3997 
z
" transform="scale(0.015625)"/>
      <path id="TimesNewRomanPS-BoldMT-69" d="M 919 4338 
Q 1122 4338 1262 4195 
Q 1403 4053 1403 3853 
Q 1403 3653 1261 3512 
Q 1119 3372 919 3372 
Q 719 3372 578 3512 
Q 438 3653 438 3853 
Q 438 4053 578 4195 
Q 719 4338 919 4338 
z
M 1356 2922 
L 1356 606 
Q 1356 297 1428 211 
Q 1500 125 1709 113 
L 1709 0 
L 131 0 
L 131 113 
Q 325 119 419 225 
Q 481 297 481 606 
L 481 2313 
Q 481 2622 409 2708 
Q 338 2794 131 2806 
L 131 2922 
L 1356 2922 
z
" transform="scale(0.015625)"/>
      <path id="TimesNewRomanPS-BoldMT-66" d="M 1497 2616 
L 1497 588 
Q 1497 294 1559 219 
Q 1659 103 1928 113 
L 1928 0 
L 206 0 
L 206 113 
Q 403 116 486 158 
Q 569 200 600 275 
Q 631 350 631 588 
L 631 2616 
L 206 2616 
L 206 2922 
L 631 2922 
L 631 3138 
L 628 3284 
Q 628 3734 958 4034 
Q 1288 4334 1850 4334 
Q 2234 4334 2420 4190 
Q 2606 4047 2606 3872 
Q 2606 3731 2490 3628 
Q 2375 3525 2184 3525 
Q 2022 3525 1926 3609 
Q 1831 3694 1831 3797 
Q 1831 3825 1850 3913 
Q 1863 3966 1863 4013 
Q 1863 4078 1825 4109 
Q 1775 4156 1703 4156 
Q 1613 4156 1552 4081 
Q 1491 4006 1491 3841 
L 1497 3294 
L 1497 2922 
L 1928 2922 
L 1928 2616 
L 1497 2616 
z
" transform="scale(0.015625)"/>
     </defs>
     <use xlink:href="#TimesNewRomanPS-BoldMT-44"/>
     <use xlink:href="#TimesNewRomanPS-BoldMT-69" x="72.216797"/>
     <use xlink:href="#TimesNewRomanPS-BoldMT-66" x="100"/>
     <use xlink:href="#TimesNewRomanPS-BoldMT-66" x="133.300781"/>
    </g>
   </g>
  </g>
 </g>
 <defs>
  <clipPath id="p7fa60a783b">
   <rect x="31.96625" y="19.821875" width="131.811024" height="64.204724"/>
  </clipPath>
  <clipPath id="p2f84854951">
   <rect x="45.147352" y="22.740272" width="52.724409" height="58.367931"/>
  </clipPath>
 </defs>
</svg>
