<?xml version="1.0" encoding="utf-8" standalone="no"?>
<!DOCTYPE svg PUBLIC "-//W3C//DTD SVG 1.1//EN"
  "http://www.w3.org/Graphics/SVG/1.1/DTD/svg11.dtd">
<svg xmlns:xlink="http://www.w3.org/1999/xlink" width="176.992274pt" height="121.033395pt" viewBox="0 0 176.992274 121.033395" xmlns="http://www.w3.org/2000/svg" version="1.1">
 <metadata>
  <rdf:RDF xmlns:dc="http://purl.org/dc/elements/1.1/" xmlns:cc="http://creativecommons.org/ns#" xmlns:rdf="http://www.w3.org/1999/02/22-rdf-syntax-ns#">
   <cc:Work>
    <dc:type rdf:resource="http://purl.org/dc/dcmitype/StillImage"/>
    <dc:date>2024-04-15T15:27:42.853842</dc:date>
    <dc:format>image/svg+xml</dc:format>
    <dc:creator>
     <cc:Agent>
      <dc:title>Matplotlib v3.8.3, https://matplotlib.org/</dc:title>
     </cc:Agent>
    </dc:creator>
   </cc:Work>
  </rdf:RDF>
 </metadata>
 <defs>
  <style type="text/css">*{stroke-linejoin: round; stroke-linecap: butt}</style>
 </defs>
 <g id="figure_1">
  <g id="patch_1">
   <path d="M 0 121.033395 
L 176.992274 121.033395 
L 176.992274 0 
L 0 0 
z
" style="fill: #ffffff"/>
  </g>
  <g id="axes_1">
   <g id="patch_2">
    <path d="M 37.98125 84.026599 
L 169.792274 84.026599 
L 169.792274 19.821875 
L 37.98125 19.821875 
z
" style="fill: #ffffff"/>
   </g>
   <g id="matplotlib.axis_1">
    <g id="xtick_1">
     <g id="line2d_1">
      <path d="M 103.886762 84.026599 
L 103.886762 19.821875 
" clip-path="url(#p1036009d04)" style="fill: none"/>
     </g>
     <g id="line2d_2">
      <defs>
       <path id="m872010737c" d="M 0 0 
L 0 2 
" style="stroke: #808080; stroke-width: 0.5"/>
      </defs>
      <g>
       <use xlink:href="#m872010737c" x="103.886762" y="84.026599" style="fill: #808080; stroke: #808080; stroke-width: 0.5"/>
      </g>
     </g>
     <g id="text_1">
      <!-- 7_m_Lo -->
      <g style="fill: #262626" transform="translate(83.497338 112.612752) rotate(-45) scale(0.08 -0.08)">
       <defs>
        <path id="TimesNewRomanPSMT-37" d="M 644 4238 
L 2916 4238 
L 2916 4119 
L 1503 -88 
L 1153 -88 
L 2419 3728 
L 1253 3728 
Q 900 3728 750 3644 
Q 488 3500 328 3200 
L 238 3234 
L 644 4238 
z
" transform="scale(0.015625)"/>
        <path id="TimesNewRomanPSMT-5f" d="M 3256 -1381 
L -53 -1381 
L -53 -1119 
L 3256 -1119 
L 3256 -1381 
z
" transform="scale(0.015625)"/>
        <path id="TimesNewRomanPSMT-6d" d="M 1050 2338 
Q 1363 2650 1419 2697 
Q 1559 2816 1721 2881 
Q 1884 2947 2044 2947 
Q 2313 2947 2506 2790 
Q 2700 2634 2766 2338 
Q 3088 2713 3309 2830 
Q 3531 2947 3766 2947 
Q 3994 2947 4170 2830 
Q 4347 2713 4450 2447 
Q 4519 2266 4519 1878 
L 4519 647 
Q 4519 378 4559 278 
Q 4591 209 4675 161 
Q 4759 113 4950 113 
L 4950 0 
L 3538 0 
L 3538 113 
L 3597 113 
Q 3781 113 3884 184 
Q 3956 234 3988 344 
Q 4000 397 4000 647 
L 4000 1878 
Q 4000 2228 3916 2372 
Q 3794 2572 3525 2572 
Q 3359 2572 3192 2489 
Q 3025 2406 2788 2181 
L 2781 2147 
L 2788 2013 
L 2788 647 
Q 2788 353 2820 281 
Q 2853 209 2943 161 
Q 3034 113 3253 113 
L 3253 0 
L 1806 0 
L 1806 113 
Q 2044 113 2133 169 
Q 2222 225 2256 338 
Q 2272 391 2272 647 
L 2272 1878 
Q 2272 2228 2169 2381 
Q 2031 2581 1784 2581 
Q 1616 2581 1450 2491 
Q 1191 2353 1050 2181 
L 1050 647 
Q 1050 366 1089 281 
Q 1128 197 1204 155 
Q 1281 113 1516 113 
L 1516 0 
L 100 0 
L 100 113 
Q 297 113 375 155 
Q 453 197 493 289 
Q 534 381 534 647 
L 534 1741 
Q 534 2213 506 2350 
Q 484 2453 437 2492 
Q 391 2531 309 2531 
Q 222 2531 100 2484 
L 53 2597 
L 916 2947 
L 1050 2947 
L 1050 2338 
z
" transform="scale(0.015625)"/>
        <path id="TimesNewRomanPSMT-4c" d="M 3669 1172 
L 3772 1150 
L 3409 0 
L 128 0 
L 128 116 
L 288 116 
Q 556 116 672 291 
Q 738 391 738 753 
L 738 3488 
Q 738 3884 650 3984 
Q 528 4122 288 4122 
L 128 4122 
L 128 4238 
L 2047 4238 
L 2047 4122 
Q 1709 4125 1573 4059 
Q 1438 3994 1388 3894 
Q 1338 3794 1338 3416 
L 1338 753 
Q 1338 494 1388 397 
Q 1425 331 1503 300 
Q 1581 269 1991 269 
L 2300 269 
Q 2788 269 2984 341 
Q 3181 413 3343 595 
Q 3506 778 3669 1172 
z
" transform="scale(0.015625)"/>
        <path id="TimesNewRomanPSMT-6f" d="M 1600 2947 
Q 2250 2947 2644 2453 
Q 2978 2031 2978 1484 
Q 2978 1100 2793 706 
Q 2609 313 2286 112 
Q 1963 -88 1566 -88 
Q 919 -88 538 428 
Q 216 863 216 1403 
Q 216 1797 411 2186 
Q 606 2575 925 2761 
Q 1244 2947 1600 2947 
z
M 1503 2744 
Q 1338 2744 1170 2645 
Q 1003 2547 900 2300 
Q 797 2053 797 1666 
Q 797 1041 1045 587 
Q 1294 134 1700 134 
Q 2003 134 2200 384 
Q 2397 634 2397 1244 
Q 2397 2006 2069 2444 
Q 1847 2744 1503 2744 
z
" transform="scale(0.015625)"/>
       </defs>
       <use xlink:href="#TimesNewRomanPSMT-37"/>
       <use xlink:href="#TimesNewRomanPSMT-5f" x="50"/>
       <use xlink:href="#TimesNewRomanPSMT-6d" x="100"/>
       <use xlink:href="#TimesNewRomanPSMT-5f" x="177.783203"/>
       <use xlink:href="#TimesNewRomanPSMT-4c" x="227.783203"/>
       <use xlink:href="#TimesNewRomanPSMT-6f" x="288.867188"/>
      </g>
     </g>
    </g>
   </g>
   <g id="matplotlib.axis_2">
    <g id="ytick_1">
     <g id="line2d_3">
      <path d="M 37.98125 83.211337 
L 169.792274 83.211337 
" clip-path="url(#p1036009d04)" style="fill: none"/>
     </g>
     <g id="line2d_4">
      <defs>
       <path id="me4b080e18c" d="M 0 0 
L -2 0 
" style="stroke: #808080; stroke-width: 0.5"/>
      </defs>
      <g>
       <use xlink:href="#me4b080e18c" x="37.98125" y="83.211337" style="fill: #808080; stroke: #808080; stroke-width: 0.5"/>
      </g>
     </g>
     <g id="text_2">
      <!-- 0.05 -->
      <g style="fill: #262626" transform="translate(18.48125 85.988837) scale(0.08 -0.08)">
       <defs>
        <path id="TimesNewRomanPSMT-30" d="M 231 2094 
Q 231 2819 450 3342 
Q 669 3866 1031 4122 
Q 1313 4325 1613 4325 
Q 2100 4325 2488 3828 
Q 2972 3213 2972 2159 
Q 2972 1422 2759 906 
Q 2547 391 2217 158 
Q 1888 -75 1581 -75 
Q 975 -75 572 641 
Q 231 1244 231 2094 
z
M 844 2016 
Q 844 1141 1059 588 
Q 1238 122 1591 122 
Q 1759 122 1940 273 
Q 2122 425 2216 781 
Q 2359 1319 2359 2297 
Q 2359 3022 2209 3506 
Q 2097 3866 1919 4016 
Q 1791 4119 1609 4119 
Q 1397 4119 1231 3928 
Q 1006 3669 925 3112 
Q 844 2556 844 2016 
z
" transform="scale(0.015625)"/>
        <path id="TimesNewRomanPSMT-2e" d="M 800 606 
Q 947 606 1047 504 
Q 1147 403 1147 259 
Q 1147 116 1045 14 
Q 944 -88 800 -88 
Q 656 -88 554 14 
Q 453 116 453 259 
Q 453 406 554 506 
Q 656 606 800 606 
z
" transform="scale(0.015625)"/>
        <path id="TimesNewRomanPSMT-35" d="M 2778 4238 
L 2534 3706 
L 1259 3706 
L 981 3138 
Q 1809 3016 2294 2522 
Q 2709 2097 2709 1522 
Q 2709 1188 2573 903 
Q 2438 619 2231 419 
Q 2025 219 1772 97 
Q 1413 -75 1034 -75 
Q 653 -75 479 54 
Q 306 184 306 341 
Q 306 428 378 495 
Q 450 563 559 563 
Q 641 563 702 538 
Q 763 513 909 409 
Q 1144 247 1384 247 
Q 1750 247 2026 523 
Q 2303 800 2303 1197 
Q 2303 1581 2056 1914 
Q 1809 2247 1375 2428 
Q 1034 2569 447 2591 
L 1259 4238 
L 2778 4238 
z
" transform="scale(0.015625)"/>
       </defs>
       <use xlink:href="#TimesNewRomanPSMT-30"/>
       <use xlink:href="#TimesNewRomanPSMT-2e" x="50"/>
       <use xlink:href="#TimesNewRomanPSMT-30" x="75"/>
       <use xlink:href="#TimesNewRomanPSMT-35" x="125"/>
      </g>
     </g>
    </g>
    <g id="ytick_2">
     <g id="line2d_5">
      <path d="M 37.98125 73.484817 
L 169.792274 73.484817 
" clip-path="url(#p1036009d04)" style="fill: none"/>
     </g>
     <g id="line2d_6">
      <g>
       <use xlink:href="#me4b080e18c" x="37.98125" y="73.484817" style="fill: #808080; stroke: #808080; stroke-width: 0.5"/>
      </g>
     </g>
     <g id="text_3">
      <!-- 0.10 -->
      <g style="fill: #262626" transform="translate(18.48125 76.262317) scale(0.08 -0.08)">
       <defs>
        <path id="TimesNewRomanPSMT-31" d="M 750 3822 
L 1781 4325 
L 1884 4325 
L 1884 747 
Q 1884 391 1914 303 
Q 1944 216 2037 169 
Q 2131 122 2419 116 
L 2419 0 
L 825 0 
L 825 116 
Q 1125 122 1212 167 
Q 1300 213 1334 289 
Q 1369 366 1369 747 
L 1369 3034 
Q 1369 3497 1338 3628 
Q 1316 3728 1258 3775 
Q 1200 3822 1119 3822 
Q 1003 3822 797 3725 
L 750 3822 
z
" transform="scale(0.015625)"/>
       </defs>
       <use xlink:href="#TimesNewRomanPSMT-30"/>
       <use xlink:href="#TimesNewRomanPSMT-2e" x="50"/>
       <use xlink:href="#TimesNewRomanPSMT-31" x="75"/>
       <use xlink:href="#TimesNewRomanPSMT-30" x="125"/>
      </g>
     </g>
    </g>
    <g id="ytick_3">
     <g id="line2d_7">
      <path d="M 37.98125 63.758298 
L 169.792274 63.758298 
" clip-path="url(#p1036009d04)" style="fill: none"/>
     </g>
     <g id="line2d_8">
      <g>
       <use xlink:href="#me4b080e18c" x="37.98125" y="63.758298" style="fill: #808080; stroke: #808080; stroke-width: 0.5"/>
      </g>
     </g>
     <g id="text_4">
      <!-- 0.15 -->
      <g style="fill: #262626" transform="translate(18.48125 66.535798) scale(0.08 -0.08)">
       <use xlink:href="#TimesNewRomanPSMT-30"/>
       <use xlink:href="#TimesNewRomanPSMT-2e" x="50"/>
       <use xlink:href="#TimesNewRomanPSMT-31" x="75"/>
       <use xlink:href="#TimesNewRomanPSMT-35" x="125"/>
      </g>
     </g>
    </g>
    <g id="ytick_4">
     <g id="line2d_9">
      <path d="M 37.98125 54.031778 
L 169.792274 54.031778 
" clip-path="url(#p1036009d04)" style="fill: none"/>
     </g>
     <g id="line2d_10">
      <g>
       <use xlink:href="#me4b080e18c" x="37.98125" y="54.031778" style="fill: #808080; stroke: #808080; stroke-width: 0.5"/>
      </g>
     </g>
     <g id="text_5">
      <!-- 0.20 -->
      <g style="fill: #262626" transform="translate(18.48125 56.809278) scale(0.08 -0.08)">
       <defs>
        <path id="TimesNewRomanPSMT-32" d="M 2934 816 
L 2638 0 
L 138 0 
L 138 116 
Q 1241 1122 1691 1759 
Q 2141 2397 2141 2925 
Q 2141 3328 1894 3587 
Q 1647 3847 1303 3847 
Q 991 3847 742 3664 
Q 494 3481 375 3128 
L 259 3128 
Q 338 3706 661 4015 
Q 984 4325 1469 4325 
Q 1984 4325 2329 3994 
Q 2675 3663 2675 3213 
Q 2675 2891 2525 2569 
Q 2294 2063 1775 1497 
Q 997 647 803 472 
L 1909 472 
Q 2247 472 2383 497 
Q 2519 522 2628 598 
Q 2738 675 2819 816 
L 2934 816 
z
" transform="scale(0.015625)"/>
       </defs>
       <use xlink:href="#TimesNewRomanPSMT-30"/>
       <use xlink:href="#TimesNewRomanPSMT-2e" x="50"/>
       <use xlink:href="#TimesNewRomanPSMT-32" x="75"/>
       <use xlink:href="#TimesNewRomanPSMT-30" x="125"/>
      </g>
     </g>
    </g>
    <g id="ytick_5">
     <g id="line2d_11">
      <path d="M 37.98125 44.305259 
L 169.792274 44.305259 
" clip-path="url(#p1036009d04)" style="fill: none"/>
     </g>
     <g id="line2d_12">
      <g>
       <use xlink:href="#me4b080e18c" x="37.98125" y="44.305259" style="fill: #808080; stroke: #808080; stroke-width: 0.5"/>
      </g>
     </g>
     <g id="text_6">
      <!-- 0.25 -->
      <g style="fill: #262626" transform="translate(18.48125 47.082759) scale(0.08 -0.08)">
       <use xlink:href="#TimesNewRomanPSMT-30"/>
       <use xlink:href="#TimesNewRomanPSMT-2e" x="50"/>
       <use xlink:href="#TimesNewRomanPSMT-32" x="75"/>
       <use xlink:href="#TimesNewRomanPSMT-35" x="125"/>
      </g>
     </g>
    </g>
    <g id="ytick_6">
     <g id="line2d_13">
      <path d="M 37.98125 34.578739 
L 169.792274 34.578739 
" clip-path="url(#p1036009d04)" style="fill: none"/>
     </g>
     <g id="line2d_14">
      <g>
       <use xlink:href="#me4b080e18c" x="37.98125" y="34.578739" style="fill: #808080; stroke: #808080; stroke-width: 0.5"/>
      </g>
     </g>
     <g id="text_7">
      <!-- 0.30 -->
      <g style="fill: #262626" transform="translate(18.48125 37.356239) scale(0.08 -0.08)">
       <defs>
        <path id="TimesNewRomanPSMT-33" d="M 325 3431 
Q 506 3859 782 4092 
Q 1059 4325 1472 4325 
Q 1981 4325 2253 3994 
Q 2459 3747 2459 3466 
Q 2459 3003 1878 2509 
Q 2269 2356 2469 2072 
Q 2669 1788 2669 1403 
Q 2669 853 2319 450 
Q 1863 -75 997 -75 
Q 569 -75 414 31 
Q 259 138 259 259 
Q 259 350 332 419 
Q 406 488 509 488 
Q 588 488 669 463 
Q 722 447 909 348 
Q 1097 250 1169 231 
Q 1284 197 1416 197 
Q 1734 197 1970 444 
Q 2206 691 2206 1028 
Q 2206 1275 2097 1509 
Q 2016 1684 1919 1775 
Q 1784 1900 1550 2001 
Q 1316 2103 1072 2103 
L 972 2103 
L 972 2197 
Q 1219 2228 1467 2375 
Q 1716 2522 1828 2728 
Q 1941 2934 1941 3181 
Q 1941 3503 1739 3701 
Q 1538 3900 1238 3900 
Q 753 3900 428 3381 
L 325 3431 
z
" transform="scale(0.015625)"/>
       </defs>
       <use xlink:href="#TimesNewRomanPSMT-30"/>
       <use xlink:href="#TimesNewRomanPSMT-2e" x="50"/>
       <use xlink:href="#TimesNewRomanPSMT-33" x="75"/>
       <use xlink:href="#TimesNewRomanPSMT-30" x="125"/>
      </g>
     </g>
    </g>
    <g id="ytick_7">
     <g id="line2d_15">
      <path d="M 37.98125 24.852219 
L 169.792274 24.852219 
" clip-path="url(#p1036009d04)" style="fill: none"/>
     </g>
     <g id="line2d_16">
      <g>
       <use xlink:href="#me4b080e18c" x="37.98125" y="24.852219" style="fill: #808080; stroke: #808080; stroke-width: 0.5"/>
      </g>
     </g>
     <g id="text_8">
      <!-- 0.35 -->
      <g style="fill: #262626" transform="translate(18.48125 27.629719) scale(0.08 -0.08)">
       <use xlink:href="#TimesNewRomanPSMT-30"/>
       <use xlink:href="#TimesNewRomanPSMT-2e" x="50"/>
       <use xlink:href="#TimesNewRomanPSMT-33" x="75"/>
       <use xlink:href="#TimesNewRomanPSMT-35" x="125"/>
      </g>
     </g>
    </g>
    <g id="text_9">
     <!-- Motion severity (a.u) -->
     <g style="fill: #262626" transform="translate(12.755 85.805487) rotate(-90) scale(0.08 -0.08)">
      <defs>
       <path id="TimesNewRomanPSMT-4d" d="M 2619 0 
L 981 3566 
L 981 734 
Q 981 344 1066 247 
Q 1181 116 1431 116 
L 1581 116 
L 1581 0 
L 106 0 
L 106 116 
L 256 116 
Q 525 116 638 278 
Q 706 378 706 734 
L 706 3503 
Q 706 3784 644 3909 
Q 600 4000 483 4061 
Q 366 4122 106 4122 
L 106 4238 
L 1306 4238 
L 2844 922 
L 4356 4238 
L 5556 4238 
L 5556 4122 
L 5409 4122 
Q 5138 4122 5025 3959 
Q 4956 3859 4956 3503 
L 4956 734 
Q 4956 344 5044 247 
Q 5159 116 5409 116 
L 5556 116 
L 5556 0 
L 3756 0 
L 3756 116 
L 3906 116 
Q 4178 116 4288 278 
Q 4356 378 4356 734 
L 4356 3566 
L 2722 0 
L 2619 0 
z
" transform="scale(0.015625)"/>
       <path id="TimesNewRomanPSMT-74" d="M 1031 3803 
L 1031 2863 
L 1700 2863 
L 1700 2644 
L 1031 2644 
L 1031 788 
Q 1031 509 1111 412 
Q 1191 316 1316 316 
Q 1419 316 1516 380 
Q 1613 444 1666 569 
L 1788 569 
Q 1678 263 1478 108 
Q 1278 -47 1066 -47 
Q 922 -47 784 33 
Q 647 113 581 261 
Q 516 409 516 719 
L 516 2644 
L 63 2644 
L 63 2747 
Q 234 2816 414 2980 
Q 594 3144 734 3369 
Q 806 3488 934 3803 
L 1031 3803 
z
" transform="scale(0.015625)"/>
       <path id="TimesNewRomanPSMT-69" d="M 928 4444 
Q 1059 4444 1151 4351 
Q 1244 4259 1244 4128 
Q 1244 3997 1151 3903 
Q 1059 3809 928 3809 
Q 797 3809 703 3903 
Q 609 3997 609 4128 
Q 609 4259 701 4351 
Q 794 4444 928 4444 
z
M 1188 2947 
L 1188 647 
Q 1188 378 1227 289 
Q 1266 200 1342 156 
Q 1419 113 1622 113 
L 1622 0 
L 231 0 
L 231 113 
Q 441 113 512 153 
Q 584 194 626 287 
Q 669 381 669 647 
L 669 1750 
Q 669 2216 641 2353 
Q 619 2453 572 2492 
Q 525 2531 444 2531 
Q 356 2531 231 2484 
L 188 2597 
L 1050 2947 
L 1188 2947 
z
" transform="scale(0.015625)"/>
       <path id="TimesNewRomanPSMT-6e" d="M 1034 2341 
Q 1538 2947 1994 2947 
Q 2228 2947 2397 2830 
Q 2566 2713 2666 2444 
Q 2734 2256 2734 1869 
L 2734 647 
Q 2734 375 2778 278 
Q 2813 200 2889 156 
Q 2966 113 3172 113 
L 3172 0 
L 1756 0 
L 1756 113 
L 1816 113 
Q 2016 113 2095 173 
Q 2175 234 2206 353 
Q 2219 400 2219 647 
L 2219 1819 
Q 2219 2209 2117 2386 
Q 2016 2563 1775 2563 
Q 1403 2563 1034 2156 
L 1034 647 
Q 1034 356 1069 288 
Q 1113 197 1189 155 
Q 1266 113 1500 113 
L 1500 0 
L 84 0 
L 84 113 
L 147 113 
Q 366 113 442 223 
Q 519 334 519 647 
L 519 1709 
Q 519 2225 495 2337 
Q 472 2450 423 2490 
Q 375 2531 294 2531 
Q 206 2531 84 2484 
L 38 2597 
L 900 2947 
L 1034 2947 
L 1034 2341 
z
" transform="scale(0.015625)"/>
       <path id="TimesNewRomanPSMT-20" transform="scale(0.015625)"/>
       <path id="TimesNewRomanPSMT-73" d="M 2050 2947 
L 2050 1972 
L 1947 1972 
Q 1828 2431 1642 2597 
Q 1456 2763 1169 2763 
Q 950 2763 815 2647 
Q 681 2531 681 2391 
Q 681 2216 781 2091 
Q 878 1963 1175 1819 
L 1631 1597 
Q 2266 1288 2266 781 
Q 2266 391 1970 151 
Q 1675 -88 1309 -88 
Q 1047 -88 709 6 
Q 606 38 541 38 
Q 469 38 428 -44 
L 325 -44 
L 325 978 
L 428 978 
Q 516 541 762 319 
Q 1009 97 1316 97 
Q 1531 97 1667 223 
Q 1803 350 1803 528 
Q 1803 744 1651 891 
Q 1500 1038 1047 1263 
Q 594 1488 453 1669 
Q 313 1847 313 2119 
Q 313 2472 555 2709 
Q 797 2947 1181 2947 
Q 1350 2947 1591 2875 
Q 1750 2828 1803 2828 
Q 1853 2828 1881 2850 
Q 1909 2872 1947 2947 
L 2050 2947 
z
" transform="scale(0.015625)"/>
       <path id="TimesNewRomanPSMT-65" d="M 681 1784 
Q 678 1147 991 784 
Q 1303 422 1725 422 
Q 2006 422 2214 576 
Q 2422 731 2563 1106 
L 2659 1044 
Q 2594 616 2278 264 
Q 1963 -88 1488 -88 
Q 972 -88 605 314 
Q 238 716 238 1394 
Q 238 2128 614 2539 
Q 991 2950 1559 2950 
Q 2041 2950 2350 2633 
Q 2659 2316 2659 1784 
L 681 1784 
z
M 681 1966 
L 2006 1966 
Q 1991 2241 1941 2353 
Q 1863 2528 1708 2628 
Q 1553 2728 1384 2728 
Q 1125 2728 920 2526 
Q 716 2325 681 1966 
z
" transform="scale(0.015625)"/>
       <path id="TimesNewRomanPSMT-76" d="M 53 2863 
L 1400 2863 
L 1400 2747 
L 1313 2747 
Q 1191 2747 1127 2687 
Q 1063 2628 1063 2528 
Q 1063 2419 1128 2269 
L 1794 688 
L 2463 2328 
Q 2534 2503 2534 2594 
Q 2534 2638 2509 2666 
Q 2475 2713 2422 2730 
Q 2369 2747 2206 2747 
L 2206 2863 
L 3141 2863 
L 3141 2747 
Q 2978 2734 2916 2681 
Q 2806 2588 2719 2369 
L 1703 -88 
L 1575 -88 
L 553 2328 
Q 484 2497 421 2570 
Q 359 2644 263 2694 
Q 209 2722 53 2747 
L 53 2863 
z
" transform="scale(0.015625)"/>
       <path id="TimesNewRomanPSMT-72" d="M 1038 2947 
L 1038 2303 
Q 1397 2947 1775 2947 
Q 1947 2947 2059 2842 
Q 2172 2738 2172 2600 
Q 2172 2478 2090 2393 
Q 2009 2309 1897 2309 
Q 1788 2309 1652 2417 
Q 1516 2525 1450 2525 
Q 1394 2525 1328 2463 
Q 1188 2334 1038 2041 
L 1038 669 
Q 1038 431 1097 309 
Q 1138 225 1241 169 
Q 1344 113 1538 113 
L 1538 0 
L 72 0 
L 72 113 
Q 291 113 397 181 
Q 475 231 506 341 
Q 522 394 522 644 
L 522 1753 
Q 522 2253 501 2348 
Q 481 2444 426 2487 
Q 372 2531 291 2531 
Q 194 2531 72 2484 
L 41 2597 
L 906 2947 
L 1038 2947 
z
" transform="scale(0.015625)"/>
       <path id="TimesNewRomanPSMT-79" d="M 38 2863 
L 1372 2863 
L 1372 2747 
L 1306 2747 
Q 1166 2747 1095 2686 
Q 1025 2625 1025 2534 
Q 1025 2413 1128 2197 
L 1825 753 
L 2466 2334 
Q 2519 2463 2519 2588 
Q 2519 2644 2497 2672 
Q 2472 2706 2419 2726 
Q 2366 2747 2231 2747 
L 2231 2863 
L 3163 2863 
L 3163 2747 
Q 3047 2734 2984 2696 
Q 2922 2659 2847 2556 
Q 2819 2513 2741 2316 
L 1575 -541 
Q 1406 -956 1132 -1168 
Q 859 -1381 606 -1381 
Q 422 -1381 303 -1275 
Q 184 -1169 184 -1031 
Q 184 -900 270 -820 
Q 356 -741 506 -741 
Q 609 -741 788 -809 
Q 913 -856 944 -856 
Q 1038 -856 1148 -759 
Q 1259 -663 1372 -384 
L 1575 113 
L 547 2272 
Q 500 2369 397 2513 
Q 319 2622 269 2659 
Q 197 2709 38 2747 
L 38 2863 
z
" transform="scale(0.015625)"/>
       <path id="TimesNewRomanPSMT-28" d="M 1988 -1253 
L 1988 -1369 
Q 1516 -1131 1200 -813 
Q 750 -359 506 256 
Q 263 872 263 1534 
Q 263 2503 741 3301 
Q 1219 4100 1988 4444 
L 1988 4313 
Q 1603 4100 1356 3731 
Q 1109 3363 987 2797 
Q 866 2231 866 1616 
Q 866 947 969 400 
Q 1050 -31 1165 -292 
Q 1281 -553 1476 -793 
Q 1672 -1034 1988 -1253 
z
" transform="scale(0.015625)"/>
       <path id="TimesNewRomanPSMT-61" d="M 1822 413 
Q 1381 72 1269 19 
Q 1100 -59 909 -59 
Q 613 -59 420 144 
Q 228 347 228 678 
Q 228 888 322 1041 
Q 450 1253 767 1440 
Q 1084 1628 1822 1897 
L 1822 2009 
Q 1822 2438 1686 2597 
Q 1550 2756 1291 2756 
Q 1094 2756 978 2650 
Q 859 2544 859 2406 
L 866 2225 
Q 866 2081 792 2003 
Q 719 1925 600 1925 
Q 484 1925 411 2006 
Q 338 2088 338 2228 
Q 338 2497 613 2722 
Q 888 2947 1384 2947 
Q 1766 2947 2009 2819 
Q 2194 2722 2281 2516 
Q 2338 2381 2338 1966 
L 2338 994 
Q 2338 584 2353 492 
Q 2369 400 2405 369 
Q 2441 338 2488 338 
Q 2538 338 2575 359 
Q 2641 400 2828 588 
L 2828 413 
Q 2478 -56 2159 -56 
Q 2006 -56 1915 50 
Q 1825 156 1822 413 
z
M 1822 616 
L 1822 1706 
Q 1350 1519 1213 1441 
Q 966 1303 859 1153 
Q 753 1003 753 825 
Q 753 600 887 451 
Q 1022 303 1197 303 
Q 1434 303 1822 616 
z
" transform="scale(0.015625)"/>
       <path id="TimesNewRomanPSMT-75" d="M 2709 2863 
L 2709 1128 
Q 2709 631 2732 520 
Q 2756 409 2807 365 
Q 2859 322 2928 322 
Q 3025 322 3147 375 
L 3191 266 
L 2334 -88 
L 2194 -88 
L 2194 519 
Q 1825 119 1631 15 
Q 1438 -88 1222 -88 
Q 981 -88 804 51 
Q 628 191 559 409 
Q 491 628 491 1028 
L 491 2306 
Q 491 2509 447 2587 
Q 403 2666 317 2708 
Q 231 2750 6 2747 
L 6 2863 
L 1009 2863 
L 1009 947 
Q 1009 547 1148 422 
Q 1288 297 1484 297 
Q 1619 297 1789 381 
Q 1959 466 2194 703 
L 2194 2325 
Q 2194 2569 2105 2655 
Q 2016 2741 1734 2747 
L 1734 2863 
L 2709 2863 
z
" transform="scale(0.015625)"/>
       <path id="TimesNewRomanPSMT-29" d="M 144 4313 
L 144 4444 
Q 619 4209 934 3891 
Q 1381 3434 1625 2820 
Q 1869 2206 1869 1541 
Q 1869 572 1392 -226 
Q 916 -1025 144 -1369 
L 144 -1253 
Q 528 -1038 776 -670 
Q 1025 -303 1145 264 
Q 1266 831 1266 1447 
Q 1266 2113 1163 2663 
Q 1084 3094 967 3353 
Q 850 3613 656 3853 
Q 463 4094 144 4313 
z
" transform="scale(0.015625)"/>
      </defs>
      <use xlink:href="#TimesNewRomanPSMT-4d"/>
      <use xlink:href="#TimesNewRomanPSMT-6f" x="88.916016"/>
      <use xlink:href="#TimesNewRomanPSMT-74" x="138.916016"/>
      <use xlink:href="#TimesNewRomanPSMT-69" x="166.699219"/>
      <use xlink:href="#TimesNewRomanPSMT-6f" x="194.482422"/>
      <use xlink:href="#TimesNewRomanPSMT-6e" x="244.482422"/>
      <use xlink:href="#TimesNewRomanPSMT-20" x="294.482422"/>
      <use xlink:href="#TimesNewRomanPSMT-73" x="319.482422"/>
      <use xlink:href="#TimesNewRomanPSMT-65" x="358.398438"/>
      <use xlink:href="#TimesNewRomanPSMT-76" x="402.783203"/>
      <use xlink:href="#TimesNewRomanPSMT-65" x="452.783203"/>
      <use xlink:href="#TimesNewRomanPSMT-72" x="497.167969"/>
      <use xlink:href="#TimesNewRomanPSMT-69" x="530.46875"/>
      <use xlink:href="#TimesNewRomanPSMT-74" x="558.251953"/>
      <use xlink:href="#TimesNewRomanPSMT-79" x="586.035156"/>
      <use xlink:href="#TimesNewRomanPSMT-20" x="636.035156"/>
      <use xlink:href="#TimesNewRomanPSMT-28" x="661.035156"/>
      <use xlink:href="#TimesNewRomanPSMT-61" x="694.335938"/>
      <use xlink:href="#TimesNewRomanPSMT-2e" x="738.720703"/>
      <use xlink:href="#TimesNewRomanPSMT-75" x="763.720703"/>
      <use xlink:href="#TimesNewRomanPSMT-29" x="813.720703"/>
     </g>
    </g>
   </g>
   <g id="PolyCollection_1">
    <defs>
     <path id="m2817f805dd" d="M 105.138254 -39.925192 
L 102.63527 -39.925192 
L 102.298898 -40.514767 
L 101.894754 -41.104342 
L 101.415531 -41.693917 
L 100.854714 -42.283492 
L 100.206983 -42.873067 
L 99.468623 -43.462643 
L 98.637908 -44.052218 
L 97.715405 -44.641793 
L 96.704204 -45.231368 
L 95.610009 -45.820943 
L 94.441104 -46.410518 
L 93.208163 -47.000093 
L 91.923928 -47.589668 
L 90.602748 -48.179243 
L 89.260029 -48.768818 
L 87.911625 -49.358393 
L 86.573194 -49.947968 
L 85.259594 -50.537543 
L 83.984319 -51.127118 
L 82.75904 -51.716693 
L 81.59324 -52.306268 
L 80.493973 -52.895844 
L 79.465726 -53.485419 
L 78.510395 -54.074994 
L 77.627326 -54.664569 
L 76.813445 -55.254144 
L 76.063427 -55.843719 
L 75.36992 -56.433294 
L 74.723811 -57.022869 
L 74.114548 -57.612444 
L 73.530515 -58.202019 
L 72.959467 -58.791594 
L 72.38903 -59.381169 
L 71.807242 -59.970744 
L 71.20312 -60.560319 
L 70.567204 -61.149894 
L 69.892042 -61.73947 
L 69.172553 -62.329045 
L 68.406231 -62.91862 
L 67.593157 -63.508195 
L 66.735798 -64.09777 
L 65.838628 -64.687345 
L 64.907591 -65.27692 
L 63.949501 -65.866495 
L 62.971442 -66.45607 
L 61.980277 -67.045645 
L 60.982342 -67.63522 
L 59.98338 -68.224795 
L 58.988759 -68.81437 
L 58.003931 -69.403945 
L 57.0351 -69.99352 
L 56.089976 -70.583095 
L 55.178511 -71.172671 
L 54.313477 -71.762246 
L 53.510759 -72.351821 
L 52.789287 -72.941396 
L 52.170537 -73.530971 
L 51.677632 -74.120546 
L 51.334093 -74.710121 
L 51.162352 -75.299696 
L 51.182193 -75.889271 
L 51.409265 -76.478846 
L 51.853854 -77.068421 
L 52.52003 -77.657996 
L 53.405271 -78.247571 
L 54.500602 -78.837146 
L 55.791222 -79.426721 
L 57.257543 -80.016296 
L 58.876528 -80.605872 
L 60.62317 -81.195447 
L 62.471965 -81.785022 
L 64.398235 -82.374597 
L 66.379186 -82.964172 
L 68.394625 -83.553747 
L 70.42731 -84.143322 
L 72.46295 -84.732897 
L 74.489899 -85.322472 
L 76.498646 -85.912047 
L 78.481178 -86.501622 
L 80.430329 -87.091197 
L 82.339204 -87.680772 
L 84.200734 -88.270347 
L 86.007423 -88.859922 
L 87.751285 -89.449497 
L 89.423974 -90.039073 
L 91.017063 -90.628648 
L 92.522424 -91.218223 
L 93.93267 -91.807798 
L 95.241578 -92.397373 
L 96.444462 -92.986948 
L 97.538458 -93.576523 
L 98.522681 -94.166098 
L 99.398262 -94.755673 
L 100.168265 -95.345248 
L 100.837489 -95.934823 
L 101.412193 -96.524398 
L 101.899764 -97.113973 
L 102.30836 -97.703548 
L 102.646553 -98.293123 
L 105.126971 -98.293123 
L 105.126971 -98.293123 
L 105.465164 -97.703548 
L 105.873759 -97.113973 
L 106.361331 -96.524398 
L 106.936035 -95.934823 
L 107.605259 -95.345248 
L 108.375262 -94.755673 
L 109.250843 -94.166098 
L 110.235065 -93.576523 
L 111.329061 -92.986948 
L 112.531946 -92.397373 
L 113.840854 -91.807798 
L 115.2511 -91.218223 
L 116.756461 -90.628648 
L 118.349549 -90.039073 
L 120.022239 -89.449497 
L 121.766101 -88.859922 
L 123.57279 -88.270347 
L 125.43432 -87.680772 
L 127.343194 -87.091197 
L 129.292346 -86.501622 
L 131.274877 -85.912047 
L 133.283625 -85.322472 
L 135.310574 -84.732897 
L 137.346214 -84.143322 
L 139.378899 -83.553747 
L 141.394338 -82.964172 
L 143.375288 -82.374597 
L 145.301558 -81.785022 
L 147.150353 -81.195447 
L 148.896996 -80.605872 
L 150.515981 -80.016296 
L 151.982302 -79.426721 
L 153.272921 -78.837146 
L 154.368252 -78.247571 
L 155.253493 -77.657996 
L 155.919669 -77.068421 
L 156.364259 -76.478846 
L 156.591331 -75.889271 
L 156.611171 -75.299696 
L 156.439431 -74.710121 
L 156.095891 -74.120546 
L 155.602987 -73.530971 
L 154.984237 -72.941396 
L 154.262764 -72.351821 
L 153.460047 -71.762246 
L 152.595012 -71.172671 
L 151.683548 -70.583095 
L 150.738423 -69.99352 
L 149.769592 -69.403945 
L 148.784765 -68.81437 
L 147.790143 -68.224795 
L 146.791182 -67.63522 
L 145.793246 -67.045645 
L 144.802082 -66.45607 
L 143.824023 -65.866495 
L 142.865933 -65.27692 
L 141.934896 -64.687345 
L 141.037725 -64.09777 
L 140.180367 -63.508195 
L 139.367292 -62.91862 
L 138.600971 -62.329045 
L 137.881481 -61.73947 
L 137.20632 -61.149894 
L 136.570404 -60.560319 
L 135.966282 -59.970744 
L 135.384494 -59.381169 
L 134.814056 -58.791594 
L 134.243008 -58.202019 
L 133.658975 -57.612444 
L 133.049713 -57.022869 
L 132.403604 -56.433294 
L 131.710096 -55.843719 
L 130.960078 -55.254144 
L 130.146198 -54.664569 
L 129.263129 -54.074994 
L 128.307797 -53.485419 
L 127.279551 -52.895844 
L 126.180284 -52.306268 
L 125.014484 -51.716693 
L 123.789205 -51.127118 
L 122.51393 -50.537543 
L 121.200329 -49.947968 
L 119.861899 -49.358393 
L 118.513494 -48.768818 
L 117.170776 -48.179243 
L 115.849596 -47.589668 
L 114.56536 -47.000093 
L 113.33242 -46.410518 
L 112.163515 -45.820943 
L 111.06932 -45.231368 
L 110.058118 -44.641793 
L 109.135616 -44.052218 
L 108.3049 -43.462643 
L 107.566541 -42.873067 
L 106.918809 -42.283492 
L 106.357992 -41.693917 
L 105.87877 -41.104342 
L 105.474625 -40.514767 
L 105.138254 -39.925192 
z
" style="stroke: #595959"/>
    </defs>
    <g clip-path="url(#pb6833b4f60)">
     <use xlink:href="#m2817f805dd" x="0" y="121.033395" style="fill: #72b6a1; stroke: #595959"/>
    </g>
   </g>
   <g id="line2d_17">
    <path d="M 103.886762 59.591555 
L 103.886762 70.626018 
" clip-path="url(#p1036009d04)" style="fill: none; stroke: #4c4c4c"/>
   </g>
   <g id="line2d_18">
    <path d="M 103.886762 43.07063 
L 103.886762 33.222457 
" clip-path="url(#p1036009d04)" style="fill: none; stroke: #4c4c4c"/>
   </g>
   <g id="line2d_19">
    <path d="M 94.000935 70.626018 
L 113.772589 70.626018 
" clip-path="url(#p1036009d04)" style="fill: none; stroke: #4c4c4c; stroke-linecap: round"/>
   </g>
   <g id="line2d_20">
    <path d="M 94.000935 33.222457 
L 113.772589 33.222457 
" clip-path="url(#p1036009d04)" style="fill: none; stroke: #4c4c4c; stroke-linecap: round"/>
   </g>
   <g id="line2d_21">
    <path d="M 84.115108 49.456719 
L 123.658415 49.456719 
" clip-path="url(#p1036009d04)" style="fill: none; stroke: #4c4c4c"/>
   </g>
   <g id="patch_3">
    <path d="M 37.98125 84.026599 
L 37.98125 19.821875 
" style="fill: none; stroke: #262626; stroke-width: 0.5; stroke-linejoin: miter; stroke-linecap: square"/>
   </g>
   <g id="patch_4">
    <path d="M 169.792274 84.026599 
L 169.792274 19.821875 
" style="fill: none; stroke: #262626; stroke-width: 0.5; stroke-linejoin: miter; stroke-linecap: square"/>
   </g>
   <g id="patch_5">
    <path d="M 37.98125 84.026599 
L 169.792274 84.026599 
" style="fill: none; stroke: #262626; stroke-width: 0.5; stroke-linejoin: miter; stroke-linecap: square"/>
   </g>
   <g id="patch_6">
    <path d="M 37.98125 19.821875 
L 169.792274 19.821875 
" style="fill: none; stroke: #262626; stroke-width: 0.5; stroke-linejoin: miter; stroke-linecap: square"/>
   </g>
   <g id="patch_7">
    <path d="M 84.115108 59.591555 
L 123.658415 59.591555 
L 123.658415 43.07063 
L 84.115108 43.07063 
L 84.115108 59.591555 
L 84.115108 59.591555 
z
" clip-path="url(#p1036009d04)" style="fill: none; stroke: #4c4c4c; stroke-linejoin: miter"/>
   </g>
   <g id="PathCollection_1">
    <defs>
     <path id="C0_0_f389d8b381" d="M 0 0.55 
C 0.145862 0.55 0.285769 0.492049 0.388909 0.388909 
C 0.492049 0.285769 0.55 0.145862 0.55 -0 
C 0.55 -0.145862 0.492049 -0.285769 0.388909 -0.388909 
C 0.285769 -0.492049 0.145862 -0.55 0 -0.55 
C -0.145862 -0.55 -0.285769 -0.492049 -0.388909 -0.388909 
C -0.492049 -0.285769 -0.55 -0.145862 -0.55 0 
C -0.55 0.145862 -0.492049 0.285769 -0.388909 0.388909 
C -0.285769 0.492049 -0.145862 0.55 0 0.55 
z
"/>
    </defs>
    <g clip-path="url(#p1036009d04)">
     <use xlink:href="#C0_0_f389d8b381" x="124.532797" y="61.784867" style="fill: #66c2a5"/>
    </g>
    <g clip-path="url(#p1036009d04)">
     <use xlink:href="#C0_0_f389d8b381" x="128.73768" y="47.139053" style="fill: #66c2a5"/>
    </g>
    <g clip-path="url(#p1036009d04)">
     <use xlink:href="#C0_0_f389d8b381" x="124.584653" y="47.139053" style="fill: #66c2a5"/>
    </g>
    <g clip-path="url(#p1036009d04)">
     <use xlink:href="#C0_0_f389d8b381" x="122.854339" y="45.156011" style="fill: #66c2a5"/>
    </g>
    <g clip-path="url(#p1036009d04)">
     <use xlink:href="#C0_0_f389d8b381" x="131.270309" y="45.156011" style="fill: #66c2a5"/>
    </g>
    <g clip-path="url(#p1036009d04)">
     <use xlink:href="#C0_0_f389d8b381" x="127.923754" y="38.431849" style="fill: #66c2a5"/>
    </g>
    <g clip-path="url(#p1036009d04)">
     <use xlink:href="#C0_0_f389d8b381" x="126.920291" y="38.431849" style="fill: #66c2a5"/>
    </g>
    <g clip-path="url(#p1036009d04)">
     <use xlink:href="#C0_0_f389d8b381" x="131.031811" y="55.012894" style="fill: #66c2a5"/>
    </g>
    <g clip-path="url(#p1036009d04)">
     <use xlink:href="#C0_0_f389d8b381" x="123.76577" y="43.458426" style="fill: #66c2a5"/>
    </g>
    <g clip-path="url(#p1036009d04)">
     <use xlink:href="#C0_0_f389d8b381" x="106.870758" y="45.252667" style="fill: #66c2a5"/>
    </g>
    <g clip-path="url(#p1036009d04)">
     <use xlink:href="#C0_0_f389d8b381" x="114.303751" y="45.252667" style="fill: #66c2a5"/>
    </g>
    <g clip-path="url(#p1036009d04)">
     <use xlink:href="#C0_0_f389d8b381" x="121.010193" y="51.774386" style="fill: #66c2a5"/>
    </g>
    <g clip-path="url(#p1036009d04)">
     <use xlink:href="#C0_0_f389d8b381" x="130.142775" y="51.774386" style="fill: #66c2a5"/>
    </g>
    <g clip-path="url(#p1036009d04)">
     <use xlink:href="#C0_0_f389d8b381" x="125.32405" y="36.286107" style="fill: #66c2a5"/>
    </g>
    <g clip-path="url(#p1036009d04)">
     <use xlink:href="#C0_0_f389d8b381" x="129.890664" y="36.286107" style="fill: #66c2a5"/>
    </g>
    <g clip-path="url(#p1036009d04)">
     <use xlink:href="#C0_0_f389d8b381" x="108.535499" y="43.458426" style="fill: #66c2a5"/>
    </g>
    <g clip-path="url(#p1036009d04)">
     <use xlink:href="#C0_0_f389d8b381" x="114.494485" y="55.012894" style="fill: #66c2a5"/>
    </g>
    <g clip-path="url(#p1036009d04)">
     <use xlink:href="#C0_0_f389d8b381" x="111.172663" y="33.222457" style="fill: #66c2a5"/>
    </g>
    <g clip-path="url(#p1036009d04)">
     <use xlink:href="#C0_0_f389d8b381" x="127.326619" y="33.222457" style="fill: #66c2a5"/>
    </g>
    <g clip-path="url(#p1036009d04)">
     <use xlink:href="#C0_0_f389d8b381" x="117.339856" y="61.784867" style="fill: #66c2a5"/>
    </g>
    <g clip-path="url(#p1036009d04)">
     <use xlink:href="#C0_0_f389d8b381" x="130.961343" y="70.626018" style="fill: #66c2a5"/>
    </g>
    <g clip-path="url(#p1036009d04)">
     <use xlink:href="#C0_0_f389d8b381" x="111.537648" y="70.626018" style="fill: #66c2a5"/>
    </g>
    <g clip-path="url(#p1036009d04)">
     <use xlink:href="#C0_0_f389d8b381" x="131.363083" y="67.981945" style="fill: #66c2a5"/>
    </g>
    <g clip-path="url(#p1036009d04)">
     <use xlink:href="#C0_0_f389d8b381" x="120.877396" y="67.981945" style="fill: #66c2a5"/>
    </g>
    <g clip-path="url(#p1036009d04)">
     <use xlink:href="#C0_0_f389d8b381" x="114.660207" y="59.591555" style="fill: #66c2a5"/>
    </g>
    <g clip-path="url(#p1036009d04)">
     <use xlink:href="#C0_0_f389d8b381" x="125.580719" y="59.591555" style="fill: #66c2a5"/>
    </g>
    <g clip-path="url(#p1036009d04)">
     <use xlink:href="#C0_0_f389d8b381" x="128.708509" y="53.01289" style="fill: #66c2a5"/>
    </g>
    <g clip-path="url(#p1036009d04)">
     <use xlink:href="#C0_0_f389d8b381" x="120.592579" y="53.01289" style="fill: #66c2a5"/>
    </g>
    <g clip-path="url(#p1036009d04)">
     <use xlink:href="#C0_0_f389d8b381" x="114.68565" y="64.173239" style="fill: #66c2a5"/>
    </g>
    <g clip-path="url(#p1036009d04)">
     <use xlink:href="#C0_0_f389d8b381" x="113.205047" y="64.173239" style="fill: #66c2a5"/>
    </g>
    <g clip-path="url(#p1036009d04)">
     <use xlink:href="#C0_0_f389d8b381" x="110.580426" y="52.578311" style="fill: #66c2a5"/>
    </g>
    <g clip-path="url(#p1036009d04)">
     <use xlink:href="#C0_0_f389d8b381" x="123.939906" y="52.578311" style="fill: #66c2a5"/>
    </g>
    <g clip-path="url(#p1036009d04)">
     <use xlink:href="#C0_0_f389d8b381" x="119.827" y="42.929202" style="fill: #66c2a5"/>
    </g>
    <g clip-path="url(#p1036009d04)">
     <use xlink:href="#C0_0_f389d8b381" x="130.627455" y="42.929202" style="fill: #66c2a5"/>
    </g>
    <g clip-path="url(#p1036009d04)">
     <use xlink:href="#C0_0_f389d8b381" x="117.60182" y="43.07063" style="fill: #66c2a5"/>
    </g>
    <g clip-path="url(#p1036009d04)">
     <use xlink:href="#C0_0_f389d8b381" x="129.194891" y="43.07063" style="fill: #66c2a5"/>
    </g>
   </g>
   <g id="text_10">
    <!-- Diff -->
    <g style="fill: #262626" transform="translate(95.557074 13.821875) scale(0.1 -0.1)">
     <defs>
      <path id="TimesNewRomanPS-BoldMT-44" d="M 84 0 
L 84 116 
L 225 116 
Q 409 116 507 173 
Q 606 231 653 331 
Q 681 397 681 725 
L 681 3513 
Q 681 3838 647 3919 
Q 613 4000 508 4061 
Q 403 4122 225 4122 
L 84 4122 
L 84 4238 
L 1981 4238 
Q 2741 4238 3203 4031 
Q 3769 3778 4061 3265 
Q 4353 2753 4353 2106 
Q 4353 1659 4209 1282 
Q 4066 906 3837 661 
Q 3609 416 3311 267 
Q 3013 119 2581 38 
Q 2391 0 1981 0 
L 84 0 
z
M 1700 3997 
L 1700 691 
Q 1700 428 1725 368 
Q 1750 309 1809 278 
Q 1894 231 2053 231 
Q 2575 231 2850 588 
Q 3225 1069 3225 2081 
Q 3225 2897 2969 3384 
Q 2766 3766 2447 3903 
Q 2222 4000 1700 3997 
z
" transform="scale(0.015625)"/>
      <path id="TimesNewRomanPS-BoldMT-69" d="M 919 4338 
Q 1122 4338 1262 4195 
Q 1403 4053 1403 3853 
Q 1403 3653 1261 3512 
Q 1119 3372 919 3372 
Q 719 3372 578 3512 
Q 438 3653 438 3853 
Q 438 4053 578 4195 
Q 719 4338 919 4338 
z
M 1356 2922 
L 1356 606 
Q 1356 297 1428 211 
Q 1500 125 1709 113 
L 1709 0 
L 131 0 
L 131 113 
Q 325 119 419 225 
Q 481 297 481 606 
L 481 2313 
Q 481 2622 409 2708 
Q 338 2794 131 2806 
L 131 2922 
L 1356 2922 
z
" transform="scale(0.015625)"/>
      <path id="TimesNewRomanPS-BoldMT-66" d="M 1497 2616 
L 1497 588 
Q 1497 294 1559 219 
Q 1659 103 1928 113 
L 1928 0 
L 206 0 
L 206 113 
Q 403 116 486 158 
Q 569 200 600 275 
Q 631 350 631 588 
L 631 2616 
L 206 2616 
L 206 2922 
L 631 2922 
L 631 3138 
L 628 3284 
Q 628 3734 958 4034 
Q 1288 4334 1850 4334 
Q 2234 4334 2420 4190 
Q 2606 4047 2606 3872 
Q 2606 3731 2490 3628 
Q 2375 3525 2184 3525 
Q 2022 3525 1926 3609 
Q 1831 3694 1831 3797 
Q 1831 3825 1850 3913 
Q 1863 3966 1863 4013 
Q 1863 4078 1825 4109 
Q 1775 4156 1703 4156 
Q 1613 4156 1552 4081 
Q 1491 4006 1491 3841 
L 1497 3294 
L 1497 2922 
L 1928 2922 
L 1928 2616 
L 1497 2616 
z
" transform="scale(0.015625)"/>
     </defs>
     <use xlink:href="#TimesNewRomanPS-BoldMT-44"/>
     <use xlink:href="#TimesNewRomanPS-BoldMT-69" x="72.216797"/>
     <use xlink:href="#TimesNewRomanPS-BoldMT-66" x="100"/>
     <use xlink:href="#TimesNewRomanPS-BoldMT-66" x="133.300781"/>
    </g>
   </g>
  </g>
 </g>
 <defs>
  <clipPath id="p1036009d04">
   <rect x="37.98125" y="19.821875" width="131.811024" height="64.204724"/>
  </clipPath>
  <clipPath id="pb6833b4f60">
   <rect x="51.162352" y="22.740272" width="52.724409" height="58.367931"/>
  </clipPath>
 </defs>
</svg>
