<?xml version="1.0" encoding="utf-8" standalone="no"?>
<!DOCTYPE svg PUBLIC "-//W3C//DTD SVG 1.1//EN"
  "http://www.w3.org/Graphics/SVG/1.1/DTD/svg11.dtd">
<svg xmlns:xlink="http://www.w3.org/1999/xlink" width="180.920867pt" height="138.677595pt" viewBox="0 0 180.920867 138.677595" xmlns="http://www.w3.org/2000/svg" version="1.1">
 <metadata>
  <rdf:RDF xmlns:dc="http://purl.org/dc/elements/1.1/" xmlns:cc="http://creativecommons.org/ns#" xmlns:rdf="http://www.w3.org/1999/02/22-rdf-syntax-ns#">
   <cc:Work>
    <dc:type rdf:resource="http://purl.org/dc/dcmitype/StillImage"/>
    <dc:date>2023-11-24T15:27:25.354738</dc:date>
    <dc:format>image/svg+xml</dc:format>
    <dc:creator>
     <cc:Agent>
      <dc:title>Matplotlib v3.7.2, https://matplotlib.org/</dc:title>
     </cc:Agent>
    </dc:creator>
   </cc:Work>
  </rdf:RDF>
 </metadata>
 <defs>
  <style type="text/css">*{stroke-linejoin: round; stroke-linecap: butt}</style>
 </defs>
 <g id="figure_1">
  <g id="patch_1">
   <path d="M 0 138.677595 
L 180.920867 138.677595 
L 180.920867 0 
L 0 0 
z
" style="fill: #ffffff"/>
  </g>
  <g id="axes_1">
   <g id="patch_2">
    <path d="M 41.909844 94.643042 
L 173.720867 94.643042 
L 173.720867 19.159688 
L 41.909844 19.159688 
z
" style="fill: #ffffff"/>
   </g>
   <g id="matplotlib.axis_1">
    <g id="xtick_1">
     <g id="line2d_1">
      <path d="M 47.901254 94.643042 
L 47.901254 19.159688 
" clip-path="url(#p27f1e9013f)" style="fill: none"/>
     </g>
     <g id="line2d_2">
      <defs>
       <path id="ma273e73400" d="M 0 0 
L 0 2 
" style="stroke: #808080; stroke-width: 0.5"/>
      </defs>
      <g>
       <use xlink:href="#ma273e73400" x="47.901254" y="94.643042" style="fill: #808080; stroke: #808080; stroke-width: 0.5"/>
      </g>
     </g>
     <g id="text_1">
      <!-- 7_r_So -->
      <g style="fill: #262626" transform="translate(30.337605 120.403419) rotate(-45) scale(0.08 -0.08)">
       <defs>
        <path id="TimesNewRomanPSMT-37" d="M 644 4238 
L 2916 4238 
L 2916 4119 
L 1503 -88 
L 1153 -88 
L 2419 3728 
L 1253 3728 
Q 900 3728 750 3644 
Q 488 3500 328 3200 
L 238 3234 
L 644 4238 
z
" transform="scale(0.015625)"/>
        <path id="TimesNewRomanPSMT-5f" d="M 3256 -1381 
L -53 -1381 
L -53 -1119 
L 3256 -1119 
L 3256 -1381 
z
" transform="scale(0.015625)"/>
        <path id="TimesNewRomanPSMT-72" d="M 1038 2947 
L 1038 2303 
Q 1397 2947 1775 2947 
Q 1947 2947 2059 2842 
Q 2172 2738 2172 2600 
Q 2172 2478 2090 2393 
Q 2009 2309 1897 2309 
Q 1788 2309 1652 2417 
Q 1516 2525 1450 2525 
Q 1394 2525 1328 2463 
Q 1188 2334 1038 2041 
L 1038 669 
Q 1038 431 1097 309 
Q 1138 225 1241 169 
Q 1344 113 1538 113 
L 1538 0 
L 72 0 
L 72 113 
Q 291 113 397 181 
Q 475 231 506 341 
Q 522 394 522 644 
L 522 1753 
Q 522 2253 501 2348 
Q 481 2444 426 2487 
Q 372 2531 291 2531 
Q 194 2531 72 2484 
L 41 2597 
L 906 2947 
L 1038 2947 
z
" transform="scale(0.015625)"/>
        <path id="TimesNewRomanPSMT-53" d="M 2934 4334 
L 2934 2869 
L 2819 2869 
Q 2763 3291 2617 3541 
Q 2472 3791 2203 3937 
Q 1934 4084 1647 4084 
Q 1322 4084 1109 3886 
Q 897 3688 897 3434 
Q 897 3241 1031 3081 
Q 1225 2847 1953 2456 
Q 2547 2138 2764 1967 
Q 2981 1797 3098 1565 
Q 3216 1334 3216 1081 
Q 3216 600 2842 251 
Q 2469 -97 1881 -97 
Q 1697 -97 1534 -69 
Q 1438 -53 1133 45 
Q 828 144 747 144 
Q 669 144 623 97 
Q 578 50 556 -97 
L 441 -97 
L 441 1356 
L 556 1356 
Q 638 900 775 673 
Q 913 447 1195 297 
Q 1478 147 1816 147 
Q 2206 147 2432 353 
Q 2659 559 2659 841 
Q 2659 997 2573 1156 
Q 2488 1316 2306 1453 
Q 2184 1547 1640 1851 
Q 1097 2156 867 2337 
Q 638 2519 519 2737 
Q 400 2956 400 3219 
Q 400 3675 750 4004 
Q 1100 4334 1641 4334 
Q 1978 4334 2356 4169 
Q 2531 4091 2603 4091 
Q 2684 4091 2736 4139 
Q 2788 4188 2819 4334 
L 2934 4334 
z
" transform="scale(0.015625)"/>
        <path id="TimesNewRomanPSMT-6f" d="M 1600 2947 
Q 2250 2947 2644 2453 
Q 2978 2031 2978 1484 
Q 2978 1100 2793 706 
Q 2609 313 2286 112 
Q 1963 -88 1566 -88 
Q 919 -88 538 428 
Q 216 863 216 1403 
Q 216 1797 411 2186 
Q 606 2575 925 2761 
Q 1244 2947 1600 2947 
z
M 1503 2744 
Q 1338 2744 1170 2645 
Q 1003 2547 900 2300 
Q 797 2053 797 1666 
Q 797 1041 1045 587 
Q 1294 134 1700 134 
Q 2003 134 2200 384 
Q 2397 634 2397 1244 
Q 2397 2006 2069 2444 
Q 1847 2744 1503 2744 
z
" transform="scale(0.015625)"/>
       </defs>
       <use xlink:href="#TimesNewRomanPSMT-37"/>
       <use xlink:href="#TimesNewRomanPSMT-5f" x="50"/>
       <use xlink:href="#TimesNewRomanPSMT-72" x="100"/>
       <use xlink:href="#TimesNewRomanPSMT-5f" x="133.300781"/>
       <use xlink:href="#TimesNewRomanPSMT-53" x="183.300781"/>
       <use xlink:href="#TimesNewRomanPSMT-6f" x="238.916016"/>
      </g>
     </g>
    </g>
    <g id="xtick_2">
     <g id="line2d_3">
      <path d="M 59.884074 94.643042 
L 59.884074 19.159688 
" clip-path="url(#p27f1e9013f)" style="fill: none"/>
     </g>
     <g id="line2d_4">
      <g>
       <use xlink:href="#ma273e73400" x="59.884074" y="94.643042" style="fill: #808080; stroke: #808080; stroke-width: 0.5"/>
      </g>
     </g>
     <g id="text_2">
      <!-- 7_m_Bo -->
      <g style="fill: #262626" transform="translate(39.176452 123.547392) rotate(-45) scale(0.08 -0.08)">
       <defs>
        <path id="TimesNewRomanPSMT-6d" d="M 1050 2338 
Q 1363 2650 1419 2697 
Q 1559 2816 1721 2881 
Q 1884 2947 2044 2947 
Q 2313 2947 2506 2790 
Q 2700 2634 2766 2338 
Q 3088 2713 3309 2830 
Q 3531 2947 3766 2947 
Q 3994 2947 4170 2830 
Q 4347 2713 4450 2447 
Q 4519 2266 4519 1878 
L 4519 647 
Q 4519 378 4559 278 
Q 4591 209 4675 161 
Q 4759 113 4950 113 
L 4950 0 
L 3538 0 
L 3538 113 
L 3597 113 
Q 3781 113 3884 184 
Q 3956 234 3988 344 
Q 4000 397 4000 647 
L 4000 1878 
Q 4000 2228 3916 2372 
Q 3794 2572 3525 2572 
Q 3359 2572 3192 2489 
Q 3025 2406 2788 2181 
L 2781 2147 
L 2788 2013 
L 2788 647 
Q 2788 353 2820 281 
Q 2853 209 2943 161 
Q 3034 113 3253 113 
L 3253 0 
L 1806 0 
L 1806 113 
Q 2044 113 2133 169 
Q 2222 225 2256 338 
Q 2272 391 2272 647 
L 2272 1878 
Q 2272 2228 2169 2381 
Q 2031 2581 1784 2581 
Q 1616 2581 1450 2491 
Q 1191 2353 1050 2181 
L 1050 647 
Q 1050 366 1089 281 
Q 1128 197 1204 155 
Q 1281 113 1516 113 
L 1516 0 
L 100 0 
L 100 113 
Q 297 113 375 155 
Q 453 197 493 289 
Q 534 381 534 647 
L 534 1741 
Q 534 2213 506 2350 
Q 484 2453 437 2492 
Q 391 2531 309 2531 
Q 222 2531 100 2484 
L 53 2597 
L 916 2947 
L 1050 2947 
L 1050 2338 
z
" transform="scale(0.015625)"/>
        <path id="TimesNewRomanPSMT-42" d="M 2956 2163 
Q 3397 2069 3616 1863 
Q 3919 1575 3919 1159 
Q 3919 844 3719 555 
Q 3519 266 3170 133 
Q 2822 0 2106 0 
L 106 0 
L 106 116 
L 266 116 
Q 531 116 647 284 
Q 719 394 719 750 
L 719 3488 
Q 719 3881 628 3984 
Q 506 4122 266 4122 
L 106 4122 
L 106 4238 
L 1938 4238 
Q 2450 4238 2759 4163 
Q 3228 4050 3475 3764 
Q 3722 3478 3722 3106 
Q 3722 2788 3528 2536 
Q 3334 2284 2956 2163 
z
M 1319 2331 
Q 1434 2309 1582 2298 
Q 1731 2288 1909 2288 
Q 2366 2288 2595 2386 
Q 2825 2484 2947 2687 
Q 3069 2891 3069 3131 
Q 3069 3503 2766 3765 
Q 2463 4028 1881 4028 
Q 1569 4028 1319 3959 
L 1319 2331 
z
M 1319 306 
Q 1681 222 2034 222 
Q 2600 222 2897 476 
Q 3194 731 3194 1106 
Q 3194 1353 3059 1581 
Q 2925 1809 2622 1940 
Q 2319 2072 1872 2072 
Q 1678 2072 1540 2065 
Q 1403 2059 1319 2044 
L 1319 306 
z
" transform="scale(0.015625)"/>
       </defs>
       <use xlink:href="#TimesNewRomanPSMT-37"/>
       <use xlink:href="#TimesNewRomanPSMT-5f" x="50"/>
       <use xlink:href="#TimesNewRomanPSMT-6d" x="100"/>
       <use xlink:href="#TimesNewRomanPSMT-5f" x="177.783203"/>
       <use xlink:href="#TimesNewRomanPSMT-42" x="227.783203"/>
       <use xlink:href="#TimesNewRomanPSMT-6f" x="294.482422"/>
      </g>
     </g>
    </g>
    <g id="xtick_3">
     <g id="line2d_5">
      <path d="M 71.866895 94.643042 
L 71.866895 19.159688 
" clip-path="url(#p27f1e9013f)" style="fill: none"/>
     </g>
     <g id="line2d_6">
      <g>
       <use xlink:href="#ma273e73400" x="71.866895" y="94.643042" style="fill: #808080; stroke: #808080; stroke-width: 0.5"/>
      </g>
     </g>
     <g id="text_3">
      <!-- 7_h_He -->
      <g style="fill: #262626" transform="translate(52.736121 121.981151) rotate(-45) scale(0.08 -0.08)">
       <defs>
        <path id="TimesNewRomanPSMT-68" d="M 1041 4444 
L 1041 2350 
Q 1388 2731 1591 2839 
Q 1794 2947 1997 2947 
Q 2241 2947 2416 2812 
Q 2591 2678 2675 2391 
Q 2734 2191 2734 1659 
L 2734 647 
Q 2734 375 2778 275 
Q 2809 200 2884 156 
Q 2959 113 3159 113 
L 3159 0 
L 1753 0 
L 1753 113 
L 1819 113 
Q 2019 113 2097 173 
Q 2175 234 2206 353 
Q 2216 403 2216 647 
L 2216 1659 
Q 2216 2128 2167 2275 
Q 2119 2422 2012 2495 
Q 1906 2569 1756 2569 
Q 1603 2569 1437 2487 
Q 1272 2406 1041 2159 
L 1041 647 
Q 1041 353 1073 281 
Q 1106 209 1195 161 
Q 1284 113 1503 113 
L 1503 0 
L 84 0 
L 84 113 
Q 275 113 384 172 
Q 447 203 484 290 
Q 522 378 522 647 
L 522 3238 
Q 522 3728 498 3840 
Q 475 3953 426 3993 
Q 378 4034 297 4034 
Q 231 4034 84 3984 
L 41 4094 
L 897 4444 
L 1041 4444 
z
" transform="scale(0.015625)"/>
        <path id="TimesNewRomanPSMT-48" d="M 1316 2272 
L 3284 2272 
L 3284 3484 
Q 3284 3809 3244 3913 
Q 3213 3991 3113 4047 
Q 2978 4122 2828 4122 
L 2678 4122 
L 2678 4238 
L 4491 4238 
L 4491 4122 
L 4341 4122 
Q 4191 4122 4056 4050 
Q 3956 4000 3920 3898 
Q 3884 3797 3884 3484 
L 3884 750 
Q 3884 428 3925 325 
Q 3956 247 4053 191 
Q 4191 116 4341 116 
L 4491 116 
L 4491 0 
L 2678 0 
L 2678 116 
L 2828 116 
Q 3088 116 3206 269 
Q 3284 369 3284 750 
L 3284 2041 
L 1316 2041 
L 1316 750 
Q 1316 428 1356 325 
Q 1388 247 1488 191 
Q 1622 116 1772 116 
L 1925 116 
L 1925 0 
L 109 0 
L 109 116 
L 259 116 
Q 522 116 641 269 
Q 716 369 716 750 
L 716 3484 
Q 716 3809 675 3913 
Q 644 3991 547 4047 
Q 409 4122 259 4122 
L 109 4122 
L 109 4238 
L 1925 4238 
L 1925 4122 
L 1772 4122 
Q 1622 4122 1488 4050 
Q 1391 4000 1353 3898 
Q 1316 3797 1316 3484 
L 1316 2272 
z
" transform="scale(0.015625)"/>
        <path id="TimesNewRomanPSMT-65" d="M 681 1784 
Q 678 1147 991 784 
Q 1303 422 1725 422 
Q 2006 422 2214 576 
Q 2422 731 2563 1106 
L 2659 1044 
Q 2594 616 2278 264 
Q 1963 -88 1488 -88 
Q 972 -88 605 314 
Q 238 716 238 1394 
Q 238 2128 614 2539 
Q 991 2950 1559 2950 
Q 2041 2950 2350 2633 
Q 2659 2316 2659 1784 
L 681 1784 
z
M 681 1966 
L 2006 1966 
Q 1991 2241 1941 2353 
Q 1863 2528 1708 2628 
Q 1553 2728 1384 2728 
Q 1125 2728 920 2526 
Q 716 2325 681 1966 
z
" transform="scale(0.015625)"/>
       </defs>
       <use xlink:href="#TimesNewRomanPSMT-37"/>
       <use xlink:href="#TimesNewRomanPSMT-5f" x="50"/>
       <use xlink:href="#TimesNewRomanPSMT-68" x="100"/>
       <use xlink:href="#TimesNewRomanPSMT-5f" x="150"/>
       <use xlink:href="#TimesNewRomanPSMT-48" x="200"/>
       <use xlink:href="#TimesNewRomanPSMT-65" x="272.216797"/>
      </g>
     </g>
    </g>
    <g id="xtick_4">
     <g id="line2d_7">
      <path d="M 83.849715 94.643042 
L 83.849715 19.159688 
" clip-path="url(#p27f1e9013f)" style="fill: none"/>
     </g>
     <g id="line2d_8">
      <g>
       <use xlink:href="#ma273e73400" x="83.849715" y="94.643042" style="fill: #808080; stroke: #808080; stroke-width: 0.5"/>
      </g>
     </g>
     <g id="text_4">
      <!-- 94_m_As -->
      <g style="fill: #262626" transform="translate(60.628328 126.061157) rotate(-45) scale(0.08 -0.08)">
       <defs>
        <path id="TimesNewRomanPSMT-39" d="M 338 -88 
L 338 28 
Q 744 34 1094 217 
Q 1444 400 1770 856 
Q 2097 1313 2225 1859 
Q 1734 1544 1338 1544 
Q 891 1544 572 1889 
Q 253 2234 253 2806 
Q 253 3363 572 3797 
Q 956 4325 1575 4325 
Q 2097 4325 2469 3894 
Q 2925 3359 2925 2575 
Q 2925 1869 2578 1258 
Q 2231 647 1613 244 
Q 1109 -88 516 -88 
L 338 -88 
z
M 2275 2091 
Q 2331 2497 2331 2741 
Q 2331 3044 2228 3395 
Q 2125 3747 1936 3934 
Q 1747 4122 1506 4122 
Q 1228 4122 1018 3872 
Q 809 3622 809 3128 
Q 809 2469 1088 2097 
Q 1291 1828 1588 1828 
Q 1731 1828 1928 1897 
Q 2125 1966 2275 2091 
z
" transform="scale(0.015625)"/>
        <path id="TimesNewRomanPSMT-34" d="M 2978 1563 
L 2978 1119 
L 2409 1119 
L 2409 0 
L 1894 0 
L 1894 1119 
L 100 1119 
L 100 1519 
L 2066 4325 
L 2409 4325 
L 2409 1563 
L 2978 1563 
z
M 1894 1563 
L 1894 3666 
L 406 1563 
L 1894 1563 
z
" transform="scale(0.015625)"/>
        <path id="TimesNewRomanPSMT-41" d="M 2928 1419 
L 1288 1419 
L 1000 750 
Q 894 503 894 381 
Q 894 284 986 211 
Q 1078 138 1384 116 
L 1384 0 
L 50 0 
L 50 116 
Q 316 163 394 238 
Q 553 388 747 847 
L 2238 4334 
L 2347 4334 
L 3822 809 
Q 4000 384 4145 257 
Q 4291 131 4550 116 
L 4550 0 
L 2878 0 
L 2878 116 
Q 3131 128 3220 200 
Q 3309 272 3309 375 
Q 3309 513 3184 809 
L 2928 1419 
z
M 2841 1650 
L 2122 3363 
L 1384 1650 
L 2841 1650 
z
" transform="scale(0.015625)"/>
        <path id="TimesNewRomanPSMT-73" d="M 2050 2947 
L 2050 1972 
L 1947 1972 
Q 1828 2431 1642 2597 
Q 1456 2763 1169 2763 
Q 950 2763 815 2647 
Q 681 2531 681 2391 
Q 681 2216 781 2091 
Q 878 1963 1175 1819 
L 1631 1597 
Q 2266 1288 2266 781 
Q 2266 391 1970 151 
Q 1675 -88 1309 -88 
Q 1047 -88 709 6 
Q 606 38 541 38 
Q 469 38 428 -44 
L 325 -44 
L 325 978 
L 428 978 
Q 516 541 762 319 
Q 1009 97 1316 97 
Q 1531 97 1667 223 
Q 1803 350 1803 528 
Q 1803 744 1651 891 
Q 1500 1038 1047 1263 
Q 594 1488 453 1669 
Q 313 1847 313 2119 
Q 313 2472 555 2709 
Q 797 2947 1181 2947 
Q 1350 2947 1591 2875 
Q 1750 2828 1803 2828 
Q 1853 2828 1881 2850 
Q 1909 2872 1947 2947 
L 2050 2947 
z
" transform="scale(0.015625)"/>
       </defs>
       <use xlink:href="#TimesNewRomanPSMT-39"/>
       <use xlink:href="#TimesNewRomanPSMT-34" x="50"/>
       <use xlink:href="#TimesNewRomanPSMT-5f" x="100"/>
       <use xlink:href="#TimesNewRomanPSMT-6d" x="150"/>
       <use xlink:href="#TimesNewRomanPSMT-5f" x="227.783203"/>
       <use xlink:href="#TimesNewRomanPSMT-41" x="277.783203"/>
       <use xlink:href="#TimesNewRomanPSMT-73" x="350"/>
      </g>
     </g>
    </g>
    <g id="xtick_5">
     <g id="line2d_9">
      <path d="M 95.832535 94.643042 
L 95.832535 19.159688 
" clip-path="url(#p27f1e9013f)" style="fill: none"/>
     </g>
     <g id="line2d_10">
      <g>
       <use xlink:href="#ma273e73400" x="95.832535" y="94.643042" style="fill: #808080; stroke: #808080; stroke-width: 0.5"/>
      </g>
     </g>
     <g id="text_5">
      <!-- 94_r_We -->
      <g style="fill: #262626" transform="translate(74.016523 124.655782) rotate(-45) scale(0.08 -0.08)">
       <defs>
        <path id="TimesNewRomanPSMT-57" d="M 5991 4238 
L 5991 4122 
Q 5825 4122 5722 4062 
Q 5619 4003 5525 3841 
Q 5463 3731 5328 3319 
L 4147 -97 
L 4022 -97 
L 3056 2613 
L 2097 -97 
L 1984 -97 
L 725 3422 
Q 584 3816 547 3888 
Q 484 4006 376 4064 
Q 269 4122 84 4122 
L 84 4238 
L 1653 4238 
L 1653 4122 
L 1578 4122 
Q 1413 4122 1325 4047 
Q 1238 3972 1238 3866 
Q 1238 3756 1375 3363 
L 2209 984 
L 2913 3006 
L 2788 3363 
L 2688 3647 
Q 2622 3803 2541 3922 
Q 2500 3981 2441 4022 
Q 2363 4078 2284 4103 
Q 2225 4122 2097 4122 
L 2097 4238 
L 3747 4238 
L 3747 4122 
L 3634 4122 
Q 3459 4122 3378 4047 
Q 3297 3972 3297 3844 
Q 3297 3684 3438 3288 
L 4250 984 
L 5056 3319 
Q 5194 3706 5194 3856 
Q 5194 3928 5148 3990 
Q 5103 4053 5034 4078 
Q 4916 4122 4725 4122 
L 4725 4238 
L 5991 4238 
z
" transform="scale(0.015625)"/>
       </defs>
       <use xlink:href="#TimesNewRomanPSMT-39"/>
       <use xlink:href="#TimesNewRomanPSMT-34" x="50"/>
       <use xlink:href="#TimesNewRomanPSMT-5f" x="100"/>
       <use xlink:href="#TimesNewRomanPSMT-72" x="150"/>
       <use xlink:href="#TimesNewRomanPSMT-5f" x="183.300781"/>
       <use xlink:href="#TimesNewRomanPSMT-57" x="233.300781"/>
       <use xlink:href="#TimesNewRomanPSMT-65" x="319.685547"/>
      </g>
     </g>
    </g>
    <g id="xtick_6">
     <g id="line2d_11">
      <path d="M 107.815356 94.643042 
L 107.815356 19.159688 
" clip-path="url(#p27f1e9013f)" style="fill: none"/>
     </g>
     <g id="line2d_12">
      <g>
       <use xlink:href="#ma273e73400" x="107.815356" y="94.643042" style="fill: #808080; stroke: #808080; stroke-width: 0.5"/>
      </g>
     </g>
     <g id="text_6">
      <!-- 94_g_We -->
      <g style="fill: #262626" transform="translate(85.054472 125.600654) rotate(-45) scale(0.08 -0.08)">
       <defs>
        <path id="TimesNewRomanPSMT-67" d="M 966 1044 
Q 703 1172 562 1401 
Q 422 1631 422 1909 
Q 422 2334 742 2640 
Q 1063 2947 1563 2947 
Q 1972 2947 2272 2747 
L 2878 2747 
Q 3013 2747 3034 2739 
Q 3056 2731 3066 2713 
Q 3084 2684 3084 2613 
Q 3084 2531 3069 2500 
Q 3059 2484 3036 2475 
Q 3013 2466 2878 2466 
L 2506 2466 
Q 2681 2241 2681 1891 
Q 2681 1491 2375 1206 
Q 2069 922 1553 922 
Q 1341 922 1119 984 
Q 981 866 932 777 
Q 884 688 884 625 
Q 884 572 936 522 
Q 988 472 1138 450 
Q 1225 438 1575 428 
Q 2219 413 2409 384 
Q 2700 344 2873 169 
Q 3047 -6 3047 -263 
Q 3047 -616 2716 -925 
Q 2228 -1381 1444 -1381 
Q 841 -1381 425 -1109 
Q 191 -953 191 -784 
Q 191 -709 225 -634 
Q 278 -519 444 -313 
Q 466 -284 763 25 
Q 600 122 533 198 
Q 466 275 466 372 
Q 466 481 555 628 
Q 644 775 966 1044 
z
M 1509 2797 
Q 1278 2797 1122 2612 
Q 966 2428 966 2047 
Q 966 1553 1178 1281 
Q 1341 1075 1591 1075 
Q 1828 1075 1981 1253 
Q 2134 1431 2134 1813 
Q 2134 2309 1919 2591 
Q 1759 2797 1509 2797 
z
M 934 0 
Q 788 -159 713 -296 
Q 638 -434 638 -550 
Q 638 -700 819 -813 
Q 1131 -1006 1722 -1006 
Q 2284 -1006 2551 -807 
Q 2819 -609 2819 -384 
Q 2819 -222 2659 -153 
Q 2497 -84 2016 -72 
Q 1313 -53 934 0 
z
" transform="scale(0.015625)"/>
       </defs>
       <use xlink:href="#TimesNewRomanPSMT-39"/>
       <use xlink:href="#TimesNewRomanPSMT-34" x="50"/>
       <use xlink:href="#TimesNewRomanPSMT-5f" x="100"/>
       <use xlink:href="#TimesNewRomanPSMT-67" x="150"/>
       <use xlink:href="#TimesNewRomanPSMT-5f" x="200"/>
       <use xlink:href="#TimesNewRomanPSMT-57" x="250"/>
       <use xlink:href="#TimesNewRomanPSMT-65" x="336.384766"/>
      </g>
     </g>
    </g>
    <g id="xtick_7">
     <g id="line2d_13">
      <path d="M 119.798176 94.643042 
L 119.798176 19.159688 
" clip-path="url(#p27f1e9013f)" style="fill: none"/>
     </g>
     <g id="line2d_14">
      <g>
       <use xlink:href="#ma273e73400" x="119.798176" y="94.643042" style="fill: #808080; stroke: #808080; stroke-width: 0.5"/>
      </g>
     </g>
     <g id="text_7">
      <!-- 94_m_We -->
      <g style="fill: #262626" transform="translate(95.465748 127.172199) rotate(-45) scale(0.08 -0.08)">
       <use xlink:href="#TimesNewRomanPSMT-39"/>
       <use xlink:href="#TimesNewRomanPSMT-34" x="50"/>
       <use xlink:href="#TimesNewRomanPSMT-5f" x="100"/>
       <use xlink:href="#TimesNewRomanPSMT-6d" x="150"/>
       <use xlink:href="#TimesNewRomanPSMT-5f" x="227.783203"/>
       <use xlink:href="#TimesNewRomanPSMT-57" x="277.783203"/>
       <use xlink:href="#TimesNewRomanPSMT-65" x="364.167969"/>
      </g>
     </g>
    </g>
    <g id="xtick_8">
     <g id="line2d_15">
      <path d="M 131.780996 94.643042 
L 131.780996 19.159688 
" clip-path="url(#p27f1e9013f)" style="fill: none"/>
     </g>
     <g id="line2d_16">
      <g>
       <use xlink:href="#ma273e73400" x="131.780996" y="94.643042" style="fill: #808080; stroke: #808080; stroke-width: 0.5"/>
      </g>
     </g>
     <g id="text_8">
      <!-- 94c_m_As -->
      <g style="fill: #262626" transform="translate(106.048497 128.57227) rotate(-45) scale(0.08 -0.08)">
       <defs>
        <path id="TimesNewRomanPSMT-63" d="M 2631 1088 
Q 2516 522 2178 217 
Q 1841 -88 1431 -88 
Q 944 -88 581 321 
Q 219 731 219 1428 
Q 219 2103 620 2525 
Q 1022 2947 1584 2947 
Q 2006 2947 2278 2723 
Q 2550 2500 2550 2259 
Q 2550 2141 2473 2067 
Q 2397 1994 2259 1994 
Q 2075 1994 1981 2113 
Q 1928 2178 1911 2362 
Q 1894 2547 1784 2644 
Q 1675 2738 1481 2738 
Q 1169 2738 978 2506 
Q 725 2200 725 1697 
Q 725 1184 976 792 
Q 1228 400 1656 400 
Q 1963 400 2206 609 
Q 2378 753 2541 1131 
L 2631 1088 
z
" transform="scale(0.015625)"/>
       </defs>
       <use xlink:href="#TimesNewRomanPSMT-39"/>
       <use xlink:href="#TimesNewRomanPSMT-34" x="50"/>
       <use xlink:href="#TimesNewRomanPSMT-63" x="100"/>
       <use xlink:href="#TimesNewRomanPSMT-5f" x="144.384766"/>
       <use xlink:href="#TimesNewRomanPSMT-6d" x="194.384766"/>
       <use xlink:href="#TimesNewRomanPSMT-5f" x="272.167969"/>
       <use xlink:href="#TimesNewRomanPSMT-41" x="322.167969"/>
       <use xlink:href="#TimesNewRomanPSMT-73" x="394.384766"/>
      </g>
     </g>
    </g>
    <g id="xtick_9">
     <g id="line2d_17">
      <path d="M 143.763817 94.643042 
L 143.763817 19.159688 
" clip-path="url(#p27f1e9013f)" style="fill: none"/>
     </g>
     <g id="line2d_18">
      <g>
       <use xlink:href="#ma273e73400" x="143.763817" y="94.643042" style="fill: #808080; stroke: #808080; stroke-width: 0.5"/>
      </g>
     </g>
     <g id="text_9">
      <!-- 117c_m_Ri -->
      <g style="fill: #262626" transform="translate(116.357242 130.256952) rotate(-45) scale(0.08 -0.08)">
       <defs>
        <path id="TimesNewRomanPSMT-31" d="M 750 3822 
L 1781 4325 
L 1884 4325 
L 1884 747 
Q 1884 391 1914 303 
Q 1944 216 2037 169 
Q 2131 122 2419 116 
L 2419 0 
L 825 0 
L 825 116 
Q 1125 122 1212 167 
Q 1300 213 1334 289 
Q 1369 366 1369 747 
L 1369 3034 
Q 1369 3497 1338 3628 
Q 1316 3728 1258 3775 
Q 1200 3822 1119 3822 
Q 1003 3822 797 3725 
L 750 3822 
z
" transform="scale(0.015625)"/>
        <path id="TimesNewRomanPSMT-52" d="M 4325 0 
L 3194 0 
L 1759 1981 
Q 1600 1975 1500 1975 
Q 1459 1975 1412 1976 
Q 1366 1978 1316 1981 
L 1316 750 
Q 1316 350 1403 253 
Q 1522 116 1759 116 
L 1925 116 
L 1925 0 
L 109 0 
L 109 116 
L 269 116 
Q 538 116 653 291 
Q 719 388 719 750 
L 719 3488 
Q 719 3888 631 3984 
Q 509 4122 269 4122 
L 109 4122 
L 109 4238 
L 1653 4238 
Q 2328 4238 2648 4139 
Q 2969 4041 3192 3777 
Q 3416 3513 3416 3147 
Q 3416 2756 3161 2468 
Q 2906 2181 2372 2063 
L 3247 847 
Q 3547 428 3762 290 
Q 3978 153 4325 116 
L 4325 0 
z
M 1316 2178 
Q 1375 2178 1419 2176 
Q 1463 2175 1491 2175 
Q 2097 2175 2405 2437 
Q 2713 2700 2713 3106 
Q 2713 3503 2464 3751 
Q 2216 4000 1806 4000 
Q 1625 4000 1316 3941 
L 1316 2178 
z
" transform="scale(0.015625)"/>
        <path id="TimesNewRomanPSMT-69" d="M 928 4444 
Q 1059 4444 1151 4351 
Q 1244 4259 1244 4128 
Q 1244 3997 1151 3903 
Q 1059 3809 928 3809 
Q 797 3809 703 3903 
Q 609 3997 609 4128 
Q 609 4259 701 4351 
Q 794 4444 928 4444 
z
M 1188 2947 
L 1188 647 
Q 1188 378 1227 289 
Q 1266 200 1342 156 
Q 1419 113 1622 113 
L 1622 0 
L 231 0 
L 231 113 
Q 441 113 512 153 
Q 584 194 626 287 
Q 669 381 669 647 
L 669 1750 
Q 669 2216 641 2353 
Q 619 2453 572 2492 
Q 525 2531 444 2531 
Q 356 2531 231 2484 
L 188 2597 
L 1050 2947 
L 1188 2947 
z
" transform="scale(0.015625)"/>
       </defs>
       <use xlink:href="#TimesNewRomanPSMT-31"/>
       <use xlink:href="#TimesNewRomanPSMT-31" x="46.25"/>
       <use xlink:href="#TimesNewRomanPSMT-37" x="96.25"/>
       <use xlink:href="#TimesNewRomanPSMT-63" x="146.25"/>
       <use xlink:href="#TimesNewRomanPSMT-5f" x="190.634766"/>
       <use xlink:href="#TimesNewRomanPSMT-6d" x="240.634766"/>
       <use xlink:href="#TimesNewRomanPSMT-5f" x="318.417969"/>
       <use xlink:href="#TimesNewRomanPSMT-52" x="368.417969"/>
       <use xlink:href="#TimesNewRomanPSMT-69" x="435.117188"/>
      </g>
     </g>
    </g>
    <g id="xtick_10">
     <g id="line2d_19">
      <path d="M 155.746637 94.643042 
L 155.746637 19.159688 
" clip-path="url(#p27f1e9013f)" style="fill: none"/>
     </g>
     <g id="line2d_20">
      <g>
       <use xlink:href="#ma273e73400" x="155.746637" y="94.643042" style="fill: #808080; stroke: #808080; stroke-width: 0.5"/>
      </g>
     </g>
     <g id="text_10">
      <!-- 117_m_Ra -->
      <g style="fill: #262626" transform="translate(129.911607 128.6748) rotate(-45) scale(0.08 -0.08)">
       <defs>
        <path id="TimesNewRomanPSMT-61" d="M 1822 413 
Q 1381 72 1269 19 
Q 1100 -59 909 -59 
Q 613 -59 420 144 
Q 228 347 228 678 
Q 228 888 322 1041 
Q 450 1253 767 1440 
Q 1084 1628 1822 1897 
L 1822 2009 
Q 1822 2438 1686 2597 
Q 1550 2756 1291 2756 
Q 1094 2756 978 2650 
Q 859 2544 859 2406 
L 866 2225 
Q 866 2081 792 2003 
Q 719 1925 600 1925 
Q 484 1925 411 2006 
Q 338 2088 338 2228 
Q 338 2497 613 2722 
Q 888 2947 1384 2947 
Q 1766 2947 2009 2819 
Q 2194 2722 2281 2516 
Q 2338 2381 2338 1966 
L 2338 994 
Q 2338 584 2353 492 
Q 2369 400 2405 369 
Q 2441 338 2488 338 
Q 2538 338 2575 359 
Q 2641 400 2828 588 
L 2828 413 
Q 2478 -56 2159 -56 
Q 2006 -56 1915 50 
Q 1825 156 1822 413 
z
M 1822 616 
L 1822 1706 
Q 1350 1519 1213 1441 
Q 966 1303 859 1153 
Q 753 1003 753 825 
Q 753 600 887 451 
Q 1022 303 1197 303 
Q 1434 303 1822 616 
z
" transform="scale(0.015625)"/>
       </defs>
       <use xlink:href="#TimesNewRomanPSMT-31"/>
       <use xlink:href="#TimesNewRomanPSMT-31" x="46.25"/>
       <use xlink:href="#TimesNewRomanPSMT-37" x="96.25"/>
       <use xlink:href="#TimesNewRomanPSMT-5f" x="146.25"/>
       <use xlink:href="#TimesNewRomanPSMT-6d" x="196.25"/>
       <use xlink:href="#TimesNewRomanPSMT-5f" x="274.033203"/>
       <use xlink:href="#TimesNewRomanPSMT-52" x="324.033203"/>
       <use xlink:href="#TimesNewRomanPSMT-61" x="390.732422"/>
      </g>
     </g>
    </g>
    <g id="xtick_11">
     <g id="line2d_21">
      <path d="M 167.729457 94.643042 
L 167.729457 19.159688 
" clip-path="url(#p27f1e9013f)" style="fill: none"/>
     </g>
     <g id="line2d_22">
      <g>
       <use xlink:href="#ma273e73400" x="167.729457" y="94.643042" style="fill: #808080; stroke: #808080; stroke-width: 0.5"/>
      </g>
     </g>
     <g id="text_11">
      <!-- 117_m_Vr -->
      <g style="fill: #262626" transform="translate(142.549385 128.019843) rotate(-45) scale(0.08 -0.08)">
       <defs>
        <path id="TimesNewRomanPSMT-56" d="M 4544 4238 
L 4544 4122 
Q 4319 4081 4203 3978 
Q 4038 3825 3909 3509 
L 2431 -97 
L 2316 -97 
L 728 3556 
Q 606 3838 556 3900 
Q 478 3997 364 4051 
Q 250 4106 56 4122 
L 56 4238 
L 1788 4238 
L 1788 4122 
Q 1494 4094 1406 4022 
Q 1319 3950 1319 3838 
Q 1319 3681 1463 3350 
L 2541 866 
L 3541 3319 
Q 3688 3681 3688 3822 
Q 3688 3913 3597 3995 
Q 3506 4078 3291 4113 
Q 3275 4116 3238 4122 
L 3238 4238 
L 4544 4238 
z
" transform="scale(0.015625)"/>
       </defs>
       <use xlink:href="#TimesNewRomanPSMT-31"/>
       <use xlink:href="#TimesNewRomanPSMT-31" x="46.25"/>
       <use xlink:href="#TimesNewRomanPSMT-37" x="96.25"/>
       <use xlink:href="#TimesNewRomanPSMT-5f" x="146.25"/>
       <use xlink:href="#TimesNewRomanPSMT-6d" x="196.25"/>
       <use xlink:href="#TimesNewRomanPSMT-5f" x="274.033203"/>
       <use xlink:href="#TimesNewRomanPSMT-56" x="324.033203"/>
       <use xlink:href="#TimesNewRomanPSMT-72" x="390.25"/>
      </g>
     </g>
    </g>
   </g>
   <g id="matplotlib.axis_2">
    <g id="ytick_1">
     <g id="line2d_23">
      <path d="M 41.909844 85.933424 
L 173.720867 85.933424 
" clip-path="url(#p27f1e9013f)" style="fill: none; stroke: #808080; stroke-width: 0.5; stroke-linecap: round"/>
     </g>
     <g id="line2d_24">
      <defs>
       <path id="m32054f14be" d="M 0 0 
L -2 0 
" style="stroke: #808080; stroke-width: 0.5"/>
      </defs>
      <g>
       <use xlink:href="#m32054f14be" x="41.909844" y="85.933424" style="fill: #808080; stroke: #808080; stroke-width: 0.5"/>
      </g>
     </g>
     <g id="text_12">
      <!-- 0.50 -->
      <g style="fill: #262626" transform="translate(19.084844 89.37058) scale(0.099 -0.099)">
       <defs>
        <path id="TimesNewRomanPSMT-30" d="M 231 2094 
Q 231 2819 450 3342 
Q 669 3866 1031 4122 
Q 1313 4325 1613 4325 
Q 2100 4325 2488 3828 
Q 2972 3213 2972 2159 
Q 2972 1422 2759 906 
Q 2547 391 2217 158 
Q 1888 -75 1581 -75 
Q 975 -75 572 641 
Q 231 1244 231 2094 
z
M 844 2016 
Q 844 1141 1059 588 
Q 1238 122 1591 122 
Q 1759 122 1940 273 
Q 2122 425 2216 781 
Q 2359 1319 2359 2297 
Q 2359 3022 2209 3506 
Q 2097 3866 1919 4016 
Q 1791 4119 1609 4119 
Q 1397 4119 1231 3928 
Q 1006 3669 925 3112 
Q 844 2556 844 2016 
z
" transform="scale(0.015625)"/>
        <path id="TimesNewRomanPSMT-2e" d="M 800 606 
Q 947 606 1047 504 
Q 1147 403 1147 259 
Q 1147 116 1045 14 
Q 944 -88 800 -88 
Q 656 -88 554 14 
Q 453 116 453 259 
Q 453 406 554 506 
Q 656 606 800 606 
z
" transform="scale(0.015625)"/>
        <path id="TimesNewRomanPSMT-35" d="M 2778 4238 
L 2534 3706 
L 1259 3706 
L 981 3138 
Q 1809 3016 2294 2522 
Q 2709 2097 2709 1522 
Q 2709 1188 2573 903 
Q 2438 619 2231 419 
Q 2025 219 1772 97 
Q 1413 -75 1034 -75 
Q 653 -75 479 54 
Q 306 184 306 341 
Q 306 428 378 495 
Q 450 563 559 563 
Q 641 563 702 538 
Q 763 513 909 409 
Q 1144 247 1384 247 
Q 1750 247 2026 523 
Q 2303 800 2303 1197 
Q 2303 1581 2056 1914 
Q 1809 2247 1375 2428 
Q 1034 2569 447 2591 
L 1259 4238 
L 2778 4238 
z
" transform="scale(0.015625)"/>
       </defs>
       <use xlink:href="#TimesNewRomanPSMT-30"/>
       <use xlink:href="#TimesNewRomanPSMT-2e" x="50"/>
       <use xlink:href="#TimesNewRomanPSMT-35" x="75"/>
       <use xlink:href="#TimesNewRomanPSMT-30" x="125"/>
      </g>
     </g>
    </g>
    <g id="ytick_2">
     <g id="line2d_25">
      <path d="M 41.909844 59.540643 
L 173.720867 59.540643 
" clip-path="url(#p27f1e9013f)" style="fill: none; stroke: #808080; stroke-width: 0.5; stroke-linecap: round"/>
     </g>
     <g id="line2d_26">
      <g>
       <use xlink:href="#m32054f14be" x="41.909844" y="59.540643" style="fill: #808080; stroke: #808080; stroke-width: 0.5"/>
      </g>
     </g>
     <g id="text_13">
      <!-- 0.75 -->
      <g style="fill: #262626" transform="translate(19.084844 62.977799) scale(0.099 -0.099)">
       <use xlink:href="#TimesNewRomanPSMT-30"/>
       <use xlink:href="#TimesNewRomanPSMT-2e" x="50"/>
       <use xlink:href="#TimesNewRomanPSMT-37" x="75"/>
       <use xlink:href="#TimesNewRomanPSMT-35" x="125"/>
      </g>
     </g>
    </g>
    <g id="ytick_3">
     <g id="line2d_27">
      <path d="M 41.909844 33.147862 
L 173.720867 33.147862 
" clip-path="url(#p27f1e9013f)" style="fill: none; stroke: #808080; stroke-width: 0.5; stroke-linecap: round"/>
     </g>
     <g id="line2d_28">
      <g>
       <use xlink:href="#m32054f14be" x="41.909844" y="33.147862" style="fill: #808080; stroke: #808080; stroke-width: 0.5"/>
      </g>
     </g>
     <g id="text_14">
      <!-- 1.00 -->
      <g style="fill: #262626" transform="translate(19.084844 36.585018) scale(0.099 -0.099)">
       <use xlink:href="#TimesNewRomanPSMT-31"/>
       <use xlink:href="#TimesNewRomanPSMT-2e" x="50"/>
       <use xlink:href="#TimesNewRomanPSMT-30" x="75"/>
       <use xlink:href="#TimesNewRomanPSMT-30" x="125"/>
      </g>
     </g>
    </g>
    <g id="text_15">
     <!-- Slicethick -->
     <g style="fill: #262626" transform="translate(13.159688 75.650193) rotate(-90) scale(0.09 -0.09)">
      <defs>
       <path id="TimesNewRomanPS-BoldMT-53" d="M 3006 4334 
L 3041 2922 
L 2913 2922 
Q 2822 3453 2467 3776 
Q 2113 4100 1700 4100 
Q 1381 4100 1195 3929 
Q 1009 3759 1009 3538 
Q 1009 3397 1075 3288 
Q 1166 3141 1366 2997 
Q 1513 2894 2044 2631 
Q 2788 2266 3047 1941 
Q 3303 1616 3303 1197 
Q 3303 666 2889 283 
Q 2475 -100 1838 -100 
Q 1638 -100 1459 -59 
Q 1281 -19 1013 94 
Q 863 156 766 156 
Q 684 156 593 93 
Q 503 31 447 -97 
L 331 -97 
L 331 1503 
L 447 1503 
Q 584 828 976 473 
Q 1369 119 1822 119 
Q 2172 119 2380 309 
Q 2588 500 2588 753 
Q 2588 903 2508 1043 
Q 2428 1184 2265 1311 
Q 2103 1438 1691 1641 
Q 1113 1925 859 2125 
Q 606 2325 470 2572 
Q 334 2819 334 3116 
Q 334 3622 706 3978 
Q 1078 4334 1644 4334 
Q 1850 4334 2044 4284 
Q 2191 4247 2402 4145 
Q 2613 4044 2697 4044 
Q 2778 4044 2825 4094 
Q 2872 4144 2913 4334 
L 3006 4334 
z
" transform="scale(0.015625)"/>
       <path id="TimesNewRomanPS-BoldMT-6c" d="M 1359 4238 
L 1359 606 
Q 1359 297 1431 211 
Q 1503 125 1713 113 
L 1713 0 
L 134 0 
L 134 113 
Q 328 119 422 225 
Q 484 297 484 606 
L 484 3631 
Q 484 3938 412 4023 
Q 341 4109 134 4122 
L 134 4238 
L 1359 4238 
z
" transform="scale(0.015625)"/>
       <path id="TimesNewRomanPS-BoldMT-69" d="M 919 4338 
Q 1122 4338 1262 4195 
Q 1403 4053 1403 3853 
Q 1403 3653 1261 3512 
Q 1119 3372 919 3372 
Q 719 3372 578 3512 
Q 438 3653 438 3853 
Q 438 4053 578 4195 
Q 719 4338 919 4338 
z
M 1356 2922 
L 1356 606 
Q 1356 297 1428 211 
Q 1500 125 1709 113 
L 1709 0 
L 131 0 
L 131 113 
Q 325 119 419 225 
Q 481 297 481 606 
L 481 2313 
Q 481 2622 409 2708 
Q 338 2794 131 2806 
L 131 2922 
L 1356 2922 
z
" transform="scale(0.015625)"/>
       <path id="TimesNewRomanPS-BoldMT-63" d="M 2600 753 
L 2697 678 
Q 2491 291 2183 101 
Q 1875 -88 1528 -88 
Q 944 -88 594 353 
Q 244 794 244 1413 
Q 244 2009 563 2463 
Q 947 3009 1622 3009 
Q 2075 3009 2342 2781 
Q 2609 2553 2609 2272 
Q 2609 2094 2501 1987 
Q 2394 1881 2219 1881 
Q 2034 1881 1914 2003 
Q 1794 2125 1766 2438 
Q 1747 2634 1675 2713 
Q 1603 2791 1506 2791 
Q 1356 2791 1250 2631 
Q 1088 2391 1088 1894 
Q 1088 1481 1219 1104 
Q 1350 728 1578 544 
Q 1750 409 1984 409 
Q 2138 409 2275 481 
Q 2413 553 2600 753 
z
" transform="scale(0.015625)"/>
       <path id="TimesNewRomanPS-BoldMT-65" d="M 2691 1566 
L 1088 1566 
Q 1116 984 1397 647 
Q 1613 388 1916 388 
Q 2103 388 2256 492 
Q 2409 597 2584 869 
L 2691 800 
Q 2453 316 2165 114 
Q 1878 -88 1500 -88 
Q 850 -88 516 413 
Q 247 816 247 1413 
Q 247 2144 642 2576 
Q 1038 3009 1569 3009 
Q 2013 3009 2339 2645 
Q 2666 2281 2691 1566 
z
M 1922 1775 
Q 1922 2278 1867 2465 
Q 1813 2653 1697 2750 
Q 1631 2806 1522 2806 
Q 1359 2806 1256 2647 
Q 1072 2369 1072 1884 
L 1072 1775 
L 1922 1775 
z
" transform="scale(0.015625)"/>
       <path id="TimesNewRomanPS-BoldMT-74" d="M 1375 3991 
L 1375 2922 
L 2069 2922 
L 2069 2613 
L 1375 2613 
L 1375 809 
Q 1375 556 1398 482 
Q 1422 409 1481 364 
Q 1541 319 1591 319 
Q 1794 319 1975 628 
L 2069 559 
Q 1816 -41 1247 -41 
Q 969 -41 776 114 
Q 584 269 531 459 
Q 500 566 500 1034 
L 500 2613 
L 119 2613 
L 119 2722 
Q 513 3000 789 3306 
Q 1066 3613 1272 3991 
L 1375 3991 
z
" transform="scale(0.015625)"/>
       <path id="TimesNewRomanPS-BoldMT-68" d="M 1409 4238 
L 1409 2547 
Q 1650 2800 1850 2904 
Q 2050 3009 2266 3009 
Q 2541 3009 2736 2853 
Q 2931 2697 2995 2486 
Q 3059 2275 3059 1775 
L 3059 634 
Q 3059 300 3121 217 
Q 3184 134 3375 113 
L 3375 0 
L 1894 0 
L 1894 113 
Q 2050 134 2128 238 
Q 2184 319 2184 634 
L 2184 1938 
Q 2184 2300 2156 2392 
Q 2128 2484 2061 2536 
Q 1994 2588 1909 2588 
Q 1784 2588 1665 2502 
Q 1547 2416 1409 2200 
L 1409 634 
Q 1409 322 1456 244 
Q 1516 138 1700 113 
L 1700 0 
L 219 0 
L 219 113 
Q 403 131 481 231 
Q 534 300 534 634 
L 534 3603 
Q 534 3934 473 4015 
Q 413 4097 219 4122 
L 219 4238 
L 1409 4238 
z
" transform="scale(0.015625)"/>
       <path id="TimesNewRomanPS-BoldMT-6b" d="M 1403 4238 
L 1403 1450 
L 2081 2116 
Q 2291 2319 2342 2409 
Q 2394 2500 2394 2584 
Q 2394 2669 2325 2725 
Q 2256 2781 2056 2806 
L 2056 2922 
L 3366 2922 
L 3366 2806 
Q 3178 2797 3037 2717 
Q 2897 2638 2488 2238 
L 2169 1925 
L 2856 919 
Q 3272 306 3350 231 
Q 3456 125 3619 113 
L 3619 0 
L 2109 0 
L 2109 113 
Q 2209 113 2254 150 
Q 2300 188 2300 231 
Q 2300 303 2169 497 
L 1591 1344 
L 1403 1159 
L 1403 634 
Q 1403 300 1465 217 
Q 1528 134 1722 113 
L 1722 0 
L 213 0 
L 213 113 
Q 397 131 475 231 
Q 528 300 528 634 
L 528 3603 
Q 528 3934 467 4015 
Q 406 4097 213 4122 
L 213 4238 
L 1403 4238 
z
" transform="scale(0.015625)"/>
      </defs>
      <use xlink:href="#TimesNewRomanPS-BoldMT-53"/>
      <use xlink:href="#TimesNewRomanPS-BoldMT-6c" x="55.615234"/>
      <use xlink:href="#TimesNewRomanPS-BoldMT-69" x="83.398438"/>
      <use xlink:href="#TimesNewRomanPS-BoldMT-63" x="111.181641"/>
      <use xlink:href="#TimesNewRomanPS-BoldMT-65" x="155.566406"/>
      <use xlink:href="#TimesNewRomanPS-BoldMT-74" x="199.951172"/>
      <use xlink:href="#TimesNewRomanPS-BoldMT-68" x="233.251953"/>
      <use xlink:href="#TimesNewRomanPS-BoldMT-69" x="288.867188"/>
      <use xlink:href="#TimesNewRomanPS-BoldMT-63" x="316.650391"/>
      <use xlink:href="#TimesNewRomanPS-BoldMT-6b" x="361.035156"/>
     </g>
    </g>
   </g>
   <g id="patch_3">
    <path d="M 47.901254 138.718986 
L 47.901254 138.718986 
L 47.901254 138.718986 
L 47.901254 138.718986 
z
" clip-path="url(#p27f1e9013f)" style="fill: #72b6a1; stroke: #595959; stroke-width: 0.5; stroke-linejoin: miter"/>
   </g>
   <g id="patch_4">
    <path d="M 47.901254 138.718986 
L 47.901254 138.718986 
L 47.901254 138.718986 
L 47.901254 138.718986 
z
" clip-path="url(#p27f1e9013f)" style="fill: #e99675; stroke: #595959; stroke-width: 0.5; stroke-linejoin: miter"/>
   </g>
   <g id="patch_5">
    <path d="M 47.901254 138.718986 
L 47.901254 138.718986 
L 47.901254 138.718986 
L 47.901254 138.718986 
z
" clip-path="url(#p27f1e9013f)" style="fill: #95a3c3; stroke: #595959; stroke-width: 0.5; stroke-linejoin: miter"/>
   </g>
   <g id="patch_6">
    <path d="M 47.901254 138.718986 
L 47.901254 138.718986 
L 47.901254 138.718986 
L 47.901254 138.718986 
z
" clip-path="url(#p27f1e9013f)" style="fill: #db96c0; stroke: #595959; stroke-width: 0.5; stroke-linejoin: miter"/>
   </g>
   <g id="patch_7">
    <path d="M 47.901254 138.718986 
L 47.901254 138.718986 
L 47.901254 138.718986 
L 47.901254 138.718986 
z
" clip-path="url(#p27f1e9013f)" style="fill: #a2c865; stroke: #595959; stroke-width: 0.5; stroke-linejoin: miter"/>
   </g>
   <g id="patch_8">
    <path d="M 47.901254 138.718986 
L 47.901254 138.718986 
L 47.901254 138.718986 
L 47.901254 138.718986 
z
" clip-path="url(#p27f1e9013f)" style="fill: #e5c849; stroke: #595959; stroke-width: 0.5; stroke-linejoin: miter"/>
   </g>
   <g id="patch_9">
    <path d="M 47.901254 138.718986 
L 47.901254 138.718986 
L 47.901254 138.718986 
L 47.901254 138.718986 
z
" clip-path="url(#p27f1e9013f)" style="fill: #dbc29e; stroke: #595959; stroke-width: 0.5; stroke-linejoin: miter"/>
   </g>
   <g id="patch_10">
    <path d="M 47.901254 138.718986 
L 47.901254 138.718986 
L 47.901254 138.718986 
L 47.901254 138.718986 
z
" clip-path="url(#p27f1e9013f)" style="fill: #b3b3b3; stroke: #595959; stroke-width: 0.5; stroke-linejoin: miter"/>
   </g>
   <g id="patch_11">
    <path d="M 47.901254 138.718986 
L 47.901254 138.718986 
L 47.901254 138.718986 
L 47.901254 138.718986 
z
" clip-path="url(#p27f1e9013f)" style="fill: #72b6a1; stroke: #595959; stroke-width: 0.5; stroke-linejoin: miter"/>
   </g>
   <g id="patch_12">
    <path d="M 47.901254 138.718986 
L 47.901254 138.718986 
L 47.901254 138.718986 
L 47.901254 138.718986 
z
" clip-path="url(#p27f1e9013f)" style="fill: #e99675; stroke: #595959; stroke-width: 0.5; stroke-linejoin: miter"/>
   </g>
   <g id="patch_13">
    <path d="M 47.901254 138.718986 
L 47.901254 138.718986 
L 47.901254 138.718986 
L 47.901254 138.718986 
z
" clip-path="url(#p27f1e9013f)" style="fill: #95a3c3; stroke: #595959; stroke-width: 0.5; stroke-linejoin: miter"/>
   </g>
   <g id="PolyCollection_1">
    <defs>
     <path id="m728af2a4ec" d="M 83.896097 -49.572331 
L 83.803333 -49.572331 
L 83.792524 -49.743046 
L 83.780007 -49.913761 
L 83.765731 -50.084476 
L 83.749696 -50.255191 
L 83.731972 -50.425906 
L 83.712704 -50.596621 
L 83.692119 -50.767337 
L 83.67053 -50.938052 
L 83.648331 -51.108767 
L 83.625988 -51.279482 
L 83.604031 -51.450197 
L 83.583026 -51.620912 
L 83.563561 -51.791627 
L 83.546213 -51.962342 
L 83.531521 -52.133057 
L 83.519961 -52.303772 
L 83.511918 -52.474487 
L 83.507665 -52.645202 
L 83.507349 -52.815917 
L 83.51098 -52.986632 
L 83.518434 -53.157348 
L 83.529456 -53.328063 
L 83.543679 -53.498778 
L 83.560638 -53.669493 
L 83.579804 -53.840208 
L 83.600602 -54.010923 
L 83.622447 -54.181638 
L 83.644764 -54.352353 
L 83.667019 -54.523068 
L 83.688732 -54.693783 
L 83.709499 -54.864498 
L 83.728992 -55.035213 
L 83.746969 -55.205928 
L 83.763273 -55.376644 
L 83.777819 -55.547359 
L 83.790592 -55.718074 
L 83.801634 -55.888789 
L 83.811027 -56.059504 
L 83.818883 -56.230219 
L 83.82533 -56.400934 
L 83.830497 -56.571649 
L 83.834506 -56.742364 
L 83.837452 -56.913079 
L 83.839399 -57.083794 
L 83.840364 -57.254509 
L 83.840306 -57.425224 
L 83.839108 -57.595939 
L 83.836565 -57.766655 
L 83.832365 -57.93737 
L 83.826067 -58.108085 
L 83.817081 -58.2788 
L 83.804645 -58.449515 
L 83.787804 -58.62023 
L 83.765391 -58.790945 
L 83.736016 -58.96166 
L 83.69806 -59.132375 
L 83.649692 -59.30309 
L 83.588891 -59.473805 
L 83.513497 -59.64452 
L 83.421285 -59.815235 
L 83.310061 -59.985951 
L 83.177785 -60.156666 
L 83.022722 -60.327381 
L 82.843598 -60.498096 
L 82.639777 -60.668811 
L 82.411426 -60.839526 
L 82.159676 -61.010241 
L 81.886738 -61.180956 
L 81.595987 -61.351671 
L 81.291981 -61.522386 
L 80.980408 -61.693101 
L 80.667962 -61.863816 
L 80.36214 -62.034531 
L 80.070964 -62.205247 
L 79.802644 -62.375962 
L 79.565206 -62.546677 
L 79.366093 -62.717392 
L 79.21178 -62.888107 
L 79.107426 -63.058822 
L 79.056587 -63.229537 
L 79.061013 -63.400252 
L 79.120552 -63.570967 
L 79.233155 -63.741682 
L 79.394995 -63.912397 
L 79.600683 -64.083112 
L 79.843563 -64.253827 
L 80.116075 -64.424542 
L 80.410137 -64.595258 
L 80.717543 -64.765973 
L 81.030333 -64.936688 
L 81.341125 -65.107403 
L 81.64337 -65.278118 
L 81.931556 -65.448833 
L 82.201311 -65.619548 
L 82.449449 -65.790263 
L 82.673938 -65.960978 
L 82.873811 -66.131693 
L 83.049039 -66.302408 
L 83.200371 -66.473123 
L 84.499058 -66.473123 
L 84.499058 -66.473123 
L 84.650391 -66.302408 
L 84.825619 -66.131693 
L 85.025492 -65.960978 
L 85.24998 -65.790263 
L 85.498119 -65.619548 
L 85.767874 -65.448833 
L 86.056059 -65.278118 
L 86.358305 -65.107403 
L 86.669096 -64.936688 
L 86.981887 -64.765973 
L 87.289293 -64.595258 
L 87.583355 -64.424542 
L 87.855866 -64.253827 
L 88.098747 -64.083112 
L 88.304435 -63.912397 
L 88.466275 -63.741682 
L 88.578878 -63.570967 
L 88.638417 -63.400252 
L 88.642843 -63.229537 
L 88.592003 -63.058822 
L 88.487649 -62.888107 
L 88.333337 -62.717392 
L 88.134224 -62.546677 
L 87.896786 -62.375962 
L 87.628466 -62.205247 
L 87.33729 -62.034531 
L 87.031468 -61.863816 
L 86.719022 -61.693101 
L 86.407449 -61.522386 
L 86.103443 -61.351671 
L 85.812692 -61.180956 
L 85.539754 -61.010241 
L 85.288004 -60.839526 
L 85.059653 -60.668811 
L 84.855832 -60.498096 
L 84.676708 -60.327381 
L 84.521644 -60.156666 
L 84.389369 -59.985951 
L 84.278145 -59.815235 
L 84.185932 -59.64452 
L 84.110539 -59.473805 
L 84.049738 -59.30309 
L 84.00137 -59.132375 
L 83.963414 -58.96166 
L 83.934039 -58.790945 
L 83.911626 -58.62023 
L 83.894785 -58.449515 
L 83.882349 -58.2788 
L 83.873363 -58.108085 
L 83.867065 -57.93737 
L 83.862865 -57.766655 
L 83.860322 -57.595939 
L 83.859124 -57.425224 
L 83.859065 -57.254509 
L 83.860031 -57.083794 
L 83.861978 -56.913079 
L 83.864924 -56.742364 
L 83.868932 -56.571649 
L 83.8741 -56.400934 
L 83.880547 -56.230219 
L 83.888403 -56.059504 
L 83.897796 -55.888789 
L 83.908838 -55.718074 
L 83.921611 -55.547359 
L 83.936157 -55.376644 
L 83.95246 -55.205928 
L 83.970438 -55.035213 
L 83.989931 -54.864498 
L 84.010697 -54.693783 
L 84.032411 -54.523068 
L 84.054666 -54.352353 
L 84.076983 -54.181638 
L 84.098828 -54.010923 
L 84.119626 -53.840208 
L 84.138791 -53.669493 
L 84.155751 -53.498778 
L 84.169974 -53.328063 
L 84.180996 -53.157348 
L 84.18845 -52.986632 
L 84.192081 -52.815917 
L 84.191765 -52.645202 
L 84.187512 -52.474487 
L 84.179469 -52.303772 
L 84.167909 -52.133057 
L 84.153217 -51.962342 
L 84.135869 -51.791627 
L 84.116403 -51.620912 
L 84.095399 -51.450197 
L 84.073441 -51.279482 
L 84.051099 -51.108767 
L 84.0289 -50.938052 
L 84.007311 -50.767337 
L 83.986726 -50.596621 
L 83.967458 -50.425906 
L 83.949734 -50.255191 
L 83.933699 -50.084476 
L 83.919422 -49.913761 
L 83.906906 -49.743046 
L 83.896097 -49.572331 
z
" style="stroke: #595959"/>
    </defs>
    <g clip-path="url(#p2290310903)">
     <use xlink:href="#m728af2a4ec" x="0" y="138.677595" style="fill: #db96c0; stroke: #595959"/>
    </g>
   </g>
   <g id="PathCollection_1"/>
   <g id="PathCollection_2"/>
   <g id="PathCollection_3"/>
   <g id="PathCollection_4"/>
   <g id="PathCollection_5"/>
   <g id="PathCollection_6"/>
   <g id="PathCollection_7"/>
   <g id="PathCollection_8"/>
   <g id="PathCollection_9"/>
   <g id="PathCollection_10"/>
   <g id="PathCollection_11"/>
   <g id="line2d_29">
    <path d="M 43.108126 75.376312 
L 52.694382 75.376312 
" clip-path="url(#p27f1e9013f)" style="fill: none; stroke: #595959; stroke-linecap: round"/>
   </g>
   <g id="line2d_30">
    <path d="M 55.090946 59.540643 
L 64.677202 59.540643 
" clip-path="url(#p27f1e9013f)" style="fill: none; stroke: #595959; stroke-linecap: round"/>
   </g>
   <g id="line2d_31">
    <path d="M 67.073766 22.590749 
L 76.660023 22.590749 
" clip-path="url(#p27f1e9013f)" style="fill: none; stroke: #595959; stroke-linecap: round"/>
   </g>
   <g id="line2d_32">
    <path d="M 91.039407 54.262087 
L 100.625663 54.262087 
" clip-path="url(#p27f1e9013f)" style="fill: none; stroke: #595959; stroke-linecap: round"/>
   </g>
   <g id="line2d_33">
    <path d="M 103.022227 54.262087 
L 112.608484 54.262087 
" clip-path="url(#p27f1e9013f)" style="fill: none; stroke: #595959; stroke-linecap: round"/>
   </g>
   <g id="line2d_34">
    <path d="M 115.005048 75.376312 
L 124.591304 75.376312 
" clip-path="url(#p27f1e9013f)" style="fill: none; stroke: #595959; stroke-linecap: round"/>
   </g>
   <g id="line2d_35">
    <path d="M 126.987868 85.933424 
L 136.574124 85.933424 
" clip-path="url(#p27f1e9013f)" style="fill: none; stroke: #595959; stroke-linecap: round"/>
   </g>
   <g id="line2d_36">
    <path d="M 138.970688 85.933424 
L 148.556945 85.933424 
" clip-path="url(#p27f1e9013f)" style="fill: none; stroke: #595959; stroke-linecap: round"/>
   </g>
   <g id="line2d_37">
    <path d="M 150.953509 75.376312 
L 160.539765 75.376312 
" clip-path="url(#p27f1e9013f)" style="fill: none; stroke: #595959; stroke-linecap: round"/>
   </g>
   <g id="line2d_38">
    <path d="M 162.936329 91.21198 
L 172.522585 91.21198 
" clip-path="url(#p27f1e9013f)" style="fill: none; stroke: #595959; stroke-linecap: round"/>
   </g>
   <g id="line2d_39">
    <path d="M 47.901254 75.376312 
L 47.901254 75.376312 
" clip-path="url(#p27f1e9013f)" style="fill: none; stroke: #474747; stroke-linecap: round"/>
   </g>
   <g id="line2d_40">
    <path d="M 47.901254 75.376312 
L 47.901254 75.376312 
" clip-path="url(#p27f1e9013f)" style="fill: none; stroke: #474747; stroke-linecap: round"/>
   </g>
   <g id="line2d_41">
    <path d="M 47.002542 75.376312 
L 48.799965 75.376312 
" clip-path="url(#p27f1e9013f)" style="fill: none; stroke: #474747; stroke-linecap: round"/>
   </g>
   <g id="line2d_42">
    <path d="M 47.002542 75.376312 
L 48.799965 75.376312 
" clip-path="url(#p27f1e9013f)" style="fill: none; stroke: #474747; stroke-linecap: round"/>
   </g>
   <g id="line2d_43">
    <path d="M 59.884074 59.540643 
L 59.884074 59.540643 
" clip-path="url(#p27f1e9013f)" style="fill: none; stroke: #474747; stroke-linecap: round"/>
   </g>
   <g id="line2d_44">
    <path d="M 59.884074 59.540643 
L 59.884074 59.540643 
" clip-path="url(#p27f1e9013f)" style="fill: none; stroke: #474747; stroke-linecap: round"/>
   </g>
   <g id="line2d_45">
    <path d="M 58.985363 59.540643 
L 60.782786 59.540643 
" clip-path="url(#p27f1e9013f)" style="fill: none; stroke: #474747; stroke-linecap: round"/>
   </g>
   <g id="line2d_46">
    <path d="M 58.985363 59.540643 
L 60.782786 59.540643 
" clip-path="url(#p27f1e9013f)" style="fill: none; stroke: #474747; stroke-linecap: round"/>
   </g>
   <g id="line2d_47">
    <path d="M 71.866895 22.590749 
L 71.866895 22.590749 
" clip-path="url(#p27f1e9013f)" style="fill: none; stroke: #474747; stroke-linecap: round"/>
   </g>
   <g id="line2d_48">
    <path d="M 71.866895 22.590749 
L 71.866895 22.590749 
" clip-path="url(#p27f1e9013f)" style="fill: none; stroke: #474747; stroke-linecap: round"/>
   </g>
   <g id="line2d_49">
    <path d="M 70.968183 22.590749 
L 72.765606 22.590749 
" clip-path="url(#p27f1e9013f)" style="fill: none; stroke: #474747; stroke-linecap: round"/>
   </g>
   <g id="line2d_50">
    <path d="M 70.968183 22.590749 
L 72.765606 22.590749 
" clip-path="url(#p27f1e9013f)" style="fill: none; stroke: #474747; stroke-linecap: round"/>
   </g>
   <g id="line2d_51">
    <path d="M 83.849715 75.376312 
L 83.849715 75.376312 
" clip-path="url(#p27f1e9013f)" style="fill: none; stroke: #474747; stroke-linecap: round"/>
   </g>
   <g id="line2d_52">
    <path d="M 83.849715 75.376312 
L 83.849715 75.376312 
" clip-path="url(#p27f1e9013f)" style="fill: none; stroke: #474747; stroke-linecap: round"/>
   </g>
   <g id="line2d_53">
    <path d="M 82.951003 75.376312 
L 84.748426 75.376312 
" clip-path="url(#p27f1e9013f)" style="fill: none; stroke: #474747; stroke-linecap: round"/>
   </g>
   <g id="line2d_54">
    <path d="M 82.951003 75.376312 
L 84.748426 75.376312 
" clip-path="url(#p27f1e9013f)" style="fill: none; stroke: #474747; stroke-linecap: round"/>
   </g>
   <g id="line2d_55">
    <path d="M 95.832535 54.262087 
L 95.832535 54.262087 
" clip-path="url(#p27f1e9013f)" style="fill: none; stroke: #474747; stroke-linecap: round"/>
   </g>
   <g id="line2d_56">
    <path d="M 95.832535 54.262087 
L 95.832535 54.262087 
" clip-path="url(#p27f1e9013f)" style="fill: none; stroke: #474747; stroke-linecap: round"/>
   </g>
   <g id="line2d_57">
    <path d="M 94.933824 54.262087 
L 96.731247 54.262087 
" clip-path="url(#p27f1e9013f)" style="fill: none; stroke: #474747; stroke-linecap: round"/>
   </g>
   <g id="line2d_58">
    <path d="M 94.933824 54.262087 
L 96.731247 54.262087 
" clip-path="url(#p27f1e9013f)" style="fill: none; stroke: #474747; stroke-linecap: round"/>
   </g>
   <g id="line2d_59">
    <path d="M 107.815356 54.262087 
L 107.815356 54.262087 
" clip-path="url(#p27f1e9013f)" style="fill: none; stroke: #474747; stroke-linecap: round"/>
   </g>
   <g id="line2d_60">
    <path d="M 107.815356 54.262087 
L 107.815356 54.262087 
" clip-path="url(#p27f1e9013f)" style="fill: none; stroke: #474747; stroke-linecap: round"/>
   </g>
   <g id="line2d_61">
    <path d="M 106.916644 54.262087 
L 108.714067 54.262087 
" clip-path="url(#p27f1e9013f)" style="fill: none; stroke: #474747; stroke-linecap: round"/>
   </g>
   <g id="line2d_62">
    <path d="M 106.916644 54.262087 
L 108.714067 54.262087 
" clip-path="url(#p27f1e9013f)" style="fill: none; stroke: #474747; stroke-linecap: round"/>
   </g>
   <g id="line2d_63">
    <path d="M 119.798176 75.376312 
L 119.798176 75.376312 
" clip-path="url(#p27f1e9013f)" style="fill: none; stroke: #474747; stroke-linecap: round"/>
   </g>
   <g id="line2d_64">
    <path d="M 119.798176 75.376312 
L 119.798176 75.376312 
" clip-path="url(#p27f1e9013f)" style="fill: none; stroke: #474747; stroke-linecap: round"/>
   </g>
   <g id="line2d_65">
    <path d="M 118.899464 75.376312 
L 120.696887 75.376312 
" clip-path="url(#p27f1e9013f)" style="fill: none; stroke: #474747; stroke-linecap: round"/>
   </g>
   <g id="line2d_66">
    <path d="M 118.899464 75.376312 
L 120.696887 75.376312 
" clip-path="url(#p27f1e9013f)" style="fill: none; stroke: #474747; stroke-linecap: round"/>
   </g>
   <g id="line2d_67">
    <path d="M 131.780996 85.933424 
L 131.780996 85.933424 
" clip-path="url(#p27f1e9013f)" style="fill: none; stroke: #474747; stroke-linecap: round"/>
   </g>
   <g id="line2d_68">
    <path d="M 131.780996 85.933424 
L 131.780996 85.933424 
" clip-path="url(#p27f1e9013f)" style="fill: none; stroke: #474747; stroke-linecap: round"/>
   </g>
   <g id="line2d_69">
    <path d="M 130.882285 85.933424 
L 132.679708 85.933424 
" clip-path="url(#p27f1e9013f)" style="fill: none; stroke: #474747; stroke-linecap: round"/>
   </g>
   <g id="line2d_70">
    <path d="M 130.882285 85.933424 
L 132.679708 85.933424 
" clip-path="url(#p27f1e9013f)" style="fill: none; stroke: #474747; stroke-linecap: round"/>
   </g>
   <g id="line2d_71">
    <path d="M 143.763817 85.933424 
L 143.763817 85.933424 
" clip-path="url(#p27f1e9013f)" style="fill: none; stroke: #474747; stroke-linecap: round"/>
   </g>
   <g id="line2d_72">
    <path d="M 143.763817 85.933424 
L 143.763817 85.933424 
" clip-path="url(#p27f1e9013f)" style="fill: none; stroke: #474747; stroke-linecap: round"/>
   </g>
   <g id="line2d_73">
    <path d="M 142.865105 85.933424 
L 144.662528 85.933424 
" clip-path="url(#p27f1e9013f)" style="fill: none; stroke: #474747; stroke-linecap: round"/>
   </g>
   <g id="line2d_74">
    <path d="M 142.865105 85.933424 
L 144.662528 85.933424 
" clip-path="url(#p27f1e9013f)" style="fill: none; stroke: #474747; stroke-linecap: round"/>
   </g>
   <g id="line2d_75">
    <path d="M 155.746637 75.376312 
L 155.746637 75.376312 
" clip-path="url(#p27f1e9013f)" style="fill: none; stroke: #474747; stroke-linecap: round"/>
   </g>
   <g id="line2d_76">
    <path d="M 155.746637 75.376312 
L 155.746637 75.376312 
" clip-path="url(#p27f1e9013f)" style="fill: none; stroke: #474747; stroke-linecap: round"/>
   </g>
   <g id="line2d_77">
    <path d="M 154.847925 75.376312 
L 156.645348 75.376312 
" clip-path="url(#p27f1e9013f)" style="fill: none; stroke: #474747; stroke-linecap: round"/>
   </g>
   <g id="line2d_78">
    <path d="M 154.847925 75.376312 
L 156.645348 75.376312 
" clip-path="url(#p27f1e9013f)" style="fill: none; stroke: #474747; stroke-linecap: round"/>
   </g>
   <g id="line2d_79">
    <path d="M 167.729457 91.21198 
L 167.729457 91.21198 
" clip-path="url(#p27f1e9013f)" style="fill: none; stroke: #474747; stroke-linecap: round"/>
   </g>
   <g id="line2d_80">
    <path d="M 167.729457 91.21198 
L 167.729457 91.21198 
" clip-path="url(#p27f1e9013f)" style="fill: none; stroke: #474747; stroke-linecap: round"/>
   </g>
   <g id="line2d_81">
    <path d="M 166.830746 91.21198 
L 168.628169 91.21198 
" clip-path="url(#p27f1e9013f)" style="fill: none; stroke: #474747; stroke-linecap: round"/>
   </g>
   <g id="line2d_82">
    <path d="M 166.830746 91.21198 
L 168.628169 91.21198 
" clip-path="url(#p27f1e9013f)" style="fill: none; stroke: #474747; stroke-linecap: round"/>
   </g>
   <g id="line2d_83">
    <path d="M 46.103831 75.376312 
L 49.698677 75.376312 
" clip-path="url(#p27f1e9013f)" style="fill: none; stroke: #474747; stroke-linecap: round"/>
   </g>
   <g id="line2d_84">
    <path d="M 58.086651 59.540643 
L 61.681497 59.540643 
" clip-path="url(#p27f1e9013f)" style="fill: none; stroke: #474747; stroke-linecap: round"/>
   </g>
   <g id="line2d_85">
    <path d="M 70.069472 22.590749 
L 73.664318 22.590749 
" clip-path="url(#p27f1e9013f)" style="fill: none; stroke: #474747; stroke-linecap: round"/>
   </g>
   <g id="line2d_86">
    <path d="M 82.052292 75.376312 
L 85.647138 75.376312 
" clip-path="url(#p27f1e9013f)" style="fill: none; stroke: #474747; stroke-linecap: round"/>
   </g>
   <g id="line2d_87">
    <path d="M 94.035112 54.262087 
L 97.629958 54.262087 
" clip-path="url(#p27f1e9013f)" style="fill: none; stroke: #474747; stroke-linecap: round"/>
   </g>
   <g id="line2d_88">
    <path d="M 106.017933 54.262087 
L 109.612779 54.262087 
" clip-path="url(#p27f1e9013f)" style="fill: none; stroke: #474747; stroke-linecap: round"/>
   </g>
   <g id="line2d_89">
    <path d="M 118.000753 75.376312 
L 121.595599 75.376312 
" clip-path="url(#p27f1e9013f)" style="fill: none; stroke: #474747; stroke-linecap: round"/>
   </g>
   <g id="line2d_90">
    <path d="M 129.983573 85.933424 
L 133.578419 85.933424 
" clip-path="url(#p27f1e9013f)" style="fill: none; stroke: #474747; stroke-linecap: round"/>
   </g>
   <g id="line2d_91">
    <path d="M 141.966393 85.933424 
L 145.56124 85.933424 
" clip-path="url(#p27f1e9013f)" style="fill: none; stroke: #474747; stroke-linecap: round"/>
   </g>
   <g id="line2d_92">
    <path d="M 153.949214 75.376312 
L 157.54406 75.376312 
" clip-path="url(#p27f1e9013f)" style="fill: none; stroke: #474747; stroke-linecap: round"/>
   </g>
   <g id="line2d_93">
    <path d="M 165.932034 91.21198 
L 169.52688 91.21198 
" clip-path="url(#p27f1e9013f)" style="fill: none; stroke: #474747; stroke-linecap: round"/>
   </g>
   <g id="patch_14">
    <path d="M 41.909844 94.643042 
L 41.909844 19.159688 
" style="fill: none; stroke: #262626; stroke-width: 0.5; stroke-linejoin: miter; stroke-linecap: square"/>
   </g>
   <g id="patch_15">
    <path d="M 173.720867 94.643042 
L 173.720867 19.159688 
" style="fill: none; stroke: #262626; stroke-width: 0.5; stroke-linejoin: miter; stroke-linecap: square"/>
   </g>
   <g id="patch_16">
    <path d="M 41.909844 94.643042 
L 173.720867 94.643042 
" style="fill: none; stroke: #262626; stroke-width: 0.5; stroke-linejoin: miter; stroke-linecap: square"/>
   </g>
   <g id="patch_17">
    <path d="M 41.909844 19.159688 
L 173.720867 19.159688 
" style="fill: none; stroke: #262626; stroke-width: 0.5; stroke-linejoin: miter; stroke-linecap: square"/>
   </g>
   <g id="patch_18">
    <path d="M 46.103831 75.376312 
L 49.698677 75.376312 
L 49.698677 75.376312 
L 46.103831 75.376312 
L 46.103831 75.376312 
L 46.103831 75.376312 
z
" clip-path="url(#p27f1e9013f)" style="fill: none; stroke: #474747; stroke-linejoin: miter"/>
   </g>
   <g id="patch_19">
    <path d="M 58.086651 59.540643 
L 61.681497 59.540643 
L 61.681497 59.540643 
L 58.086651 59.540643 
L 58.086651 59.540643 
L 58.086651 59.540643 
z
" clip-path="url(#p27f1e9013f)" style="fill: none; stroke: #474747; stroke-linejoin: miter"/>
   </g>
   <g id="patch_20">
    <path d="M 70.069472 22.590749 
L 73.664318 22.590749 
L 73.664318 22.590749 
L 70.069472 22.590749 
L 70.069472 22.590749 
L 70.069472 22.590749 
z
" clip-path="url(#p27f1e9013f)" style="fill: none; stroke: #474747; stroke-linejoin: miter"/>
   </g>
   <g id="patch_21">
    <path d="M 82.052292 75.376312 
L 85.647138 75.376312 
L 85.647138 75.376312 
L 82.052292 75.376312 
L 82.052292 75.376312 
L 82.052292 75.376312 
z
" clip-path="url(#p27f1e9013f)" style="fill: none; stroke: #474747; stroke-linejoin: miter"/>
   </g>
   <g id="patch_22">
    <path d="M 94.035112 54.262087 
L 97.629958 54.262087 
L 97.629958 54.262087 
L 94.035112 54.262087 
L 94.035112 54.262087 
L 94.035112 54.262087 
z
" clip-path="url(#p27f1e9013f)" style="fill: none; stroke: #474747; stroke-linejoin: miter"/>
   </g>
   <g id="patch_23">
    <path d="M 106.017933 54.262087 
L 109.612779 54.262087 
L 109.612779 54.262087 
L 106.017933 54.262087 
L 106.017933 54.262087 
L 106.017933 54.262087 
z
" clip-path="url(#p27f1e9013f)" style="fill: none; stroke: #474747; stroke-linejoin: miter"/>
   </g>
   <g id="patch_24">
    <path d="M 118.000753 75.376312 
L 121.595599 75.376312 
L 121.595599 75.376312 
L 118.000753 75.376312 
L 118.000753 75.376312 
L 118.000753 75.376312 
z
" clip-path="url(#p27f1e9013f)" style="fill: none; stroke: #474747; stroke-linejoin: miter"/>
   </g>
   <g id="patch_25">
    <path d="M 129.983573 85.933424 
L 133.578419 85.933424 
L 133.578419 85.933424 
L 129.983573 85.933424 
L 129.983573 85.933424 
L 129.983573 85.933424 
z
" clip-path="url(#p27f1e9013f)" style="fill: none; stroke: #474747; stroke-linejoin: miter"/>
   </g>
   <g id="patch_26">
    <path d="M 141.966393 85.933424 
L 145.56124 85.933424 
L 145.56124 85.933424 
L 141.966393 85.933424 
L 141.966393 85.933424 
L 141.966393 85.933424 
z
" clip-path="url(#p27f1e9013f)" style="fill: none; stroke: #474747; stroke-linejoin: miter"/>
   </g>
   <g id="patch_27">
    <path d="M 153.949214 75.376312 
L 157.54406 75.376312 
L 157.54406 75.376312 
L 153.949214 75.376312 
L 153.949214 75.376312 
L 153.949214 75.376312 
z
" clip-path="url(#p27f1e9013f)" style="fill: none; stroke: #474747; stroke-linejoin: miter"/>
   </g>
   <g id="patch_28">
    <path d="M 165.932034 91.21198 
L 169.52688 91.21198 
L 169.52688 91.21198 
L 165.932034 91.21198 
L 165.932034 91.21198 
L 165.932034 91.21198 
z
" clip-path="url(#p27f1e9013f)" style="fill: none; stroke: #474747; stroke-linejoin: miter"/>
   </g>
   <g id="PathCollection_12">
    <defs>
     <path id="C0_0_b3a9d8bd0f" d="M 0 0.55 
C 0.145862 0.55 0.285769 0.492049 0.388909 0.388909 
C 0.492049 0.285769 0.55 0.145862 0.55 -0 
C 0.55 -0.145862 0.492049 -0.285769 0.388909 -0.388909 
C 0.285769 -0.492049 0.145862 -0.55 0 -0.55 
C -0.145862 -0.55 -0.285769 -0.492049 -0.388909 -0.388909 
C -0.492049 -0.285769 -0.55 -0.145862 -0.55 0 
C -0.55 0.145862 -0.492049 0.285769 -0.388909 0.388909 
C -0.285769 0.492049 -0.145862 0.55 0 0.55 
z
"/>
    </defs>
    <g clip-path="url(#p27f1e9013f)">
     <use xlink:href="#C0_0_b3a9d8bd0f" x="49.073344" y="75.376312" style="fill: #66c2a5"/>
    </g>
    <g clip-path="url(#p27f1e9013f)">
     <use xlink:href="#C0_0_b3a9d8bd0f" x="48.212401" y="75.376312" style="fill: #66c2a5"/>
    </g>
    <g clip-path="url(#p27f1e9013f)">
     <use xlink:href="#C0_0_b3a9d8bd0f" x="50.074554" y="75.376312" style="fill: #66c2a5"/>
    </g>
    <g clip-path="url(#p27f1e9013f)">
     <use xlink:href="#C0_0_b3a9d8bd0f" x="50.147517" y="75.376312" style="fill: #66c2a5"/>
    </g>
    <g clip-path="url(#p27f1e9013f)">
     <use xlink:href="#C0_0_b3a9d8bd0f" x="49.600527" y="75.376312" style="fill: #66c2a5"/>
    </g>
    <g clip-path="url(#p27f1e9013f)">
     <use xlink:href="#C0_0_b3a9d8bd0f" x="50.316232" y="75.376312" style="fill: #66c2a5"/>
    </g>
    <g clip-path="url(#p27f1e9013f)">
     <use xlink:href="#C0_0_b3a9d8bd0f" x="48.777514" y="75.376312" style="fill: #66c2a5"/>
    </g>
    <g clip-path="url(#p27f1e9013f)">
     <use xlink:href="#C0_0_b3a9d8bd0f" x="49.337934" y="75.376312" style="fill: #66c2a5"/>
    </g>
    <g clip-path="url(#p27f1e9013f)">
     <use xlink:href="#C0_0_b3a9d8bd0f" x="48.652763" y="75.376312" style="fill: #66c2a5"/>
    </g>
    <g clip-path="url(#p27f1e9013f)">
     <use xlink:href="#C0_0_b3a9d8bd0f" x="49.919044" y="75.376312" style="fill: #66c2a5"/>
    </g>
    <g clip-path="url(#p27f1e9013f)">
     <use xlink:href="#C0_0_b3a9d8bd0f" x="49.316325" y="75.376312" style="fill: #66c2a5"/>
    </g>
    <g clip-path="url(#p27f1e9013f)">
     <use xlink:href="#C0_0_b3a9d8bd0f" x="49.239772" y="75.376312" style="fill: #66c2a5"/>
    </g>
    <g clip-path="url(#p27f1e9013f)">
     <use xlink:href="#C0_0_b3a9d8bd0f" x="50.307367" y="75.376312" style="fill: #66c2a5"/>
    </g>
    <g clip-path="url(#p27f1e9013f)">
     <use xlink:href="#C0_0_b3a9d8bd0f" x="49.273949" y="75.376312" style="fill: #66c2a5"/>
    </g>
    <g clip-path="url(#p27f1e9013f)">
     <use xlink:href="#C0_0_b3a9d8bd0f" x="48.964604" y="75.376312" style="fill: #66c2a5"/>
    </g>
    <g clip-path="url(#p27f1e9013f)">
     <use xlink:href="#C0_0_b3a9d8bd0f" x="49.488404" y="75.376312" style="fill: #66c2a5"/>
    </g>
    <g clip-path="url(#p27f1e9013f)">
     <use xlink:href="#C0_0_b3a9d8bd0f" x="49.560208" y="75.376312" style="fill: #66c2a5"/>
    </g>
    <g clip-path="url(#p27f1e9013f)">
     <use xlink:href="#C0_0_b3a9d8bd0f" x="50.491307" y="75.376312" style="fill: #66c2a5"/>
    </g>
   </g>
   <g id="PathCollection_13">
    <defs>
     <path id="C1_0_37c58137f2" d="M 0 0.55 
C 0.145862 0.55 0.285769 0.492049 0.388909 0.388909 
C 0.492049 0.285769 0.55 0.145862 0.55 -0 
C 0.55 -0.145862 0.492049 -0.285769 0.388909 -0.388909 
C 0.285769 -0.492049 0.145862 -0.55 0 -0.55 
C -0.145862 -0.55 -0.285769 -0.492049 -0.388909 -0.388909 
C -0.492049 -0.285769 -0.55 -0.145862 -0.55 0 
C -0.55 0.145862 -0.492049 0.285769 -0.388909 0.388909 
C -0.285769 0.492049 -0.145862 0.55 0 0.55 
z
"/>
    </defs>
    <g clip-path="url(#p27f1e9013f)">
     <use xlink:href="#C1_0_37c58137f2" x="61.126369" y="59.540643" style="fill: #fc8d62"/>
    </g>
    <g clip-path="url(#p27f1e9013f)">
     <use xlink:href="#C1_0_37c58137f2" x="62.296478" y="59.540643" style="fill: #fc8d62"/>
    </g>
    <g clip-path="url(#p27f1e9013f)">
     <use xlink:href="#C1_0_37c58137f2" x="61.413037" y="59.540643" style="fill: #fc8d62"/>
    </g>
    <g clip-path="url(#p27f1e9013f)">
     <use xlink:href="#C1_0_37c58137f2" x="62.365267" y="59.540643" style="fill: #fc8d62"/>
    </g>
    <g clip-path="url(#p27f1e9013f)">
     <use xlink:href="#C1_0_37c58137f2" x="60.510762" y="59.540643" style="fill: #fc8d62"/>
    </g>
   </g>
   <g id="PathCollection_14">
    <defs>
     <path id="C2_0_abeb2d3226" d="M 0 0.55 
C 0.145862 0.55 0.285769 0.492049 0.388909 0.388909 
C 0.492049 0.285769 0.55 0.145862 0.55 -0 
C 0.55 -0.145862 0.492049 -0.285769 0.388909 -0.388909 
C 0.285769 -0.492049 0.145862 -0.55 0 -0.55 
C -0.145862 -0.55 -0.285769 -0.492049 -0.388909 -0.388909 
C -0.492049 -0.285769 -0.55 -0.145862 -0.55 0 
C -0.55 0.145862 -0.492049 0.285769 -0.388909 0.388909 
C -0.285769 0.492049 -0.145862 0.55 0 0.55 
z
"/>
    </defs>
    <g clip-path="url(#p27f1e9013f)">
     <use xlink:href="#C2_0_abeb2d3226" x="72.368938" y="22.590749" style="fill: #8da0cb"/>
    </g>
    <g clip-path="url(#p27f1e9013f)">
     <use xlink:href="#C2_0_abeb2d3226" x="74.240115" y="22.590749" style="fill: #8da0cb"/>
    </g>
    <g clip-path="url(#p27f1e9013f)">
     <use xlink:href="#C2_0_abeb2d3226" x="74.360289" y="22.590749" style="fill: #8da0cb"/>
    </g>
    <g clip-path="url(#p27f1e9013f)">
     <use xlink:href="#C2_0_abeb2d3226" x="73.70225" y="22.590749" style="fill: #8da0cb"/>
    </g>
    <g clip-path="url(#p27f1e9013f)">
     <use xlink:href="#C2_0_abeb2d3226" x="74.155793" y="22.590749" style="fill: #8da0cb"/>
    </g>
    <g clip-path="url(#p27f1e9013f)">
     <use xlink:href="#C2_0_abeb2d3226" x="72.472032" y="22.590749" style="fill: #8da0cb"/>
    </g>
    <g clip-path="url(#p27f1e9013f)">
     <use xlink:href="#C2_0_abeb2d3226" x="72.181814" y="22.590749" style="fill: #8da0cb"/>
    </g>
    <g clip-path="url(#p27f1e9013f)">
     <use xlink:href="#C2_0_abeb2d3226" x="74.31344" y="22.590749" style="fill: #8da0cb"/>
    </g>
    <g clip-path="url(#p27f1e9013f)">
     <use xlink:href="#C2_0_abeb2d3226" x="74.320375" y="22.590749" style="fill: #8da0cb"/>
    </g>
    <g clip-path="url(#p27f1e9013f)">
     <use xlink:href="#C2_0_abeb2d3226" x="73.274802" y="22.590749" style="fill: #8da0cb"/>
    </g>
   </g>
   <g id="PathCollection_15">
    <defs>
     <path id="C3_0_6ce81b651e" d="M 0 0.55 
C 0.145862 0.55 0.285769 0.492049 0.388909 0.388909 
C 0.492049 0.285769 0.55 0.145862 0.55 -0 
C 0.55 -0.145862 0.492049 -0.285769 0.388909 -0.388909 
C 0.285769 -0.492049 0.145862 -0.55 0 -0.55 
C -0.145862 -0.55 -0.285769 -0.492049 -0.388909 -0.388909 
C -0.492049 -0.285769 -0.55 -0.145862 -0.55 0 
C -0.55 0.145862 -0.492049 0.285769 -0.388909 0.388909 
C -0.285769 0.492049 -0.145862 0.55 0 0.55 
z
"/>
    </defs>
    <g clip-path="url(#p27f1e9013f)">
     <use xlink:href="#C3_0_6ce81b651e" x="85.366024" y="75.376312" style="fill: #e78ac3"/>
    </g>
    <g clip-path="url(#p27f1e9013f)">
     <use xlink:href="#C3_0_6ce81b651e" x="85.757204" y="75.376312" style="fill: #e78ac3"/>
    </g>
    <g clip-path="url(#p27f1e9013f)">
     <use xlink:href="#C3_0_6ce81b651e" x="84.963718" y="75.376312" style="fill: #e78ac3"/>
    </g>
    <g clip-path="url(#p27f1e9013f)">
     <use xlink:href="#C3_0_6ce81b651e" x="85.729648" y="75.376312" style="fill: #e78ac3"/>
    </g>
    <g clip-path="url(#p27f1e9013f)">
     <use xlink:href="#C3_0_6ce81b651e" x="85.43294" y="75.376312" style="fill: #e78ac3"/>
    </g>
    <g clip-path="url(#p27f1e9013f)">
     <use xlink:href="#C3_0_6ce81b651e" x="84.811163" y="75.376312" style="fill: #e78ac3"/>
    </g>
    <g clip-path="url(#p27f1e9013f)">
     <use xlink:href="#C3_0_6ce81b651e" x="86.166769" y="75.376312" style="fill: #e78ac3"/>
    </g>
    <g clip-path="url(#p27f1e9013f)">
     <use xlink:href="#C3_0_6ce81b651e" x="84.724948" y="75.376312" style="fill: #e78ac3"/>
    </g>
    <g clip-path="url(#p27f1e9013f)">
     <use xlink:href="#C3_0_6ce81b651e" x="86.435109" y="75.376312" style="fill: #e78ac3"/>
    </g>
    <g clip-path="url(#p27f1e9013f)">
     <use xlink:href="#C3_0_6ce81b651e" x="85.80367" y="75.376312" style="fill: #e78ac3"/>
    </g>
    <g clip-path="url(#p27f1e9013f)">
     <use xlink:href="#C3_0_6ce81b651e" x="85.685464" y="75.376312" style="fill: #e78ac3"/>
    </g>
    <g clip-path="url(#p27f1e9013f)">
     <use xlink:href="#C3_0_6ce81b651e" x="85.700308" y="75.376312" style="fill: #e78ac3"/>
    </g>
    <g clip-path="url(#p27f1e9013f)">
     <use xlink:href="#C3_0_6ce81b651e" x="84.981154" y="85.933424" style="fill: #e78ac3"/>
    </g>
    <g clip-path="url(#p27f1e9013f)">
     <use xlink:href="#C3_0_6ce81b651e" x="86.356472" y="75.376312" style="fill: #e78ac3"/>
    </g>
    <g clip-path="url(#p27f1e9013f)">
     <use xlink:href="#C3_0_6ce81b651e" x="84.933185" y="75.376312" style="fill: #e78ac3"/>
    </g>
   </g>
   <g id="PathCollection_16">
    <defs>
     <path id="C4_0_ea860a8244" d="M 0 0.55 
C 0.145862 0.55 0.285769 0.492049 0.388909 0.388909 
C 0.492049 0.285769 0.55 0.145862 0.55 -0 
C 0.55 -0.145862 0.492049 -0.285769 0.388909 -0.388909 
C 0.285769 -0.492049 0.145862 -0.55 0 -0.55 
C -0.145862 -0.55 -0.285769 -0.492049 -0.388909 -0.388909 
C -0.492049 -0.285769 -0.55 -0.145862 -0.55 0 
C -0.55 0.145862 -0.492049 0.285769 -0.388909 0.388909 
C -0.285769 0.492049 -0.145862 0.55 0 0.55 
z
"/>
    </defs>
    <g clip-path="url(#p27f1e9013f)">
     <use xlink:href="#C4_0_ea860a8244" x="97.741035" y="54.262087" style="fill: #a6d854"/>
    </g>
    <g clip-path="url(#p27f1e9013f)">
     <use xlink:href="#C4_0_ea860a8244" x="96.75435" y="54.262087" style="fill: #a6d854"/>
    </g>
    <g clip-path="url(#p27f1e9013f)">
     <use xlink:href="#C4_0_ea860a8244" x="96.780581" y="54.262087" style="fill: #a6d854"/>
    </g>
    <g clip-path="url(#p27f1e9013f)">
     <use xlink:href="#C4_0_ea860a8244" x="96.926979" y="54.262087" style="fill: #a6d854"/>
    </g>
    <g clip-path="url(#p27f1e9013f)">
     <use xlink:href="#C4_0_ea860a8244" x="98.151013" y="54.262087" style="fill: #a6d854"/>
    </g>
    <g clip-path="url(#p27f1e9013f)">
     <use xlink:href="#C4_0_ea860a8244" x="97.765903" y="54.262087" style="fill: #a6d854"/>
    </g>
    <g clip-path="url(#p27f1e9013f)">
     <use xlink:href="#C4_0_ea860a8244" x="96.922101" y="54.262087" style="fill: #a6d854"/>
    </g>
    <g clip-path="url(#p27f1e9013f)">
     <use xlink:href="#C4_0_ea860a8244" x="98.077515" y="54.262087" style="fill: #a6d854"/>
    </g>
    <g clip-path="url(#p27f1e9013f)">
     <use xlink:href="#C4_0_ea860a8244" x="96.116906" y="54.262087" style="fill: #a6d854"/>
    </g>
    <g clip-path="url(#p27f1e9013f)">
     <use xlink:href="#C4_0_ea860a8244" x="98.367188" y="54.262087" style="fill: #a6d854"/>
    </g>
    <g clip-path="url(#p27f1e9013f)">
     <use xlink:href="#C4_0_ea860a8244" x="96.477682" y="54.262087" style="fill: #a6d854"/>
    </g>
    <g clip-path="url(#p27f1e9013f)">
     <use xlink:href="#C4_0_ea860a8244" x="96.773915" y="54.262087" style="fill: #a6d854"/>
    </g>
    <g clip-path="url(#p27f1e9013f)">
     <use xlink:href="#C4_0_ea860a8244" x="98.45002" y="54.262087" style="fill: #a6d854"/>
    </g>
    <g clip-path="url(#p27f1e9013f)">
     <use xlink:href="#C4_0_ea860a8244" x="97.259126" y="54.262087" style="fill: #a6d854"/>
    </g>
    <g clip-path="url(#p27f1e9013f)">
     <use xlink:href="#C4_0_ea860a8244" x="96.355056" y="54.262087" style="fill: #a6d854"/>
    </g>
    <g clip-path="url(#p27f1e9013f)">
     <use xlink:href="#C4_0_ea860a8244" x="97.932522" y="54.262087" style="fill: #a6d854"/>
    </g>
    <g clip-path="url(#p27f1e9013f)">
     <use xlink:href="#C4_0_ea860a8244" x="96.354568" y="54.262087" style="fill: #a6d854"/>
    </g>
    <g clip-path="url(#p27f1e9013f)">
     <use xlink:href="#C4_0_ea860a8244" x="98.194894" y="54.262087" style="fill: #a6d854"/>
    </g>
   </g>
   <g id="PathCollection_17">
    <defs>
     <path id="C5_0_13ea0c737e" d="M 0 0.55 
C 0.145862 0.55 0.285769 0.492049 0.388909 0.388909 
C 0.492049 0.285769 0.55 0.145862 0.55 -0 
C 0.55 -0.145862 0.492049 -0.285769 0.388909 -0.388909 
C 0.285769 -0.492049 0.145862 -0.55 0 -0.55 
C -0.145862 -0.55 -0.285769 -0.492049 -0.388909 -0.388909 
C -0.492049 -0.285769 -0.55 -0.145862 -0.55 0 
C -0.55 0.145862 -0.492049 0.285769 -0.388909 0.388909 
C -0.285769 0.492049 -0.145862 0.55 0 0.55 
z
"/>
    </defs>
    <g clip-path="url(#p27f1e9013f)">
     <use xlink:href="#C5_0_13ea0c737e" x="109.57596" y="54.262087" style="fill: #ffd92f"/>
    </g>
    <g clip-path="url(#p27f1e9013f)">
     <use xlink:href="#C5_0_13ea0c737e" x="109.47566" y="54.262087" style="fill: #ffd92f"/>
    </g>
    <g clip-path="url(#p27f1e9013f)">
     <use xlink:href="#C5_0_13ea0c737e" x="109.8263" y="54.262087" style="fill: #ffd92f"/>
    </g>
    <g clip-path="url(#p27f1e9013f)">
     <use xlink:href="#C5_0_13ea0c737e" x="109.406462" y="54.262087" style="fill: #ffd92f"/>
    </g>
    <g clip-path="url(#p27f1e9013f)">
     <use xlink:href="#C5_0_13ea0c737e" x="108.438996" y="54.262087" style="fill: #ffd92f"/>
    </g>
    <g clip-path="url(#p27f1e9013f)">
     <use xlink:href="#C5_0_13ea0c737e" x="108.559386" y="54.262087" style="fill: #ffd92f"/>
    </g>
    <g clip-path="url(#p27f1e9013f)">
     <use xlink:href="#C5_0_13ea0c737e" x="108.974027" y="54.262087" style="fill: #ffd92f"/>
    </g>
    <g clip-path="url(#p27f1e9013f)">
     <use xlink:href="#C5_0_13ea0c737e" x="109.289581" y="54.262087" style="fill: #ffd92f"/>
    </g>
    <g clip-path="url(#p27f1e9013f)">
     <use xlink:href="#C5_0_13ea0c737e" x="110.296322" y="54.262087" style="fill: #ffd92f"/>
    </g>
    <g clip-path="url(#p27f1e9013f)">
     <use xlink:href="#C5_0_13ea0c737e" x="109.455004" y="54.262087" style="fill: #ffd92f"/>
    </g>
    <g clip-path="url(#p27f1e9013f)">
     <use xlink:href="#C5_0_13ea0c737e" x="109.621026" y="54.262087" style="fill: #ffd92f"/>
    </g>
    <g clip-path="url(#p27f1e9013f)">
     <use xlink:href="#C5_0_13ea0c737e" x="108.712495" y="54.262087" style="fill: #ffd92f"/>
    </g>
    <g clip-path="url(#p27f1e9013f)">
     <use xlink:href="#C5_0_13ea0c737e" x="109.92984" y="54.262087" style="fill: #ffd92f"/>
    </g>
    <g clip-path="url(#p27f1e9013f)">
     <use xlink:href="#C5_0_13ea0c737e" x="109.262978" y="54.262087" style="fill: #ffd92f"/>
    </g>
    <g clip-path="url(#p27f1e9013f)">
     <use xlink:href="#C5_0_13ea0c737e" x="109.28031" y="54.262087" style="fill: #ffd92f"/>
    </g>
    <g clip-path="url(#p27f1e9013f)">
     <use xlink:href="#C5_0_13ea0c737e" x="110.197398" y="54.262087" style="fill: #ffd92f"/>
    </g>
    <g clip-path="url(#p27f1e9013f)">
     <use xlink:href="#C5_0_13ea0c737e" x="108.525848" y="54.262087" style="fill: #ffd92f"/>
    </g>
    <g clip-path="url(#p27f1e9013f)">
     <use xlink:href="#C5_0_13ea0c737e" x="108.324821" y="54.262087" style="fill: #ffd92f"/>
    </g>
   </g>
   <g id="PathCollection_18">
    <defs>
     <path id="C6_0_f29c83fbb5" d="M 0 0.55 
C 0.145862 0.55 0.285769 0.492049 0.388909 0.388909 
C 0.492049 0.285769 0.55 0.145862 0.55 -0 
C 0.55 -0.145862 0.492049 -0.285769 0.388909 -0.388909 
C 0.285769 -0.492049 0.145862 -0.55 0 -0.55 
C -0.145862 -0.55 -0.285769 -0.492049 -0.388909 -0.388909 
C -0.492049 -0.285769 -0.55 -0.145862 -0.55 0 
C -0.55 0.145862 -0.492049 0.285769 -0.388909 0.388909 
C -0.285769 0.492049 -0.145862 0.55 0 0.55 
z
"/>
    </defs>
    <g clip-path="url(#p27f1e9013f)">
     <use xlink:href="#C6_0_f29c83fbb5" x="120.562425" y="75.376312" style="fill: #e5c494"/>
    </g>
    <g clip-path="url(#p27f1e9013f)">
     <use xlink:href="#C6_0_f29c83fbb5" x="121.502813" y="75.376312" style="fill: #e5c494"/>
    </g>
    <g clip-path="url(#p27f1e9013f)">
     <use xlink:href="#C6_0_f29c83fbb5" x="121.324624" y="75.376312" style="fill: #e5c494"/>
    </g>
    <g clip-path="url(#p27f1e9013f)">
     <use xlink:href="#C6_0_f29c83fbb5" x="121.756769" y="75.376312" style="fill: #e5c494"/>
    </g>
    <g clip-path="url(#p27f1e9013f)">
     <use xlink:href="#C6_0_f29c83fbb5" x="122.325709" y="75.376312" style="fill: #e5c494"/>
    </g>
    <g clip-path="url(#p27f1e9013f)">
     <use xlink:href="#C6_0_f29c83fbb5" x="120.446302" y="75.376312" style="fill: #e5c494"/>
    </g>
    <g clip-path="url(#p27f1e9013f)">
     <use xlink:href="#C6_0_f29c83fbb5" x="121.632398" y="75.376312" style="fill: #e5c494"/>
    </g>
    <g clip-path="url(#p27f1e9013f)">
     <use xlink:href="#C6_0_f29c83fbb5" x="121.757242" y="75.376312" style="fill: #e5c494"/>
    </g>
    <g clip-path="url(#p27f1e9013f)">
     <use xlink:href="#C6_0_f29c83fbb5" x="121.081182" y="75.376312" style="fill: #e5c494"/>
    </g>
    <g clip-path="url(#p27f1e9013f)">
     <use xlink:href="#C6_0_f29c83fbb5" x="121.791533" y="75.376312" style="fill: #e5c494"/>
    </g>
    <g clip-path="url(#p27f1e9013f)">
     <use xlink:href="#C6_0_f29c83fbb5" x="121.11121" y="75.376312" style="fill: #e5c494"/>
    </g>
    <g clip-path="url(#p27f1e9013f)">
     <use xlink:href="#C6_0_f29c83fbb5" x="120.425017" y="75.376312" style="fill: #e5c494"/>
    </g>
    <g clip-path="url(#p27f1e9013f)">
     <use xlink:href="#C6_0_f29c83fbb5" x="120.43723" y="75.376312" style="fill: #e5c494"/>
    </g>
    <g clip-path="url(#p27f1e9013f)">
     <use xlink:href="#C6_0_f29c83fbb5" x="121.290939" y="75.376312" style="fill: #e5c494"/>
    </g>
    <g clip-path="url(#p27f1e9013f)">
     <use xlink:href="#C6_0_f29c83fbb5" x="120.047852" y="75.376312" style="fill: #e5c494"/>
    </g>
    <g clip-path="url(#p27f1e9013f)">
     <use xlink:href="#C6_0_f29c83fbb5" x="121.876058" y="75.376312" style="fill: #e5c494"/>
    </g>
    <g clip-path="url(#p27f1e9013f)">
     <use xlink:href="#C6_0_f29c83fbb5" x="121.102603" y="75.376312" style="fill: #e5c494"/>
    </g>
    <g clip-path="url(#p27f1e9013f)">
     <use xlink:href="#C6_0_f29c83fbb5" x="122.276324" y="75.376312" style="fill: #e5c494"/>
    </g>
   </g>
   <g id="PathCollection_19">
    <defs>
     <path id="C7_0_d351f16dfa" d="M 0 0.55 
C 0.145862 0.55 0.285769 0.492049 0.388909 0.388909 
C 0.492049 0.285769 0.55 0.145862 0.55 -0 
C 0.55 -0.145862 0.492049 -0.285769 0.388909 -0.388909 
C 0.285769 -0.492049 0.145862 -0.55 0 -0.55 
C -0.145862 -0.55 -0.285769 -0.492049 -0.388909 -0.388909 
C -0.492049 -0.285769 -0.55 -0.145862 -0.55 0 
C -0.55 0.145862 -0.492049 0.285769 -0.388909 0.388909 
C -0.285769 0.492049 -0.145862 0.55 0 0.55 
z
"/>
    </defs>
    <g clip-path="url(#p27f1e9013f)">
     <use xlink:href="#C7_0_d351f16dfa" x="134.06639" y="85.933424" style="fill: #b3b3b3"/>
    </g>
    <g clip-path="url(#p27f1e9013f)">
     <use xlink:href="#C7_0_d351f16dfa" x="132.226472" y="85.933424" style="fill: #b3b3b3"/>
    </g>
    <g clip-path="url(#p27f1e9013f)">
     <use xlink:href="#C7_0_d351f16dfa" x="132.085146" y="85.933424" style="fill: #b3b3b3"/>
    </g>
    <g clip-path="url(#p27f1e9013f)">
     <use xlink:href="#C7_0_d351f16dfa" x="134.006565" y="85.933424" style="fill: #b3b3b3"/>
    </g>
    <g clip-path="url(#p27f1e9013f)">
     <use xlink:href="#C7_0_d351f16dfa" x="132.972332" y="85.933424" style="fill: #b3b3b3"/>
    </g>
    <g clip-path="url(#p27f1e9013f)">
     <use xlink:href="#C7_0_d351f16dfa" x="133.603894" y="85.933424" style="fill: #b3b3b3"/>
    </g>
    <g clip-path="url(#p27f1e9013f)">
     <use xlink:href="#C7_0_d351f16dfa" x="133.830069" y="85.933424" style="fill: #b3b3b3"/>
    </g>
    <g clip-path="url(#p27f1e9013f)">
     <use xlink:href="#C7_0_d351f16dfa" x="133.100703" y="85.933424" style="fill: #b3b3b3"/>
    </g>
    <g clip-path="url(#p27f1e9013f)">
     <use xlink:href="#C7_0_d351f16dfa" x="134.408439" y="85.933424" style="fill: #b3b3b3"/>
    </g>
    <g clip-path="url(#p27f1e9013f)">
     <use xlink:href="#C7_0_d351f16dfa" x="133.590524" y="85.933424" style="fill: #b3b3b3"/>
    </g>
    <g clip-path="url(#p27f1e9013f)">
     <use xlink:href="#C7_0_d351f16dfa" x="132.539496" y="85.933424" style="fill: #b3b3b3"/>
    </g>
    <g clip-path="url(#p27f1e9013f)">
     <use xlink:href="#C7_0_d351f16dfa" x="133.39908" y="85.933424" style="fill: #b3b3b3"/>
    </g>
    <g clip-path="url(#p27f1e9013f)">
     <use xlink:href="#C7_0_d351f16dfa" x="133.495229" y="85.933424" style="fill: #b3b3b3"/>
    </g>
    <g clip-path="url(#p27f1e9013f)">
     <use xlink:href="#C7_0_d351f16dfa" x="133.218436" y="85.933424" style="fill: #b3b3b3"/>
    </g>
    <g clip-path="url(#p27f1e9013f)">
     <use xlink:href="#C7_0_d351f16dfa" x="133.6094" y="85.933424" style="fill: #b3b3b3"/>
    </g>
    <g clip-path="url(#p27f1e9013f)">
     <use xlink:href="#C7_0_d351f16dfa" x="133.566662" y="85.933424" style="fill: #b3b3b3"/>
    </g>
   </g>
   <g id="PathCollection_20">
    <defs>
     <path id="C8_0_069b17a256" d="M 0 0.55 
C 0.145862 0.55 0.285769 0.492049 0.388909 0.388909 
C 0.492049 0.285769 0.55 0.145862 0.55 -0 
C 0.55 -0.145862 0.492049 -0.285769 0.388909 -0.388909 
C 0.285769 -0.492049 0.145862 -0.55 0 -0.55 
C -0.145862 -0.55 -0.285769 -0.492049 -0.388909 -0.388909 
C -0.492049 -0.285769 -0.55 -0.145862 -0.55 0 
C -0.55 0.145862 -0.492049 0.285769 -0.388909 0.388909 
C -0.285769 0.492049 -0.145862 0.55 0 0.55 
z
"/>
    </defs>
    <g clip-path="url(#p27f1e9013f)">
     <use xlink:href="#C8_0_069b17a256" x="146.081401" y="85.933424" style="fill: #66c2a5"/>
    </g>
    <g clip-path="url(#p27f1e9013f)">
     <use xlink:href="#C8_0_069b17a256" x="144.011857" y="85.933424" style="fill: #66c2a5"/>
    </g>
    <g clip-path="url(#p27f1e9013f)">
     <use xlink:href="#C8_0_069b17a256" x="146.091837" y="85.933424" style="fill: #66c2a5"/>
    </g>
    <g clip-path="url(#p27f1e9013f)">
     <use xlink:href="#C8_0_069b17a256" x="145.810279" y="85.933424" style="fill: #66c2a5"/>
    </g>
    <g clip-path="url(#p27f1e9013f)">
     <use xlink:href="#C8_0_069b17a256" x="144.553104" y="85.933424" style="fill: #66c2a5"/>
    </g>
    <g clip-path="url(#p27f1e9013f)">
     <use xlink:href="#C8_0_069b17a256" x="145.415362" y="85.933424" style="fill: #66c2a5"/>
    </g>
    <g clip-path="url(#p27f1e9013f)">
     <use xlink:href="#C8_0_069b17a256" x="146.192368" y="85.933424" style="fill: #66c2a5"/>
    </g>
    <g clip-path="url(#p27f1e9013f)">
     <use xlink:href="#C8_0_069b17a256" x="146.129229" y="85.933424" style="fill: #66c2a5"/>
    </g>
    <g clip-path="url(#p27f1e9013f)">
     <use xlink:href="#C8_0_069b17a256" x="144.232644" y="85.933424" style="fill: #66c2a5"/>
    </g>
    <g clip-path="url(#p27f1e9013f)">
     <use xlink:href="#C8_0_069b17a256" x="145.342868" y="85.933424" style="fill: #66c2a5"/>
    </g>
    <g clip-path="url(#p27f1e9013f)">
     <use xlink:href="#C8_0_069b17a256" x="144.493767" y="85.933424" style="fill: #66c2a5"/>
    </g>
    <g clip-path="url(#p27f1e9013f)">
     <use xlink:href="#C8_0_069b17a256" x="145.466613" y="85.933424" style="fill: #66c2a5"/>
    </g>
    <g clip-path="url(#p27f1e9013f)">
     <use xlink:href="#C8_0_069b17a256" x="146.273426" y="85.933424" style="fill: #66c2a5"/>
    </g>
    <g clip-path="url(#p27f1e9013f)">
     <use xlink:href="#C8_0_069b17a256" x="144.57139" y="85.933424" style="fill: #66c2a5"/>
    </g>
    <g clip-path="url(#p27f1e9013f)">
     <use xlink:href="#C8_0_069b17a256" x="145.25809" y="85.933424" style="fill: #66c2a5"/>
    </g>
    <g clip-path="url(#p27f1e9013f)">
     <use xlink:href="#C8_0_069b17a256" x="145.308339" y="85.933424" style="fill: #66c2a5"/>
    </g>
    <g clip-path="url(#p27f1e9013f)">
     <use xlink:href="#C8_0_069b17a256" x="146.373952" y="85.933424" style="fill: #66c2a5"/>
    </g>
    <g clip-path="url(#p27f1e9013f)">
     <use xlink:href="#C8_0_069b17a256" x="145.548149" y="85.933424" style="fill: #66c2a5"/>
    </g>
   </g>
   <g id="PathCollection_21">
    <defs>
     <path id="C9_0_7ac491ac08" d="M 0 0.55 
C 0.145862 0.55 0.285769 0.492049 0.388909 0.388909 
C 0.492049 0.285769 0.55 0.145862 0.55 -0 
C 0.55 -0.145862 0.492049 -0.285769 0.388909 -0.388909 
C 0.285769 -0.492049 0.145862 -0.55 0 -0.55 
C -0.145862 -0.55 -0.285769 -0.492049 -0.388909 -0.388909 
C -0.492049 -0.285769 -0.55 -0.145862 -0.55 0 
C -0.55 0.145862 -0.492049 0.285769 -0.388909 0.388909 
C -0.285769 0.492049 -0.145862 0.55 0 0.55 
z
"/>
    </defs>
    <g clip-path="url(#p27f1e9013f)">
     <use xlink:href="#C9_0_7ac491ac08" x="155.987423" y="75.376312" style="fill: #fc8d62"/>
    </g>
    <g clip-path="url(#p27f1e9013f)">
     <use xlink:href="#C9_0_7ac491ac08" x="157.167045" y="75.376312" style="fill: #fc8d62"/>
    </g>
    <g clip-path="url(#p27f1e9013f)">
     <use xlink:href="#C9_0_7ac491ac08" x="157.102683" y="75.376312" style="fill: #fc8d62"/>
    </g>
    <g clip-path="url(#p27f1e9013f)">
     <use xlink:href="#C9_0_7ac491ac08" x="157.407859" y="75.376312" style="fill: #fc8d62"/>
    </g>
    <g clip-path="url(#p27f1e9013f)">
     <use xlink:href="#C9_0_7ac491ac08" x="157.072645" y="75.376312" style="fill: #fc8d62"/>
    </g>
    <g clip-path="url(#p27f1e9013f)">
     <use xlink:href="#C9_0_7ac491ac08" x="158.021014" y="75.376312" style="fill: #fc8d62"/>
    </g>
    <g clip-path="url(#p27f1e9013f)">
     <use xlink:href="#C9_0_7ac491ac08" x="156.375988" y="75.376312" style="fill: #fc8d62"/>
    </g>
    <g clip-path="url(#p27f1e9013f)">
     <use xlink:href="#C9_0_7ac491ac08" x="156.250988" y="75.376312" style="fill: #fc8d62"/>
    </g>
    <g clip-path="url(#p27f1e9013f)">
     <use xlink:href="#C9_0_7ac491ac08" x="157.060649" y="75.376312" style="fill: #fc8d62"/>
    </g>
    <g clip-path="url(#p27f1e9013f)">
     <use xlink:href="#C9_0_7ac491ac08" x="156.78164" y="75.376312" style="fill: #fc8d62"/>
    </g>
    <g clip-path="url(#p27f1e9013f)">
     <use xlink:href="#C9_0_7ac491ac08" x="156.208131" y="75.376312" style="fill: #fc8d62"/>
    </g>
    <g clip-path="url(#p27f1e9013f)">
     <use xlink:href="#C9_0_7ac491ac08" x="156.934589" y="75.376312" style="fill: #fc8d62"/>
    </g>
    <g clip-path="url(#p27f1e9013f)">
     <use xlink:href="#C9_0_7ac491ac08" x="156.850892" y="75.376312" style="fill: #fc8d62"/>
    </g>
    <g clip-path="url(#p27f1e9013f)">
     <use xlink:href="#C9_0_7ac491ac08" x="157.882448" y="75.376312" style="fill: #fc8d62"/>
    </g>
    <g clip-path="url(#p27f1e9013f)">
     <use xlink:href="#C9_0_7ac491ac08" x="156.983529" y="75.376312" style="fill: #fc8d62"/>
    </g>
    <g clip-path="url(#p27f1e9013f)">
     <use xlink:href="#C9_0_7ac491ac08" x="158.261435" y="75.376312" style="fill: #fc8d62"/>
    </g>
    <g clip-path="url(#p27f1e9013f)">
     <use xlink:href="#C9_0_7ac491ac08" x="156.529638" y="75.376312" style="fill: #fc8d62"/>
    </g>
    <g clip-path="url(#p27f1e9013f)">
     <use xlink:href="#C9_0_7ac491ac08" x="156.803901" y="75.376312" style="fill: #fc8d62"/>
    </g>
   </g>
   <g id="PathCollection_22">
    <defs>
     <path id="Ca_0_95899d8ced" d="M 0 0.55 
C 0.145862 0.55 0.285769 0.492049 0.388909 0.388909 
C 0.492049 0.285769 0.55 0.145862 0.55 -0 
C 0.55 -0.145862 0.492049 -0.285769 0.388909 -0.388909 
C 0.285769 -0.492049 0.145862 -0.55 0 -0.55 
C -0.145862 -0.55 -0.285769 -0.492049 -0.388909 -0.388909 
C -0.492049 -0.285769 -0.55 -0.145862 -0.55 0 
C -0.55 0.145862 -0.492049 0.285769 -0.388909 0.388909 
C -0.285769 0.492049 -0.145862 0.55 0 0.55 
z
"/>
    </defs>
    <g clip-path="url(#p27f1e9013f)">
     <use xlink:href="#Ca_0_95899d8ced" x="170.182993" y="91.21198" style="fill: #8da0cb"/>
    </g>
    <g clip-path="url(#p27f1e9013f)">
     <use xlink:href="#Ca_0_95899d8ced" x="168.829817" y="91.21198" style="fill: #8da0cb"/>
    </g>
    <g clip-path="url(#p27f1e9013f)">
     <use xlink:href="#Ca_0_95899d8ced" x="168.485367" y="91.21198" style="fill: #8da0cb"/>
    </g>
    <g clip-path="url(#p27f1e9013f)">
     <use xlink:href="#Ca_0_95899d8ced" x="168.649305" y="91.21198" style="fill: #8da0cb"/>
    </g>
    <g clip-path="url(#p27f1e9013f)">
     <use xlink:href="#Ca_0_95899d8ced" x="168.995974" y="91.21198" style="fill: #8da0cb"/>
    </g>
    <g clip-path="url(#p27f1e9013f)">
     <use xlink:href="#Ca_0_95899d8ced" x="168.012548" y="91.21198" style="fill: #8da0cb"/>
    </g>
    <g clip-path="url(#p27f1e9013f)">
     <use xlink:href="#Ca_0_95899d8ced" x="168.539006" y="91.21198" style="fill: #8da0cb"/>
    </g>
    <g clip-path="url(#p27f1e9013f)">
     <use xlink:href="#Ca_0_95899d8ced" x="167.99508" y="91.21198" style="fill: #8da0cb"/>
    </g>
    <g clip-path="url(#p27f1e9013f)">
     <use xlink:href="#Ca_0_95899d8ced" x="169.52114" y="91.21198" style="fill: #8da0cb"/>
    </g>
    <g clip-path="url(#p27f1e9013f)">
     <use xlink:href="#Ca_0_95899d8ced" x="169.85898" y="91.21198" style="fill: #8da0cb"/>
    </g>
    <g clip-path="url(#p27f1e9013f)">
     <use xlink:href="#Ca_0_95899d8ced" x="168.283155" y="91.21198" style="fill: #8da0cb"/>
    </g>
    <g clip-path="url(#p27f1e9013f)">
     <use xlink:href="#Ca_0_95899d8ced" x="169.812272" y="91.21198" style="fill: #8da0cb"/>
    </g>
    <g clip-path="url(#p27f1e9013f)">
     <use xlink:href="#Ca_0_95899d8ced" x="168.299456" y="91.21198" style="fill: #8da0cb"/>
    </g>
    <g clip-path="url(#p27f1e9013f)">
     <use xlink:href="#Ca_0_95899d8ced" x="168.649106" y="91.21198" style="fill: #8da0cb"/>
    </g>
    <g clip-path="url(#p27f1e9013f)">
     <use xlink:href="#Ca_0_95899d8ced" x="168.040205" y="91.21198" style="fill: #8da0cb"/>
    </g>
    <g clip-path="url(#p27f1e9013f)">
     <use xlink:href="#Ca_0_95899d8ced" x="170.168351" y="91.21198" style="fill: #8da0cb"/>
    </g>
    <g clip-path="url(#p27f1e9013f)">
     <use xlink:href="#Ca_0_95899d8ced" x="168.558467" y="91.21198" style="fill: #8da0cb"/>
    </g>
    <g clip-path="url(#p27f1e9013f)">
     <use xlink:href="#Ca_0_95899d8ced" x="168.930665" y="91.21198" style="fill: #8da0cb"/>
    </g>
   </g>
   <g id="text_16">
    <!-- Functional -->
    <g style="fill: #262626" transform="translate(87.063324 13.159688) scale(0.09 -0.09)">
     <defs>
      <path id="TimesNewRomanPS-BoldMT-46" d="M 1759 3994 
L 1759 2253 
L 1881 2253 
Q 2163 2253 2341 2337 
Q 2519 2422 2642 2622 
Q 2766 2822 2803 3163 
L 2913 3163 
L 2913 1034 
L 2803 1034 
Q 2744 1638 2480 1830 
Q 2216 2022 1881 2022 
L 1759 2022 
L 1759 725 
Q 1759 400 1795 319 
Q 1831 238 1936 177 
Q 2041 116 2219 116 
L 2359 116 
L 2359 0 
L 144 0 
L 144 116 
L 284 116 
Q 469 116 581 181 
Q 663 225 706 331 
Q 741 406 741 725 
L 741 3513 
Q 741 3838 706 3919 
Q 672 4000 567 4061 
Q 463 4122 284 4122 
L 144 4122 
L 144 4238 
L 3719 4238 
L 3719 3022 
L 3591 3022 
Q 3547 3450 3367 3656 
Q 3188 3863 2847 3947 
Q 2659 3994 2153 3994 
L 1759 3994 
z
" transform="scale(0.015625)"/>
      <path id="TimesNewRomanPS-BoldMT-75" d="M 3038 2922 
L 3038 634 
Q 3038 300 3100 217 
Q 3163 134 3353 113 
L 3353 0 
L 2163 0 
L 2163 391 
Q 1953 141 1743 26 
Q 1534 -88 1275 -88 
Q 1028 -88 836 64 
Q 644 216 578 419 
Q 513 622 513 1128 
L 513 2288 
Q 513 2619 452 2700 
Q 391 2781 197 2806 
L 197 2922 
L 1388 2922 
L 1388 925 
Q 1388 613 1417 522 
Q 1447 431 1511 384 
Q 1575 338 1659 338 
Q 1772 338 1863 397 
Q 1988 478 2163 725 
L 2163 2288 
Q 2163 2619 2102 2700 
Q 2041 2781 1847 2806 
L 1847 2922 
L 3038 2922 
z
" transform="scale(0.015625)"/>
      <path id="TimesNewRomanPS-BoldMT-6e" d="M 1409 2922 
L 1409 2544 
Q 1634 2788 1840 2898 
Q 2047 3009 2284 3009 
Q 2569 3009 2756 2851 
Q 2944 2694 3006 2459 
Q 3056 2281 3056 1775 
L 3056 638 
Q 3056 300 3117 217 
Q 3178 134 3372 113 
L 3372 0 
L 1894 0 
L 1894 113 
Q 2059 134 2131 250 
Q 2181 328 2181 638 
L 2181 1938 
Q 2181 2297 2153 2390 
Q 2125 2484 2058 2536 
Q 1991 2588 1909 2588 
Q 1641 2588 1409 2203 
L 1409 638 
Q 1409 309 1470 221 
Q 1531 134 1697 113 
L 1697 0 
L 219 0 
L 219 113 
Q 403 131 481 231 
Q 534 300 534 638 
L 534 2288 
Q 534 2619 473 2700 
Q 413 2781 219 2806 
L 219 2922 
L 1409 2922 
z
" transform="scale(0.015625)"/>
      <path id="TimesNewRomanPS-BoldMT-6f" d="M 1594 3009 
Q 1975 3009 2303 2812 
Q 2631 2616 2801 2253 
Q 2972 1891 2972 1459 
Q 2972 838 2656 419 
Q 2275 -88 1603 -88 
Q 944 -88 587 375 
Q 231 838 231 1447 
Q 231 2075 595 2542 
Q 959 3009 1594 3009 
z
M 1606 2788 
Q 1447 2788 1333 2667 
Q 1219 2547 1183 2192 
Q 1147 1838 1147 1206 
Q 1147 872 1191 581 
Q 1225 359 1337 243 
Q 1450 128 1594 128 
Q 1734 128 1828 206 
Q 1950 313 1991 503 
Q 2053 800 2053 1703 
Q 2053 2234 1993 2432 
Q 1934 2631 1819 2722 
Q 1738 2788 1606 2788 
z
" transform="scale(0.015625)"/>
      <path id="TimesNewRomanPS-BoldMT-61" d="M 1828 431 
Q 1294 -41 869 -41 
Q 619 -41 453 123 
Q 288 288 288 534 
Q 288 869 575 1136 
Q 863 1403 1828 1847 
L 1828 2141 
Q 1828 2472 1792 2558 
Q 1756 2644 1656 2708 
Q 1556 2772 1431 2772 
Q 1228 2772 1097 2681 
Q 1016 2625 1016 2550 
Q 1016 2484 1103 2388 
Q 1222 2253 1222 2128 
Q 1222 1975 1108 1867 
Q 994 1759 809 1759 
Q 613 1759 480 1878 
Q 347 1997 347 2156 
Q 347 2381 525 2586 
Q 703 2791 1022 2900 
Q 1341 3009 1684 3009 
Q 2100 3009 2342 2832 
Q 2584 2656 2656 2450 
Q 2700 2319 2700 1847 
L 2700 713 
Q 2700 513 2715 461 
Q 2731 409 2762 384 
Q 2794 359 2834 359 
Q 2916 359 3000 475 
L 3094 400 
Q 2938 169 2770 64 
Q 2603 -41 2391 -41 
Q 2141 -41 2000 76 
Q 1859 194 1828 431 
z
M 1828 659 
L 1828 1638 
Q 1450 1416 1266 1163 
Q 1144 994 1144 822 
Q 1144 678 1247 569 
Q 1325 484 1466 484 
Q 1622 484 1828 659 
z
" transform="scale(0.015625)"/>
     </defs>
     <use xlink:href="#TimesNewRomanPS-BoldMT-46"/>
     <use xlink:href="#TimesNewRomanPS-BoldMT-75" x="61.083984"/>
     <use xlink:href="#TimesNewRomanPS-BoldMT-6e" x="116.699219"/>
     <use xlink:href="#TimesNewRomanPS-BoldMT-63" x="172.314453"/>
     <use xlink:href="#TimesNewRomanPS-BoldMT-74" x="216.699219"/>
     <use xlink:href="#TimesNewRomanPS-BoldMT-69" x="250"/>
     <use xlink:href="#TimesNewRomanPS-BoldMT-6f" x="277.783203"/>
     <use xlink:href="#TimesNewRomanPS-BoldMT-6e" x="327.783203"/>
     <use xlink:href="#TimesNewRomanPS-BoldMT-61" x="383.398438"/>
     <use xlink:href="#TimesNewRomanPS-BoldMT-6c" x="433.398438"/>
    </g>
   </g>
  </g>
 </g>
 <defs>
  <clipPath id="p27f1e9013f">
   <rect x="41.909844" y="19.159688" width="131.811024" height="75.483354"/>
  </clipPath>
  <clipPath id="p2290310903">
   <rect x="79.056587" y="72.204472" width="4.793128" height="16.900792"/>
  </clipPath>
 </defs>
</svg>
