<?xml version="1.0" encoding="utf-8" standalone="no"?>
<!DOCTYPE svg PUBLIC "-//W3C//DTD SVG 1.1//EN"
  "http://www.w3.org/Graphics/SVG/1.1/DTD/svg11.dtd">
<svg xmlns:xlink="http://www.w3.org/1999/xlink" width="170.977274pt" height="125.444857pt" viewBox="0 0 170.977274 125.444857" xmlns="http://www.w3.org/2000/svg" version="1.1">
 <metadata>
  <rdf:RDF xmlns:dc="http://purl.org/dc/elements/1.1/" xmlns:cc="http://creativecommons.org/ns#" xmlns:rdf="http://www.w3.org/1999/02/22-rdf-syntax-ns#">
   <cc:Work>
    <dc:type rdf:resource="http://purl.org/dc/dcmitype/StillImage"/>
    <dc:date>2024-04-15T15:27:42.203900</dc:date>
    <dc:format>image/svg+xml</dc:format>
    <dc:creator>
     <cc:Agent>
      <dc:title>Matplotlib v3.8.3, https://matplotlib.org/</dc:title>
     </cc:Agent>
    </dc:creator>
   </cc:Work>
  </rdf:RDF>
 </metadata>
 <defs>
  <style type="text/css">*{stroke-linejoin: round; stroke-linecap: butt}</style>
 </defs>
 <g id="figure_1">
  <g id="patch_1">
   <path d="M 0 125.444857 
L 170.977274 125.444857 
L 170.977274 0 
L 0 0 
z
" style="fill: #ffffff"/>
  </g>
  <g id="axes_1">
   <g id="patch_2">
    <path d="M 31.96625 84.026599 
L 163.777274 84.026599 
L 163.777274 19.821875 
L 31.96625 19.821875 
z
" style="fill: #ffffff"/>
   </g>
   <g id="matplotlib.axis_1">
    <g id="xtick_1">
     <g id="line2d_1">
      <path d="M 64.919006 84.026599 
L 64.919006 19.821875 
" clip-path="url(#pe6b2dddeaa)" style="fill: none"/>
     </g>
     <g id="line2d_2">
      <defs>
       <path id="m600e20c4a4" d="M 0 0 
L 0 2 
" style="stroke: #808080; stroke-width: 0.5"/>
      </defs>
      <g>
       <use xlink:href="#m600e20c4a4" x="64.919006" y="84.026599" style="fill: #808080; stroke: #808080; stroke-width: 0.5"/>
      </g>
     </g>
     <g id="text_1">
      <!-- 7_m_Lo -->
      <g style="fill: #262626" transform="translate(44.529582 112.612752) rotate(-45) scale(0.08 -0.08)">
       <defs>
        <path id="TimesNewRomanPSMT-37" d="M 644 4238 
L 2916 4238 
L 2916 4119 
L 1503 -88 
L 1153 -88 
L 2419 3728 
L 1253 3728 
Q 900 3728 750 3644 
Q 488 3500 328 3200 
L 238 3234 
L 644 4238 
z
" transform="scale(0.015625)"/>
        <path id="TimesNewRomanPSMT-5f" d="M 3256 -1381 
L -53 -1381 
L -53 -1119 
L 3256 -1119 
L 3256 -1381 
z
" transform="scale(0.015625)"/>
        <path id="TimesNewRomanPSMT-6d" d="M 1050 2338 
Q 1363 2650 1419 2697 
Q 1559 2816 1721 2881 
Q 1884 2947 2044 2947 
Q 2313 2947 2506 2790 
Q 2700 2634 2766 2338 
Q 3088 2713 3309 2830 
Q 3531 2947 3766 2947 
Q 3994 2947 4170 2830 
Q 4347 2713 4450 2447 
Q 4519 2266 4519 1878 
L 4519 647 
Q 4519 378 4559 278 
Q 4591 209 4675 161 
Q 4759 113 4950 113 
L 4950 0 
L 3538 0 
L 3538 113 
L 3597 113 
Q 3781 113 3884 184 
Q 3956 234 3988 344 
Q 4000 397 4000 647 
L 4000 1878 
Q 4000 2228 3916 2372 
Q 3794 2572 3525 2572 
Q 3359 2572 3192 2489 
Q 3025 2406 2788 2181 
L 2781 2147 
L 2788 2013 
L 2788 647 
Q 2788 353 2820 281 
Q 2853 209 2943 161 
Q 3034 113 3253 113 
L 3253 0 
L 1806 0 
L 1806 113 
Q 2044 113 2133 169 
Q 2222 225 2256 338 
Q 2272 391 2272 647 
L 2272 1878 
Q 2272 2228 2169 2381 
Q 2031 2581 1784 2581 
Q 1616 2581 1450 2491 
Q 1191 2353 1050 2181 
L 1050 647 
Q 1050 366 1089 281 
Q 1128 197 1204 155 
Q 1281 113 1516 113 
L 1516 0 
L 100 0 
L 100 113 
Q 297 113 375 155 
Q 453 197 493 289 
Q 534 381 534 647 
L 534 1741 
Q 534 2213 506 2350 
Q 484 2453 437 2492 
Q 391 2531 309 2531 
Q 222 2531 100 2484 
L 53 2597 
L 916 2947 
L 1050 2947 
L 1050 2338 
z
" transform="scale(0.015625)"/>
        <path id="TimesNewRomanPSMT-4c" d="M 3669 1172 
L 3772 1150 
L 3409 0 
L 128 0 
L 128 116 
L 288 116 
Q 556 116 672 291 
Q 738 391 738 753 
L 738 3488 
Q 738 3884 650 3984 
Q 528 4122 288 4122 
L 128 4122 
L 128 4238 
L 2047 4238 
L 2047 4122 
Q 1709 4125 1573 4059 
Q 1438 3994 1388 3894 
Q 1338 3794 1338 3416 
L 1338 753 
Q 1338 494 1388 397 
Q 1425 331 1503 300 
Q 1581 269 1991 269 
L 2300 269 
Q 2788 269 2984 341 
Q 3181 413 3343 595 
Q 3506 778 3669 1172 
z
" transform="scale(0.015625)"/>
        <path id="TimesNewRomanPSMT-6f" d="M 1600 2947 
Q 2250 2947 2644 2453 
Q 2978 2031 2978 1484 
Q 2978 1100 2793 706 
Q 2609 313 2286 112 
Q 1963 -88 1566 -88 
Q 919 -88 538 428 
Q 216 863 216 1403 
Q 216 1797 411 2186 
Q 606 2575 925 2761 
Q 1244 2947 1600 2947 
z
M 1503 2744 
Q 1338 2744 1170 2645 
Q 1003 2547 900 2300 
Q 797 2053 797 1666 
Q 797 1041 1045 587 
Q 1294 134 1700 134 
Q 2003 134 2200 384 
Q 2397 634 2397 1244 
Q 2397 2006 2069 2444 
Q 1847 2744 1503 2744 
z
" transform="scale(0.015625)"/>
       </defs>
       <use xlink:href="#TimesNewRomanPSMT-37"/>
       <use xlink:href="#TimesNewRomanPSMT-5f" x="50"/>
       <use xlink:href="#TimesNewRomanPSMT-6d" x="100"/>
       <use xlink:href="#TimesNewRomanPSMT-5f" x="177.783203"/>
       <use xlink:href="#TimesNewRomanPSMT-4c" x="227.783203"/>
       <use xlink:href="#TimesNewRomanPSMT-6f" x="288.867188"/>
      </g>
     </g>
    </g>
    <g id="xtick_2">
     <g id="line2d_3">
      <path d="M 130.824518 84.026599 
L 130.824518 19.821875 
" clip-path="url(#pe6b2dddeaa)" style="fill: none"/>
     </g>
     <g id="line2d_4">
      <g>
       <use xlink:href="#m600e20c4a4" x="130.824518" y="84.026599" style="fill: #808080; stroke: #808080; stroke-width: 0.5"/>
      </g>
     </g>
     <g id="text_2">
      <!-- 94_m_Rei -->
      <g style="fill: #262626" transform="translate(106.034238 117.024214) rotate(-45) scale(0.08 -0.08)">
       <defs>
        <path id="TimesNewRomanPSMT-39" d="M 338 -88 
L 338 28 
Q 744 34 1094 217 
Q 1444 400 1770 856 
Q 2097 1313 2225 1859 
Q 1734 1544 1338 1544 
Q 891 1544 572 1889 
Q 253 2234 253 2806 
Q 253 3363 572 3797 
Q 956 4325 1575 4325 
Q 2097 4325 2469 3894 
Q 2925 3359 2925 2575 
Q 2925 1869 2578 1258 
Q 2231 647 1613 244 
Q 1109 -88 516 -88 
L 338 -88 
z
M 2275 2091 
Q 2331 2497 2331 2741 
Q 2331 3044 2228 3395 
Q 2125 3747 1936 3934 
Q 1747 4122 1506 4122 
Q 1228 4122 1018 3872 
Q 809 3622 809 3128 
Q 809 2469 1088 2097 
Q 1291 1828 1588 1828 
Q 1731 1828 1928 1897 
Q 2125 1966 2275 2091 
z
" transform="scale(0.015625)"/>
        <path id="TimesNewRomanPSMT-34" d="M 2978 1563 
L 2978 1119 
L 2409 1119 
L 2409 0 
L 1894 0 
L 1894 1119 
L 100 1119 
L 100 1519 
L 2066 4325 
L 2409 4325 
L 2409 1563 
L 2978 1563 
z
M 1894 1563 
L 1894 3666 
L 406 1563 
L 1894 1563 
z
" transform="scale(0.015625)"/>
        <path id="TimesNewRomanPSMT-52" d="M 4325 0 
L 3194 0 
L 1759 1981 
Q 1600 1975 1500 1975 
Q 1459 1975 1412 1976 
Q 1366 1978 1316 1981 
L 1316 750 
Q 1316 350 1403 253 
Q 1522 116 1759 116 
L 1925 116 
L 1925 0 
L 109 0 
L 109 116 
L 269 116 
Q 538 116 653 291 
Q 719 388 719 750 
L 719 3488 
Q 719 3888 631 3984 
Q 509 4122 269 4122 
L 109 4122 
L 109 4238 
L 1653 4238 
Q 2328 4238 2648 4139 
Q 2969 4041 3192 3777 
Q 3416 3513 3416 3147 
Q 3416 2756 3161 2468 
Q 2906 2181 2372 2063 
L 3247 847 
Q 3547 428 3762 290 
Q 3978 153 4325 116 
L 4325 0 
z
M 1316 2178 
Q 1375 2178 1419 2176 
Q 1463 2175 1491 2175 
Q 2097 2175 2405 2437 
Q 2713 2700 2713 3106 
Q 2713 3503 2464 3751 
Q 2216 4000 1806 4000 
Q 1625 4000 1316 3941 
L 1316 2178 
z
" transform="scale(0.015625)"/>
        <path id="TimesNewRomanPSMT-65" d="M 681 1784 
Q 678 1147 991 784 
Q 1303 422 1725 422 
Q 2006 422 2214 576 
Q 2422 731 2563 1106 
L 2659 1044 
Q 2594 616 2278 264 
Q 1963 -88 1488 -88 
Q 972 -88 605 314 
Q 238 716 238 1394 
Q 238 2128 614 2539 
Q 991 2950 1559 2950 
Q 2041 2950 2350 2633 
Q 2659 2316 2659 1784 
L 681 1784 
z
M 681 1966 
L 2006 1966 
Q 1991 2241 1941 2353 
Q 1863 2528 1708 2628 
Q 1553 2728 1384 2728 
Q 1125 2728 920 2526 
Q 716 2325 681 1966 
z
" transform="scale(0.015625)"/>
        <path id="TimesNewRomanPSMT-69" d="M 928 4444 
Q 1059 4444 1151 4351 
Q 1244 4259 1244 4128 
Q 1244 3997 1151 3903 
Q 1059 3809 928 3809 
Q 797 3809 703 3903 
Q 609 3997 609 4128 
Q 609 4259 701 4351 
Q 794 4444 928 4444 
z
M 1188 2947 
L 1188 647 
Q 1188 378 1227 289 
Q 1266 200 1342 156 
Q 1419 113 1622 113 
L 1622 0 
L 231 0 
L 231 113 
Q 441 113 512 153 
Q 584 194 626 287 
Q 669 381 669 647 
L 669 1750 
Q 669 2216 641 2353 
Q 619 2453 572 2492 
Q 525 2531 444 2531 
Q 356 2531 231 2484 
L 188 2597 
L 1050 2947 
L 1188 2947 
z
" transform="scale(0.015625)"/>
       </defs>
       <use xlink:href="#TimesNewRomanPSMT-39"/>
       <use xlink:href="#TimesNewRomanPSMT-34" x="50"/>
       <use xlink:href="#TimesNewRomanPSMT-5f" x="100"/>
       <use xlink:href="#TimesNewRomanPSMT-6d" x="150"/>
       <use xlink:href="#TimesNewRomanPSMT-5f" x="227.783203"/>
       <use xlink:href="#TimesNewRomanPSMT-52" x="277.783203"/>
       <use xlink:href="#TimesNewRomanPSMT-65" x="344.482422"/>
       <use xlink:href="#TimesNewRomanPSMT-69" x="388.867188"/>
      </g>
     </g>
    </g>
   </g>
   <g id="matplotlib.axis_2">
    <g id="ytick_1">
     <g id="line2d_5">
      <path d="M 31.96625 78.041341 
L 163.777274 78.041341 
" clip-path="url(#pe6b2dddeaa)" style="fill: none"/>
     </g>
     <g id="line2d_6">
      <defs>
       <path id="m6961744629" d="M 0 0 
L -2 0 
" style="stroke: #808080; stroke-width: 0.5"/>
      </defs>
      <g>
       <use xlink:href="#m6961744629" x="31.96625" y="78.041341" style="fill: #808080; stroke: #808080; stroke-width: 0.5"/>
      </g>
     </g>
     <g id="text_3">
      <!-- 10 -->
      <g style="fill: #262626" transform="translate(18.46625 80.818841) scale(0.08 -0.08)">
       <defs>
        <path id="TimesNewRomanPSMT-31" d="M 750 3822 
L 1781 4325 
L 1884 4325 
L 1884 747 
Q 1884 391 1914 303 
Q 1944 216 2037 169 
Q 2131 122 2419 116 
L 2419 0 
L 825 0 
L 825 116 
Q 1125 122 1212 167 
Q 1300 213 1334 289 
Q 1369 366 1369 747 
L 1369 3034 
Q 1369 3497 1338 3628 
Q 1316 3728 1258 3775 
Q 1200 3822 1119 3822 
Q 1003 3822 797 3725 
L 750 3822 
z
" transform="scale(0.015625)"/>
        <path id="TimesNewRomanPSMT-30" d="M 231 2094 
Q 231 2819 450 3342 
Q 669 3866 1031 4122 
Q 1313 4325 1613 4325 
Q 2100 4325 2488 3828 
Q 2972 3213 2972 2159 
Q 2972 1422 2759 906 
Q 2547 391 2217 158 
Q 1888 -75 1581 -75 
Q 975 -75 572 641 
Q 231 1244 231 2094 
z
M 844 2016 
Q 844 1141 1059 588 
Q 1238 122 1591 122 
Q 1759 122 1940 273 
Q 2122 425 2216 781 
Q 2359 1319 2359 2297 
Q 2359 3022 2209 3506 
Q 2097 3866 1919 4016 
Q 1791 4119 1609 4119 
Q 1397 4119 1231 3928 
Q 1006 3669 925 3112 
Q 844 2556 844 2016 
z
" transform="scale(0.015625)"/>
       </defs>
       <use xlink:href="#TimesNewRomanPSMT-31"/>
       <use xlink:href="#TimesNewRomanPSMT-30" x="50"/>
      </g>
     </g>
    </g>
    <g id="ytick_2">
     <g id="line2d_7">
      <path d="M 31.96625 68.271478 
L 163.777274 68.271478 
" clip-path="url(#pe6b2dddeaa)" style="fill: none"/>
     </g>
     <g id="line2d_8">
      <g>
       <use xlink:href="#m6961744629" x="31.96625" y="68.271478" style="fill: #808080; stroke: #808080; stroke-width: 0.5"/>
      </g>
     </g>
     <g id="text_4">
      <!-- 15 -->
      <g style="fill: #262626" transform="translate(18.46625 71.048978) scale(0.08 -0.08)">
       <defs>
        <path id="TimesNewRomanPSMT-35" d="M 2778 4238 
L 2534 3706 
L 1259 3706 
L 981 3138 
Q 1809 3016 2294 2522 
Q 2709 2097 2709 1522 
Q 2709 1188 2573 903 
Q 2438 619 2231 419 
Q 2025 219 1772 97 
Q 1413 -75 1034 -75 
Q 653 -75 479 54 
Q 306 184 306 341 
Q 306 428 378 495 
Q 450 563 559 563 
Q 641 563 702 538 
Q 763 513 909 409 
Q 1144 247 1384 247 
Q 1750 247 2026 523 
Q 2303 800 2303 1197 
Q 2303 1581 2056 1914 
Q 1809 2247 1375 2428 
Q 1034 2569 447 2591 
L 1259 4238 
L 2778 4238 
z
" transform="scale(0.015625)"/>
       </defs>
       <use xlink:href="#TimesNewRomanPSMT-31"/>
       <use xlink:href="#TimesNewRomanPSMT-35" x="50"/>
      </g>
     </g>
    </g>
    <g id="ytick_3">
     <g id="line2d_9">
      <path d="M 31.96625 58.501616 
L 163.777274 58.501616 
" clip-path="url(#pe6b2dddeaa)" style="fill: none"/>
     </g>
     <g id="line2d_10">
      <g>
       <use xlink:href="#m6961744629" x="31.96625" y="58.501616" style="fill: #808080; stroke: #808080; stroke-width: 0.5"/>
      </g>
     </g>
     <g id="text_5">
      <!-- 20 -->
      <g style="fill: #262626" transform="translate(18.46625 61.279116) scale(0.08 -0.08)">
       <defs>
        <path id="TimesNewRomanPSMT-32" d="M 2934 816 
L 2638 0 
L 138 0 
L 138 116 
Q 1241 1122 1691 1759 
Q 2141 2397 2141 2925 
Q 2141 3328 1894 3587 
Q 1647 3847 1303 3847 
Q 991 3847 742 3664 
Q 494 3481 375 3128 
L 259 3128 
Q 338 3706 661 4015 
Q 984 4325 1469 4325 
Q 1984 4325 2329 3994 
Q 2675 3663 2675 3213 
Q 2675 2891 2525 2569 
Q 2294 2063 1775 1497 
Q 997 647 803 472 
L 1909 472 
Q 2247 472 2383 497 
Q 2519 522 2628 598 
Q 2738 675 2819 816 
L 2934 816 
z
" transform="scale(0.015625)"/>
       </defs>
       <use xlink:href="#TimesNewRomanPSMT-32"/>
       <use xlink:href="#TimesNewRomanPSMT-30" x="50"/>
      </g>
     </g>
    </g>
    <g id="ytick_4">
     <g id="line2d_11">
      <path d="M 31.96625 48.731753 
L 163.777274 48.731753 
" clip-path="url(#pe6b2dddeaa)" style="fill: none"/>
     </g>
     <g id="line2d_12">
      <g>
       <use xlink:href="#m6961744629" x="31.96625" y="48.731753" style="fill: #808080; stroke: #808080; stroke-width: 0.5"/>
      </g>
     </g>
     <g id="text_6">
      <!-- 25 -->
      <g style="fill: #262626" transform="translate(18.46625 51.509253) scale(0.08 -0.08)">
       <use xlink:href="#TimesNewRomanPSMT-32"/>
       <use xlink:href="#TimesNewRomanPSMT-35" x="50"/>
      </g>
     </g>
    </g>
    <g id="ytick_5">
     <g id="line2d_13">
      <path d="M 31.96625 38.961891 
L 163.777274 38.961891 
" clip-path="url(#pe6b2dddeaa)" style="fill: none"/>
     </g>
     <g id="line2d_14">
      <g>
       <use xlink:href="#m6961744629" x="31.96625" y="38.961891" style="fill: #808080; stroke: #808080; stroke-width: 0.5"/>
      </g>
     </g>
     <g id="text_7">
      <!-- 30 -->
      <g style="fill: #262626" transform="translate(18.46625 41.739391) scale(0.08 -0.08)">
       <defs>
        <path id="TimesNewRomanPSMT-33" d="M 325 3431 
Q 506 3859 782 4092 
Q 1059 4325 1472 4325 
Q 1981 4325 2253 3994 
Q 2459 3747 2459 3466 
Q 2459 3003 1878 2509 
Q 2269 2356 2469 2072 
Q 2669 1788 2669 1403 
Q 2669 853 2319 450 
Q 1863 -75 997 -75 
Q 569 -75 414 31 
Q 259 138 259 259 
Q 259 350 332 419 
Q 406 488 509 488 
Q 588 488 669 463 
Q 722 447 909 348 
Q 1097 250 1169 231 
Q 1284 197 1416 197 
Q 1734 197 1970 444 
Q 2206 691 2206 1028 
Q 2206 1275 2097 1509 
Q 2016 1684 1919 1775 
Q 1784 1900 1550 2001 
Q 1316 2103 1072 2103 
L 972 2103 
L 972 2197 
Q 1219 2228 1467 2375 
Q 1716 2522 1828 2728 
Q 1941 2934 1941 3181 
Q 1941 3503 1739 3701 
Q 1538 3900 1238 3900 
Q 753 3900 428 3381 
L 325 3431 
z
" transform="scale(0.015625)"/>
       </defs>
       <use xlink:href="#TimesNewRomanPSMT-33"/>
       <use xlink:href="#TimesNewRomanPSMT-30" x="50"/>
      </g>
     </g>
    </g>
    <g id="ytick_6">
     <g id="line2d_15">
      <path d="M 31.96625 29.192028 
L 163.777274 29.192028 
" clip-path="url(#pe6b2dddeaa)" style="fill: none"/>
     </g>
     <g id="line2d_16">
      <g>
       <use xlink:href="#m6961744629" x="31.96625" y="29.192028" style="fill: #808080; stroke: #808080; stroke-width: 0.5"/>
      </g>
     </g>
     <g id="text_8">
      <!-- 35 -->
      <g style="fill: #262626" transform="translate(18.46625 31.969528) scale(0.08 -0.08)">
       <use xlink:href="#TimesNewRomanPSMT-33"/>
       <use xlink:href="#TimesNewRomanPSMT-35" x="50"/>
      </g>
     </g>
    </g>
    <g id="text_9">
     <!-- SNR-Standard (dB) -->
     <g style="fill: #262626" transform="translate(12.755 83.587987) rotate(-90) scale(0.08 -0.08)">
      <defs>
       <path id="TimesNewRomanPSMT-53" d="M 2934 4334 
L 2934 2869 
L 2819 2869 
Q 2763 3291 2617 3541 
Q 2472 3791 2203 3937 
Q 1934 4084 1647 4084 
Q 1322 4084 1109 3886 
Q 897 3688 897 3434 
Q 897 3241 1031 3081 
Q 1225 2847 1953 2456 
Q 2547 2138 2764 1967 
Q 2981 1797 3098 1565 
Q 3216 1334 3216 1081 
Q 3216 600 2842 251 
Q 2469 -97 1881 -97 
Q 1697 -97 1534 -69 
Q 1438 -53 1133 45 
Q 828 144 747 144 
Q 669 144 623 97 
Q 578 50 556 -97 
L 441 -97 
L 441 1356 
L 556 1356 
Q 638 900 775 673 
Q 913 447 1195 297 
Q 1478 147 1816 147 
Q 2206 147 2432 353 
Q 2659 559 2659 841 
Q 2659 997 2573 1156 
Q 2488 1316 2306 1453 
Q 2184 1547 1640 1851 
Q 1097 2156 867 2337 
Q 638 2519 519 2737 
Q 400 2956 400 3219 
Q 400 3675 750 4004 
Q 1100 4334 1641 4334 
Q 1978 4334 2356 4169 
Q 2531 4091 2603 4091 
Q 2684 4091 2736 4139 
Q 2788 4188 2819 4334 
L 2934 4334 
z
" transform="scale(0.015625)"/>
       <path id="TimesNewRomanPSMT-4e" d="M -84 4238 
L 1066 4238 
L 3656 1059 
L 3656 3503 
Q 3656 3894 3569 3991 
Q 3453 4122 3203 4122 
L 3056 4122 
L 3056 4238 
L 4531 4238 
L 4531 4122 
L 4381 4122 
Q 4113 4122 4000 3959 
Q 3931 3859 3931 3503 
L 3931 -69 
L 3819 -69 
L 1025 3344 
L 1025 734 
Q 1025 344 1109 247 
Q 1228 116 1475 116 
L 1625 116 
L 1625 0 
L 150 0 
L 150 116 
L 297 116 
Q 569 116 681 278 
Q 750 378 750 734 
L 750 3681 
Q 566 3897 470 3965 
Q 375 4034 191 4094 
Q 100 4122 -84 4122 
L -84 4238 
z
" transform="scale(0.015625)"/>
       <path id="TimesNewRomanPSMT-2d" d="M 259 1672 
L 1875 1672 
L 1875 1200 
L 259 1200 
L 259 1672 
z
" transform="scale(0.015625)"/>
       <path id="TimesNewRomanPSMT-74" d="M 1031 3803 
L 1031 2863 
L 1700 2863 
L 1700 2644 
L 1031 2644 
L 1031 788 
Q 1031 509 1111 412 
Q 1191 316 1316 316 
Q 1419 316 1516 380 
Q 1613 444 1666 569 
L 1788 569 
Q 1678 263 1478 108 
Q 1278 -47 1066 -47 
Q 922 -47 784 33 
Q 647 113 581 261 
Q 516 409 516 719 
L 516 2644 
L 63 2644 
L 63 2747 
Q 234 2816 414 2980 
Q 594 3144 734 3369 
Q 806 3488 934 3803 
L 1031 3803 
z
" transform="scale(0.015625)"/>
       <path id="TimesNewRomanPSMT-61" d="M 1822 413 
Q 1381 72 1269 19 
Q 1100 -59 909 -59 
Q 613 -59 420 144 
Q 228 347 228 678 
Q 228 888 322 1041 
Q 450 1253 767 1440 
Q 1084 1628 1822 1897 
L 1822 2009 
Q 1822 2438 1686 2597 
Q 1550 2756 1291 2756 
Q 1094 2756 978 2650 
Q 859 2544 859 2406 
L 866 2225 
Q 866 2081 792 2003 
Q 719 1925 600 1925 
Q 484 1925 411 2006 
Q 338 2088 338 2228 
Q 338 2497 613 2722 
Q 888 2947 1384 2947 
Q 1766 2947 2009 2819 
Q 2194 2722 2281 2516 
Q 2338 2381 2338 1966 
L 2338 994 
Q 2338 584 2353 492 
Q 2369 400 2405 369 
Q 2441 338 2488 338 
Q 2538 338 2575 359 
Q 2641 400 2828 588 
L 2828 413 
Q 2478 -56 2159 -56 
Q 2006 -56 1915 50 
Q 1825 156 1822 413 
z
M 1822 616 
L 1822 1706 
Q 1350 1519 1213 1441 
Q 966 1303 859 1153 
Q 753 1003 753 825 
Q 753 600 887 451 
Q 1022 303 1197 303 
Q 1434 303 1822 616 
z
" transform="scale(0.015625)"/>
       <path id="TimesNewRomanPSMT-6e" d="M 1034 2341 
Q 1538 2947 1994 2947 
Q 2228 2947 2397 2830 
Q 2566 2713 2666 2444 
Q 2734 2256 2734 1869 
L 2734 647 
Q 2734 375 2778 278 
Q 2813 200 2889 156 
Q 2966 113 3172 113 
L 3172 0 
L 1756 0 
L 1756 113 
L 1816 113 
Q 2016 113 2095 173 
Q 2175 234 2206 353 
Q 2219 400 2219 647 
L 2219 1819 
Q 2219 2209 2117 2386 
Q 2016 2563 1775 2563 
Q 1403 2563 1034 2156 
L 1034 647 
Q 1034 356 1069 288 
Q 1113 197 1189 155 
Q 1266 113 1500 113 
L 1500 0 
L 84 0 
L 84 113 
L 147 113 
Q 366 113 442 223 
Q 519 334 519 647 
L 519 1709 
Q 519 2225 495 2337 
Q 472 2450 423 2490 
Q 375 2531 294 2531 
Q 206 2531 84 2484 
L 38 2597 
L 900 2947 
L 1034 2947 
L 1034 2341 
z
" transform="scale(0.015625)"/>
       <path id="TimesNewRomanPSMT-64" d="M 2222 322 
Q 2013 103 1813 7 
Q 1613 -88 1381 -88 
Q 913 -88 563 304 
Q 213 697 213 1313 
Q 213 1928 600 2439 
Q 988 2950 1597 2950 
Q 1975 2950 2222 2709 
L 2222 3238 
Q 2222 3728 2198 3840 
Q 2175 3953 2125 3993 
Q 2075 4034 2000 4034 
Q 1919 4034 1784 3984 
L 1744 4094 
L 2597 4444 
L 2738 4444 
L 2738 1134 
Q 2738 631 2761 520 
Q 2784 409 2836 365 
Q 2888 322 2956 322 
Q 3041 322 3181 375 
L 3216 266 
L 2366 -88 
L 2222 -88 
L 2222 322 
z
M 2222 541 
L 2222 2016 
Q 2203 2228 2109 2403 
Q 2016 2578 1861 2667 
Q 1706 2756 1559 2756 
Q 1284 2756 1069 2509 
Q 784 2184 784 1559 
Q 784 928 1059 592 
Q 1334 256 1672 256 
Q 1956 256 2222 541 
z
" transform="scale(0.015625)"/>
       <path id="TimesNewRomanPSMT-72" d="M 1038 2947 
L 1038 2303 
Q 1397 2947 1775 2947 
Q 1947 2947 2059 2842 
Q 2172 2738 2172 2600 
Q 2172 2478 2090 2393 
Q 2009 2309 1897 2309 
Q 1788 2309 1652 2417 
Q 1516 2525 1450 2525 
Q 1394 2525 1328 2463 
Q 1188 2334 1038 2041 
L 1038 669 
Q 1038 431 1097 309 
Q 1138 225 1241 169 
Q 1344 113 1538 113 
L 1538 0 
L 72 0 
L 72 113 
Q 291 113 397 181 
Q 475 231 506 341 
Q 522 394 522 644 
L 522 1753 
Q 522 2253 501 2348 
Q 481 2444 426 2487 
Q 372 2531 291 2531 
Q 194 2531 72 2484 
L 41 2597 
L 906 2947 
L 1038 2947 
z
" transform="scale(0.015625)"/>
       <path id="TimesNewRomanPSMT-20" transform="scale(0.015625)"/>
       <path id="TimesNewRomanPSMT-28" d="M 1988 -1253 
L 1988 -1369 
Q 1516 -1131 1200 -813 
Q 750 -359 506 256 
Q 263 872 263 1534 
Q 263 2503 741 3301 
Q 1219 4100 1988 4444 
L 1988 4313 
Q 1603 4100 1356 3731 
Q 1109 3363 987 2797 
Q 866 2231 866 1616 
Q 866 947 969 400 
Q 1050 -31 1165 -292 
Q 1281 -553 1476 -793 
Q 1672 -1034 1988 -1253 
z
" transform="scale(0.015625)"/>
       <path id="TimesNewRomanPSMT-42" d="M 2956 2163 
Q 3397 2069 3616 1863 
Q 3919 1575 3919 1159 
Q 3919 844 3719 555 
Q 3519 266 3170 133 
Q 2822 0 2106 0 
L 106 0 
L 106 116 
L 266 116 
Q 531 116 647 284 
Q 719 394 719 750 
L 719 3488 
Q 719 3881 628 3984 
Q 506 4122 266 4122 
L 106 4122 
L 106 4238 
L 1938 4238 
Q 2450 4238 2759 4163 
Q 3228 4050 3475 3764 
Q 3722 3478 3722 3106 
Q 3722 2788 3528 2536 
Q 3334 2284 2956 2163 
z
M 1319 2331 
Q 1434 2309 1582 2298 
Q 1731 2288 1909 2288 
Q 2366 2288 2595 2386 
Q 2825 2484 2947 2687 
Q 3069 2891 3069 3131 
Q 3069 3503 2766 3765 
Q 2463 4028 1881 4028 
Q 1569 4028 1319 3959 
L 1319 2331 
z
M 1319 306 
Q 1681 222 2034 222 
Q 2600 222 2897 476 
Q 3194 731 3194 1106 
Q 3194 1353 3059 1581 
Q 2925 1809 2622 1940 
Q 2319 2072 1872 2072 
Q 1678 2072 1540 2065 
Q 1403 2059 1319 2044 
L 1319 306 
z
" transform="scale(0.015625)"/>
       <path id="TimesNewRomanPSMT-29" d="M 144 4313 
L 144 4444 
Q 619 4209 934 3891 
Q 1381 3434 1625 2820 
Q 1869 2206 1869 1541 
Q 1869 572 1392 -226 
Q 916 -1025 144 -1369 
L 144 -1253 
Q 528 -1038 776 -670 
Q 1025 -303 1145 264 
Q 1266 831 1266 1447 
Q 1266 2113 1163 2663 
Q 1084 3094 967 3353 
Q 850 3613 656 3853 
Q 463 4094 144 4313 
z
" transform="scale(0.015625)"/>
      </defs>
      <use xlink:href="#TimesNewRomanPSMT-53"/>
      <use xlink:href="#TimesNewRomanPSMT-4e" x="55.615234"/>
      <use xlink:href="#TimesNewRomanPSMT-52" x="127.832031"/>
      <use xlink:href="#TimesNewRomanPSMT-2d" x="194.53125"/>
      <use xlink:href="#TimesNewRomanPSMT-53" x="227.832031"/>
      <use xlink:href="#TimesNewRomanPSMT-74" x="283.447266"/>
      <use xlink:href="#TimesNewRomanPSMT-61" x="311.230469"/>
      <use xlink:href="#TimesNewRomanPSMT-6e" x="355.615234"/>
      <use xlink:href="#TimesNewRomanPSMT-64" x="405.615234"/>
      <use xlink:href="#TimesNewRomanPSMT-61" x="455.615234"/>
      <use xlink:href="#TimesNewRomanPSMT-72" x="500"/>
      <use xlink:href="#TimesNewRomanPSMT-64" x="533.300781"/>
      <use xlink:href="#TimesNewRomanPSMT-20" x="583.300781"/>
      <use xlink:href="#TimesNewRomanPSMT-28" x="608.300781"/>
      <use xlink:href="#TimesNewRomanPSMT-64" x="641.601562"/>
      <use xlink:href="#TimesNewRomanPSMT-42" x="691.601562"/>
      <use xlink:href="#TimesNewRomanPSMT-29" x="758.300781"/>
     </g>
    </g>
   </g>
   <g id="PolyCollection_1">
    <defs>
     <path id="m6f06bfa4af" d="M 65.04109 -44.336655 
L 64.796922 -44.336655 
L 64.735162 -44.92623 
L 64.654823 -45.515805 
L 64.556744 -46.10538 
L 64.444979 -46.694955 
L 64.327108 -47.28453 
L 64.213739 -47.874105 
L 64.117101 -48.46368 
L 64.048934 -49.053255 
L 64.018159 -49.64283 
L 64.028966 -50.232405 
L 64.079873 -50.82198 
L 64.164061 -51.411555 
L 64.270875 -52.00113 
L 64.388031 -52.590705 
L 64.503909 -53.180281 
L 64.609338 -53.769856 
L 64.698543 -54.359431 
L 64.769192 -54.949006 
L 64.82176 -55.538581 
L 64.858536 -56.128156 
L 64.882592 -56.717731 
L 64.896928 -57.307306 
L 64.903889 -57.896881 
L 64.904818 -58.486456 
L 64.899907 -59.076031 
L 64.888177 -59.665606 
L 64.867581 -60.255181 
L 64.835281 -60.844756 
L 64.788144 -61.434331 
L 64.723522 -62.023907 
L 64.640235 -62.613482 
L 64.53961 -63.203057 
L 64.42627 -63.792632 
L 64.308342 -64.382207 
L 64.196807 -64.971782 
L 64.10396 -65.561357 
L 64.04122 -66.150932 
L 64.016796 -66.740507 
L 64.033857 -67.330082 
L 64.089688 -67.919657 
L 64.176065 -68.509232 
L 64.280597 -69.098807 
L 64.388518 -69.688382 
L 64.484231 -70.277957 
L 64.552067 -70.867532 
L 64.576065 -71.457108 
L 64.539013 -72.046683 
L 64.421373 -72.636258 
L 64.200884 -73.225833 
L 63.853525 -73.815408 
L 63.356104 -74.404983 
L 62.69008 -74.994558 
L 61.845582 -75.584133 
L 60.824178 -76.173708 
L 59.63908 -76.763283 
L 58.312259 -77.352858 
L 56.869108 -77.942433 
L 55.332477 -78.532008 
L 53.71844 -79.121583 
L 52.035792 -79.711158 
L 50.289969 -80.300733 
L 48.490451 -80.890309 
L 46.659328 -81.479884 
L 44.838221 -82.069459 
L 43.091134 -82.659034 
L 41.501952 -83.248609 
L 40.166576 -83.838184 
L 39.180862 -84.427759 
L 38.626408 -85.017334 
L 38.556801 -85.606909 
L 38.987102 -86.196484 
L 39.88901 -86.786059 
L 41.193195 -87.375634 
L 42.798708 -87.965209 
L 44.58771 -88.554784 
L 46.442399 -89.144359 
L 48.26054 -89.733934 
L 49.966572 -90.32351 
L 51.516595 -90.913085 
L 52.897136 -91.50266 
L 54.119034 -92.092235 
L 55.208545 -92.68181 
L 56.197945 -93.271385 
L 57.117511 -93.86096 
L 57.990086 -94.450535 
L 58.828607 -95.04011 
L 59.636301 -95.629685 
L 60.408764 -96.21926 
L 61.136947 -96.808835 
L 61.810172 -97.39841 
L 62.418586 -97.987985 
L 62.954816 -98.57756 
L 63.414851 -99.167135 
L 63.798299 -99.756711 
L 64.108209 -100.346286 
L 64.350571 -100.935861 
L 64.53357 -101.525436 
L 64.6667 -102.115011 
L 64.759831 -102.704586 
L 65.07818 -102.704586 
L 65.07818 -102.704586 
L 65.171312 -102.115011 
L 65.304442 -101.525436 
L 65.487441 -100.935861 
L 65.729803 -100.346286 
L 66.039713 -99.756711 
L 66.423161 -99.167135 
L 66.883195 -98.57756 
L 67.419426 -97.987985 
L 68.02784 -97.39841 
L 68.701065 -96.808835 
L 69.429248 -96.21926 
L 70.201711 -95.629685 
L 71.009405 -95.04011 
L 71.847925 -94.450535 
L 72.720501 -93.86096 
L 73.640067 -93.271385 
L 74.629467 -92.68181 
L 75.718978 -92.092235 
L 76.940876 -91.50266 
L 78.321417 -90.913085 
L 79.871439 -90.32351 
L 81.577472 -89.733934 
L 83.395612 -89.144359 
L 85.250301 -88.554784 
L 87.039304 -87.965209 
L 88.644817 -87.375634 
L 89.949001 -86.786059 
L 90.85091 -86.196484 
L 91.281211 -85.606909 
L 91.211604 -85.017334 
L 90.65715 -84.427759 
L 89.671435 -83.838184 
L 88.33606 -83.248609 
L 86.746878 -82.659034 
L 84.99979 -82.069459 
L 83.178683 -81.479884 
L 81.347561 -80.890309 
L 79.548043 -80.300733 
L 77.80222 -79.711158 
L 76.119572 -79.121583 
L 74.505535 -78.532008 
L 72.968904 -77.942433 
L 71.525753 -77.352858 
L 70.198931 -76.763283 
L 69.013833 -76.173708 
L 67.992429 -75.584133 
L 67.147932 -74.994558 
L 66.481908 -74.404983 
L 65.984486 -73.815408 
L 65.637127 -73.225833 
L 65.416638 -72.636258 
L 65.298999 -72.046683 
L 65.261947 -71.457108 
L 65.285945 -70.867532 
L 65.353781 -70.277957 
L 65.449494 -69.688382 
L 65.557415 -69.098807 
L 65.661947 -68.509232 
L 65.748323 -67.919657 
L 65.804155 -67.330082 
L 65.821216 -66.740507 
L 65.796792 -66.150932 
L 65.734052 -65.561357 
L 65.641205 -64.971782 
L 65.52967 -64.382207 
L 65.411742 -63.792632 
L 65.298402 -63.203057 
L 65.197777 -62.613482 
L 65.114489 -62.023907 
L 65.049868 -61.434331 
L 65.002731 -60.844756 
L 64.97043 -60.255181 
L 64.949835 -59.665606 
L 64.938105 -59.076031 
L 64.933194 -58.486456 
L 64.934123 -57.896881 
L 64.941084 -57.307306 
L 64.95542 -56.717731 
L 64.979475 -56.128156 
L 65.016251 -55.538581 
L 65.06882 -54.949006 
L 65.139469 -54.359431 
L 65.228674 -53.769856 
L 65.334103 -53.180281 
L 65.449981 -52.590705 
L 65.567137 -52.00113 
L 65.673951 -51.411555 
L 65.758139 -50.82198 
L 65.809045 -50.232405 
L 65.819852 -49.64283 
L 65.789078 -49.053255 
L 65.720911 -48.46368 
L 65.624272 -47.874105 
L 65.510904 -47.28453 
L 65.393033 -46.694955 
L 65.281268 -46.10538 
L 65.183189 -45.515805 
L 65.10285 -44.92623 
L 65.04109 -44.336655 
z
" style="stroke: #595959"/>
    </defs>
    <g clip-path="url(#pc6077bf869)">
     <use xlink:href="#m6f06bfa4af" x="0" y="125.444857" style="fill: #72b6a1; stroke: #595959"/>
    </g>
   </g>
   <g id="PolyCollection_2">
    <defs>
     <path id="mabc244233a" d="M 131.56245 -73.973751 
L 130.086586 -73.973751 
L 129.922596 -74.207795 
L 129.729896 -74.441839 
L 129.505201 -74.675882 
L 129.245186 -74.909926 
L 128.94655 -75.14397 
L 128.606077 -75.378013 
L 128.220714 -75.612057 
L 127.787639 -75.846101 
L 127.30434 -76.080144 
L 126.768685 -76.314188 
L 126.178997 -76.548232 
L 125.534122 -76.782275 
L 124.833495 -77.016319 
L 124.077206 -77.250363 
L 123.26606 -77.484407 
L 122.401636 -77.71845 
L 121.486349 -77.952494 
L 120.523506 -78.186538 
L 119.51736 -78.420581 
L 118.473162 -78.654625 
L 117.397208 -78.888669 
L 116.29687 -79.122712 
L 115.180614 -79.356756 
L 114.057992 -79.5908 
L 112.939608 -79.824844 
L 111.837043 -80.058887 
L 110.762742 -80.292931 
L 109.729847 -80.526975 
L 108.751988 -80.761018 
L 107.843014 -80.995062 
L 107.01669 -81.229106 
L 106.286345 -81.463149 
L 105.664497 -81.697193 
L 105.162461 -81.931237 
L 104.78996 -82.165281 
L 104.554756 -82.399324 
L 104.462313 -82.633368 
L 104.515528 -82.867412 
L 104.714521 -83.101455 
L 105.056516 -83.335499 
L 105.535823 -83.569543 
L 106.143904 -83.803586 
L 106.869559 -84.03763 
L 107.699191 -84.271674 
L 108.617166 -84.505718 
L 109.606242 -84.739761 
L 110.648052 -84.973805 
L 111.723628 -85.207849 
L 112.813937 -85.441892 
L 113.900408 -85.675936 
L 114.96544 -85.90998 
L 115.99286 -86.144023 
L 116.968325 -86.378067 
L 117.879651 -86.612111 
L 118.717058 -86.846154 
L 119.473329 -87.080198 
L 120.143886 -87.314242 
L 120.726766 -87.548286 
L 121.222531 -87.782329 
L 121.634096 -88.016373 
L 121.966489 -88.250417 
L 122.226566 -88.48446 
L 122.422685 -88.718504 
L 122.564347 -88.952548 
L 122.661835 -89.186591 
L 122.725843 -89.420635 
L 122.767116 -89.654679 
L 122.796124 -89.888723 
L 122.822752 -90.122766 
L 122.856041 -90.35681 
L 122.903966 -90.590854 
L 122.973269 -90.824897 
L 123.069334 -91.058941 
L 123.196129 -91.292985 
L 123.356178 -91.527028 
L 123.550598 -91.761072 
L 123.77917 -91.995116 
L 124.040448 -92.22916 
L 124.331905 -92.463203 
L 124.650098 -92.697247 
L 124.990853 -92.931291 
L 125.349462 -93.165334 
L 125.720878 -93.399378 
L 126.099906 -93.633422 
L 126.481385 -93.867465 
L 126.860353 -94.101509 
L 127.232186 -94.335553 
L 127.592713 -94.569597 
L 127.938311 -94.80364 
L 128.265958 -95.037684 
L 128.573272 -95.271728 
L 128.858512 -95.505771 
L 129.120567 -95.739815 
L 129.358911 -95.973859 
L 129.573556 -96.207902 
L 129.76498 -96.441946 
L 129.934057 -96.67599 
L 130.081977 -96.910033 
L 130.21017 -97.144077 
L 131.438866 -97.144077 
L 131.438866 -97.144077 
L 131.567058 -96.910033 
L 131.714979 -96.67599 
L 131.884056 -96.441946 
L 132.07548 -96.207902 
L 132.290124 -95.973859 
L 132.528469 -95.739815 
L 132.790523 -95.505771 
L 133.075764 -95.271728 
L 133.383077 -95.037684 
L 133.710724 -94.80364 
L 134.056322 -94.569597 
L 134.41685 -94.335553 
L 134.788682 -94.101509 
L 135.16765 -93.867465 
L 135.54913 -93.633422 
L 135.928158 -93.399378 
L 136.299573 -93.165334 
L 136.658182 -92.931291 
L 136.998937 -92.697247 
L 137.31713 -92.463203 
L 137.608587 -92.22916 
L 137.869865 -91.995116 
L 138.098437 -91.761072 
L 138.292858 -91.527028 
L 138.452907 -91.292985 
L 138.579701 -91.058941 
L 138.675767 -90.824897 
L 138.745069 -90.590854 
L 138.792994 -90.35681 
L 138.826283 -90.122766 
L 138.852912 -89.888723 
L 138.881919 -89.654679 
L 138.923193 -89.420635 
L 138.9872 -89.186591 
L 139.084688 -88.952548 
L 139.226351 -88.718504 
L 139.422469 -88.48446 
L 139.682546 -88.250417 
L 140.014939 -88.016373 
L 140.426504 -87.782329 
L 140.92227 -87.548286 
L 141.50515 -87.314242 
L 142.175706 -87.080198 
L 142.931978 -86.846154 
L 143.769384 -86.612111 
L 144.68071 -86.378067 
L 145.656176 -86.144023 
L 146.683596 -85.90998 
L 147.748627 -85.675936 
L 148.835098 -85.441892 
L 149.925407 -85.207849 
L 151.000984 -84.973805 
L 152.042794 -84.739761 
L 153.031869 -84.505718 
L 153.949844 -84.271674 
L 154.779476 -84.03763 
L 155.505131 -83.803586 
L 156.113213 -83.569543 
L 156.592519 -83.335499 
L 156.934515 -83.101455 
L 157.133507 -82.867412 
L 157.186722 -82.633368 
L 157.09428 -82.399324 
L 156.859075 -82.165281 
L 156.486574 -81.931237 
L 155.984538 -81.697193 
L 155.36269 -81.463149 
L 154.632345 -81.229106 
L 153.806021 -80.995062 
L 152.897047 -80.761018 
L 151.919188 -80.526975 
L 150.886294 -80.292931 
L 149.811993 -80.058887 
L 148.709428 -79.824844 
L 147.591044 -79.5908 
L 146.468421 -79.356756 
L 145.352165 -79.122712 
L 144.251827 -78.888669 
L 143.175874 -78.654625 
L 142.131676 -78.420581 
L 141.125529 -78.186538 
L 140.162686 -77.952494 
L 139.2474 -77.71845 
L 138.382976 -77.484407 
L 137.57183 -77.250363 
L 136.815541 -77.016319 
L 136.114914 -76.782275 
L 135.470039 -76.548232 
L 134.880351 -76.314188 
L 134.344695 -76.080144 
L 133.861396 -75.846101 
L 133.428321 -75.612057 
L 133.042958 -75.378013 
L 132.702486 -75.14397 
L 132.403849 -74.909926 
L 132.143835 -74.675882 
L 131.919139 -74.441839 
L 131.726439 -74.207795 
L 131.56245 -73.973751 
z
" style="stroke: #595959"/>
    </defs>
    <g clip-path="url(#pe49458032d)">
     <use xlink:href="#mabc244233a" x="0" y="125.444857" style="fill: #e99675; stroke: #595959"/>
    </g>
   </g>
   <g id="line2d_17">
    <path d="M 64.919006 42.944461 
L 64.919006 46.816626 
" clip-path="url(#pe6b2dddeaa)" style="fill: none; stroke: #4c4c4c"/>
   </g>
   <g id="line2d_18">
    <path d="M 64.919006 37.288779 
L 64.919006 30.097112 
" clip-path="url(#pe6b2dddeaa)" style="fill: none; stroke: #4c4c4c"/>
   </g>
   <g id="line2d_19">
    <path d="M 59.976093 46.816626 
L 69.861919 46.816626 
" clip-path="url(#pe6b2dddeaa)" style="fill: none; stroke: #4c4c4c; stroke-linecap: round"/>
   </g>
   <g id="line2d_20">
    <path d="M 59.976093 30.097112 
L 69.861919 30.097112 
" clip-path="url(#pe6b2dddeaa)" style="fill: none; stroke: #4c4c4c; stroke-linecap: round"/>
   </g>
   <g id="line2d_21">
    <path d="M 130.824518 43.299718 
L 130.824518 46.398719 
" clip-path="url(#pe6b2dddeaa)" style="fill: none; stroke: #4c4c4c"/>
   </g>
   <g id="line2d_22">
    <path d="M 130.824518 40.674903 
L 130.824518 40.388199 
" clip-path="url(#pe6b2dddeaa)" style="fill: none; stroke: #4c4c4c"/>
   </g>
   <g id="line2d_23">
    <path d="M 125.881604 46.398719 
L 135.767431 46.398719 
" clip-path="url(#pe6b2dddeaa)" style="fill: none; stroke: #4c4c4c; stroke-linecap: round"/>
   </g>
   <g id="line2d_24">
    <path d="M 125.881604 40.388199 
L 135.767431 40.388199 
" clip-path="url(#pe6b2dddeaa)" style="fill: none; stroke: #4c4c4c; stroke-linecap: round"/>
   </g>
   <g id="line2d_25">
    <path d="M 55.033179 39.848797 
L 74.804833 39.848797 
" clip-path="url(#pe6b2dddeaa)" style="fill: none; stroke: #4c4c4c"/>
   </g>
   <g id="line2d_26">
    <path d="M 120.938691 42.327126 
L 140.710344 42.327126 
" clip-path="url(#pe6b2dddeaa)" style="fill: none; stroke: #4c4c4c"/>
   </g>
   <g id="patch_3">
    <path d="M 31.96625 84.026599 
L 31.96625 19.821875 
" style="fill: none; stroke: #262626; stroke-width: 0.5; stroke-linejoin: miter; stroke-linecap: square"/>
   </g>
   <g id="patch_4">
    <path d="M 163.777274 84.026599 
L 163.777274 19.821875 
" style="fill: none; stroke: #262626; stroke-width: 0.5; stroke-linejoin: miter; stroke-linecap: square"/>
   </g>
   <g id="patch_5">
    <path d="M 31.96625 84.026599 
L 163.777274 84.026599 
" style="fill: none; stroke: #262626; stroke-width: 0.5; stroke-linejoin: miter; stroke-linecap: square"/>
   </g>
   <g id="patch_6">
    <path d="M 31.96625 19.821875 
L 163.777274 19.821875 
" style="fill: none; stroke: #262626; stroke-width: 0.5; stroke-linejoin: miter; stroke-linecap: square"/>
   </g>
   <g id="patch_7">
    <path d="M 55.033179 42.944461 
L 74.804833 42.944461 
L 74.804833 37.288779 
L 55.033179 37.288779 
L 55.033179 42.944461 
L 55.033179 42.944461 
z
" clip-path="url(#pe6b2dddeaa)" style="fill: none; stroke: #4c4c4c; stroke-linejoin: miter"/>
   </g>
   <g id="patch_8">
    <path d="M 120.938691 43.299718 
L 140.710344 43.299718 
L 140.710344 40.674903 
L 120.938691 40.674903 
L 120.938691 43.299718 
L 120.938691 43.299718 
z
" clip-path="url(#pe6b2dddeaa)" style="fill: none; stroke: #4c4c4c; stroke-linejoin: miter"/>
   </g>
   <g id="PathCollection_1">
    <defs>
     <path id="C0_0_5836410374" d="M 0 0.55 
C 0.145862 0.55 0.285769 0.492049 0.388909 0.388909 
C 0.492049 0.285769 0.55 0.145862 0.55 -0 
C 0.55 -0.145862 0.492049 -0.285769 0.388909 -0.388909 
C 0.285769 -0.492049 0.145862 -0.55 0 -0.55 
C -0.145862 -0.55 -0.285769 -0.492049 -0.388909 -0.388909 
C -0.492049 -0.285769 -0.55 -0.145862 -0.55 0 
C -0.55 0.145862 -0.492049 0.285769 -0.388909 0.388909 
C -0.285769 0.492049 -0.145862 0.55 0 0.55 
z
"/>
    </defs>
    <g clip-path="url(#pe6b2dddeaa)">
     <use xlink:href="#C0_0_5836410374" x="72.441065" y="39.636981" style="fill: #66c2a5"/>
    </g>
    <g clip-path="url(#pe6b2dddeaa)">
     <use xlink:href="#C0_0_5836410374" x="66.857703" y="39.891114" style="fill: #66c2a5"/>
    </g>
    <g clip-path="url(#pe6b2dddeaa)">
     <use xlink:href="#C0_0_5836410374" x="75.824981" y="36.470794" style="fill: #66c2a5"/>
    </g>
    <g clip-path="url(#pe6b2dddeaa)">
     <use xlink:href="#C0_0_5836410374" x="75.716099" y="36.470794" style="fill: #66c2a5"/>
    </g>
    <g clip-path="url(#pe6b2dddeaa)">
     <use xlink:href="#C0_0_5836410374" x="78.875526" y="40.600999" style="fill: #66c2a5"/>
    </g>
    <g clip-path="url(#pe6b2dddeaa)">
     <use xlink:href="#C0_0_5836410374" x="68.084377" y="40.600999" style="fill: #66c2a5"/>
    </g>
    <g clip-path="url(#pe6b2dddeaa)">
     <use xlink:href="#C0_0_5836410374" x="71.318131" y="41.862353" style="fill: #66c2a5"/>
    </g>
    <g clip-path="url(#pe6b2dddeaa)">
     <use xlink:href="#C0_0_5836410374" x="66.947012" y="41.862353" style="fill: #66c2a5"/>
    </g>
    <g clip-path="url(#pe6b2dddeaa)">
     <use xlink:href="#C0_0_5836410374" x="73.836512" y="39.848797" style="fill: #66c2a5"/>
    </g>
    <g clip-path="url(#pe6b2dddeaa)">
     <use xlink:href="#C0_0_5836410374" x="78.186421" y="39.848797" style="fill: #66c2a5"/>
    </g>
    <g clip-path="url(#pe6b2dddeaa)">
     <use xlink:href="#C0_0_5836410374" x="76.084523" y="46.415281" style="fill: #66c2a5"/>
    </g>
    <g clip-path="url(#pe6b2dddeaa)">
     <use xlink:href="#C0_0_5836410374" x="76.76958" y="46.415281" style="fill: #66c2a5"/>
    </g>
    <g clip-path="url(#pe6b2dddeaa)">
     <use xlink:href="#C0_0_5836410374" x="68.425945" y="39.891114" style="fill: #66c2a5"/>
    </g>
    <g clip-path="url(#pe6b2dddeaa)">
     <use xlink:href="#C0_0_5836410374" x="71.944249" y="46.523076" style="fill: #66c2a5"/>
    </g>
    <g clip-path="url(#pe6b2dddeaa)">
     <use xlink:href="#C0_0_5836410374" x="76.635783" y="36.7139" style="fill: #66c2a5"/>
    </g>
    <g clip-path="url(#pe6b2dddeaa)">
     <use xlink:href="#C0_0_5836410374" x="75.373242" y="36.7139" style="fill: #66c2a5"/>
    </g>
    <g clip-path="url(#pe6b2dddeaa)">
     <use xlink:href="#C0_0_5836410374" x="68.781063" y="37.350338" style="fill: #66c2a5"/>
    </g>
    <g clip-path="url(#pe6b2dddeaa)">
     <use xlink:href="#C0_0_5836410374" x="78.139229" y="37.350338" style="fill: #66c2a5"/>
    </g>
    <g clip-path="url(#pe6b2dddeaa)">
     <use xlink:href="#C0_0_5836410374" x="73.191472" y="34.613827" style="fill: #66c2a5"/>
    </g>
    <g clip-path="url(#pe6b2dddeaa)">
     <use xlink:href="#C0_0_5836410374" x="66.921525" y="34.613827" style="fill: #66c2a5"/>
    </g>
    <g clip-path="url(#pe6b2dddeaa)">
     <use xlink:href="#C0_0_5836410374" x="78.199234" y="43.691616" style="fill: #66c2a5"/>
    </g>
    <g clip-path="url(#pe6b2dddeaa)">
     <use xlink:href="#C0_0_5836410374" x="73.355279" y="43.691616" style="fill: #66c2a5"/>
    </g>
    <g clip-path="url(#pe6b2dddeaa)">
     <use xlink:href="#C0_0_5836410374" x="79.201915" y="43.001009" style="fill: #66c2a5"/>
    </g>
    <g clip-path="url(#pe6b2dddeaa)">
     <use xlink:href="#C0_0_5836410374" x="66.598024" y="43.001009" style="fill: #66c2a5"/>
    </g>
    <g clip-path="url(#pe6b2dddeaa)">
     <use xlink:href="#C0_0_5836410374" x="66.359173" y="44.408091" style="fill: #66c2a5"/>
    </g>
    <g clip-path="url(#pe6b2dddeaa)">
     <use xlink:href="#C0_0_5836410374" x="66.338766" y="46.523076" style="fill: #66c2a5"/>
    </g>
    <g clip-path="url(#pe6b2dddeaa)">
     <use xlink:href="#C0_0_5836410374" x="67.160189" y="44.408091" style="fill: #66c2a5"/>
    </g>
    <g clip-path="url(#pe6b2dddeaa)">
     <use xlink:href="#C0_0_5836410374" x="73.563204" y="35.190101" style="fill: #66c2a5"/>
    </g>
    <g clip-path="url(#pe6b2dddeaa)">
     <use xlink:href="#C0_0_5836410374" x="77.127643" y="31.804561" style="fill: #66c2a5"/>
    </g>
    <g clip-path="url(#pe6b2dddeaa)">
     <use xlink:href="#C0_0_5836410374" x="74.15242" y="58.655909" style="fill: #66c2a5"/>
    </g>
    <g clip-path="url(#pe6b2dddeaa)">
     <use xlink:href="#C0_0_5836410374" x="72.740102" y="42.774815" style="fill: #66c2a5"/>
    </g>
    <g clip-path="url(#pe6b2dddeaa)">
     <use xlink:href="#C0_0_5836410374" x="69.423665" y="42.774815" style="fill: #66c2a5"/>
    </g>
    <g clip-path="url(#pe6b2dddeaa)">
     <use xlink:href="#C0_0_5836410374" x="69.466255" y="46.438352" style="fill: #66c2a5"/>
    </g>
    <g clip-path="url(#pe6b2dddeaa)">
     <use xlink:href="#C0_0_5836410374" x="68.84035" y="46.438352" style="fill: #66c2a5"/>
    </g>
    <g clip-path="url(#pe6b2dddeaa)">
     <use xlink:href="#C0_0_5836410374" x="74.371867" y="32.849056" style="fill: #66c2a5"/>
    </g>
    <g clip-path="url(#pe6b2dddeaa)">
     <use xlink:href="#C0_0_5836410374" x="69.793837" y="32.849056" style="fill: #66c2a5"/>
    </g>
    <g clip-path="url(#pe6b2dddeaa)">
     <use xlink:href="#C0_0_5836410374" x="76.351183" y="38.613033" style="fill: #66c2a5"/>
    </g>
    <g clip-path="url(#pe6b2dddeaa)">
     <use xlink:href="#C0_0_5836410374" x="70.257376" y="38.613033" style="fill: #66c2a5"/>
    </g>
    <g clip-path="url(#pe6b2dddeaa)">
     <use xlink:href="#C0_0_5836410374" x="69.596984" y="31.391062" style="fill: #66c2a5"/>
    </g>
    <g clip-path="url(#pe6b2dddeaa)">
     <use xlink:href="#C0_0_5836410374" x="74.375958" y="31.391062" style="fill: #66c2a5"/>
    </g>
    <g clip-path="url(#pe6b2dddeaa)">
     <use xlink:href="#C0_0_5836410374" x="67.644104" y="35.190101" style="fill: #66c2a5"/>
    </g>
    <g clip-path="url(#pe6b2dddeaa)">
     <use xlink:href="#C0_0_5836410374" x="71.525928" y="43.121133" style="fill: #66c2a5"/>
    </g>
    <g clip-path="url(#pe6b2dddeaa)">
     <use xlink:href="#C0_0_5836410374" x="69.126055" y="42.308109" style="fill: #66c2a5"/>
    </g>
    <g clip-path="url(#pe6b2dddeaa)">
     <use xlink:href="#C0_0_5836410374" x="71.162868" y="42.308109" style="fill: #66c2a5"/>
    </g>
    <g clip-path="url(#pe6b2dddeaa)">
     <use xlink:href="#C0_0_5836410374" x="77.594785" y="40.086873" style="fill: #66c2a5"/>
    </g>
    <g clip-path="url(#pe6b2dddeaa)">
     <use xlink:href="#C0_0_5836410374" x="70.451588" y="40.086873" style="fill: #66c2a5"/>
    </g>
    <g clip-path="url(#pe6b2dddeaa)">
     <use xlink:href="#C0_0_5836410374" x="73.926507" y="37.26826" style="fill: #66c2a5"/>
    </g>
    <g clip-path="url(#pe6b2dddeaa)">
     <use xlink:href="#C0_0_5836410374" x="69.686881" y="37.26826" style="fill: #66c2a5"/>
    </g>
    <g clip-path="url(#pe6b2dddeaa)">
     <use xlink:href="#C0_0_5836410374" x="69.87918" y="75.659193" style="fill: #66c2a5"/>
    </g>
    <g clip-path="url(#pe6b2dddeaa)">
     <use xlink:href="#C0_0_5836410374" x="79.307952" y="75.659193" style="fill: #66c2a5"/>
    </g>
    <g clip-path="url(#pe6b2dddeaa)">
     <use xlink:href="#C0_0_5836410374" x="68.872558" y="40.936856" style="fill: #66c2a5"/>
    </g>
    <g clip-path="url(#pe6b2dddeaa)">
     <use xlink:href="#C0_0_5836410374" x="68.152782" y="40.936856" style="fill: #66c2a5"/>
    </g>
    <g clip-path="url(#pe6b2dddeaa)">
     <use xlink:href="#C0_0_5836410374" x="72.180562" y="31.804561" style="fill: #66c2a5"/>
    </g>
    <g clip-path="url(#pe6b2dddeaa)">
     <use xlink:href="#C0_0_5836410374" x="76.020784" y="43.121133" style="fill: #66c2a5"/>
    </g>
    <g clip-path="url(#pe6b2dddeaa)">
     <use xlink:href="#C0_0_5836410374" x="71.329297" y="30.097112" style="fill: #66c2a5"/>
    </g>
    <g clip-path="url(#pe6b2dddeaa)">
     <use xlink:href="#C0_0_5836410374" x="70.020418" y="58.655909" style="fill: #66c2a5"/>
    </g>
    <g clip-path="url(#pe6b2dddeaa)">
     <use xlink:href="#C0_0_5836410374" x="72.360717" y="28.189281" style="fill: #66c2a5"/>
    </g>
    <g clip-path="url(#pe6b2dddeaa)">
     <use xlink:href="#C0_0_5836410374" x="66.571617" y="42.073529" style="fill: #66c2a5"/>
    </g>
    <g clip-path="url(#pe6b2dddeaa)">
     <use xlink:href="#C0_0_5836410374" x="74.623631" y="42.354831" style="fill: #66c2a5"/>
    </g>
    <g clip-path="url(#pe6b2dddeaa)">
     <use xlink:href="#C0_0_5836410374" x="67.437781" y="42.354831" style="fill: #66c2a5"/>
    </g>
    <g clip-path="url(#pe6b2dddeaa)">
     <use xlink:href="#C0_0_5836410374" x="73.405321" y="46.781446" style="fill: #66c2a5"/>
    </g>
    <g clip-path="url(#pe6b2dddeaa)">
     <use xlink:href="#C0_0_5836410374" x="69.390793" y="46.781446" style="fill: #66c2a5"/>
    </g>
    <g clip-path="url(#pe6b2dddeaa)">
     <use xlink:href="#C0_0_5836410374" x="66.352892" y="36.139678" style="fill: #66c2a5"/>
    </g>
    <g clip-path="url(#pe6b2dddeaa)">
     <use xlink:href="#C0_0_5836410374" x="66.53116" y="36.139678" style="fill: #66c2a5"/>
    </g>
    <g clip-path="url(#pe6b2dddeaa)">
     <use xlink:href="#C0_0_5836410374" x="78.194326" y="38.733677" style="fill: #66c2a5"/>
    </g>
    <g clip-path="url(#pe6b2dddeaa)">
     <use xlink:href="#C0_0_5836410374" x="68.476371" y="38.733677" style="fill: #66c2a5"/>
    </g>
    <g clip-path="url(#pe6b2dddeaa)">
     <use xlink:href="#C0_0_5836410374" x="70.204664" y="38.513683" style="fill: #66c2a5"/>
    </g>
    <g clip-path="url(#pe6b2dddeaa)">
     <use xlink:href="#C0_0_5836410374" x="72.045456" y="30.097112" style="fill: #66c2a5"/>
    </g>
    <g clip-path="url(#pe6b2dddeaa)">
     <use xlink:href="#C0_0_5836410374" x="71.400489" y="42.073529" style="fill: #66c2a5"/>
    </g>
    <g clip-path="url(#pe6b2dddeaa)">
     <use xlink:href="#C0_0_5836410374" x="70.97553" y="46.222382" style="fill: #66c2a5"/>
    </g>
    <g clip-path="url(#pe6b2dddeaa)">
     <use xlink:href="#C0_0_5836410374" x="77.700505" y="38.86138" style="fill: #66c2a5"/>
    </g>
    <g clip-path="url(#pe6b2dddeaa)">
     <use xlink:href="#C0_0_5836410374" x="70.28733" y="38.86138" style="fill: #66c2a5"/>
    </g>
    <g clip-path="url(#pe6b2dddeaa)">
     <use xlink:href="#C0_0_5836410374" x="68.357397" y="38.769515" style="fill: #66c2a5"/>
    </g>
    <g clip-path="url(#pe6b2dddeaa)">
     <use xlink:href="#C0_0_5836410374" x="78.894849" y="38.769515" style="fill: #66c2a5"/>
    </g>
    <g clip-path="url(#pe6b2dddeaa)">
     <use xlink:href="#C0_0_5836410374" x="73.534202" y="39.836307" style="fill: #66c2a5"/>
    </g>
    <g clip-path="url(#pe6b2dddeaa)">
     <use xlink:href="#C0_0_5836410374" x="71.354255" y="39.836307" style="fill: #66c2a5"/>
    </g>
    <g clip-path="url(#pe6b2dddeaa)">
     <use xlink:href="#C0_0_5836410374" x="66.989165" y="38.021713" style="fill: #66c2a5"/>
    </g>
    <g clip-path="url(#pe6b2dddeaa)">
     <use xlink:href="#C0_0_5836410374" x="68.364663" y="38.021713" style="fill: #66c2a5"/>
    </g>
    <g clip-path="url(#pe6b2dddeaa)">
     <use xlink:href="#C0_0_5836410374" x="67.078282" y="37.923615" style="fill: #66c2a5"/>
    </g>
    <g clip-path="url(#pe6b2dddeaa)">
     <use xlink:href="#C0_0_5836410374" x="75.4037" y="37.923615" style="fill: #66c2a5"/>
    </g>
    <g clip-path="url(#pe6b2dddeaa)">
     <use xlink:href="#C0_0_5836410374" x="69.193643" y="39.636981" style="fill: #66c2a5"/>
    </g>
    <g clip-path="url(#pe6b2dddeaa)">
     <use xlink:href="#C0_0_5836410374" x="78.843363" y="46.222382" style="fill: #66c2a5"/>
    </g>
    <g clip-path="url(#pe6b2dddeaa)">
     <use xlink:href="#C0_0_5836410374" x="67.241313" y="34.154" style="fill: #66c2a5"/>
    </g>
    <g clip-path="url(#pe6b2dddeaa)">
     <use xlink:href="#C0_0_5836410374" x="67.60688" y="38.513683" style="fill: #66c2a5"/>
    </g>
    <g clip-path="url(#pe6b2dddeaa)">
     <use xlink:href="#C0_0_5836410374" x="72.438573" y="34.412411" style="fill: #66c2a5"/>
    </g>
    <g clip-path="url(#pe6b2dddeaa)">
     <use xlink:href="#C0_0_5836410374" x="72.502006" y="34.154" style="fill: #66c2a5"/>
    </g>
    <g clip-path="url(#pe6b2dddeaa)">
     <use xlink:href="#C0_0_5836410374" x="68.973711" y="28.189281" style="fill: #66c2a5"/>
    </g>
    <g clip-path="url(#pe6b2dddeaa)">
     <use xlink:href="#C0_0_5836410374" x="79.341469" y="43.265179" style="fill: #66c2a5"/>
    </g>
    <g clip-path="url(#pe6b2dddeaa)">
     <use xlink:href="#C0_0_5836410374" x="68.772492" y="43.265179" style="fill: #66c2a5"/>
    </g>
    <g clip-path="url(#pe6b2dddeaa)">
     <use xlink:href="#C0_0_5836410374" x="70.225249" y="31.976187" style="fill: #66c2a5"/>
    </g>
    <g clip-path="url(#pe6b2dddeaa)">
     <use xlink:href="#C0_0_5836410374" x="77.440435" y="31.976187" style="fill: #66c2a5"/>
    </g>
    <g clip-path="url(#pe6b2dddeaa)">
     <use xlink:href="#C0_0_5836410374" x="69.300297" y="40.767995" style="fill: #66c2a5"/>
    </g>
    <g clip-path="url(#pe6b2dddeaa)">
     <use xlink:href="#C0_0_5836410374" x="77.562682" y="41.51309" style="fill: #66c2a5"/>
    </g>
    <g clip-path="url(#pe6b2dddeaa)">
     <use xlink:href="#C0_0_5836410374" x="73.028138" y="41.51309" style="fill: #66c2a5"/>
    </g>
    <g clip-path="url(#pe6b2dddeaa)">
     <use xlink:href="#C0_0_5836410374" x="73.741224" y="38.958684" style="fill: #66c2a5"/>
    </g>
    <g clip-path="url(#pe6b2dddeaa)">
     <use xlink:href="#C0_0_5836410374" x="67.654006" y="38.958684" style="fill: #66c2a5"/>
    </g>
    <g clip-path="url(#pe6b2dddeaa)">
     <use xlink:href="#C0_0_5836410374" x="75.312416" y="43.282933" style="fill: #66c2a5"/>
    </g>
    <g clip-path="url(#pe6b2dddeaa)">
     <use xlink:href="#C0_0_5836410374" x="76.167842" y="40.767995" style="fill: #66c2a5"/>
    </g>
    <g clip-path="url(#pe6b2dddeaa)">
     <use xlink:href="#C0_0_5836410374" x="74.788804" y="39.212718" style="fill: #66c2a5"/>
    </g>
    <g clip-path="url(#pe6b2dddeaa)">
     <use xlink:href="#C0_0_5836410374" x="67.33627" y="43.282933" style="fill: #66c2a5"/>
    </g>
    <g clip-path="url(#pe6b2dddeaa)">
     <use xlink:href="#C0_0_5836410374" x="75.443841" y="39.561434" style="fill: #66c2a5"/>
    </g>
    <g clip-path="url(#pe6b2dddeaa)">
     <use xlink:href="#C0_0_5836410374" x="77.695254" y="39.561434" style="fill: #66c2a5"/>
    </g>
    <g clip-path="url(#pe6b2dddeaa)">
     <use xlink:href="#C0_0_5836410374" x="67.957726" y="40.632319" style="fill: #66c2a5"/>
    </g>
    <g clip-path="url(#pe6b2dddeaa)">
     <use xlink:href="#C0_0_5836410374" x="78.460272" y="40.632319" style="fill: #66c2a5"/>
    </g>
    <g clip-path="url(#pe6b2dddeaa)">
     <use xlink:href="#C0_0_5836410374" x="70.356703" y="34.412411" style="fill: #66c2a5"/>
    </g>
    <g clip-path="url(#pe6b2dddeaa)">
     <use xlink:href="#C0_0_5836410374" x="74.372353" y="46.816626" style="fill: #66c2a5"/>
    </g>
    <g clip-path="url(#pe6b2dddeaa)">
     <use xlink:href="#C0_0_5836410374" x="75.705682" y="40.323174" style="fill: #66c2a5"/>
    </g>
    <g clip-path="url(#pe6b2dddeaa)">
     <use xlink:href="#C0_0_5836410374" x="67.618111" y="40.323174" style="fill: #66c2a5"/>
    </g>
    <g clip-path="url(#pe6b2dddeaa)">
     <use xlink:href="#C0_0_5836410374" x="77.502356" y="39.212718" style="fill: #66c2a5"/>
    </g>
    <g clip-path="url(#pe6b2dddeaa)">
     <use xlink:href="#C0_0_5836410374" x="75.732266" y="46.816626" style="fill: #66c2a5"/>
    </g>
   </g>
   <g id="PathCollection_2">
    <defs>
     <path id="C1_0_881bd21766" d="M 0 0.55 
C 0.145862 0.55 0.285769 0.492049 0.388909 0.388909 
C 0.492049 0.285769 0.55 0.145862 0.55 -0 
C 0.55 -0.145862 0.492049 -0.285769 0.388909 -0.388909 
C 0.285769 -0.492049 0.145862 -0.55 0 -0.55 
C -0.145862 -0.55 -0.285769 -0.492049 -0.388909 -0.388909 
C -0.492049 -0.285769 -0.55 -0.145862 -0.55 0 
C -0.55 0.145862 -0.492049 0.285769 -0.388909 0.388909 
C -0.285769 0.492049 -0.145862 0.55 0 0.55 
z
"/>
    </defs>
    <g clip-path="url(#pe6b2dddeaa)">
     <use xlink:href="#C1_0_881bd21766" x="137.432182" y="43.381261" style="fill: #fc8d62"/>
    </g>
    <g clip-path="url(#pe6b2dddeaa)">
     <use xlink:href="#C1_0_881bd21766" x="132.744773" y="43.055089" style="fill: #fc8d62"/>
    </g>
    <g clip-path="url(#pe6b2dddeaa)">
     <use xlink:href="#C1_0_881bd21766" x="140.379991" y="44.881415" style="fill: #fc8d62"/>
    </g>
    <g clip-path="url(#pe6b2dddeaa)">
     <use xlink:href="#C1_0_881bd21766" x="135.477342" y="41.535013" style="fill: #fc8d62"/>
    </g>
    <g clip-path="url(#pe6b2dddeaa)">
     <use xlink:href="#C1_0_881bd21766" x="134.961903" y="42.405765" style="fill: #fc8d62"/>
    </g>
    <g clip-path="url(#pe6b2dddeaa)">
     <use xlink:href="#C1_0_881bd21766" x="140.689227" y="46.398719" style="fill: #fc8d62"/>
    </g>
    <g clip-path="url(#pe6b2dddeaa)">
     <use xlink:href="#C1_0_881bd21766" x="132.7633" y="42.248487" style="fill: #fc8d62"/>
    </g>
    <g clip-path="url(#pe6b2dddeaa)">
     <use xlink:href="#C1_0_881bd21766" x="138.999241" y="35.526004" style="fill: #fc8d62"/>
    </g>
    <g clip-path="url(#pe6b2dddeaa)">
     <use xlink:href="#C1_0_881bd21766" x="138.436409" y="40.388199" style="fill: #fc8d62"/>
    </g>
    <g clip-path="url(#pe6b2dddeaa)">
     <use xlink:href="#C1_0_881bd21766" x="139.63539" y="33.373168" style="fill: #fc8d62"/>
    </g>
   </g>
   <g id="text_10">
    <!-- Anat -->
    <g style="fill: #262626" transform="translate(87.315512 13.821875) scale(0.1 -0.1)">
     <defs>
      <path id="TimesNewRomanPS-BoldMT-41" d="M 2663 1206 
L 1166 1206 
L 988 794 
Q 900 588 900 453 
Q 900 275 1044 191 
Q 1128 141 1459 116 
L 1459 0 
L 50 0 
L 50 116 
Q 278 150 425 304 
Q 572 459 788 944 
L 2303 4325 
L 2363 4325 
L 3891 850 
Q 4109 356 4250 228 
Q 4356 131 4550 116 
L 4550 0 
L 2500 0 
L 2500 116 
L 2584 116 
Q 2831 116 2931 184 
Q 3000 234 3000 328 
Q 3000 384 2981 444 
Q 2975 472 2888 678 
L 2663 1206 
z
M 2556 1438 
L 1925 2897 
L 1275 1438 
L 2556 1438 
z
" transform="scale(0.015625)"/>
      <path id="TimesNewRomanPS-BoldMT-6e" d="M 1409 2922 
L 1409 2544 
Q 1634 2788 1840 2898 
Q 2047 3009 2284 3009 
Q 2569 3009 2756 2851 
Q 2944 2694 3006 2459 
Q 3056 2281 3056 1775 
L 3056 638 
Q 3056 300 3117 217 
Q 3178 134 3372 113 
L 3372 0 
L 1894 0 
L 1894 113 
Q 2059 134 2131 250 
Q 2181 328 2181 638 
L 2181 1938 
Q 2181 2297 2153 2390 
Q 2125 2484 2058 2536 
Q 1991 2588 1909 2588 
Q 1641 2588 1409 2203 
L 1409 638 
Q 1409 309 1470 221 
Q 1531 134 1697 113 
L 1697 0 
L 219 0 
L 219 113 
Q 403 131 481 231 
Q 534 300 534 638 
L 534 2288 
Q 534 2619 473 2700 
Q 413 2781 219 2806 
L 219 2922 
L 1409 2922 
z
" transform="scale(0.015625)"/>
      <path id="TimesNewRomanPS-BoldMT-61" d="M 1828 431 
Q 1294 -41 869 -41 
Q 619 -41 453 123 
Q 288 288 288 534 
Q 288 869 575 1136 
Q 863 1403 1828 1847 
L 1828 2141 
Q 1828 2472 1792 2558 
Q 1756 2644 1656 2708 
Q 1556 2772 1431 2772 
Q 1228 2772 1097 2681 
Q 1016 2625 1016 2550 
Q 1016 2484 1103 2388 
Q 1222 2253 1222 2128 
Q 1222 1975 1108 1867 
Q 994 1759 809 1759 
Q 613 1759 480 1878 
Q 347 1997 347 2156 
Q 347 2381 525 2586 
Q 703 2791 1022 2900 
Q 1341 3009 1684 3009 
Q 2100 3009 2342 2832 
Q 2584 2656 2656 2450 
Q 2700 2319 2700 1847 
L 2700 713 
Q 2700 513 2715 461 
Q 2731 409 2762 384 
Q 2794 359 2834 359 
Q 2916 359 3000 475 
L 3094 400 
Q 2938 169 2770 64 
Q 2603 -41 2391 -41 
Q 2141 -41 2000 76 
Q 1859 194 1828 431 
z
M 1828 659 
L 1828 1638 
Q 1450 1416 1266 1163 
Q 1144 994 1144 822 
Q 1144 678 1247 569 
Q 1325 484 1466 484 
Q 1622 484 1828 659 
z
" transform="scale(0.015625)"/>
      <path id="TimesNewRomanPS-BoldMT-74" d="M 1375 3991 
L 1375 2922 
L 2069 2922 
L 2069 2613 
L 1375 2613 
L 1375 809 
Q 1375 556 1398 482 
Q 1422 409 1481 364 
Q 1541 319 1591 319 
Q 1794 319 1975 628 
L 2069 559 
Q 1816 -41 1247 -41 
Q 969 -41 776 114 
Q 584 269 531 459 
Q 500 566 500 1034 
L 500 2613 
L 119 2613 
L 119 2722 
Q 513 3000 789 3306 
Q 1066 3613 1272 3991 
L 1375 3991 
z
" transform="scale(0.015625)"/>
     </defs>
     <use xlink:href="#TimesNewRomanPS-BoldMT-41"/>
     <use xlink:href="#TimesNewRomanPS-BoldMT-6e" x="72.216797"/>
     <use xlink:href="#TimesNewRomanPS-BoldMT-61" x="127.832031"/>
     <use xlink:href="#TimesNewRomanPS-BoldMT-74" x="177.832031"/>
    </g>
   </g>
  </g>
 </g>
 <defs>
  <clipPath id="pe6b2dddeaa">
   <rect x="31.96625" y="19.821875" width="131.811024" height="64.204724"/>
  </clipPath>
  <clipPath id="pc6077bf869">
   <rect x="38.556801" y="22.740272" width="26.362205" height="58.367931"/>
  </clipPath>
  <clipPath id="pe49458032d">
   <rect x="104.462313" y="28.30078" width="26.362205" height="23.170326"/>
  </clipPath>
 </defs>
</svg>
