<?xml version="1.0" encoding="utf-8" standalone="no"?>
<!DOCTYPE svg PUBLIC "-//W3C//DTD SVG 1.1//EN"
  "http://www.w3.org/Graphics/SVG/1.1/DTD/svg11.dtd">
<svg xmlns:xlink="http://www.w3.org/1999/xlink" width="176.992274pt" height="125.444857pt" viewBox="0 0 176.992274 125.444857" xmlns="http://www.w3.org/2000/svg" version="1.1">
 <metadata>
  <rdf:RDF xmlns:dc="http://purl.org/dc/elements/1.1/" xmlns:cc="http://creativecommons.org/ns#" xmlns:rdf="http://www.w3.org/1999/02/22-rdf-syntax-ns#">
   <cc:Work>
    <dc:type rdf:resource="http://purl.org/dc/dcmitype/StillImage"/>
    <dc:date>2024-04-15T15:27:41.939491</dc:date>
    <dc:format>image/svg+xml</dc:format>
    <dc:creator>
     <cc:Agent>
      <dc:title>Matplotlib v3.8.3, https://matplotlib.org/</dc:title>
     </cc:Agent>
    </dc:creator>
   </cc:Work>
  </rdf:RDF>
 </metadata>
 <defs>
  <style type="text/css">*{stroke-linejoin: round; stroke-linecap: butt}</style>
 </defs>
 <g id="figure_1">
  <g id="patch_1">
   <path d="M 0 125.444857 
L 176.992274 125.444857 
L 176.992274 0 
L 0 0 
z
" style="fill: #ffffff"/>
  </g>
  <g id="axes_1">
   <g id="patch_2">
    <path d="M 37.98125 84.026599 
L 169.792274 84.026599 
L 169.792274 19.821875 
L 37.98125 19.821875 
z
" style="fill: #ffffff"/>
   </g>
   <g id="matplotlib.axis_1">
    <g id="xtick_1">
     <g id="line2d_1">
      <path d="M 70.934006 84.026599 
L 70.934006 19.821875 
" clip-path="url(#p4715565c3c)" style="fill: none"/>
     </g>
     <g id="line2d_2">
      <defs>
       <path id="m0af6f6e57d" d="M 0 0 
L 0 2 
" style="stroke: #808080; stroke-width: 0.5"/>
      </defs>
      <g>
       <use xlink:href="#m0af6f6e57d" x="70.934006" y="84.026599" style="fill: #808080; stroke: #808080; stroke-width: 0.5"/>
      </g>
     </g>
     <g id="text_1">
      <!-- 7_m_Lo -->
      <g style="fill: #262626" transform="translate(50.544582 112.612752) rotate(-45) scale(0.08 -0.08)">
       <defs>
        <path id="TimesNewRomanPSMT-37" d="M 644 4238 
L 2916 4238 
L 2916 4119 
L 1503 -88 
L 1153 -88 
L 2419 3728 
L 1253 3728 
Q 900 3728 750 3644 
Q 488 3500 328 3200 
L 238 3234 
L 644 4238 
z
" transform="scale(0.015625)"/>
        <path id="TimesNewRomanPSMT-5f" d="M 3256 -1381 
L -53 -1381 
L -53 -1119 
L 3256 -1119 
L 3256 -1381 
z
" transform="scale(0.015625)"/>
        <path id="TimesNewRomanPSMT-6d" d="M 1050 2338 
Q 1363 2650 1419 2697 
Q 1559 2816 1721 2881 
Q 1884 2947 2044 2947 
Q 2313 2947 2506 2790 
Q 2700 2634 2766 2338 
Q 3088 2713 3309 2830 
Q 3531 2947 3766 2947 
Q 3994 2947 4170 2830 
Q 4347 2713 4450 2447 
Q 4519 2266 4519 1878 
L 4519 647 
Q 4519 378 4559 278 
Q 4591 209 4675 161 
Q 4759 113 4950 113 
L 4950 0 
L 3538 0 
L 3538 113 
L 3597 113 
Q 3781 113 3884 184 
Q 3956 234 3988 344 
Q 4000 397 4000 647 
L 4000 1878 
Q 4000 2228 3916 2372 
Q 3794 2572 3525 2572 
Q 3359 2572 3192 2489 
Q 3025 2406 2788 2181 
L 2781 2147 
L 2788 2013 
L 2788 647 
Q 2788 353 2820 281 
Q 2853 209 2943 161 
Q 3034 113 3253 113 
L 3253 0 
L 1806 0 
L 1806 113 
Q 2044 113 2133 169 
Q 2222 225 2256 338 
Q 2272 391 2272 647 
L 2272 1878 
Q 2272 2228 2169 2381 
Q 2031 2581 1784 2581 
Q 1616 2581 1450 2491 
Q 1191 2353 1050 2181 
L 1050 647 
Q 1050 366 1089 281 
Q 1128 197 1204 155 
Q 1281 113 1516 113 
L 1516 0 
L 100 0 
L 100 113 
Q 297 113 375 155 
Q 453 197 493 289 
Q 534 381 534 647 
L 534 1741 
Q 534 2213 506 2350 
Q 484 2453 437 2492 
Q 391 2531 309 2531 
Q 222 2531 100 2484 
L 53 2597 
L 916 2947 
L 1050 2947 
L 1050 2338 
z
" transform="scale(0.015625)"/>
        <path id="TimesNewRomanPSMT-4c" d="M 3669 1172 
L 3772 1150 
L 3409 0 
L 128 0 
L 128 116 
L 288 116 
Q 556 116 672 291 
Q 738 391 738 753 
L 738 3488 
Q 738 3884 650 3984 
Q 528 4122 288 4122 
L 128 4122 
L 128 4238 
L 2047 4238 
L 2047 4122 
Q 1709 4125 1573 4059 
Q 1438 3994 1388 3894 
Q 1338 3794 1338 3416 
L 1338 753 
Q 1338 494 1388 397 
Q 1425 331 1503 300 
Q 1581 269 1991 269 
L 2300 269 
Q 2788 269 2984 341 
Q 3181 413 3343 595 
Q 3506 778 3669 1172 
z
" transform="scale(0.015625)"/>
        <path id="TimesNewRomanPSMT-6f" d="M 1600 2947 
Q 2250 2947 2644 2453 
Q 2978 2031 2978 1484 
Q 2978 1100 2793 706 
Q 2609 313 2286 112 
Q 1963 -88 1566 -88 
Q 919 -88 538 428 
Q 216 863 216 1403 
Q 216 1797 411 2186 
Q 606 2575 925 2761 
Q 1244 2947 1600 2947 
z
M 1503 2744 
Q 1338 2744 1170 2645 
Q 1003 2547 900 2300 
Q 797 2053 797 1666 
Q 797 1041 1045 587 
Q 1294 134 1700 134 
Q 2003 134 2200 384 
Q 2397 634 2397 1244 
Q 2397 2006 2069 2444 
Q 1847 2744 1503 2744 
z
" transform="scale(0.015625)"/>
       </defs>
       <use xlink:href="#TimesNewRomanPSMT-37"/>
       <use xlink:href="#TimesNewRomanPSMT-5f" x="50"/>
       <use xlink:href="#TimesNewRomanPSMT-6d" x="100"/>
       <use xlink:href="#TimesNewRomanPSMT-5f" x="177.783203"/>
       <use xlink:href="#TimesNewRomanPSMT-4c" x="227.783203"/>
       <use xlink:href="#TimesNewRomanPSMT-6f" x="288.867188"/>
      </g>
     </g>
    </g>
    <g id="xtick_2">
     <g id="line2d_3">
      <path d="M 136.839518 84.026599 
L 136.839518 19.821875 
" clip-path="url(#p4715565c3c)" style="fill: none"/>
     </g>
     <g id="line2d_4">
      <g>
       <use xlink:href="#m0af6f6e57d" x="136.839518" y="84.026599" style="fill: #808080; stroke: #808080; stroke-width: 0.5"/>
      </g>
     </g>
     <g id="text_2">
      <!-- 94_m_Rei -->
      <g style="fill: #262626" transform="translate(112.049238 117.024214) rotate(-45) scale(0.08 -0.08)">
       <defs>
        <path id="TimesNewRomanPSMT-39" d="M 338 -88 
L 338 28 
Q 744 34 1094 217 
Q 1444 400 1770 856 
Q 2097 1313 2225 1859 
Q 1734 1544 1338 1544 
Q 891 1544 572 1889 
Q 253 2234 253 2806 
Q 253 3363 572 3797 
Q 956 4325 1575 4325 
Q 2097 4325 2469 3894 
Q 2925 3359 2925 2575 
Q 2925 1869 2578 1258 
Q 2231 647 1613 244 
Q 1109 -88 516 -88 
L 338 -88 
z
M 2275 2091 
Q 2331 2497 2331 2741 
Q 2331 3044 2228 3395 
Q 2125 3747 1936 3934 
Q 1747 4122 1506 4122 
Q 1228 4122 1018 3872 
Q 809 3622 809 3128 
Q 809 2469 1088 2097 
Q 1291 1828 1588 1828 
Q 1731 1828 1928 1897 
Q 2125 1966 2275 2091 
z
" transform="scale(0.015625)"/>
        <path id="TimesNewRomanPSMT-34" d="M 2978 1563 
L 2978 1119 
L 2409 1119 
L 2409 0 
L 1894 0 
L 1894 1119 
L 100 1119 
L 100 1519 
L 2066 4325 
L 2409 4325 
L 2409 1563 
L 2978 1563 
z
M 1894 1563 
L 1894 3666 
L 406 1563 
L 1894 1563 
z
" transform="scale(0.015625)"/>
        <path id="TimesNewRomanPSMT-52" d="M 4325 0 
L 3194 0 
L 1759 1981 
Q 1600 1975 1500 1975 
Q 1459 1975 1412 1976 
Q 1366 1978 1316 1981 
L 1316 750 
Q 1316 350 1403 253 
Q 1522 116 1759 116 
L 1925 116 
L 1925 0 
L 109 0 
L 109 116 
L 269 116 
Q 538 116 653 291 
Q 719 388 719 750 
L 719 3488 
Q 719 3888 631 3984 
Q 509 4122 269 4122 
L 109 4122 
L 109 4238 
L 1653 4238 
Q 2328 4238 2648 4139 
Q 2969 4041 3192 3777 
Q 3416 3513 3416 3147 
Q 3416 2756 3161 2468 
Q 2906 2181 2372 2063 
L 3247 847 
Q 3547 428 3762 290 
Q 3978 153 4325 116 
L 4325 0 
z
M 1316 2178 
Q 1375 2178 1419 2176 
Q 1463 2175 1491 2175 
Q 2097 2175 2405 2437 
Q 2713 2700 2713 3106 
Q 2713 3503 2464 3751 
Q 2216 4000 1806 4000 
Q 1625 4000 1316 3941 
L 1316 2178 
z
" transform="scale(0.015625)"/>
        <path id="TimesNewRomanPSMT-65" d="M 681 1784 
Q 678 1147 991 784 
Q 1303 422 1725 422 
Q 2006 422 2214 576 
Q 2422 731 2563 1106 
L 2659 1044 
Q 2594 616 2278 264 
Q 1963 -88 1488 -88 
Q 972 -88 605 314 
Q 238 716 238 1394 
Q 238 2128 614 2539 
Q 991 2950 1559 2950 
Q 2041 2950 2350 2633 
Q 2659 2316 2659 1784 
L 681 1784 
z
M 681 1966 
L 2006 1966 
Q 1991 2241 1941 2353 
Q 1863 2528 1708 2628 
Q 1553 2728 1384 2728 
Q 1125 2728 920 2526 
Q 716 2325 681 1966 
z
" transform="scale(0.015625)"/>
        <path id="TimesNewRomanPSMT-69" d="M 928 4444 
Q 1059 4444 1151 4351 
Q 1244 4259 1244 4128 
Q 1244 3997 1151 3903 
Q 1059 3809 928 3809 
Q 797 3809 703 3903 
Q 609 3997 609 4128 
Q 609 4259 701 4351 
Q 794 4444 928 4444 
z
M 1188 2947 
L 1188 647 
Q 1188 378 1227 289 
Q 1266 200 1342 156 
Q 1419 113 1622 113 
L 1622 0 
L 231 0 
L 231 113 
Q 441 113 512 153 
Q 584 194 626 287 
Q 669 381 669 647 
L 669 1750 
Q 669 2216 641 2353 
Q 619 2453 572 2492 
Q 525 2531 444 2531 
Q 356 2531 231 2484 
L 188 2597 
L 1050 2947 
L 1188 2947 
z
" transform="scale(0.015625)"/>
       </defs>
       <use xlink:href="#TimesNewRomanPSMT-39"/>
       <use xlink:href="#TimesNewRomanPSMT-34" x="50"/>
       <use xlink:href="#TimesNewRomanPSMT-5f" x="100"/>
       <use xlink:href="#TimesNewRomanPSMT-6d" x="150"/>
       <use xlink:href="#TimesNewRomanPSMT-5f" x="227.783203"/>
       <use xlink:href="#TimesNewRomanPSMT-52" x="277.783203"/>
       <use xlink:href="#TimesNewRomanPSMT-65" x="344.482422"/>
       <use xlink:href="#TimesNewRomanPSMT-69" x="388.867188"/>
      </g>
     </g>
    </g>
   </g>
   <g id="matplotlib.axis_2">
    <g id="ytick_1">
     <g id="line2d_5">
      <path d="M 37.98125 82.623597 
L 169.792274 82.623597 
" clip-path="url(#p4715565c3c)" style="fill: none"/>
     </g>
     <g id="line2d_6">
      <defs>
       <path id="mfe881f1da6" d="M 0 0 
L -2 0 
" style="stroke: #808080; stroke-width: 0.5"/>
      </defs>
      <g>
       <use xlink:href="#mfe881f1da6" x="37.98125" y="82.623597" style="fill: #808080; stroke: #808080; stroke-width: 0.5"/>
      </g>
     </g>
     <g id="text_3">
      <!-- 27.5 -->
      <g style="fill: #262626" transform="translate(18.48125 85.401097) scale(0.08 -0.08)">
       <defs>
        <path id="TimesNewRomanPSMT-32" d="M 2934 816 
L 2638 0 
L 138 0 
L 138 116 
Q 1241 1122 1691 1759 
Q 2141 2397 2141 2925 
Q 2141 3328 1894 3587 
Q 1647 3847 1303 3847 
Q 991 3847 742 3664 
Q 494 3481 375 3128 
L 259 3128 
Q 338 3706 661 4015 
Q 984 4325 1469 4325 
Q 1984 4325 2329 3994 
Q 2675 3663 2675 3213 
Q 2675 2891 2525 2569 
Q 2294 2063 1775 1497 
Q 997 647 803 472 
L 1909 472 
Q 2247 472 2383 497 
Q 2519 522 2628 598 
Q 2738 675 2819 816 
L 2934 816 
z
" transform="scale(0.015625)"/>
        <path id="TimesNewRomanPSMT-2e" d="M 800 606 
Q 947 606 1047 504 
Q 1147 403 1147 259 
Q 1147 116 1045 14 
Q 944 -88 800 -88 
Q 656 -88 554 14 
Q 453 116 453 259 
Q 453 406 554 506 
Q 656 606 800 606 
z
" transform="scale(0.015625)"/>
        <path id="TimesNewRomanPSMT-35" d="M 2778 4238 
L 2534 3706 
L 1259 3706 
L 981 3138 
Q 1809 3016 2294 2522 
Q 2709 2097 2709 1522 
Q 2709 1188 2573 903 
Q 2438 619 2231 419 
Q 2025 219 1772 97 
Q 1413 -75 1034 -75 
Q 653 -75 479 54 
Q 306 184 306 341 
Q 306 428 378 495 
Q 450 563 559 563 
Q 641 563 702 538 
Q 763 513 909 409 
Q 1144 247 1384 247 
Q 1750 247 2026 523 
Q 2303 800 2303 1197 
Q 2303 1581 2056 1914 
Q 1809 2247 1375 2428 
Q 1034 2569 447 2591 
L 1259 4238 
L 2778 4238 
z
" transform="scale(0.015625)"/>
       </defs>
       <use xlink:href="#TimesNewRomanPSMT-32"/>
       <use xlink:href="#TimesNewRomanPSMT-37" x="50"/>
       <use xlink:href="#TimesNewRomanPSMT-2e" x="100"/>
       <use xlink:href="#TimesNewRomanPSMT-35" x="125"/>
      </g>
     </g>
    </g>
    <g id="ytick_2">
     <g id="line2d_7">
      <path d="M 37.98125 74.014171 
L 169.792274 74.014171 
" clip-path="url(#p4715565c3c)" style="fill: none"/>
     </g>
     <g id="line2d_8">
      <g>
       <use xlink:href="#mfe881f1da6" x="37.98125" y="74.014171" style="fill: #808080; stroke: #808080; stroke-width: 0.5"/>
      </g>
     </g>
     <g id="text_4">
      <!-- 30.0 -->
      <g style="fill: #262626" transform="translate(18.48125 76.791671) scale(0.08 -0.08)">
       <defs>
        <path id="TimesNewRomanPSMT-33" d="M 325 3431 
Q 506 3859 782 4092 
Q 1059 4325 1472 4325 
Q 1981 4325 2253 3994 
Q 2459 3747 2459 3466 
Q 2459 3003 1878 2509 
Q 2269 2356 2469 2072 
Q 2669 1788 2669 1403 
Q 2669 853 2319 450 
Q 1863 -75 997 -75 
Q 569 -75 414 31 
Q 259 138 259 259 
Q 259 350 332 419 
Q 406 488 509 488 
Q 588 488 669 463 
Q 722 447 909 348 
Q 1097 250 1169 231 
Q 1284 197 1416 197 
Q 1734 197 1970 444 
Q 2206 691 2206 1028 
Q 2206 1275 2097 1509 
Q 2016 1684 1919 1775 
Q 1784 1900 1550 2001 
Q 1316 2103 1072 2103 
L 972 2103 
L 972 2197 
Q 1219 2228 1467 2375 
Q 1716 2522 1828 2728 
Q 1941 2934 1941 3181 
Q 1941 3503 1739 3701 
Q 1538 3900 1238 3900 
Q 753 3900 428 3381 
L 325 3431 
z
" transform="scale(0.015625)"/>
        <path id="TimesNewRomanPSMT-30" d="M 231 2094 
Q 231 2819 450 3342 
Q 669 3866 1031 4122 
Q 1313 4325 1613 4325 
Q 2100 4325 2488 3828 
Q 2972 3213 2972 2159 
Q 2972 1422 2759 906 
Q 2547 391 2217 158 
Q 1888 -75 1581 -75 
Q 975 -75 572 641 
Q 231 1244 231 2094 
z
M 844 2016 
Q 844 1141 1059 588 
Q 1238 122 1591 122 
Q 1759 122 1940 273 
Q 2122 425 2216 781 
Q 2359 1319 2359 2297 
Q 2359 3022 2209 3506 
Q 2097 3866 1919 4016 
Q 1791 4119 1609 4119 
Q 1397 4119 1231 3928 
Q 1006 3669 925 3112 
Q 844 2556 844 2016 
z
" transform="scale(0.015625)"/>
       </defs>
       <use xlink:href="#TimesNewRomanPSMT-33"/>
       <use xlink:href="#TimesNewRomanPSMT-30" x="50"/>
       <use xlink:href="#TimesNewRomanPSMT-2e" x="100"/>
       <use xlink:href="#TimesNewRomanPSMT-30" x="125"/>
      </g>
     </g>
    </g>
    <g id="ytick_3">
     <g id="line2d_9">
      <path d="M 37.98125 65.404745 
L 169.792274 65.404745 
" clip-path="url(#p4715565c3c)" style="fill: none"/>
     </g>
     <g id="line2d_10">
      <g>
       <use xlink:href="#mfe881f1da6" x="37.98125" y="65.404745" style="fill: #808080; stroke: #808080; stroke-width: 0.5"/>
      </g>
     </g>
     <g id="text_5">
      <!-- 32.5 -->
      <g style="fill: #262626" transform="translate(18.48125 68.182245) scale(0.08 -0.08)">
       <use xlink:href="#TimesNewRomanPSMT-33"/>
       <use xlink:href="#TimesNewRomanPSMT-32" x="50"/>
       <use xlink:href="#TimesNewRomanPSMT-2e" x="100"/>
       <use xlink:href="#TimesNewRomanPSMT-35" x="125"/>
      </g>
     </g>
    </g>
    <g id="ytick_4">
     <g id="line2d_11">
      <path d="M 37.98125 56.795318 
L 169.792274 56.795318 
" clip-path="url(#p4715565c3c)" style="fill: none"/>
     </g>
     <g id="line2d_12">
      <g>
       <use xlink:href="#mfe881f1da6" x="37.98125" y="56.795318" style="fill: #808080; stroke: #808080; stroke-width: 0.5"/>
      </g>
     </g>
     <g id="text_6">
      <!-- 35.0 -->
      <g style="fill: #262626" transform="translate(18.48125 59.572818) scale(0.08 -0.08)">
       <use xlink:href="#TimesNewRomanPSMT-33"/>
       <use xlink:href="#TimesNewRomanPSMT-35" x="50"/>
       <use xlink:href="#TimesNewRomanPSMT-2e" x="100"/>
       <use xlink:href="#TimesNewRomanPSMT-30" x="125"/>
      </g>
     </g>
    </g>
    <g id="ytick_5">
     <g id="line2d_13">
      <path d="M 37.98125 48.185892 
L 169.792274 48.185892 
" clip-path="url(#p4715565c3c)" style="fill: none"/>
     </g>
     <g id="line2d_14">
      <g>
       <use xlink:href="#mfe881f1da6" x="37.98125" y="48.185892" style="fill: #808080; stroke: #808080; stroke-width: 0.5"/>
      </g>
     </g>
     <g id="text_7">
      <!-- 37.5 -->
      <g style="fill: #262626" transform="translate(18.48125 50.963392) scale(0.08 -0.08)">
       <use xlink:href="#TimesNewRomanPSMT-33"/>
       <use xlink:href="#TimesNewRomanPSMT-37" x="50"/>
       <use xlink:href="#TimesNewRomanPSMT-2e" x="100"/>
       <use xlink:href="#TimesNewRomanPSMT-35" x="125"/>
      </g>
     </g>
    </g>
    <g id="ytick_6">
     <g id="line2d_15">
      <path d="M 37.98125 39.576466 
L 169.792274 39.576466 
" clip-path="url(#p4715565c3c)" style="fill: none"/>
     </g>
     <g id="line2d_16">
      <g>
       <use xlink:href="#mfe881f1da6" x="37.98125" y="39.576466" style="fill: #808080; stroke: #808080; stroke-width: 0.5"/>
      </g>
     </g>
     <g id="text_8">
      <!-- 40.0 -->
      <g style="fill: #262626" transform="translate(18.48125 42.353966) scale(0.08 -0.08)">
       <use xlink:href="#TimesNewRomanPSMT-34"/>
       <use xlink:href="#TimesNewRomanPSMT-30" x="50"/>
       <use xlink:href="#TimesNewRomanPSMT-2e" x="100"/>
       <use xlink:href="#TimesNewRomanPSMT-30" x="125"/>
      </g>
     </g>
    </g>
    <g id="ytick_7">
     <g id="line2d_17">
      <path d="M 37.98125 30.96704 
L 169.792274 30.96704 
" clip-path="url(#p4715565c3c)" style="fill: none"/>
     </g>
     <g id="line2d_18">
      <g>
       <use xlink:href="#mfe881f1da6" x="37.98125" y="30.96704" style="fill: #808080; stroke: #808080; stroke-width: 0.5"/>
      </g>
     </g>
     <g id="text_9">
      <!-- 42.5 -->
      <g style="fill: #262626" transform="translate(18.48125 33.74454) scale(0.08 -0.08)">
       <use xlink:href="#TimesNewRomanPSMT-34"/>
       <use xlink:href="#TimesNewRomanPSMT-32" x="50"/>
       <use xlink:href="#TimesNewRomanPSMT-2e" x="100"/>
       <use xlink:href="#TimesNewRomanPSMT-35" x="125"/>
      </g>
     </g>
    </g>
    <g id="ytick_8">
     <g id="line2d_19">
      <path d="M 37.98125 22.357613 
L 169.792274 22.357613 
" clip-path="url(#p4715565c3c)" style="fill: none"/>
     </g>
     <g id="line2d_20">
      <g>
       <use xlink:href="#mfe881f1da6" x="37.98125" y="22.357613" style="fill: #808080; stroke: #808080; stroke-width: 0.5"/>
      </g>
     </g>
     <g id="text_10">
      <!-- 45.0 -->
      <g style="fill: #262626" transform="translate(18.48125 25.135113) scale(0.08 -0.08)">
       <use xlink:href="#TimesNewRomanPSMT-34"/>
       <use xlink:href="#TimesNewRomanPSMT-35" x="50"/>
       <use xlink:href="#TimesNewRomanPSMT-2e" x="100"/>
       <use xlink:href="#TimesNewRomanPSMT-30" x="125"/>
      </g>
     </g>
    </g>
    <g id="text_11">
     <!-- SNR-Chang (dB) -->
     <g style="fill: #262626" transform="translate(12.755 79.812987) rotate(-90) scale(0.08 -0.08)">
      <defs>
       <path id="TimesNewRomanPSMT-53" d="M 2934 4334 
L 2934 2869 
L 2819 2869 
Q 2763 3291 2617 3541 
Q 2472 3791 2203 3937 
Q 1934 4084 1647 4084 
Q 1322 4084 1109 3886 
Q 897 3688 897 3434 
Q 897 3241 1031 3081 
Q 1225 2847 1953 2456 
Q 2547 2138 2764 1967 
Q 2981 1797 3098 1565 
Q 3216 1334 3216 1081 
Q 3216 600 2842 251 
Q 2469 -97 1881 -97 
Q 1697 -97 1534 -69 
Q 1438 -53 1133 45 
Q 828 144 747 144 
Q 669 144 623 97 
Q 578 50 556 -97 
L 441 -97 
L 441 1356 
L 556 1356 
Q 638 900 775 673 
Q 913 447 1195 297 
Q 1478 147 1816 147 
Q 2206 147 2432 353 
Q 2659 559 2659 841 
Q 2659 997 2573 1156 
Q 2488 1316 2306 1453 
Q 2184 1547 1640 1851 
Q 1097 2156 867 2337 
Q 638 2519 519 2737 
Q 400 2956 400 3219 
Q 400 3675 750 4004 
Q 1100 4334 1641 4334 
Q 1978 4334 2356 4169 
Q 2531 4091 2603 4091 
Q 2684 4091 2736 4139 
Q 2788 4188 2819 4334 
L 2934 4334 
z
" transform="scale(0.015625)"/>
       <path id="TimesNewRomanPSMT-4e" d="M -84 4238 
L 1066 4238 
L 3656 1059 
L 3656 3503 
Q 3656 3894 3569 3991 
Q 3453 4122 3203 4122 
L 3056 4122 
L 3056 4238 
L 4531 4238 
L 4531 4122 
L 4381 4122 
Q 4113 4122 4000 3959 
Q 3931 3859 3931 3503 
L 3931 -69 
L 3819 -69 
L 1025 3344 
L 1025 734 
Q 1025 344 1109 247 
Q 1228 116 1475 116 
L 1625 116 
L 1625 0 
L 150 0 
L 150 116 
L 297 116 
Q 569 116 681 278 
Q 750 378 750 734 
L 750 3681 
Q 566 3897 470 3965 
Q 375 4034 191 4094 
Q 100 4122 -84 4122 
L -84 4238 
z
" transform="scale(0.015625)"/>
       <path id="TimesNewRomanPSMT-2d" d="M 259 1672 
L 1875 1672 
L 1875 1200 
L 259 1200 
L 259 1672 
z
" transform="scale(0.015625)"/>
       <path id="TimesNewRomanPSMT-43" d="M 3853 4334 
L 3950 2894 
L 3853 2894 
Q 3659 3541 3300 3825 
Q 2941 4109 2438 4109 
Q 2016 4109 1675 3895 
Q 1334 3681 1139 3212 
Q 944 2744 944 2047 
Q 944 1472 1128 1050 
Q 1313 628 1683 403 
Q 2053 178 2528 178 
Q 2941 178 3256 354 
Q 3572 531 3950 1056 
L 4047 994 
Q 3728 428 3303 165 
Q 2878 -97 2294 -97 
Q 1241 -97 663 684 
Q 231 1266 231 2053 
Q 231 2688 515 3219 
Q 800 3750 1298 4042 
Q 1797 4334 2388 4334 
Q 2847 4334 3294 4109 
Q 3425 4041 3481 4041 
Q 3566 4041 3628 4100 
Q 3709 4184 3744 4334 
L 3853 4334 
z
" transform="scale(0.015625)"/>
       <path id="TimesNewRomanPSMT-68" d="M 1041 4444 
L 1041 2350 
Q 1388 2731 1591 2839 
Q 1794 2947 1997 2947 
Q 2241 2947 2416 2812 
Q 2591 2678 2675 2391 
Q 2734 2191 2734 1659 
L 2734 647 
Q 2734 375 2778 275 
Q 2809 200 2884 156 
Q 2959 113 3159 113 
L 3159 0 
L 1753 0 
L 1753 113 
L 1819 113 
Q 2019 113 2097 173 
Q 2175 234 2206 353 
Q 2216 403 2216 647 
L 2216 1659 
Q 2216 2128 2167 2275 
Q 2119 2422 2012 2495 
Q 1906 2569 1756 2569 
Q 1603 2569 1437 2487 
Q 1272 2406 1041 2159 
L 1041 647 
Q 1041 353 1073 281 
Q 1106 209 1195 161 
Q 1284 113 1503 113 
L 1503 0 
L 84 0 
L 84 113 
Q 275 113 384 172 
Q 447 203 484 290 
Q 522 378 522 647 
L 522 3238 
Q 522 3728 498 3840 
Q 475 3953 426 3993 
Q 378 4034 297 4034 
Q 231 4034 84 3984 
L 41 4094 
L 897 4444 
L 1041 4444 
z
" transform="scale(0.015625)"/>
       <path id="TimesNewRomanPSMT-61" d="M 1822 413 
Q 1381 72 1269 19 
Q 1100 -59 909 -59 
Q 613 -59 420 144 
Q 228 347 228 678 
Q 228 888 322 1041 
Q 450 1253 767 1440 
Q 1084 1628 1822 1897 
L 1822 2009 
Q 1822 2438 1686 2597 
Q 1550 2756 1291 2756 
Q 1094 2756 978 2650 
Q 859 2544 859 2406 
L 866 2225 
Q 866 2081 792 2003 
Q 719 1925 600 1925 
Q 484 1925 411 2006 
Q 338 2088 338 2228 
Q 338 2497 613 2722 
Q 888 2947 1384 2947 
Q 1766 2947 2009 2819 
Q 2194 2722 2281 2516 
Q 2338 2381 2338 1966 
L 2338 994 
Q 2338 584 2353 492 
Q 2369 400 2405 369 
Q 2441 338 2488 338 
Q 2538 338 2575 359 
Q 2641 400 2828 588 
L 2828 413 
Q 2478 -56 2159 -56 
Q 2006 -56 1915 50 
Q 1825 156 1822 413 
z
M 1822 616 
L 1822 1706 
Q 1350 1519 1213 1441 
Q 966 1303 859 1153 
Q 753 1003 753 825 
Q 753 600 887 451 
Q 1022 303 1197 303 
Q 1434 303 1822 616 
z
" transform="scale(0.015625)"/>
       <path id="TimesNewRomanPSMT-6e" d="M 1034 2341 
Q 1538 2947 1994 2947 
Q 2228 2947 2397 2830 
Q 2566 2713 2666 2444 
Q 2734 2256 2734 1869 
L 2734 647 
Q 2734 375 2778 278 
Q 2813 200 2889 156 
Q 2966 113 3172 113 
L 3172 0 
L 1756 0 
L 1756 113 
L 1816 113 
Q 2016 113 2095 173 
Q 2175 234 2206 353 
Q 2219 400 2219 647 
L 2219 1819 
Q 2219 2209 2117 2386 
Q 2016 2563 1775 2563 
Q 1403 2563 1034 2156 
L 1034 647 
Q 1034 356 1069 288 
Q 1113 197 1189 155 
Q 1266 113 1500 113 
L 1500 0 
L 84 0 
L 84 113 
L 147 113 
Q 366 113 442 223 
Q 519 334 519 647 
L 519 1709 
Q 519 2225 495 2337 
Q 472 2450 423 2490 
Q 375 2531 294 2531 
Q 206 2531 84 2484 
L 38 2597 
L 900 2947 
L 1034 2947 
L 1034 2341 
z
" transform="scale(0.015625)"/>
       <path id="TimesNewRomanPSMT-67" d="M 966 1044 
Q 703 1172 562 1401 
Q 422 1631 422 1909 
Q 422 2334 742 2640 
Q 1063 2947 1563 2947 
Q 1972 2947 2272 2747 
L 2878 2747 
Q 3013 2747 3034 2739 
Q 3056 2731 3066 2713 
Q 3084 2684 3084 2613 
Q 3084 2531 3069 2500 
Q 3059 2484 3036 2475 
Q 3013 2466 2878 2466 
L 2506 2466 
Q 2681 2241 2681 1891 
Q 2681 1491 2375 1206 
Q 2069 922 1553 922 
Q 1341 922 1119 984 
Q 981 866 932 777 
Q 884 688 884 625 
Q 884 572 936 522 
Q 988 472 1138 450 
Q 1225 438 1575 428 
Q 2219 413 2409 384 
Q 2700 344 2873 169 
Q 3047 -6 3047 -263 
Q 3047 -616 2716 -925 
Q 2228 -1381 1444 -1381 
Q 841 -1381 425 -1109 
Q 191 -953 191 -784 
Q 191 -709 225 -634 
Q 278 -519 444 -313 
Q 466 -284 763 25 
Q 600 122 533 198 
Q 466 275 466 372 
Q 466 481 555 628 
Q 644 775 966 1044 
z
M 1509 2797 
Q 1278 2797 1122 2612 
Q 966 2428 966 2047 
Q 966 1553 1178 1281 
Q 1341 1075 1591 1075 
Q 1828 1075 1981 1253 
Q 2134 1431 2134 1813 
Q 2134 2309 1919 2591 
Q 1759 2797 1509 2797 
z
M 934 0 
Q 788 -159 713 -296 
Q 638 -434 638 -550 
Q 638 -700 819 -813 
Q 1131 -1006 1722 -1006 
Q 2284 -1006 2551 -807 
Q 2819 -609 2819 -384 
Q 2819 -222 2659 -153 
Q 2497 -84 2016 -72 
Q 1313 -53 934 0 
z
" transform="scale(0.015625)"/>
       <path id="TimesNewRomanPSMT-20" transform="scale(0.015625)"/>
       <path id="TimesNewRomanPSMT-28" d="M 1988 -1253 
L 1988 -1369 
Q 1516 -1131 1200 -813 
Q 750 -359 506 256 
Q 263 872 263 1534 
Q 263 2503 741 3301 
Q 1219 4100 1988 4444 
L 1988 4313 
Q 1603 4100 1356 3731 
Q 1109 3363 987 2797 
Q 866 2231 866 1616 
Q 866 947 969 400 
Q 1050 -31 1165 -292 
Q 1281 -553 1476 -793 
Q 1672 -1034 1988 -1253 
z
" transform="scale(0.015625)"/>
       <path id="TimesNewRomanPSMT-64" d="M 2222 322 
Q 2013 103 1813 7 
Q 1613 -88 1381 -88 
Q 913 -88 563 304 
Q 213 697 213 1313 
Q 213 1928 600 2439 
Q 988 2950 1597 2950 
Q 1975 2950 2222 2709 
L 2222 3238 
Q 2222 3728 2198 3840 
Q 2175 3953 2125 3993 
Q 2075 4034 2000 4034 
Q 1919 4034 1784 3984 
L 1744 4094 
L 2597 4444 
L 2738 4444 
L 2738 1134 
Q 2738 631 2761 520 
Q 2784 409 2836 365 
Q 2888 322 2956 322 
Q 3041 322 3181 375 
L 3216 266 
L 2366 -88 
L 2222 -88 
L 2222 322 
z
M 2222 541 
L 2222 2016 
Q 2203 2228 2109 2403 
Q 2016 2578 1861 2667 
Q 1706 2756 1559 2756 
Q 1284 2756 1069 2509 
Q 784 2184 784 1559 
Q 784 928 1059 592 
Q 1334 256 1672 256 
Q 1956 256 2222 541 
z
" transform="scale(0.015625)"/>
       <path id="TimesNewRomanPSMT-42" d="M 2956 2163 
Q 3397 2069 3616 1863 
Q 3919 1575 3919 1159 
Q 3919 844 3719 555 
Q 3519 266 3170 133 
Q 2822 0 2106 0 
L 106 0 
L 106 116 
L 266 116 
Q 531 116 647 284 
Q 719 394 719 750 
L 719 3488 
Q 719 3881 628 3984 
Q 506 4122 266 4122 
L 106 4122 
L 106 4238 
L 1938 4238 
Q 2450 4238 2759 4163 
Q 3228 4050 3475 3764 
Q 3722 3478 3722 3106 
Q 3722 2788 3528 2536 
Q 3334 2284 2956 2163 
z
M 1319 2331 
Q 1434 2309 1582 2298 
Q 1731 2288 1909 2288 
Q 2366 2288 2595 2386 
Q 2825 2484 2947 2687 
Q 3069 2891 3069 3131 
Q 3069 3503 2766 3765 
Q 2463 4028 1881 4028 
Q 1569 4028 1319 3959 
L 1319 2331 
z
M 1319 306 
Q 1681 222 2034 222 
Q 2600 222 2897 476 
Q 3194 731 3194 1106 
Q 3194 1353 3059 1581 
Q 2925 1809 2622 1940 
Q 2319 2072 1872 2072 
Q 1678 2072 1540 2065 
Q 1403 2059 1319 2044 
L 1319 306 
z
" transform="scale(0.015625)"/>
       <path id="TimesNewRomanPSMT-29" d="M 144 4313 
L 144 4444 
Q 619 4209 934 3891 
Q 1381 3434 1625 2820 
Q 1869 2206 1869 1541 
Q 1869 572 1392 -226 
Q 916 -1025 144 -1369 
L 144 -1253 
Q 528 -1038 776 -670 
Q 1025 -303 1145 264 
Q 1266 831 1266 1447 
Q 1266 2113 1163 2663 
Q 1084 3094 967 3353 
Q 850 3613 656 3853 
Q 463 4094 144 4313 
z
" transform="scale(0.015625)"/>
      </defs>
      <use xlink:href="#TimesNewRomanPSMT-53"/>
      <use xlink:href="#TimesNewRomanPSMT-4e" x="55.615234"/>
      <use xlink:href="#TimesNewRomanPSMT-52" x="127.832031"/>
      <use xlink:href="#TimesNewRomanPSMT-2d" x="194.53125"/>
      <use xlink:href="#TimesNewRomanPSMT-43" x="227.832031"/>
      <use xlink:href="#TimesNewRomanPSMT-68" x="294.53125"/>
      <use xlink:href="#TimesNewRomanPSMT-61" x="344.53125"/>
      <use xlink:href="#TimesNewRomanPSMT-6e" x="388.916016"/>
      <use xlink:href="#TimesNewRomanPSMT-67" x="438.916016"/>
      <use xlink:href="#TimesNewRomanPSMT-20" x="488.916016"/>
      <use xlink:href="#TimesNewRomanPSMT-28" x="513.916016"/>
      <use xlink:href="#TimesNewRomanPSMT-64" x="547.216797"/>
      <use xlink:href="#TimesNewRomanPSMT-42" x="597.216797"/>
      <use xlink:href="#TimesNewRomanPSMT-29" x="663.916016"/>
     </g>
    </g>
   </g>
   <g id="PolyCollection_1">
    <defs>
     <path id="md4d3127c2b" d="M 71.877643 -44.336655 
L 69.990369 -44.336655 
L 69.748911 -44.92623 
L 69.461398 -45.515805 
L 69.123231 -46.10538 
L 68.730326 -46.694955 
L 68.279346 -47.28453 
L 67.767928 -47.874105 
L 67.194889 -48.46368 
L 66.56039 -49.053255 
L 65.866056 -49.64283 
L 65.115024 -50.232405 
L 64.311936 -50.82198 
L 63.462853 -51.411555 
L 62.575111 -52.00113 
L 61.657124 -52.590705 
L 60.71815 -53.180281 
L 59.768029 -53.769856 
L 58.816927 -54.359431 
L 57.875083 -54.949006 
L 56.95258 -55.538581 
L 56.05915 -56.128156 
L 55.204004 -56.717731 
L 54.395691 -57.307306 
L 53.641981 -57.896881 
L 52.949753 -58.486456 
L 52.324888 -59.076031 
L 51.772156 -59.665606 
L 51.295095 -60.255181 
L 50.895882 -60.844756 
L 50.575209 -61.434331 
L 50.33216 -62.023907 
L 50.164125 -62.613482 
L 50.06674 -63.203057 
L 50.033883 -63.792632 
L 50.057737 -64.382207 
L 50.128902 -64.971782 
L 50.236599 -65.561357 
L 50.368913 -66.150932 
L 50.513115 -66.740507 
L 50.656017 -67.330082 
L 50.784374 -67.919657 
L 50.885306 -68.509232 
L 50.946731 -69.098807 
L 50.957812 -69.688382 
L 50.909379 -70.277957 
L 50.794342 -70.867532 
L 50.608059 -71.457108 
L 50.348651 -72.046683 
L 50.017254 -72.636258 
L 49.618167 -73.225833 
L 49.1589 -73.815408 
L 48.650087 -74.404983 
L 48.105266 -74.994558 
L 47.540504 -75.584133 
L 46.973895 -76.173708 
L 46.424915 -76.763283 
L 45.913687 -77.352858 
L 45.460177 -77.942433 
L 45.083364 -78.532008 
L 44.800436 -79.121583 
L 44.626067 -79.711158 
L 44.571801 -80.300733 
L 44.645607 -80.890309 
L 44.851615 -81.479884 
L 45.190051 -82.069459 
L 45.657383 -82.659034 
L 46.246639 -83.248609 
L 46.947892 -83.838184 
L 47.748861 -84.427759 
L 48.635586 -85.017334 
L 49.593124 -85.606909 
L 50.606222 -86.196484 
L 51.659926 -86.786059 
L 52.740089 -87.375634 
L 53.833754 -87.965209 
L 54.929412 -88.554784 
L 56.01712 -89.144359 
L 57.088506 -89.733934 
L 58.136675 -90.32351 
L 59.15604 -90.913085 
L 60.142121 -91.50266 
L 61.091316 -92.092235 
L 62.0007 -92.68181 
L 62.867843 -93.271385 
L 63.690683 -93.86096 
L 64.467443 -94.450535 
L 65.196603 -95.04011 
L 65.876911 -95.629685 
L 66.50743 -96.21926 
L 67.087599 -96.808835 
L 67.617298 -97.39841 
L 68.096907 -97.987985 
L 68.527342 -98.57756 
L 68.910069 -99.167135 
L 69.247084 -99.756711 
L 69.540866 -100.346286 
L 69.794305 -100.935861 
L 70.010613 -101.525436 
L 70.193218 -102.115011 
L 70.34566 -102.704586 
L 71.522352 -102.704586 
L 71.522352 -102.704586 
L 71.674794 -102.115011 
L 71.857399 -101.525436 
L 72.073707 -100.935861 
L 72.327146 -100.346286 
L 72.620928 -99.756711 
L 72.957943 -99.167135 
L 73.34067 -98.57756 
L 73.771105 -97.987985 
L 74.250714 -97.39841 
L 74.780413 -96.808835 
L 75.360582 -96.21926 
L 75.991101 -95.629685 
L 76.671409 -95.04011 
L 77.400569 -94.450535 
L 78.177329 -93.86096 
L 79.000169 -93.271385 
L 79.867312 -92.68181 
L 80.776696 -92.092235 
L 81.725891 -91.50266 
L 82.711972 -90.913085 
L 83.731337 -90.32351 
L 84.779505 -89.733934 
L 85.850892 -89.144359 
L 86.9386 -88.554784 
L 88.034258 -87.965209 
L 89.127923 -87.375634 
L 90.208086 -86.786059 
L 91.26179 -86.196484 
L 92.274888 -85.606909 
L 93.232426 -85.017334 
L 94.119151 -84.427759 
L 94.92012 -83.838184 
L 95.621373 -83.248609 
L 96.210628 -82.659034 
L 96.67796 -82.069459 
L 97.016397 -81.479884 
L 97.222405 -80.890309 
L 97.296211 -80.300733 
L 97.241945 -79.711158 
L 97.067575 -79.121583 
L 96.784648 -78.532008 
L 96.407835 -77.942433 
L 95.954325 -77.352858 
L 95.443097 -76.763283 
L 94.894117 -76.173708 
L 94.327507 -75.584133 
L 93.762746 -74.994558 
L 93.217925 -74.404983 
L 92.709112 -73.815408 
L 92.249845 -73.225833 
L 91.850758 -72.636258 
L 91.519361 -72.046683 
L 91.259953 -71.457108 
L 91.073669 -70.867532 
L 90.958632 -70.277957 
L 90.9102 -69.688382 
L 90.92128 -69.098807 
L 90.982706 -68.509232 
L 91.083638 -67.919657 
L 91.211995 -67.330082 
L 91.354897 -66.740507 
L 91.499099 -66.150932 
L 91.631413 -65.561357 
L 91.739109 -64.971782 
L 91.810275 -64.382207 
L 91.834128 -63.792632 
L 91.801272 -63.203057 
L 91.703887 -62.613482 
L 91.535852 -62.023907 
L 91.292803 -61.434331 
L 90.972129 -60.844756 
L 90.572917 -60.255181 
L 90.095856 -59.665606 
L 89.543124 -59.076031 
L 88.918259 -58.486456 
L 88.226031 -57.896881 
L 87.472321 -57.307306 
L 86.664008 -56.717731 
L 85.808862 -56.128156 
L 84.915432 -55.538581 
L 83.992929 -54.949006 
L 83.051085 -54.359431 
L 82.099983 -53.769856 
L 81.149862 -53.180281 
L 80.210888 -52.590705 
L 79.292901 -52.00113 
L 78.405159 -51.411555 
L 77.556076 -50.82198 
L 76.752988 -50.232405 
L 76.001956 -49.64283 
L 75.307622 -49.053255 
L 74.673123 -48.46368 
L 74.100084 -47.874105 
L 73.588666 -47.28453 
L 73.137686 -46.694955 
L 72.74478 -46.10538 
L 72.406614 -45.515805 
L 72.119101 -44.92623 
L 71.877643 -44.336655 
z
" style="stroke: #595959"/>
    </defs>
    <g clip-path="url(#pc77ea2dfbe)">
     <use xlink:href="#md4d3127c2b" x="0" y="125.444857" style="fill: #72b6a1; stroke: #595959"/>
    </g>
   </g>
   <g id="PolyCollection_2">
    <defs>
     <path id="m1708ce6d27" d="M 137.410201 -63.278142 
L 136.268834 -63.278142 
L 136.147507 -63.549234 
L 136.008251 -63.820326 
L 135.850289 -64.091417 
L 135.673231 -64.362509 
L 135.477148 -64.633601 
L 135.262639 -64.904692 
L 135.030861 -65.175784 
L 134.783547 -65.446876 
L 134.522986 -65.717967 
L 134.251963 -65.989059 
L 133.973667 -66.260151 
L 133.691558 -66.531242 
L 133.409203 -66.802334 
L 133.130084 -67.073426 
L 132.85739 -67.344518 
L 132.593804 -67.615609 
L 132.341294 -67.886701 
L 132.10093 -68.157793 
L 131.872728 -68.428884 
L 131.655544 -68.699976 
L 131.447016 -68.971068 
L 131.243566 -69.242159 
L 131.040462 -69.513251 
L 130.831932 -69.784343 
L 130.611337 -70.055434 
L 130.371377 -70.326526 
L 130.104339 -70.597618 
L 129.802359 -70.86871 
L 129.457696 -71.139801 
L 129.063014 -71.410893 
L 128.611644 -71.681985 
L 128.097847 -71.953076 
L 127.517052 -72.224168 
L 126.866086 -72.49526 
L 126.143375 -72.766351 
L 125.349131 -73.037443 
L 124.485523 -73.308535 
L 123.556808 -73.579626 
L 122.569442 -73.850718 
L 121.532134 -74.12181 
L 120.455856 -74.392902 
L 119.35377 -74.663993 
L 118.241083 -74.935085 
L 117.134793 -75.206177 
L 116.053343 -75.477268 
L 115.016164 -75.74836 
L 114.043119 -76.019452 
L 113.153867 -76.290543 
L 112.36717 -76.561635 
L 111.700166 -76.832727 
L 111.167666 -77.103818 
L 110.781492 -77.37491 
L 110.549932 -77.646002 
L 110.477313 -77.917094 
L 110.563761 -78.188185 
L 110.805153 -78.459277 
L 111.193266 -78.730369 
L 111.716145 -79.00146 
L 112.358641 -79.272552 
L 113.103114 -79.543644 
L 113.930244 -79.814735 
L 114.819907 -80.085827 
L 115.752055 -80.356919 
L 116.707561 -80.62801 
L 117.668963 -80.899102 
L 118.621071 -81.170194 
L 119.551412 -81.441286 
L 120.45049 -81.712377 
L 121.311856 -81.983469 
L 122.132002 -82.254561 
L 122.910095 -82.525652 
L 123.647582 -82.796744 
L 124.347706 -83.067836 
L 125.014966 -83.338927 
L 125.654573 -83.610019 
L 126.271922 -83.881111 
L 126.872126 -84.152202 
L 127.459633 -84.423294 
L 128.037936 -84.694386 
L 128.609393 -84.965478 
L 129.175147 -85.236569 
L 129.735149 -85.507661 
L 130.28826 -85.778753 
L 130.832424 -86.049844 
L 131.364883 -86.320936 
L 131.88242 -86.592028 
L 132.38161 -86.863119 
L 132.859053 -87.134211 
L 133.311591 -87.405303 
L 133.73648 -87.676394 
L 134.131522 -87.947486 
L 134.495152 -88.218578 
L 134.82648 -88.48967 
L 135.125288 -88.760761 
L 135.391995 -89.031853 
L 135.627593 -89.302945 
L 135.833559 -89.574036 
L 136.01176 -89.845128 
L 136.164347 -90.11622 
L 137.514689 -90.11622 
L 137.514689 -90.11622 
L 137.667275 -89.845128 
L 137.845476 -89.574036 
L 138.051443 -89.302945 
L 138.28704 -89.031853 
L 138.553748 -88.760761 
L 138.852555 -88.48967 
L 139.183883 -88.218578 
L 139.547513 -87.947486 
L 139.942555 -87.676394 
L 140.367444 -87.405303 
L 140.819982 -87.134211 
L 141.297426 -86.863119 
L 141.796615 -86.592028 
L 142.314153 -86.320936 
L 142.846612 -86.049844 
L 143.390776 -85.778753 
L 143.943887 -85.507661 
L 144.503889 -85.236569 
L 145.069643 -84.965478 
L 145.641099 -84.694386 
L 146.219403 -84.423294 
L 146.80691 -84.152202 
L 147.407114 -83.881111 
L 148.024462 -83.610019 
L 148.664069 -83.338927 
L 149.33133 -83.067836 
L 150.031453 -82.796744 
L 150.768941 -82.525652 
L 151.547034 -82.254561 
L 152.36718 -81.983469 
L 153.228546 -81.712377 
L 154.127623 -81.441286 
L 155.057964 -81.170194 
L 156.010072 -80.899102 
L 156.971474 -80.62801 
L 157.926981 -80.356919 
L 158.859129 -80.085827 
L 159.748791 -79.814735 
L 160.575921 -79.543644 
L 161.320395 -79.272552 
L 161.962891 -79.00146 
L 162.48577 -78.730369 
L 162.873883 -78.459277 
L 163.115274 -78.188185 
L 163.201722 -77.917094 
L 163.129103 -77.646002 
L 162.897543 -77.37491 
L 162.51137 -77.103818 
L 161.978869 -76.832727 
L 161.311865 -76.561635 
L 160.525168 -76.290543 
L 159.635916 -76.019452 
L 158.662871 -75.74836 
L 157.625692 -75.477268 
L 156.544243 -75.206177 
L 155.437953 -74.935085 
L 154.325265 -74.663993 
L 153.22318 -74.392902 
L 152.146901 -74.12181 
L 151.109593 -73.850718 
L 150.122227 -73.579626 
L 149.193513 -73.308535 
L 148.329904 -73.037443 
L 147.535661 -72.766351 
L 146.812949 -72.49526 
L 146.161983 -72.224168 
L 145.581189 -71.953076 
L 145.067391 -71.681985 
L 144.616021 -71.410893 
L 144.221339 -71.139801 
L 143.876677 -70.86871 
L 143.574696 -70.597618 
L 143.307658 -70.326526 
L 143.067699 -70.055434 
L 142.847103 -69.784343 
L 142.638574 -69.513251 
L 142.435469 -69.242159 
L 142.23202 -68.971068 
L 142.023492 -68.699976 
L 141.806308 -68.428884 
L 141.578106 -68.157793 
L 141.337741 -67.886701 
L 141.085231 -67.615609 
L 140.821645 -67.344518 
L 140.548951 -67.073426 
L 140.269833 -66.802334 
L 139.987478 -66.531242 
L 139.705369 -66.260151 
L 139.427073 -65.989059 
L 139.15605 -65.717967 
L 138.895489 -65.446876 
L 138.648175 -65.175784 
L 138.416397 -64.904692 
L 138.201887 -64.633601 
L 138.005805 -64.362509 
L 137.828746 -64.091417 
L 137.670784 -63.820326 
L 137.531529 -63.549234 
L 137.410201 -63.278142 
z
" style="stroke: #595959"/>
    </defs>
    <g clip-path="url(#p771dad3ed3)">
     <use xlink:href="#m1708ce6d27" x="0" y="125.444857" style="fill: #e99675; stroke: #595959"/>
    </g>
   </g>
   <g id="line2d_21">
    <path d="M 70.934006 62.526519 
L 70.934006 70.277079 
" clip-path="url(#p4715565c3c)" style="fill: none; stroke: #4c4c4c"/>
   </g>
   <g id="line2d_22">
    <path d="M 70.934006 43.835658 
L 70.934006 33.571396 
" clip-path="url(#p4715565c3c)" style="fill: none; stroke: #4c4c4c"/>
   </g>
   <g id="line2d_23">
    <path d="M 65.991093 70.277079 
L 75.876919 70.277079 
" clip-path="url(#p4715565c3c)" style="fill: none; stroke: #4c4c4c; stroke-linecap: round"/>
   </g>
   <g id="line2d_24">
    <path d="M 65.991093 33.571396 
L 75.876919 33.571396 
" clip-path="url(#p4715565c3c)" style="fill: none; stroke: #4c4c4c; stroke-linecap: round"/>
   </g>
   <g id="line2d_25">
    <path d="M 136.839518 49.041596 
L 136.839518 51.729573 
" clip-path="url(#p4715565c3c)" style="fill: none; stroke: #4c4c4c"/>
   </g>
   <g id="line2d_26">
    <path d="M 136.839518 46.651251 
L 136.839518 46.629491 
" clip-path="url(#p4715565c3c)" style="fill: none; stroke: #4c4c4c"/>
   </g>
   <g id="line2d_27">
    <path d="M 131.896604 51.729573 
L 141.782431 51.729573 
" clip-path="url(#p4715565c3c)" style="fill: none; stroke: #4c4c4c; stroke-linecap: round"/>
   </g>
   <g id="line2d_28">
    <path d="M 131.896604 46.629491 
L 141.782431 46.629491 
" clip-path="url(#p4715565c3c)" style="fill: none; stroke: #4c4c4c; stroke-linecap: round"/>
   </g>
   <g id="line2d_29">
    <path d="M 61.048179 50.519849 
L 80.819833 50.519849 
" clip-path="url(#p4715565c3c)" style="fill: none; stroke: #4c4c4c"/>
   </g>
   <g id="line2d_30">
    <path d="M 126.953691 47.488861 
L 146.725344 47.488861 
" clip-path="url(#p4715565c3c)" style="fill: none; stroke: #4c4c4c"/>
   </g>
   <g id="patch_3">
    <path d="M 37.98125 84.026599 
L 37.98125 19.821875 
" style="fill: none; stroke: #262626; stroke-width: 0.5; stroke-linejoin: miter; stroke-linecap: square"/>
   </g>
   <g id="patch_4">
    <path d="M 169.792274 84.026599 
L 169.792274 19.821875 
" style="fill: none; stroke: #262626; stroke-width: 0.5; stroke-linejoin: miter; stroke-linecap: square"/>
   </g>
   <g id="patch_5">
    <path d="M 37.98125 84.026599 
L 169.792274 84.026599 
" style="fill: none; stroke: #262626; stroke-width: 0.5; stroke-linejoin: miter; stroke-linecap: square"/>
   </g>
   <g id="patch_6">
    <path d="M 37.98125 19.821875 
L 169.792274 19.821875 
" style="fill: none; stroke: #262626; stroke-width: 0.5; stroke-linejoin: miter; stroke-linecap: square"/>
   </g>
   <g id="patch_7">
    <path d="M 61.048179 62.526519 
L 80.819833 62.526519 
L 80.819833 43.835658 
L 61.048179 43.835658 
L 61.048179 62.526519 
L 61.048179 62.526519 
z
" clip-path="url(#p4715565c3c)" style="fill: none; stroke: #4c4c4c; stroke-linejoin: miter"/>
   </g>
   <g id="patch_8">
    <path d="M 126.953691 49.041596 
L 146.725344 49.041596 
L 146.725344 46.651251 
L 126.953691 46.651251 
L 126.953691 49.041596 
L 126.953691 49.041596 
z
" clip-path="url(#p4715565c3c)" style="fill: none; stroke: #4c4c4c; stroke-linejoin: miter"/>
   </g>
   <g id="PathCollection_1">
    <defs>
     <path id="C0_0_bf40356a5b" d="M 0 0.55 
C 0.145862 0.55 0.285769 0.492049 0.388909 0.388909 
C 0.492049 0.285769 0.55 0.145862 0.55 -0 
C 0.55 -0.145862 0.492049 -0.285769 0.388909 -0.388909 
C 0.285769 -0.492049 0.145862 -0.55 0 -0.55 
C -0.145862 -0.55 -0.285769 -0.492049 -0.388909 -0.388909 
C -0.492049 -0.285769 -0.55 -0.145862 -0.55 0 
C -0.55 0.145862 -0.492049 0.285769 -0.388909 0.388909 
C -0.285769 0.492049 -0.145862 0.55 0 0.55 
z
"/>
    </defs>
    <g clip-path="url(#p4715565c3c)">
     <use xlink:href="#C0_0_bf40356a5b" x="83.740358" y="63.199646" style="fill: #66c2a5"/>
    </g>
    <g clip-path="url(#p4715565c3c)">
     <use xlink:href="#C0_0_bf40356a5b" x="73.30603" y="63.199646" style="fill: #66c2a5"/>
    </g>
    <g clip-path="url(#p4715565c3c)">
     <use xlink:href="#C0_0_bf40356a5b" x="81.971004" y="52.165622" style="fill: #66c2a5"/>
    </g>
    <g clip-path="url(#p4715565c3c)">
     <use xlink:href="#C0_0_bf40356a5b" x="81.788865" y="46.232623" style="fill: #66c2a5"/>
    </g>
    <g clip-path="url(#p4715565c3c)">
     <use xlink:href="#C0_0_bf40356a5b" x="81.069161" y="46.232623" style="fill: #66c2a5"/>
    </g>
    <g clip-path="url(#p4715565c3c)">
     <use xlink:href="#C0_0_bf40356a5b" x="77.540541" y="43.835658" style="fill: #66c2a5"/>
    </g>
    <g clip-path="url(#p4715565c3c)">
     <use xlink:href="#C0_0_bf40356a5b" x="75.58625" y="43.835658" style="fill: #66c2a5"/>
    </g>
    <g clip-path="url(#p4715565c3c)">
     <use xlink:href="#C0_0_bf40356a5b" x="81.349077" y="41.826639" style="fill: #66c2a5"/>
    </g>
    <g clip-path="url(#p4715565c3c)">
     <use xlink:href="#C0_0_bf40356a5b" x="78.219873" y="41.826639" style="fill: #66c2a5"/>
    </g>
    <g clip-path="url(#p4715565c3c)">
     <use xlink:href="#C0_0_bf40356a5b" x="79.137063" y="46.478712" style="fill: #66c2a5"/>
    </g>
    <g clip-path="url(#p4715565c3c)">
     <use xlink:href="#C0_0_bf40356a5b" x="83.373985" y="46.478712" style="fill: #66c2a5"/>
    </g>
    <g clip-path="url(#p4715565c3c)">
     <use xlink:href="#C0_0_bf40356a5b" x="77.309113" y="62.526519" style="fill: #66c2a5"/>
    </g>
    <g clip-path="url(#p4715565c3c)">
     <use xlink:href="#C0_0_bf40356a5b" x="72.313626" y="62.526519" style="fill: #66c2a5"/>
    </g>
    <g clip-path="url(#p4715565c3c)">
     <use xlink:href="#C0_0_bf40356a5b" x="77.446778" y="65.566625" style="fill: #66c2a5"/>
    </g>
    <g clip-path="url(#p4715565c3c)">
     <use xlink:href="#C0_0_bf40356a5b" x="77.371348" y="52.165622" style="fill: #66c2a5"/>
    </g>
    <g clip-path="url(#p4715565c3c)">
     <use xlink:href="#C0_0_bf40356a5b" x="78.830382" y="65.566625" style="fill: #66c2a5"/>
    </g>
    <g clip-path="url(#p4715565c3c)">
     <use xlink:href="#C0_0_bf40356a5b" x="83.362536" y="37.436443" style="fill: #66c2a5"/>
    </g>
    <g clip-path="url(#p4715565c3c)">
     <use xlink:href="#C0_0_bf40356a5b" x="77.659734" y="33.571396" style="fill: #66c2a5"/>
    </g>
    <g clip-path="url(#p4715565c3c)">
     <use xlink:href="#C0_0_bf40356a5b" x="76.410972" y="37.436443" style="fill: #66c2a5"/>
    </g>
    <g clip-path="url(#p4715565c3c)">
     <use xlink:href="#C0_0_bf40356a5b" x="83.389116" y="33.571396" style="fill: #66c2a5"/>
    </g>
    <g clip-path="url(#p4715565c3c)">
     <use xlink:href="#C0_0_bf40356a5b" x="76.36638" y="44.962527" style="fill: #66c2a5"/>
    </g>
    <g clip-path="url(#p4715565c3c)">
     <use xlink:href="#C0_0_bf40356a5b" x="79.782504" y="44.962527" style="fill: #66c2a5"/>
    </g>
    <g clip-path="url(#p4715565c3c)">
     <use xlink:href="#C0_0_bf40356a5b" x="84.654471" y="41.155051" style="fill: #66c2a5"/>
    </g>
    <g clip-path="url(#p4715565c3c)">
     <use xlink:href="#C0_0_bf40356a5b" x="82.767017" y="41.155051" style="fill: #66c2a5"/>
    </g>
    <g clip-path="url(#p4715565c3c)">
     <use xlink:href="#C0_0_bf40356a5b" x="85.118385" y="69.663237" style="fill: #66c2a5"/>
    </g>
    <g clip-path="url(#p4715565c3c)">
     <use xlink:href="#C0_0_bf40356a5b" x="76.671246" y="55.502388" style="fill: #66c2a5"/>
    </g>
    <g clip-path="url(#p4715565c3c)">
     <use xlink:href="#C0_0_bf40356a5b" x="75.995364" y="55.502388" style="fill: #66c2a5"/>
    </g>
    <g clip-path="url(#p4715565c3c)">
     <use xlink:href="#C0_0_bf40356a5b" x="83.509903" y="48.874076" style="fill: #66c2a5"/>
    </g>
    <g clip-path="url(#p4715565c3c)">
     <use xlink:href="#C0_0_bf40356a5b" x="78.952156" y="48.874076" style="fill: #66c2a5"/>
    </g>
    <g clip-path="url(#p4715565c3c)">
     <use xlink:href="#C0_0_bf40356a5b" x="79.068582" y="70.277079" style="fill: #66c2a5"/>
    </g>
    <g clip-path="url(#p4715565c3c)">
     <use xlink:href="#C0_0_bf40356a5b" x="81.385533" y="69.663237" style="fill: #66c2a5"/>
    </g>
    <g clip-path="url(#p4715565c3c)">
     <use xlink:href="#C0_0_bf40356a5b" x="82.566366" y="57.359118" style="fill: #66c2a5"/>
    </g>
    <g clip-path="url(#p4715565c3c)">
     <use xlink:href="#C0_0_bf40356a5b" x="83.805814" y="70.277079" style="fill: #66c2a5"/>
    </g>
    <g clip-path="url(#p4715565c3c)">
     <use xlink:href="#C0_0_bf40356a5b" x="73.599466" y="61.166072" style="fill: #66c2a5"/>
    </g>
    <g clip-path="url(#p4715565c3c)">
     <use xlink:href="#C0_0_bf40356a5b" x="73.174224" y="61.166072" style="fill: #66c2a5"/>
    </g>
    <g clip-path="url(#p4715565c3c)">
     <use xlink:href="#C0_0_bf40356a5b" x="80.608938" y="57.359118" style="fill: #66c2a5"/>
    </g>
   </g>
   <g id="PathCollection_2">
    <defs>
     <path id="C1_0_f11e6d4f25" d="M 0 0.55 
C 0.145862 0.55 0.285769 0.492049 0.388909 0.388909 
C 0.492049 0.285769 0.55 0.145862 0.55 -0 
C 0.55 -0.145862 0.492049 -0.285769 0.388909 -0.388909 
C 0.285769 -0.492049 0.145862 -0.55 0 -0.55 
C -0.145862 -0.55 -0.285769 -0.492049 -0.388909 -0.388909 
C -0.492049 -0.285769 -0.55 -0.145862 -0.55 0 
C -0.55 0.145862 -0.492049 0.285769 -0.388909 0.388909 
C -0.285769 0.492049 -0.145862 0.55 0 0.55 
z
"/>
    </defs>
    <g clip-path="url(#p4715565c3c)">
     <use xlink:href="#C1_0_f11e6d4f25" x="147.878661" y="51.729573" style="fill: #fc8d62"/>
    </g>
    <g clip-path="url(#p4715565c3c)">
     <use xlink:href="#C1_0_f11e6d4f25" x="141.552717" y="46.716533" style="fill: #fc8d62"/>
    </g>
    <g clip-path="url(#p4715565c3c)">
     <use xlink:href="#C1_0_f11e6d4f25" x="141.164739" y="47.885905" style="fill: #fc8d62"/>
    </g>
    <g clip-path="url(#p4715565c3c)">
     <use xlink:href="#C1_0_f11e6d4f25" x="138.950427" y="47.34246" style="fill: #fc8d62"/>
    </g>
    <g clip-path="url(#p4715565c3c)">
     <use xlink:href="#C1_0_f11e6d4f25" x="141.180111" y="40.849088" style="fill: #fc8d62"/>
    </g>
    <g clip-path="url(#p4715565c3c)">
     <use xlink:href="#C1_0_f11e6d4f25" x="146.948513" y="46.629491" style="fill: #fc8d62"/>
    </g>
    <g clip-path="url(#p4715565c3c)">
     <use xlink:href="#C1_0_f11e6d4f25" x="149.474481" y="56.646265" style="fill: #fc8d62"/>
    </g>
    <g clip-path="url(#p4715565c3c)">
     <use xlink:href="#C1_0_f11e6d4f25" x="145.457054" y="49.426826" style="fill: #fc8d62"/>
    </g>
    <g clip-path="url(#p4715565c3c)">
     <use xlink:href="#C1_0_f11e6d4f25" x="148.681537" y="47.635261" style="fill: #fc8d62"/>
    </g>
    <g clip-path="url(#p4715565c3c)">
     <use xlink:href="#C1_0_f11e6d4f25" x="145.935855" y="42.819877" style="fill: #fc8d62"/>
    </g>
   </g>
   <g id="text_12">
    <!-- Anat -->
    <g style="fill: #262626" transform="translate(93.330512 13.821875) scale(0.1 -0.1)">
     <defs>
      <path id="TimesNewRomanPS-BoldMT-41" d="M 2663 1206 
L 1166 1206 
L 988 794 
Q 900 588 900 453 
Q 900 275 1044 191 
Q 1128 141 1459 116 
L 1459 0 
L 50 0 
L 50 116 
Q 278 150 425 304 
Q 572 459 788 944 
L 2303 4325 
L 2363 4325 
L 3891 850 
Q 4109 356 4250 228 
Q 4356 131 4550 116 
L 4550 0 
L 2500 0 
L 2500 116 
L 2584 116 
Q 2831 116 2931 184 
Q 3000 234 3000 328 
Q 3000 384 2981 444 
Q 2975 472 2888 678 
L 2663 1206 
z
M 2556 1438 
L 1925 2897 
L 1275 1438 
L 2556 1438 
z
" transform="scale(0.015625)"/>
      <path id="TimesNewRomanPS-BoldMT-6e" d="M 1409 2922 
L 1409 2544 
Q 1634 2788 1840 2898 
Q 2047 3009 2284 3009 
Q 2569 3009 2756 2851 
Q 2944 2694 3006 2459 
Q 3056 2281 3056 1775 
L 3056 638 
Q 3056 300 3117 217 
Q 3178 134 3372 113 
L 3372 0 
L 1894 0 
L 1894 113 
Q 2059 134 2131 250 
Q 2181 328 2181 638 
L 2181 1938 
Q 2181 2297 2153 2390 
Q 2125 2484 2058 2536 
Q 1991 2588 1909 2588 
Q 1641 2588 1409 2203 
L 1409 638 
Q 1409 309 1470 221 
Q 1531 134 1697 113 
L 1697 0 
L 219 0 
L 219 113 
Q 403 131 481 231 
Q 534 300 534 638 
L 534 2288 
Q 534 2619 473 2700 
Q 413 2781 219 2806 
L 219 2922 
L 1409 2922 
z
" transform="scale(0.015625)"/>
      <path id="TimesNewRomanPS-BoldMT-61" d="M 1828 431 
Q 1294 -41 869 -41 
Q 619 -41 453 123 
Q 288 288 288 534 
Q 288 869 575 1136 
Q 863 1403 1828 1847 
L 1828 2141 
Q 1828 2472 1792 2558 
Q 1756 2644 1656 2708 
Q 1556 2772 1431 2772 
Q 1228 2772 1097 2681 
Q 1016 2625 1016 2550 
Q 1016 2484 1103 2388 
Q 1222 2253 1222 2128 
Q 1222 1975 1108 1867 
Q 994 1759 809 1759 
Q 613 1759 480 1878 
Q 347 1997 347 2156 
Q 347 2381 525 2586 
Q 703 2791 1022 2900 
Q 1341 3009 1684 3009 
Q 2100 3009 2342 2832 
Q 2584 2656 2656 2450 
Q 2700 2319 2700 1847 
L 2700 713 
Q 2700 513 2715 461 
Q 2731 409 2762 384 
Q 2794 359 2834 359 
Q 2916 359 3000 475 
L 3094 400 
Q 2938 169 2770 64 
Q 2603 -41 2391 -41 
Q 2141 -41 2000 76 
Q 1859 194 1828 431 
z
M 1828 659 
L 1828 1638 
Q 1450 1416 1266 1163 
Q 1144 994 1144 822 
Q 1144 678 1247 569 
Q 1325 484 1466 484 
Q 1622 484 1828 659 
z
" transform="scale(0.015625)"/>
      <path id="TimesNewRomanPS-BoldMT-74" d="M 1375 3991 
L 1375 2922 
L 2069 2922 
L 2069 2613 
L 1375 2613 
L 1375 809 
Q 1375 556 1398 482 
Q 1422 409 1481 364 
Q 1541 319 1591 319 
Q 1794 319 1975 628 
L 2069 559 
Q 1816 -41 1247 -41 
Q 969 -41 776 114 
Q 584 269 531 459 
Q 500 566 500 1034 
L 500 2613 
L 119 2613 
L 119 2722 
Q 513 3000 789 3306 
Q 1066 3613 1272 3991 
L 1375 3991 
z
" transform="scale(0.015625)"/>
     </defs>
     <use xlink:href="#TimesNewRomanPS-BoldMT-41"/>
     <use xlink:href="#TimesNewRomanPS-BoldMT-6e" x="72.216797"/>
     <use xlink:href="#TimesNewRomanPS-BoldMT-61" x="127.832031"/>
     <use xlink:href="#TimesNewRomanPS-BoldMT-74" x="177.832031"/>
    </g>
   </g>
  </g>
 </g>
 <defs>
  <clipPath id="p4715565c3c">
   <rect x="37.98125" y="19.821875" width="131.811024" height="64.204724"/>
  </clipPath>
  <clipPath id="pc77ea2dfbe">
   <rect x="44.571801" y="22.740272" width="26.362205" height="58.367931"/>
  </clipPath>
  <clipPath id="p771dad3ed3">
   <rect x="110.477313" y="35.328638" width="26.362205" height="26.838078"/>
  </clipPath>
 </defs>
</svg>
