<?xml version="1.0" encoding="utf-8" standalone="no"?>
<!DOCTYPE svg PUBLIC "-//W3C//DTD SVG 1.1//EN"
  "http://www.w3.org/Graphics/SVG/1.1/DTD/svg11.dtd">
<svg xmlns:xlink="http://www.w3.org/1999/xlink" width="176.122742pt" height="138.677595pt" viewBox="0 0 176.122742 138.677595" xmlns="http://www.w3.org/2000/svg" version="1.1">
 <metadata>
  <rdf:RDF xmlns:dc="http://purl.org/dc/elements/1.1/" xmlns:cc="http://creativecommons.org/ns#" xmlns:rdf="http://www.w3.org/1999/02/22-rdf-syntax-ns#">
   <cc:Work>
    <dc:type rdf:resource="http://purl.org/dc/dcmitype/StillImage"/>
    <dc:date>2023-11-24T15:27:24.897738</dc:date>
    <dc:format>image/svg+xml</dc:format>
    <dc:creator>
     <cc:Agent>
      <dc:title>Matplotlib v3.7.2, https://matplotlib.org/</dc:title>
     </cc:Agent>
    </dc:creator>
   </cc:Work>
  </rdf:RDF>
 </metadata>
 <defs>
  <style type="text/css">*{stroke-linejoin: round; stroke-linecap: butt}</style>
 </defs>
 <g id="figure_1">
  <g id="patch_1">
   <path d="M 0 138.677595 
L 176.122742 138.677595 
L 176.122742 0 
L 0 0 
z
" style="fill: #ffffff"/>
  </g>
  <g id="axes_1">
   <g id="patch_2">
    <path d="M 37.111719 94.643042 
L 168.922742 94.643042 
L 168.922742 19.159688 
L 37.111719 19.159688 
z
" style="fill: #ffffff"/>
   </g>
   <g id="matplotlib.axis_1">
    <g id="xtick_1">
     <g id="line2d_1">
      <path d="M 43.103129 94.643042 
L 43.103129 19.159688 
" clip-path="url(#p7cfef66935)" style="fill: none"/>
     </g>
     <g id="line2d_2">
      <defs>
       <path id="ma481dac28f" d="M 0 0 
L 0 2 
" style="stroke: #808080; stroke-width: 0.5"/>
      </defs>
      <g>
       <use xlink:href="#ma481dac28f" x="43.103129" y="94.643042" style="fill: #808080; stroke: #808080; stroke-width: 0.5"/>
      </g>
     </g>
     <g id="text_1">
      <!-- 7_r_So -->
      <g style="fill: #262626" transform="translate(25.53948 120.403419) rotate(-45) scale(0.08 -0.08)">
       <defs>
        <path id="TimesNewRomanPSMT-37" d="M 644 4238 
L 2916 4238 
L 2916 4119 
L 1503 -88 
L 1153 -88 
L 2419 3728 
L 1253 3728 
Q 900 3728 750 3644 
Q 488 3500 328 3200 
L 238 3234 
L 644 4238 
z
" transform="scale(0.015625)"/>
        <path id="TimesNewRomanPSMT-5f" d="M 3256 -1381 
L -53 -1381 
L -53 -1119 
L 3256 -1119 
L 3256 -1381 
z
" transform="scale(0.015625)"/>
        <path id="TimesNewRomanPSMT-72" d="M 1038 2947 
L 1038 2303 
Q 1397 2947 1775 2947 
Q 1947 2947 2059 2842 
Q 2172 2738 2172 2600 
Q 2172 2478 2090 2393 
Q 2009 2309 1897 2309 
Q 1788 2309 1652 2417 
Q 1516 2525 1450 2525 
Q 1394 2525 1328 2463 
Q 1188 2334 1038 2041 
L 1038 669 
Q 1038 431 1097 309 
Q 1138 225 1241 169 
Q 1344 113 1538 113 
L 1538 0 
L 72 0 
L 72 113 
Q 291 113 397 181 
Q 475 231 506 341 
Q 522 394 522 644 
L 522 1753 
Q 522 2253 501 2348 
Q 481 2444 426 2487 
Q 372 2531 291 2531 
Q 194 2531 72 2484 
L 41 2597 
L 906 2947 
L 1038 2947 
z
" transform="scale(0.015625)"/>
        <path id="TimesNewRomanPSMT-53" d="M 2934 4334 
L 2934 2869 
L 2819 2869 
Q 2763 3291 2617 3541 
Q 2472 3791 2203 3937 
Q 1934 4084 1647 4084 
Q 1322 4084 1109 3886 
Q 897 3688 897 3434 
Q 897 3241 1031 3081 
Q 1225 2847 1953 2456 
Q 2547 2138 2764 1967 
Q 2981 1797 3098 1565 
Q 3216 1334 3216 1081 
Q 3216 600 2842 251 
Q 2469 -97 1881 -97 
Q 1697 -97 1534 -69 
Q 1438 -53 1133 45 
Q 828 144 747 144 
Q 669 144 623 97 
Q 578 50 556 -97 
L 441 -97 
L 441 1356 
L 556 1356 
Q 638 900 775 673 
Q 913 447 1195 297 
Q 1478 147 1816 147 
Q 2206 147 2432 353 
Q 2659 559 2659 841 
Q 2659 997 2573 1156 
Q 2488 1316 2306 1453 
Q 2184 1547 1640 1851 
Q 1097 2156 867 2337 
Q 638 2519 519 2737 
Q 400 2956 400 3219 
Q 400 3675 750 4004 
Q 1100 4334 1641 4334 
Q 1978 4334 2356 4169 
Q 2531 4091 2603 4091 
Q 2684 4091 2736 4139 
Q 2788 4188 2819 4334 
L 2934 4334 
z
" transform="scale(0.015625)"/>
        <path id="TimesNewRomanPSMT-6f" d="M 1600 2947 
Q 2250 2947 2644 2453 
Q 2978 2031 2978 1484 
Q 2978 1100 2793 706 
Q 2609 313 2286 112 
Q 1963 -88 1566 -88 
Q 919 -88 538 428 
Q 216 863 216 1403 
Q 216 1797 411 2186 
Q 606 2575 925 2761 
Q 1244 2947 1600 2947 
z
M 1503 2744 
Q 1338 2744 1170 2645 
Q 1003 2547 900 2300 
Q 797 2053 797 1666 
Q 797 1041 1045 587 
Q 1294 134 1700 134 
Q 2003 134 2200 384 
Q 2397 634 2397 1244 
Q 2397 2006 2069 2444 
Q 1847 2744 1503 2744 
z
" transform="scale(0.015625)"/>
       </defs>
       <use xlink:href="#TimesNewRomanPSMT-37"/>
       <use xlink:href="#TimesNewRomanPSMT-5f" x="50"/>
       <use xlink:href="#TimesNewRomanPSMT-72" x="100"/>
       <use xlink:href="#TimesNewRomanPSMT-5f" x="133.300781"/>
       <use xlink:href="#TimesNewRomanPSMT-53" x="183.300781"/>
       <use xlink:href="#TimesNewRomanPSMT-6f" x="238.916016"/>
      </g>
     </g>
    </g>
    <g id="xtick_2">
     <g id="line2d_3">
      <path d="M 55.085949 94.643042 
L 55.085949 19.159688 
" clip-path="url(#p7cfef66935)" style="fill: none"/>
     </g>
     <g id="line2d_4">
      <g>
       <use xlink:href="#ma481dac28f" x="55.085949" y="94.643042" style="fill: #808080; stroke: #808080; stroke-width: 0.5"/>
      </g>
     </g>
     <g id="text_2">
      <!-- 7_m_Bo -->
      <g style="fill: #262626" transform="translate(34.378327 123.547392) rotate(-45) scale(0.08 -0.08)">
       <defs>
        <path id="TimesNewRomanPSMT-6d" d="M 1050 2338 
Q 1363 2650 1419 2697 
Q 1559 2816 1721 2881 
Q 1884 2947 2044 2947 
Q 2313 2947 2506 2790 
Q 2700 2634 2766 2338 
Q 3088 2713 3309 2830 
Q 3531 2947 3766 2947 
Q 3994 2947 4170 2830 
Q 4347 2713 4450 2447 
Q 4519 2266 4519 1878 
L 4519 647 
Q 4519 378 4559 278 
Q 4591 209 4675 161 
Q 4759 113 4950 113 
L 4950 0 
L 3538 0 
L 3538 113 
L 3597 113 
Q 3781 113 3884 184 
Q 3956 234 3988 344 
Q 4000 397 4000 647 
L 4000 1878 
Q 4000 2228 3916 2372 
Q 3794 2572 3525 2572 
Q 3359 2572 3192 2489 
Q 3025 2406 2788 2181 
L 2781 2147 
L 2788 2013 
L 2788 647 
Q 2788 353 2820 281 
Q 2853 209 2943 161 
Q 3034 113 3253 113 
L 3253 0 
L 1806 0 
L 1806 113 
Q 2044 113 2133 169 
Q 2222 225 2256 338 
Q 2272 391 2272 647 
L 2272 1878 
Q 2272 2228 2169 2381 
Q 2031 2581 1784 2581 
Q 1616 2581 1450 2491 
Q 1191 2353 1050 2181 
L 1050 647 
Q 1050 366 1089 281 
Q 1128 197 1204 155 
Q 1281 113 1516 113 
L 1516 0 
L 100 0 
L 100 113 
Q 297 113 375 155 
Q 453 197 493 289 
Q 534 381 534 647 
L 534 1741 
Q 534 2213 506 2350 
Q 484 2453 437 2492 
Q 391 2531 309 2531 
Q 222 2531 100 2484 
L 53 2597 
L 916 2947 
L 1050 2947 
L 1050 2338 
z
" transform="scale(0.015625)"/>
        <path id="TimesNewRomanPSMT-42" d="M 2956 2163 
Q 3397 2069 3616 1863 
Q 3919 1575 3919 1159 
Q 3919 844 3719 555 
Q 3519 266 3170 133 
Q 2822 0 2106 0 
L 106 0 
L 106 116 
L 266 116 
Q 531 116 647 284 
Q 719 394 719 750 
L 719 3488 
Q 719 3881 628 3984 
Q 506 4122 266 4122 
L 106 4122 
L 106 4238 
L 1938 4238 
Q 2450 4238 2759 4163 
Q 3228 4050 3475 3764 
Q 3722 3478 3722 3106 
Q 3722 2788 3528 2536 
Q 3334 2284 2956 2163 
z
M 1319 2331 
Q 1434 2309 1582 2298 
Q 1731 2288 1909 2288 
Q 2366 2288 2595 2386 
Q 2825 2484 2947 2687 
Q 3069 2891 3069 3131 
Q 3069 3503 2766 3765 
Q 2463 4028 1881 4028 
Q 1569 4028 1319 3959 
L 1319 2331 
z
M 1319 306 
Q 1681 222 2034 222 
Q 2600 222 2897 476 
Q 3194 731 3194 1106 
Q 3194 1353 3059 1581 
Q 2925 1809 2622 1940 
Q 2319 2072 1872 2072 
Q 1678 2072 1540 2065 
Q 1403 2059 1319 2044 
L 1319 306 
z
" transform="scale(0.015625)"/>
       </defs>
       <use xlink:href="#TimesNewRomanPSMT-37"/>
       <use xlink:href="#TimesNewRomanPSMT-5f" x="50"/>
       <use xlink:href="#TimesNewRomanPSMT-6d" x="100"/>
       <use xlink:href="#TimesNewRomanPSMT-5f" x="177.783203"/>
       <use xlink:href="#TimesNewRomanPSMT-42" x="227.783203"/>
       <use xlink:href="#TimesNewRomanPSMT-6f" x="294.482422"/>
      </g>
     </g>
    </g>
    <g id="xtick_3">
     <g id="line2d_5">
      <path d="M 67.06877 94.643042 
L 67.06877 19.159688 
" clip-path="url(#p7cfef66935)" style="fill: none"/>
     </g>
     <g id="line2d_6">
      <g>
       <use xlink:href="#ma481dac28f" x="67.06877" y="94.643042" style="fill: #808080; stroke: #808080; stroke-width: 0.5"/>
      </g>
     </g>
     <g id="text_3">
      <!-- 7_h_He -->
      <g style="fill: #262626" transform="translate(47.937996 121.981151) rotate(-45) scale(0.08 -0.08)">
       <defs>
        <path id="TimesNewRomanPSMT-68" d="M 1041 4444 
L 1041 2350 
Q 1388 2731 1591 2839 
Q 1794 2947 1997 2947 
Q 2241 2947 2416 2812 
Q 2591 2678 2675 2391 
Q 2734 2191 2734 1659 
L 2734 647 
Q 2734 375 2778 275 
Q 2809 200 2884 156 
Q 2959 113 3159 113 
L 3159 0 
L 1753 0 
L 1753 113 
L 1819 113 
Q 2019 113 2097 173 
Q 2175 234 2206 353 
Q 2216 403 2216 647 
L 2216 1659 
Q 2216 2128 2167 2275 
Q 2119 2422 2012 2495 
Q 1906 2569 1756 2569 
Q 1603 2569 1437 2487 
Q 1272 2406 1041 2159 
L 1041 647 
Q 1041 353 1073 281 
Q 1106 209 1195 161 
Q 1284 113 1503 113 
L 1503 0 
L 84 0 
L 84 113 
Q 275 113 384 172 
Q 447 203 484 290 
Q 522 378 522 647 
L 522 3238 
Q 522 3728 498 3840 
Q 475 3953 426 3993 
Q 378 4034 297 4034 
Q 231 4034 84 3984 
L 41 4094 
L 897 4444 
L 1041 4444 
z
" transform="scale(0.015625)"/>
        <path id="TimesNewRomanPSMT-48" d="M 1316 2272 
L 3284 2272 
L 3284 3484 
Q 3284 3809 3244 3913 
Q 3213 3991 3113 4047 
Q 2978 4122 2828 4122 
L 2678 4122 
L 2678 4238 
L 4491 4238 
L 4491 4122 
L 4341 4122 
Q 4191 4122 4056 4050 
Q 3956 4000 3920 3898 
Q 3884 3797 3884 3484 
L 3884 750 
Q 3884 428 3925 325 
Q 3956 247 4053 191 
Q 4191 116 4341 116 
L 4491 116 
L 4491 0 
L 2678 0 
L 2678 116 
L 2828 116 
Q 3088 116 3206 269 
Q 3284 369 3284 750 
L 3284 2041 
L 1316 2041 
L 1316 750 
Q 1316 428 1356 325 
Q 1388 247 1488 191 
Q 1622 116 1772 116 
L 1925 116 
L 1925 0 
L 109 0 
L 109 116 
L 259 116 
Q 522 116 641 269 
Q 716 369 716 750 
L 716 3484 
Q 716 3809 675 3913 
Q 644 3991 547 4047 
Q 409 4122 259 4122 
L 109 4122 
L 109 4238 
L 1925 4238 
L 1925 4122 
L 1772 4122 
Q 1622 4122 1488 4050 
Q 1391 4000 1353 3898 
Q 1316 3797 1316 3484 
L 1316 2272 
z
" transform="scale(0.015625)"/>
        <path id="TimesNewRomanPSMT-65" d="M 681 1784 
Q 678 1147 991 784 
Q 1303 422 1725 422 
Q 2006 422 2214 576 
Q 2422 731 2563 1106 
L 2659 1044 
Q 2594 616 2278 264 
Q 1963 -88 1488 -88 
Q 972 -88 605 314 
Q 238 716 238 1394 
Q 238 2128 614 2539 
Q 991 2950 1559 2950 
Q 2041 2950 2350 2633 
Q 2659 2316 2659 1784 
L 681 1784 
z
M 681 1966 
L 2006 1966 
Q 1991 2241 1941 2353 
Q 1863 2528 1708 2628 
Q 1553 2728 1384 2728 
Q 1125 2728 920 2526 
Q 716 2325 681 1966 
z
" transform="scale(0.015625)"/>
       </defs>
       <use xlink:href="#TimesNewRomanPSMT-37"/>
       <use xlink:href="#TimesNewRomanPSMT-5f" x="50"/>
       <use xlink:href="#TimesNewRomanPSMT-68" x="100"/>
       <use xlink:href="#TimesNewRomanPSMT-5f" x="150"/>
       <use xlink:href="#TimesNewRomanPSMT-48" x="200"/>
       <use xlink:href="#TimesNewRomanPSMT-65" x="272.216797"/>
      </g>
     </g>
    </g>
    <g id="xtick_4">
     <g id="line2d_7">
      <path d="M 79.05159 94.643042 
L 79.05159 19.159688 
" clip-path="url(#p7cfef66935)" style="fill: none"/>
     </g>
     <g id="line2d_8">
      <g>
       <use xlink:href="#ma481dac28f" x="79.05159" y="94.643042" style="fill: #808080; stroke: #808080; stroke-width: 0.5"/>
      </g>
     </g>
     <g id="text_4">
      <!-- 94_m_As -->
      <g style="fill: #262626" transform="translate(55.830203 126.061157) rotate(-45) scale(0.08 -0.08)">
       <defs>
        <path id="TimesNewRomanPSMT-39" d="M 338 -88 
L 338 28 
Q 744 34 1094 217 
Q 1444 400 1770 856 
Q 2097 1313 2225 1859 
Q 1734 1544 1338 1544 
Q 891 1544 572 1889 
Q 253 2234 253 2806 
Q 253 3363 572 3797 
Q 956 4325 1575 4325 
Q 2097 4325 2469 3894 
Q 2925 3359 2925 2575 
Q 2925 1869 2578 1258 
Q 2231 647 1613 244 
Q 1109 -88 516 -88 
L 338 -88 
z
M 2275 2091 
Q 2331 2497 2331 2741 
Q 2331 3044 2228 3395 
Q 2125 3747 1936 3934 
Q 1747 4122 1506 4122 
Q 1228 4122 1018 3872 
Q 809 3622 809 3128 
Q 809 2469 1088 2097 
Q 1291 1828 1588 1828 
Q 1731 1828 1928 1897 
Q 2125 1966 2275 2091 
z
" transform="scale(0.015625)"/>
        <path id="TimesNewRomanPSMT-34" d="M 2978 1563 
L 2978 1119 
L 2409 1119 
L 2409 0 
L 1894 0 
L 1894 1119 
L 100 1119 
L 100 1519 
L 2066 4325 
L 2409 4325 
L 2409 1563 
L 2978 1563 
z
M 1894 1563 
L 1894 3666 
L 406 1563 
L 1894 1563 
z
" transform="scale(0.015625)"/>
        <path id="TimesNewRomanPSMT-41" d="M 2928 1419 
L 1288 1419 
L 1000 750 
Q 894 503 894 381 
Q 894 284 986 211 
Q 1078 138 1384 116 
L 1384 0 
L 50 0 
L 50 116 
Q 316 163 394 238 
Q 553 388 747 847 
L 2238 4334 
L 2347 4334 
L 3822 809 
Q 4000 384 4145 257 
Q 4291 131 4550 116 
L 4550 0 
L 2878 0 
L 2878 116 
Q 3131 128 3220 200 
Q 3309 272 3309 375 
Q 3309 513 3184 809 
L 2928 1419 
z
M 2841 1650 
L 2122 3363 
L 1384 1650 
L 2841 1650 
z
" transform="scale(0.015625)"/>
        <path id="TimesNewRomanPSMT-73" d="M 2050 2947 
L 2050 1972 
L 1947 1972 
Q 1828 2431 1642 2597 
Q 1456 2763 1169 2763 
Q 950 2763 815 2647 
Q 681 2531 681 2391 
Q 681 2216 781 2091 
Q 878 1963 1175 1819 
L 1631 1597 
Q 2266 1288 2266 781 
Q 2266 391 1970 151 
Q 1675 -88 1309 -88 
Q 1047 -88 709 6 
Q 606 38 541 38 
Q 469 38 428 -44 
L 325 -44 
L 325 978 
L 428 978 
Q 516 541 762 319 
Q 1009 97 1316 97 
Q 1531 97 1667 223 
Q 1803 350 1803 528 
Q 1803 744 1651 891 
Q 1500 1038 1047 1263 
Q 594 1488 453 1669 
Q 313 1847 313 2119 
Q 313 2472 555 2709 
Q 797 2947 1181 2947 
Q 1350 2947 1591 2875 
Q 1750 2828 1803 2828 
Q 1853 2828 1881 2850 
Q 1909 2872 1947 2947 
L 2050 2947 
z
" transform="scale(0.015625)"/>
       </defs>
       <use xlink:href="#TimesNewRomanPSMT-39"/>
       <use xlink:href="#TimesNewRomanPSMT-34" x="50"/>
       <use xlink:href="#TimesNewRomanPSMT-5f" x="100"/>
       <use xlink:href="#TimesNewRomanPSMT-6d" x="150"/>
       <use xlink:href="#TimesNewRomanPSMT-5f" x="227.783203"/>
       <use xlink:href="#TimesNewRomanPSMT-41" x="277.783203"/>
       <use xlink:href="#TimesNewRomanPSMT-73" x="350"/>
      </g>
     </g>
    </g>
    <g id="xtick_5">
     <g id="line2d_9">
      <path d="M 91.03441 94.643042 
L 91.03441 19.159688 
" clip-path="url(#p7cfef66935)" style="fill: none"/>
     </g>
     <g id="line2d_10">
      <g>
       <use xlink:href="#ma481dac28f" x="91.03441" y="94.643042" style="fill: #808080; stroke: #808080; stroke-width: 0.5"/>
      </g>
     </g>
     <g id="text_5">
      <!-- 94_r_We -->
      <g style="fill: #262626" transform="translate(69.218398 124.655782) rotate(-45) scale(0.08 -0.08)">
       <defs>
        <path id="TimesNewRomanPSMT-57" d="M 5991 4238 
L 5991 4122 
Q 5825 4122 5722 4062 
Q 5619 4003 5525 3841 
Q 5463 3731 5328 3319 
L 4147 -97 
L 4022 -97 
L 3056 2613 
L 2097 -97 
L 1984 -97 
L 725 3422 
Q 584 3816 547 3888 
Q 484 4006 376 4064 
Q 269 4122 84 4122 
L 84 4238 
L 1653 4238 
L 1653 4122 
L 1578 4122 
Q 1413 4122 1325 4047 
Q 1238 3972 1238 3866 
Q 1238 3756 1375 3363 
L 2209 984 
L 2913 3006 
L 2788 3363 
L 2688 3647 
Q 2622 3803 2541 3922 
Q 2500 3981 2441 4022 
Q 2363 4078 2284 4103 
Q 2225 4122 2097 4122 
L 2097 4238 
L 3747 4238 
L 3747 4122 
L 3634 4122 
Q 3459 4122 3378 4047 
Q 3297 3972 3297 3844 
Q 3297 3684 3438 3288 
L 4250 984 
L 5056 3319 
Q 5194 3706 5194 3856 
Q 5194 3928 5148 3990 
Q 5103 4053 5034 4078 
Q 4916 4122 4725 4122 
L 4725 4238 
L 5991 4238 
z
" transform="scale(0.015625)"/>
       </defs>
       <use xlink:href="#TimesNewRomanPSMT-39"/>
       <use xlink:href="#TimesNewRomanPSMT-34" x="50"/>
       <use xlink:href="#TimesNewRomanPSMT-5f" x="100"/>
       <use xlink:href="#TimesNewRomanPSMT-72" x="150"/>
       <use xlink:href="#TimesNewRomanPSMT-5f" x="183.300781"/>
       <use xlink:href="#TimesNewRomanPSMT-57" x="233.300781"/>
       <use xlink:href="#TimesNewRomanPSMT-65" x="319.685547"/>
      </g>
     </g>
    </g>
    <g id="xtick_6">
     <g id="line2d_11">
      <path d="M 103.017231 94.643042 
L 103.017231 19.159688 
" clip-path="url(#p7cfef66935)" style="fill: none"/>
     </g>
     <g id="line2d_12">
      <g>
       <use xlink:href="#ma481dac28f" x="103.017231" y="94.643042" style="fill: #808080; stroke: #808080; stroke-width: 0.5"/>
      </g>
     </g>
     <g id="text_6">
      <!-- 94_g_We -->
      <g style="fill: #262626" transform="translate(80.256347 125.600654) rotate(-45) scale(0.08 -0.08)">
       <defs>
        <path id="TimesNewRomanPSMT-67" d="M 966 1044 
Q 703 1172 562 1401 
Q 422 1631 422 1909 
Q 422 2334 742 2640 
Q 1063 2947 1563 2947 
Q 1972 2947 2272 2747 
L 2878 2747 
Q 3013 2747 3034 2739 
Q 3056 2731 3066 2713 
Q 3084 2684 3084 2613 
Q 3084 2531 3069 2500 
Q 3059 2484 3036 2475 
Q 3013 2466 2878 2466 
L 2506 2466 
Q 2681 2241 2681 1891 
Q 2681 1491 2375 1206 
Q 2069 922 1553 922 
Q 1341 922 1119 984 
Q 981 866 932 777 
Q 884 688 884 625 
Q 884 572 936 522 
Q 988 472 1138 450 
Q 1225 438 1575 428 
Q 2219 413 2409 384 
Q 2700 344 2873 169 
Q 3047 -6 3047 -263 
Q 3047 -616 2716 -925 
Q 2228 -1381 1444 -1381 
Q 841 -1381 425 -1109 
Q 191 -953 191 -784 
Q 191 -709 225 -634 
Q 278 -519 444 -313 
Q 466 -284 763 25 
Q 600 122 533 198 
Q 466 275 466 372 
Q 466 481 555 628 
Q 644 775 966 1044 
z
M 1509 2797 
Q 1278 2797 1122 2612 
Q 966 2428 966 2047 
Q 966 1553 1178 1281 
Q 1341 1075 1591 1075 
Q 1828 1075 1981 1253 
Q 2134 1431 2134 1813 
Q 2134 2309 1919 2591 
Q 1759 2797 1509 2797 
z
M 934 0 
Q 788 -159 713 -296 
Q 638 -434 638 -550 
Q 638 -700 819 -813 
Q 1131 -1006 1722 -1006 
Q 2284 -1006 2551 -807 
Q 2819 -609 2819 -384 
Q 2819 -222 2659 -153 
Q 2497 -84 2016 -72 
Q 1313 -53 934 0 
z
" transform="scale(0.015625)"/>
       </defs>
       <use xlink:href="#TimesNewRomanPSMT-39"/>
       <use xlink:href="#TimesNewRomanPSMT-34" x="50"/>
       <use xlink:href="#TimesNewRomanPSMT-5f" x="100"/>
       <use xlink:href="#TimesNewRomanPSMT-67" x="150"/>
       <use xlink:href="#TimesNewRomanPSMT-5f" x="200"/>
       <use xlink:href="#TimesNewRomanPSMT-57" x="250"/>
       <use xlink:href="#TimesNewRomanPSMT-65" x="336.384766"/>
      </g>
     </g>
    </g>
    <g id="xtick_7">
     <g id="line2d_13">
      <path d="M 115.000051 94.643042 
L 115.000051 19.159688 
" clip-path="url(#p7cfef66935)" style="fill: none"/>
     </g>
     <g id="line2d_14">
      <g>
       <use xlink:href="#ma481dac28f" x="115.000051" y="94.643042" style="fill: #808080; stroke: #808080; stroke-width: 0.5"/>
      </g>
     </g>
     <g id="text_7">
      <!-- 94_m_We -->
      <g style="fill: #262626" transform="translate(90.667623 127.172199) rotate(-45) scale(0.08 -0.08)">
       <use xlink:href="#TimesNewRomanPSMT-39"/>
       <use xlink:href="#TimesNewRomanPSMT-34" x="50"/>
       <use xlink:href="#TimesNewRomanPSMT-5f" x="100"/>
       <use xlink:href="#TimesNewRomanPSMT-6d" x="150"/>
       <use xlink:href="#TimesNewRomanPSMT-5f" x="227.783203"/>
       <use xlink:href="#TimesNewRomanPSMT-57" x="277.783203"/>
       <use xlink:href="#TimesNewRomanPSMT-65" x="364.167969"/>
      </g>
     </g>
    </g>
    <g id="xtick_8">
     <g id="line2d_15">
      <path d="M 126.982871 94.643042 
L 126.982871 19.159688 
" clip-path="url(#p7cfef66935)" style="fill: none"/>
     </g>
     <g id="line2d_16">
      <g>
       <use xlink:href="#ma481dac28f" x="126.982871" y="94.643042" style="fill: #808080; stroke: #808080; stroke-width: 0.5"/>
      </g>
     </g>
     <g id="text_8">
      <!-- 94c_m_As -->
      <g style="fill: #262626" transform="translate(101.250372 128.57227) rotate(-45) scale(0.08 -0.08)">
       <defs>
        <path id="TimesNewRomanPSMT-63" d="M 2631 1088 
Q 2516 522 2178 217 
Q 1841 -88 1431 -88 
Q 944 -88 581 321 
Q 219 731 219 1428 
Q 219 2103 620 2525 
Q 1022 2947 1584 2947 
Q 2006 2947 2278 2723 
Q 2550 2500 2550 2259 
Q 2550 2141 2473 2067 
Q 2397 1994 2259 1994 
Q 2075 1994 1981 2113 
Q 1928 2178 1911 2362 
Q 1894 2547 1784 2644 
Q 1675 2738 1481 2738 
Q 1169 2738 978 2506 
Q 725 2200 725 1697 
Q 725 1184 976 792 
Q 1228 400 1656 400 
Q 1963 400 2206 609 
Q 2378 753 2541 1131 
L 2631 1088 
z
" transform="scale(0.015625)"/>
       </defs>
       <use xlink:href="#TimesNewRomanPSMT-39"/>
       <use xlink:href="#TimesNewRomanPSMT-34" x="50"/>
       <use xlink:href="#TimesNewRomanPSMT-63" x="100"/>
       <use xlink:href="#TimesNewRomanPSMT-5f" x="144.384766"/>
       <use xlink:href="#TimesNewRomanPSMT-6d" x="194.384766"/>
       <use xlink:href="#TimesNewRomanPSMT-5f" x="272.167969"/>
       <use xlink:href="#TimesNewRomanPSMT-41" x="322.167969"/>
       <use xlink:href="#TimesNewRomanPSMT-73" x="394.384766"/>
      </g>
     </g>
    </g>
    <g id="xtick_9">
     <g id="line2d_17">
      <path d="M 138.965692 94.643042 
L 138.965692 19.159688 
" clip-path="url(#p7cfef66935)" style="fill: none"/>
     </g>
     <g id="line2d_18">
      <g>
       <use xlink:href="#ma481dac28f" x="138.965692" y="94.643042" style="fill: #808080; stroke: #808080; stroke-width: 0.5"/>
      </g>
     </g>
     <g id="text_9">
      <!-- 117c_m_Ri -->
      <g style="fill: #262626" transform="translate(111.559117 130.256952) rotate(-45) scale(0.08 -0.08)">
       <defs>
        <path id="TimesNewRomanPSMT-31" d="M 750 3822 
L 1781 4325 
L 1884 4325 
L 1884 747 
Q 1884 391 1914 303 
Q 1944 216 2037 169 
Q 2131 122 2419 116 
L 2419 0 
L 825 0 
L 825 116 
Q 1125 122 1212 167 
Q 1300 213 1334 289 
Q 1369 366 1369 747 
L 1369 3034 
Q 1369 3497 1338 3628 
Q 1316 3728 1258 3775 
Q 1200 3822 1119 3822 
Q 1003 3822 797 3725 
L 750 3822 
z
" transform="scale(0.015625)"/>
        <path id="TimesNewRomanPSMT-52" d="M 4325 0 
L 3194 0 
L 1759 1981 
Q 1600 1975 1500 1975 
Q 1459 1975 1412 1976 
Q 1366 1978 1316 1981 
L 1316 750 
Q 1316 350 1403 253 
Q 1522 116 1759 116 
L 1925 116 
L 1925 0 
L 109 0 
L 109 116 
L 269 116 
Q 538 116 653 291 
Q 719 388 719 750 
L 719 3488 
Q 719 3888 631 3984 
Q 509 4122 269 4122 
L 109 4122 
L 109 4238 
L 1653 4238 
Q 2328 4238 2648 4139 
Q 2969 4041 3192 3777 
Q 3416 3513 3416 3147 
Q 3416 2756 3161 2468 
Q 2906 2181 2372 2063 
L 3247 847 
Q 3547 428 3762 290 
Q 3978 153 4325 116 
L 4325 0 
z
M 1316 2178 
Q 1375 2178 1419 2176 
Q 1463 2175 1491 2175 
Q 2097 2175 2405 2437 
Q 2713 2700 2713 3106 
Q 2713 3503 2464 3751 
Q 2216 4000 1806 4000 
Q 1625 4000 1316 3941 
L 1316 2178 
z
" transform="scale(0.015625)"/>
        <path id="TimesNewRomanPSMT-69" d="M 928 4444 
Q 1059 4444 1151 4351 
Q 1244 4259 1244 4128 
Q 1244 3997 1151 3903 
Q 1059 3809 928 3809 
Q 797 3809 703 3903 
Q 609 3997 609 4128 
Q 609 4259 701 4351 
Q 794 4444 928 4444 
z
M 1188 2947 
L 1188 647 
Q 1188 378 1227 289 
Q 1266 200 1342 156 
Q 1419 113 1622 113 
L 1622 0 
L 231 0 
L 231 113 
Q 441 113 512 153 
Q 584 194 626 287 
Q 669 381 669 647 
L 669 1750 
Q 669 2216 641 2353 
Q 619 2453 572 2492 
Q 525 2531 444 2531 
Q 356 2531 231 2484 
L 188 2597 
L 1050 2947 
L 1188 2947 
z
" transform="scale(0.015625)"/>
       </defs>
       <use xlink:href="#TimesNewRomanPSMT-31"/>
       <use xlink:href="#TimesNewRomanPSMT-31" x="46.25"/>
       <use xlink:href="#TimesNewRomanPSMT-37" x="96.25"/>
       <use xlink:href="#TimesNewRomanPSMT-63" x="146.25"/>
       <use xlink:href="#TimesNewRomanPSMT-5f" x="190.634766"/>
       <use xlink:href="#TimesNewRomanPSMT-6d" x="240.634766"/>
       <use xlink:href="#TimesNewRomanPSMT-5f" x="318.417969"/>
       <use xlink:href="#TimesNewRomanPSMT-52" x="368.417969"/>
       <use xlink:href="#TimesNewRomanPSMT-69" x="435.117188"/>
      </g>
     </g>
    </g>
    <g id="xtick_10">
     <g id="line2d_19">
      <path d="M 150.948512 94.643042 
L 150.948512 19.159688 
" clip-path="url(#p7cfef66935)" style="fill: none"/>
     </g>
     <g id="line2d_20">
      <g>
       <use xlink:href="#ma481dac28f" x="150.948512" y="94.643042" style="fill: #808080; stroke: #808080; stroke-width: 0.5"/>
      </g>
     </g>
     <g id="text_10">
      <!-- 117_m_Ra -->
      <g style="fill: #262626" transform="translate(125.113482 128.6748) rotate(-45) scale(0.08 -0.08)">
       <defs>
        <path id="TimesNewRomanPSMT-61" d="M 1822 413 
Q 1381 72 1269 19 
Q 1100 -59 909 -59 
Q 613 -59 420 144 
Q 228 347 228 678 
Q 228 888 322 1041 
Q 450 1253 767 1440 
Q 1084 1628 1822 1897 
L 1822 2009 
Q 1822 2438 1686 2597 
Q 1550 2756 1291 2756 
Q 1094 2756 978 2650 
Q 859 2544 859 2406 
L 866 2225 
Q 866 2081 792 2003 
Q 719 1925 600 1925 
Q 484 1925 411 2006 
Q 338 2088 338 2228 
Q 338 2497 613 2722 
Q 888 2947 1384 2947 
Q 1766 2947 2009 2819 
Q 2194 2722 2281 2516 
Q 2338 2381 2338 1966 
L 2338 994 
Q 2338 584 2353 492 
Q 2369 400 2405 369 
Q 2441 338 2488 338 
Q 2538 338 2575 359 
Q 2641 400 2828 588 
L 2828 413 
Q 2478 -56 2159 -56 
Q 2006 -56 1915 50 
Q 1825 156 1822 413 
z
M 1822 616 
L 1822 1706 
Q 1350 1519 1213 1441 
Q 966 1303 859 1153 
Q 753 1003 753 825 
Q 753 600 887 451 
Q 1022 303 1197 303 
Q 1434 303 1822 616 
z
" transform="scale(0.015625)"/>
       </defs>
       <use xlink:href="#TimesNewRomanPSMT-31"/>
       <use xlink:href="#TimesNewRomanPSMT-31" x="46.25"/>
       <use xlink:href="#TimesNewRomanPSMT-37" x="96.25"/>
       <use xlink:href="#TimesNewRomanPSMT-5f" x="146.25"/>
       <use xlink:href="#TimesNewRomanPSMT-6d" x="196.25"/>
       <use xlink:href="#TimesNewRomanPSMT-5f" x="274.033203"/>
       <use xlink:href="#TimesNewRomanPSMT-52" x="324.033203"/>
       <use xlink:href="#TimesNewRomanPSMT-61" x="390.732422"/>
      </g>
     </g>
    </g>
    <g id="xtick_11">
     <g id="line2d_21">
      <path d="M 162.931332 94.643042 
L 162.931332 19.159688 
" clip-path="url(#p7cfef66935)" style="fill: none"/>
     </g>
     <g id="line2d_22">
      <g>
       <use xlink:href="#ma481dac28f" x="162.931332" y="94.643042" style="fill: #808080; stroke: #808080; stroke-width: 0.5"/>
      </g>
     </g>
     <g id="text_11">
      <!-- 117_m_Vr -->
      <g style="fill: #262626" transform="translate(137.75126 128.019843) rotate(-45) scale(0.08 -0.08)">
       <defs>
        <path id="TimesNewRomanPSMT-56" d="M 4544 4238 
L 4544 4122 
Q 4319 4081 4203 3978 
Q 4038 3825 3909 3509 
L 2431 -97 
L 2316 -97 
L 728 3556 
Q 606 3838 556 3900 
Q 478 3997 364 4051 
Q 250 4106 56 4122 
L 56 4238 
L 1788 4238 
L 1788 4122 
Q 1494 4094 1406 4022 
Q 1319 3950 1319 3838 
Q 1319 3681 1463 3350 
L 2541 866 
L 3541 3319 
Q 3688 3681 3688 3822 
Q 3688 3913 3597 3995 
Q 3506 4078 3291 4113 
Q 3275 4116 3238 4122 
L 3238 4238 
L 4544 4238 
z
" transform="scale(0.015625)"/>
       </defs>
       <use xlink:href="#TimesNewRomanPSMT-31"/>
       <use xlink:href="#TimesNewRomanPSMT-31" x="46.25"/>
       <use xlink:href="#TimesNewRomanPSMT-37" x="96.25"/>
       <use xlink:href="#TimesNewRomanPSMT-5f" x="146.25"/>
       <use xlink:href="#TimesNewRomanPSMT-6d" x="196.25"/>
       <use xlink:href="#TimesNewRomanPSMT-5f" x="274.033203"/>
       <use xlink:href="#TimesNewRomanPSMT-56" x="324.033203"/>
       <use xlink:href="#TimesNewRomanPSMT-72" x="390.25"/>
      </g>
     </g>
    </g>
   </g>
   <g id="matplotlib.axis_2">
    <g id="ytick_1">
     <g id="line2d_23">
      <path d="M 37.111719 71.84003 
L 168.922742 71.84003 
" clip-path="url(#p7cfef66935)" style="fill: none; stroke: #808080; stroke-width: 0.5; stroke-linecap: round"/>
     </g>
     <g id="line2d_24">
      <defs>
       <path id="m0313c1dc0c" d="M 0 0 
L -2 0 
" style="stroke: #808080; stroke-width: 0.5"/>
      </defs>
      <g>
       <use xlink:href="#m0313c1dc0c" x="37.111719" y="71.84003" style="fill: #808080; stroke: #808080; stroke-width: 0.5"/>
      </g>
     </g>
     <g id="text_12">
      <!-- 0.2 -->
      <g style="fill: #262626" transform="translate(19.236719 75.277187) scale(0.099 -0.099)">
       <defs>
        <path id="TimesNewRomanPSMT-30" d="M 231 2094 
Q 231 2819 450 3342 
Q 669 3866 1031 4122 
Q 1313 4325 1613 4325 
Q 2100 4325 2488 3828 
Q 2972 3213 2972 2159 
Q 2972 1422 2759 906 
Q 2547 391 2217 158 
Q 1888 -75 1581 -75 
Q 975 -75 572 641 
Q 231 1244 231 2094 
z
M 844 2016 
Q 844 1141 1059 588 
Q 1238 122 1591 122 
Q 1759 122 1940 273 
Q 2122 425 2216 781 
Q 2359 1319 2359 2297 
Q 2359 3022 2209 3506 
Q 2097 3866 1919 4016 
Q 1791 4119 1609 4119 
Q 1397 4119 1231 3928 
Q 1006 3669 925 3112 
Q 844 2556 844 2016 
z
" transform="scale(0.015625)"/>
        <path id="TimesNewRomanPSMT-2e" d="M 800 606 
Q 947 606 1047 504 
Q 1147 403 1147 259 
Q 1147 116 1045 14 
Q 944 -88 800 -88 
Q 656 -88 554 14 
Q 453 116 453 259 
Q 453 406 554 506 
Q 656 606 800 606 
z
" transform="scale(0.015625)"/>
        <path id="TimesNewRomanPSMT-32" d="M 2934 816 
L 2638 0 
L 138 0 
L 138 116 
Q 1241 1122 1691 1759 
Q 2141 2397 2141 2925 
Q 2141 3328 1894 3587 
Q 1647 3847 1303 3847 
Q 991 3847 742 3664 
Q 494 3481 375 3128 
L 259 3128 
Q 338 3706 661 4015 
Q 984 4325 1469 4325 
Q 1984 4325 2329 3994 
Q 2675 3663 2675 3213 
Q 2675 2891 2525 2569 
Q 2294 2063 1775 1497 
Q 997 647 803 472 
L 1909 472 
Q 2247 472 2383 497 
Q 2519 522 2628 598 
Q 2738 675 2819 816 
L 2934 816 
z
" transform="scale(0.015625)"/>
       </defs>
       <use xlink:href="#TimesNewRomanPSMT-30"/>
       <use xlink:href="#TimesNewRomanPSMT-2e" x="50"/>
       <use xlink:href="#TimesNewRomanPSMT-32" x="75"/>
      </g>
     </g>
    </g>
    <g id="ytick_2">
     <g id="line2d_25">
      <path d="M 37.111719 22.590749 
L 168.922742 22.590749 
" clip-path="url(#p7cfef66935)" style="fill: none; stroke: #808080; stroke-width: 0.5; stroke-linecap: round"/>
     </g>
     <g id="line2d_26">
      <g>
       <use xlink:href="#m0313c1dc0c" x="37.111719" y="22.590749" style="fill: #808080; stroke: #808080; stroke-width: 0.5"/>
      </g>
     </g>
     <g id="text_13">
      <!-- 0.4 -->
      <g style="fill: #262626" transform="translate(19.236719 26.027905) scale(0.099 -0.099)">
       <use xlink:href="#TimesNewRomanPSMT-30"/>
       <use xlink:href="#TimesNewRomanPSMT-2e" x="50"/>
       <use xlink:href="#TimesNewRomanPSMT-34" x="75"/>
      </g>
     </g>
    </g>
    <g id="text_14">
     <!-- SpatRy -->
     <g style="fill: #262626" transform="translate(13.294688 70.996912) rotate(-90) scale(0.09 -0.09)">
      <defs>
       <path id="TimesNewRomanPS-BoldMT-53" d="M 3006 4334 
L 3041 2922 
L 2913 2922 
Q 2822 3453 2467 3776 
Q 2113 4100 1700 4100 
Q 1381 4100 1195 3929 
Q 1009 3759 1009 3538 
Q 1009 3397 1075 3288 
Q 1166 3141 1366 2997 
Q 1513 2894 2044 2631 
Q 2788 2266 3047 1941 
Q 3303 1616 3303 1197 
Q 3303 666 2889 283 
Q 2475 -100 1838 -100 
Q 1638 -100 1459 -59 
Q 1281 -19 1013 94 
Q 863 156 766 156 
Q 684 156 593 93 
Q 503 31 447 -97 
L 331 -97 
L 331 1503 
L 447 1503 
Q 584 828 976 473 
Q 1369 119 1822 119 
Q 2172 119 2380 309 
Q 2588 500 2588 753 
Q 2588 903 2508 1043 
Q 2428 1184 2265 1311 
Q 2103 1438 1691 1641 
Q 1113 1925 859 2125 
Q 606 2325 470 2572 
Q 334 2819 334 3116 
Q 334 3622 706 3978 
Q 1078 4334 1644 4334 
Q 1850 4334 2044 4284 
Q 2191 4247 2402 4145 
Q 2613 4044 2697 4044 
Q 2778 4044 2825 4094 
Q 2872 4144 2913 4334 
L 3006 4334 
z
" transform="scale(0.015625)"/>
       <path id="TimesNewRomanPS-BoldMT-70" d="M 1347 297 
L 1347 -791 
Q 1347 -1016 1383 -1097 
Q 1419 -1178 1494 -1215 
Q 1569 -1253 1788 -1253 
L 1788 -1369 
L 122 -1369 
L 122 -1253 
Q 316 -1247 409 -1144 
Q 472 -1072 472 -772 
L 472 2313 
Q 472 2622 400 2708 
Q 328 2794 122 2806 
L 122 2922 
L 1347 2922 
L 1347 2538 
Q 1500 2763 1659 2863 
Q 1888 3009 2156 3009 
Q 2478 3009 2742 2806 
Q 3006 2603 3143 2245 
Q 3281 1888 3281 1475 
Q 3281 1031 3139 664 
Q 2997 297 2726 104 
Q 2456 -88 2125 -88 
Q 1884 -88 1675 19 
Q 1519 100 1347 297 
z
M 1347 613 
Q 1616 231 1922 231 
Q 2091 231 2200 409 
Q 2363 672 2363 1409 
Q 2363 2166 2184 2444 
Q 2066 2628 1866 2628 
Q 1550 2628 1347 2172 
L 1347 613 
z
" transform="scale(0.015625)"/>
       <path id="TimesNewRomanPS-BoldMT-61" d="M 1828 431 
Q 1294 -41 869 -41 
Q 619 -41 453 123 
Q 288 288 288 534 
Q 288 869 575 1136 
Q 863 1403 1828 1847 
L 1828 2141 
Q 1828 2472 1792 2558 
Q 1756 2644 1656 2708 
Q 1556 2772 1431 2772 
Q 1228 2772 1097 2681 
Q 1016 2625 1016 2550 
Q 1016 2484 1103 2388 
Q 1222 2253 1222 2128 
Q 1222 1975 1108 1867 
Q 994 1759 809 1759 
Q 613 1759 480 1878 
Q 347 1997 347 2156 
Q 347 2381 525 2586 
Q 703 2791 1022 2900 
Q 1341 3009 1684 3009 
Q 2100 3009 2342 2832 
Q 2584 2656 2656 2450 
Q 2700 2319 2700 1847 
L 2700 713 
Q 2700 513 2715 461 
Q 2731 409 2762 384 
Q 2794 359 2834 359 
Q 2916 359 3000 475 
L 3094 400 
Q 2938 169 2770 64 
Q 2603 -41 2391 -41 
Q 2141 -41 2000 76 
Q 1859 194 1828 431 
z
M 1828 659 
L 1828 1638 
Q 1450 1416 1266 1163 
Q 1144 994 1144 822 
Q 1144 678 1247 569 
Q 1325 484 1466 484 
Q 1622 484 1828 659 
z
" transform="scale(0.015625)"/>
       <path id="TimesNewRomanPS-BoldMT-74" d="M 1375 3991 
L 1375 2922 
L 2069 2922 
L 2069 2613 
L 1375 2613 
L 1375 809 
Q 1375 556 1398 482 
Q 1422 409 1481 364 
Q 1541 319 1591 319 
Q 1794 319 1975 628 
L 2069 559 
Q 1816 -41 1247 -41 
Q 969 -41 776 114 
Q 584 269 531 459 
Q 500 566 500 1034 
L 500 2613 
L 119 2613 
L 119 2722 
Q 513 3000 789 3306 
Q 1066 3613 1272 3991 
L 1375 3991 
z
" transform="scale(0.015625)"/>
       <path id="TimesNewRomanPS-BoldMT-52" d="M 1700 1931 
L 1700 744 
Q 1700 400 1742 311 
Q 1784 222 1890 169 
Q 1997 116 2288 116 
L 2288 0 
L 119 0 
L 119 116 
Q 413 116 517 170 
Q 622 225 664 312 
Q 706 400 706 744 
L 706 3494 
Q 706 3838 664 3927 
Q 622 4016 515 4069 
Q 409 4122 119 4122 
L 119 4238 
L 2088 4238 
Q 2856 4238 3212 4131 
Q 3569 4025 3794 3739 
Q 4019 3453 4019 3069 
Q 4019 2600 3681 2294 
Q 3466 2100 3078 2003 
L 4097 569 
Q 4297 291 4381 222 
Q 4509 125 4678 116 
L 4678 0 
L 3344 0 
L 1978 1931 
L 1700 1931 
z
M 1700 4009 
L 1700 2153 
L 1878 2153 
Q 2313 2153 2528 2233 
Q 2744 2313 2867 2520 
Q 2991 2728 2991 3063 
Q 2991 3547 2764 3778 
Q 2538 4009 2034 4009 
L 1700 4009 
z
" transform="scale(0.015625)"/>
       <path id="TimesNewRomanPS-BoldMT-79" d="M 1556 -119 
L 613 2047 
Q 400 2538 298 2650 
Q 197 2763 53 2806 
L 53 2922 
L 1606 2922 
L 1606 2806 
Q 1453 2800 1390 2747 
Q 1328 2694 1328 2619 
Q 1328 2500 1484 2150 
L 1984 1006 
L 2325 1891 
Q 2509 2363 2509 2547 
Q 2509 2663 2432 2731 
Q 2356 2800 2163 2806 
L 2163 2922 
L 3141 2922 
L 3141 2806 
Q 2997 2791 2906 2695 
Q 2816 2600 2603 2047 
L 1769 -119 
Q 1453 -931 1300 -1119 
Q 1084 -1381 759 -1381 
Q 500 -1381 339 -1232 
Q 178 -1084 178 -875 
Q 178 -694 289 -575 
Q 400 -456 563 -456 
Q 719 -456 814 -556 
Q 909 -656 913 -866 
Q 916 -984 941 -1019 
Q 966 -1053 1013 -1053 
Q 1088 -1053 1172 -963 
Q 1297 -831 1466 -363 
L 1556 -119 
z
" transform="scale(0.015625)"/>
      </defs>
      <use xlink:href="#TimesNewRomanPS-BoldMT-53"/>
      <use xlink:href="#TimesNewRomanPS-BoldMT-70" x="55.615234"/>
      <use xlink:href="#TimesNewRomanPS-BoldMT-61" x="111.230469"/>
      <use xlink:href="#TimesNewRomanPS-BoldMT-74" x="161.230469"/>
      <use xlink:href="#TimesNewRomanPS-BoldMT-52" x="194.53125"/>
      <use xlink:href="#TimesNewRomanPS-BoldMT-79" x="263.248047"/>
     </g>
    </g>
   </g>
   <g id="patch_3">
    <path d="M 43.103129 121.089312 
L 43.103129 121.089312 
L 43.103129 121.089312 
L 43.103129 121.089312 
z
" clip-path="url(#p7cfef66935)" style="fill: #72b6a1; stroke: #595959; stroke-width: 0.5; stroke-linejoin: miter"/>
   </g>
   <g id="patch_4">
    <path d="M 43.103129 121.089312 
L 43.103129 121.089312 
L 43.103129 121.089312 
L 43.103129 121.089312 
z
" clip-path="url(#p7cfef66935)" style="fill: #e99675; stroke: #595959; stroke-width: 0.5; stroke-linejoin: miter"/>
   </g>
   <g id="patch_5">
    <path d="M 43.103129 121.089312 
L 43.103129 121.089312 
L 43.103129 121.089312 
L 43.103129 121.089312 
z
" clip-path="url(#p7cfef66935)" style="fill: #95a3c3; stroke: #595959; stroke-width: 0.5; stroke-linejoin: miter"/>
   </g>
   <g id="patch_6">
    <path d="M 43.103129 121.089312 
L 43.103129 121.089312 
L 43.103129 121.089312 
L 43.103129 121.089312 
z
" clip-path="url(#p7cfef66935)" style="fill: #db96c0; stroke: #595959; stroke-width: 0.5; stroke-linejoin: miter"/>
   </g>
   <g id="patch_7">
    <path d="M 43.103129 121.089312 
L 43.103129 121.089312 
L 43.103129 121.089312 
L 43.103129 121.089312 
z
" clip-path="url(#p7cfef66935)" style="fill: #a2c865; stroke: #595959; stroke-width: 0.5; stroke-linejoin: miter"/>
   </g>
   <g id="patch_8">
    <path d="M 43.103129 121.089312 
L 43.103129 121.089312 
L 43.103129 121.089312 
L 43.103129 121.089312 
z
" clip-path="url(#p7cfef66935)" style="fill: #e5c849; stroke: #595959; stroke-width: 0.5; stroke-linejoin: miter"/>
   </g>
   <g id="patch_9">
    <path d="M 43.103129 121.089312 
L 43.103129 121.089312 
L 43.103129 121.089312 
L 43.103129 121.089312 
z
" clip-path="url(#p7cfef66935)" style="fill: #dbc29e; stroke: #595959; stroke-width: 0.5; stroke-linejoin: miter"/>
   </g>
   <g id="patch_10">
    <path d="M 43.103129 121.089312 
L 43.103129 121.089312 
L 43.103129 121.089312 
L 43.103129 121.089312 
z
" clip-path="url(#p7cfef66935)" style="fill: #b3b3b3; stroke: #595959; stroke-width: 0.5; stroke-linejoin: miter"/>
   </g>
   <g id="patch_11">
    <path d="M 43.103129 121.089312 
L 43.103129 121.089312 
L 43.103129 121.089312 
L 43.103129 121.089312 
z
" clip-path="url(#p7cfef66935)" style="fill: #72b6a1; stroke: #595959; stroke-width: 0.5; stroke-linejoin: miter"/>
   </g>
   <g id="patch_12">
    <path d="M 43.103129 121.089312 
L 43.103129 121.089312 
L 43.103129 121.089312 
L 43.103129 121.089312 
z
" clip-path="url(#p7cfef66935)" style="fill: #e99675; stroke: #595959; stroke-width: 0.5; stroke-linejoin: miter"/>
   </g>
   <g id="patch_13">
    <path d="M 43.103129 121.089312 
L 43.103129 121.089312 
L 43.103129 121.089312 
L 43.103129 121.089312 
z
" clip-path="url(#p7cfef66935)" style="fill: #95a3c3; stroke: #595959; stroke-width: 0.5; stroke-linejoin: miter"/>
   </g>
   <g id="PolyCollection_1">
    <defs>
     <path id="m17fc546473" d="M 127.631627 -47.465615 
L 126.334115 -47.465615 
L 126.21809 -47.665235 
L 126.087659 -47.864855 
L 125.942356 -48.064475 
L 125.781979 -48.264096 
L 125.606635 -48.463716 
L 125.416787 -48.663336 
L 125.213289 -48.862957 
L 124.997419 -49.062577 
L 124.770889 -49.262197 
L 124.535854 -49.461817 
L 124.294893 -49.661438 
L 124.050981 -49.861058 
L 123.807437 -50.060678 
L 123.567862 -50.260298 
L 123.336055 -50.459919 
L 123.115915 -50.659539 
L 122.911338 -50.859159 
L 122.726101 -51.05878 
L 122.563751 -51.2584 
L 122.427488 -51.45802 
L 122.320062 -51.65764 
L 122.243682 -51.857261 
L 122.199936 -52.056881 
L 122.189743 -52.256501 
L 122.213313 -52.456121 
L 122.270142 -52.655742 
L 122.359032 -52.855362 
L 122.478128 -53.054982 
L 122.624983 -53.254602 
L 122.796639 -53.454223 
L 122.989726 -53.653843 
L 123.200568 -53.853463 
L 123.425295 -54.053084 
L 123.65996 -54.252704 
L 123.900644 -54.452324 
L 124.143561 -54.651944 
L 124.385145 -54.851565 
L 124.622124 -55.051185 
L 124.85158 -55.250805 
L 125.070987 -55.450425 
L 125.278234 -55.650046 
L 125.471633 -55.849666 
L 125.649909 -56.049286 
L 125.81218 -56.248907 
L 125.957924 -56.448527 
L 126.08694 -56.648147 
L 126.199309 -56.847767 
L 126.295344 -57.047388 
L 126.375545 -57.247008 
L 126.440562 -57.446628 
L 126.491156 -57.646248 
L 126.528163 -57.845869 
L 126.552474 -58.045489 
L 126.565011 -58.245109 
L 126.566719 -58.444729 
L 126.558551 -58.64435 
L 126.541475 -58.84397 
L 126.516465 -59.04359 
L 126.484509 -59.243211 
L 126.446612 -59.442831 
L 126.403802 -59.642451 
L 126.357127 -59.842071 
L 126.307658 -60.041692 
L 126.256487 -60.241312 
L 126.204716 -60.440932 
L 126.153452 -60.640552 
L 126.103789 -60.840173 
L 126.056791 -61.039793 
L 126.013473 -61.239413 
L 125.974783 -61.439034 
L 125.941574 -61.638654 
L 125.914588 -61.838274 
L 125.894437 -62.037894 
L 125.881583 -62.237515 
L 125.876331 -62.437135 
L 125.878816 -62.636755 
L 125.889004 -62.836375 
L 125.906696 -63.035996 
L 125.931532 -63.235616 
L 125.963009 -63.435236 
L 126.000496 -63.634856 
L 126.043258 -63.834477 
L 126.090478 -64.034097 
L 126.141286 -64.233717 
L 126.194784 -64.433338 
L 126.250073 -64.632958 
L 126.306278 -64.832578 
L 126.362566 -65.032198 
L 126.418174 -65.231819 
L 126.472413 -65.431439 
L 126.524689 -65.631059 
L 126.574506 -65.830679 
L 126.621467 -66.0303 
L 126.665278 -66.22992 
L 126.705742 -66.42954 
L 126.742752 -66.629161 
L 126.776284 -66.828781 
L 126.806383 -67.028401 
L 126.833158 -67.228021 
L 127.132584 -67.228021 
L 127.132584 -67.228021 
L 127.159359 -67.028401 
L 127.189459 -66.828781 
L 127.22299 -66.629161 
L 127.26 -66.42954 
L 127.300464 -66.22992 
L 127.344275 -66.0303 
L 127.391237 -65.830679 
L 127.441053 -65.631059 
L 127.493329 -65.431439 
L 127.547569 -65.231819 
L 127.603176 -65.032198 
L 127.659465 -64.832578 
L 127.715669 -64.632958 
L 127.770958 -64.433338 
L 127.824457 -64.233717 
L 127.875265 -64.034097 
L 127.922485 -63.834477 
L 127.965246 -63.634856 
L 128.002733 -63.435236 
L 128.03421 -63.235616 
L 128.059046 -63.035996 
L 128.076738 -62.836375 
L 128.086927 -62.636755 
L 128.089412 -62.437135 
L 128.084159 -62.237515 
L 128.071306 -62.037894 
L 128.051154 -61.838274 
L 128.024169 -61.638654 
L 127.99096 -61.439034 
L 127.952269 -61.239413 
L 127.908952 -61.039793 
L 127.861953 -60.840173 
L 127.81229 -60.640552 
L 127.761026 -60.440932 
L 127.709256 -60.241312 
L 127.658084 -60.041692 
L 127.608615 -59.842071 
L 127.56194 -59.642451 
L 127.51913 -59.442831 
L 127.481234 -59.243211 
L 127.449278 -59.04359 
L 127.424267 -58.84397 
L 127.407191 -58.64435 
L 127.399024 -58.444729 
L 127.400731 -58.245109 
L 127.413269 -58.045489 
L 127.437579 -57.845869 
L 127.474586 -57.646248 
L 127.52518 -57.446628 
L 127.590198 -57.247008 
L 127.670399 -57.047388 
L 127.766433 -56.847767 
L 127.878802 -56.648147 
L 128.007819 -56.448527 
L 128.153563 -56.248907 
L 128.315833 -56.049286 
L 128.494109 -55.849666 
L 128.687508 -55.650046 
L 128.894755 -55.450425 
L 129.114162 -55.250805 
L 129.343618 -55.051185 
L 129.580597 -54.851565 
L 129.822181 -54.651944 
L 130.065098 -54.452324 
L 130.305782 -54.252704 
L 130.540447 -54.053084 
L 130.765175 -53.853463 
L 130.976016 -53.653843 
L 131.169103 -53.454223 
L 131.34076 -53.254602 
L 131.487614 -53.054982 
L 131.60671 -52.855362 
L 131.6956 -52.655742 
L 131.75243 -52.456121 
L 131.775999 -52.256501 
L 131.765806 -52.056881 
L 131.722061 -51.857261 
L 131.64568 -51.65764 
L 131.538254 -51.45802 
L 131.401991 -51.2584 
L 131.239641 -51.05878 
L 131.054405 -50.859159 
L 130.849827 -50.659539 
L 130.629687 -50.459919 
L 130.39788 -50.260298 
L 130.158306 -50.060678 
L 129.914762 -49.861058 
L 129.670849 -49.661438 
L 129.429888 -49.461817 
L 129.194853 -49.262197 
L 128.968323 -49.062577 
L 128.752453 -48.862957 
L 128.548955 -48.663336 
L 128.359107 -48.463716 
L 128.183763 -48.264096 
L 128.023386 -48.064475 
L 127.878084 -47.864855 
L 127.747652 -47.665235 
L 127.631627 -47.465615 
z
" style="stroke: #595959"/>
    </defs>
    <g clip-path="url(#pfd94bc179c)">
     <use xlink:href="#m17fc546473" x="0" y="138.677595" style="fill: #b3b3b3; stroke: #595959"/>
    </g>
   </g>
   <g id="PathCollection_1"/>
   <g id="PathCollection_2"/>
   <g id="PathCollection_3"/>
   <g id="PathCollection_4"/>
   <g id="PathCollection_5"/>
   <g id="PathCollection_6"/>
   <g id="PathCollection_7"/>
   <g id="PathCollection_8"/>
   <g id="PathCollection_9"/>
   <g id="PathCollection_10"/>
   <g id="PathCollection_11"/>
   <g id="line2d_27">
    <path d="M 38.310001 22.590749 
L 47.896257 22.590749 
" clip-path="url(#p7cfef66935)" style="fill: none; stroke: #595959; stroke-linecap: round"/>
   </g>
   <g id="line2d_28">
    <path d="M 50.292821 84.152351 
L 59.879077 84.152351 
" clip-path="url(#p7cfef66935)" style="fill: none; stroke: #595959; stroke-linecap: round"/>
   </g>
   <g id="line2d_29">
    <path d="M 62.275641 47.21539 
L 71.861898 47.21539 
" clip-path="url(#p7cfef66935)" style="fill: none; stroke: #595959; stroke-linecap: round"/>
   </g>
   <g id="line2d_30">
    <path d="M 74.258462 86.460911 
L 83.844718 86.460911 
" clip-path="url(#p7cfef66935)" style="fill: none; stroke: #595959; stroke-linecap: round"/>
   </g>
   <g id="line2d_31">
    <path d="M 86.241282 22.590749 
L 95.827538 22.590749 
" clip-path="url(#p7cfef66935)" style="fill: none; stroke: #595959; stroke-linecap: round"/>
   </g>
   <g id="line2d_32">
    <path d="M 98.224102 22.590749 
L 107.810359 22.590749 
" clip-path="url(#p7cfef66935)" style="fill: none; stroke: #595959; stroke-linecap: round"/>
   </g>
   <g id="line2d_33">
    <path d="M 110.206923 22.590749 
L 119.793179 22.590749 
" clip-path="url(#p7cfef66935)" style="fill: none; stroke: #595959; stroke-linecap: round"/>
   </g>
   <g id="line2d_34">
    <path d="M 134.172563 39.007175 
L 143.75882 39.007175 
" clip-path="url(#p7cfef66935)" style="fill: none; stroke: #595959; stroke-linecap: round"/>
   </g>
   <g id="line2d_35">
    <path d="M 146.155384 76.200643 
L 155.74164 76.200643 
" clip-path="url(#p7cfef66935)" style="fill: none; stroke: #595959; stroke-linecap: round"/>
   </g>
   <g id="line2d_36">
    <path d="M 158.138204 49.9241 
L 167.72446 49.9241 
" clip-path="url(#p7cfef66935)" style="fill: none; stroke: #595959; stroke-linecap: round"/>
   </g>
   <g id="line2d_37">
    <path d="M 43.103129 22.590749 
L 43.103129 22.590749 
" clip-path="url(#p7cfef66935)" style="fill: none; stroke: #474747; stroke-linecap: round"/>
   </g>
   <g id="line2d_38">
    <path d="M 43.103129 22.590749 
L 43.103129 22.590749 
" clip-path="url(#p7cfef66935)" style="fill: none; stroke: #474747; stroke-linecap: round"/>
   </g>
   <g id="line2d_39">
    <path d="M 42.204417 22.590749 
L 44.00184 22.590749 
" clip-path="url(#p7cfef66935)" style="fill: none; stroke: #474747; stroke-linecap: round"/>
   </g>
   <g id="line2d_40">
    <path d="M 42.204417 22.590749 
L 44.00184 22.590749 
" clip-path="url(#p7cfef66935)" style="fill: none; stroke: #474747; stroke-linecap: round"/>
   </g>
   <g id="line2d_41">
    <path d="M 55.085949 84.152351 
L 55.085949 84.152351 
" clip-path="url(#p7cfef66935)" style="fill: none; stroke: #474747; stroke-linecap: round"/>
   </g>
   <g id="line2d_42">
    <path d="M 55.085949 84.152351 
L 55.085949 84.152351 
" clip-path="url(#p7cfef66935)" style="fill: none; stroke: #474747; stroke-linecap: round"/>
   </g>
   <g id="line2d_43">
    <path d="M 54.187238 84.152351 
L 55.984661 84.152351 
" clip-path="url(#p7cfef66935)" style="fill: none; stroke: #474747; stroke-linecap: round"/>
   </g>
   <g id="line2d_44">
    <path d="M 54.187238 84.152351 
L 55.984661 84.152351 
" clip-path="url(#p7cfef66935)" style="fill: none; stroke: #474747; stroke-linecap: round"/>
   </g>
   <g id="line2d_45">
    <path d="M 67.06877 47.21539 
L 67.06877 47.21539 
" clip-path="url(#p7cfef66935)" style="fill: none; stroke: #474747; stroke-linecap: round"/>
   </g>
   <g id="line2d_46">
    <path d="M 67.06877 47.21539 
L 67.06877 47.21539 
" clip-path="url(#p7cfef66935)" style="fill: none; stroke: #474747; stroke-linecap: round"/>
   </g>
   <g id="line2d_47">
    <path d="M 66.170058 47.21539 
L 67.967481 47.21539 
" clip-path="url(#p7cfef66935)" style="fill: none; stroke: #474747; stroke-linecap: round"/>
   </g>
   <g id="line2d_48">
    <path d="M 66.170058 47.21539 
L 67.967481 47.21539 
" clip-path="url(#p7cfef66935)" style="fill: none; stroke: #474747; stroke-linecap: round"/>
   </g>
   <g id="line2d_49">
    <path d="M 79.05159 86.460911 
L 79.05159 86.460911 
" clip-path="url(#p7cfef66935)" style="fill: none; stroke: #474747; stroke-linecap: round"/>
   </g>
   <g id="line2d_50">
    <path d="M 79.05159 86.460911 
L 79.05159 86.460911 
" clip-path="url(#p7cfef66935)" style="fill: none; stroke: #474747; stroke-linecap: round"/>
   </g>
   <g id="line2d_51">
    <path d="M 78.152878 86.460911 
L 79.950301 86.460911 
" clip-path="url(#p7cfef66935)" style="fill: none; stroke: #474747; stroke-linecap: round"/>
   </g>
   <g id="line2d_52">
    <path d="M 78.152878 86.460911 
L 79.950301 86.460911 
" clip-path="url(#p7cfef66935)" style="fill: none; stroke: #474747; stroke-linecap: round"/>
   </g>
   <g id="line2d_53">
    <path d="M 91.03441 22.590749 
L 91.03441 22.590749 
" clip-path="url(#p7cfef66935)" style="fill: none; stroke: #474747; stroke-linecap: round"/>
   </g>
   <g id="line2d_54">
    <path d="M 91.03441 22.590749 
L 91.03441 22.590749 
" clip-path="url(#p7cfef66935)" style="fill: none; stroke: #474747; stroke-linecap: round"/>
   </g>
   <g id="line2d_55">
    <path d="M 90.135699 22.590749 
L 91.933122 22.590749 
" clip-path="url(#p7cfef66935)" style="fill: none; stroke: #474747; stroke-linecap: round"/>
   </g>
   <g id="line2d_56">
    <path d="M 90.135699 22.590749 
L 91.933122 22.590749 
" clip-path="url(#p7cfef66935)" style="fill: none; stroke: #474747; stroke-linecap: round"/>
   </g>
   <g id="line2d_57">
    <path d="M 103.017231 22.590749 
L 103.017231 22.590749 
" clip-path="url(#p7cfef66935)" style="fill: none; stroke: #474747; stroke-linecap: round"/>
   </g>
   <g id="line2d_58">
    <path d="M 103.017231 22.590749 
L 103.017231 22.590749 
" clip-path="url(#p7cfef66935)" style="fill: none; stroke: #474747; stroke-linecap: round"/>
   </g>
   <g id="line2d_59">
    <path d="M 102.118519 22.590749 
L 103.915942 22.590749 
" clip-path="url(#p7cfef66935)" style="fill: none; stroke: #474747; stroke-linecap: round"/>
   </g>
   <g id="line2d_60">
    <path d="M 102.118519 22.590749 
L 103.915942 22.590749 
" clip-path="url(#p7cfef66935)" style="fill: none; stroke: #474747; stroke-linecap: round"/>
   </g>
   <g id="line2d_61">
    <path d="M 115.000051 22.590749 
L 115.000051 22.590749 
" clip-path="url(#p7cfef66935)" style="fill: none; stroke: #474747; stroke-linecap: round"/>
   </g>
   <g id="line2d_62">
    <path d="M 115.000051 22.590749 
L 115.000051 22.590749 
" clip-path="url(#p7cfef66935)" style="fill: none; stroke: #474747; stroke-linecap: round"/>
   </g>
   <g id="line2d_63">
    <path d="M 114.101339 22.590749 
L 115.898762 22.590749 
" clip-path="url(#p7cfef66935)" style="fill: none; stroke: #474747; stroke-linecap: round"/>
   </g>
   <g id="line2d_64">
    <path d="M 114.101339 22.590749 
L 115.898762 22.590749 
" clip-path="url(#p7cfef66935)" style="fill: none; stroke: #474747; stroke-linecap: round"/>
   </g>
   <g id="line2d_65">
    <path d="M 126.982871 86.460911 
L 126.982871 86.460911 
" clip-path="url(#p7cfef66935)" style="fill: none; stroke: #474747; stroke-linecap: round"/>
   </g>
   <g id="line2d_66">
    <path d="M 126.982871 86.460911 
L 126.982871 86.460911 
" clip-path="url(#p7cfef66935)" style="fill: none; stroke: #474747; stroke-linecap: round"/>
   </g>
   <g id="line2d_67">
    <path d="M 126.08416 86.460911 
L 127.881583 86.460911 
" clip-path="url(#p7cfef66935)" style="fill: none; stroke: #474747; stroke-linecap: round"/>
   </g>
   <g id="line2d_68">
    <path d="M 126.08416 86.460911 
L 127.881583 86.460911 
" clip-path="url(#p7cfef66935)" style="fill: none; stroke: #474747; stroke-linecap: round"/>
   </g>
   <g id="line2d_69">
    <path d="M 138.965692 39.007175 
L 138.965692 39.007175 
" clip-path="url(#p7cfef66935)" style="fill: none; stroke: #474747; stroke-linecap: round"/>
   </g>
   <g id="line2d_70">
    <path d="M 138.965692 39.007175 
L 138.965692 39.007175 
" clip-path="url(#p7cfef66935)" style="fill: none; stroke: #474747; stroke-linecap: round"/>
   </g>
   <g id="line2d_71">
    <path d="M 138.06698 39.007175 
L 139.864403 39.007175 
" clip-path="url(#p7cfef66935)" style="fill: none; stroke: #474747; stroke-linecap: round"/>
   </g>
   <g id="line2d_72">
    <path d="M 138.06698 39.007175 
L 139.864403 39.007175 
" clip-path="url(#p7cfef66935)" style="fill: none; stroke: #474747; stroke-linecap: round"/>
   </g>
   <g id="line2d_73">
    <path d="M 150.948512 76.200643 
L 150.948512 76.200643 
" clip-path="url(#p7cfef66935)" style="fill: none; stroke: #474747; stroke-linecap: round"/>
   </g>
   <g id="line2d_74">
    <path d="M 150.948512 76.200643 
L 150.948512 76.200643 
" clip-path="url(#p7cfef66935)" style="fill: none; stroke: #474747; stroke-linecap: round"/>
   </g>
   <g id="line2d_75">
    <path d="M 150.0498 76.200643 
L 151.847223 76.200643 
" clip-path="url(#p7cfef66935)" style="fill: none; stroke: #474747; stroke-linecap: round"/>
   </g>
   <g id="line2d_76">
    <path d="M 150.0498 76.200643 
L 151.847223 76.200643 
" clip-path="url(#p7cfef66935)" style="fill: none; stroke: #474747; stroke-linecap: round"/>
   </g>
   <g id="line2d_77">
    <path d="M 162.931332 49.9241 
L 162.931332 49.9241 
" clip-path="url(#p7cfef66935)" style="fill: none; stroke: #474747; stroke-linecap: round"/>
   </g>
   <g id="line2d_78">
    <path d="M 162.931332 49.9241 
L 162.931332 49.9241 
" clip-path="url(#p7cfef66935)" style="fill: none; stroke: #474747; stroke-linecap: round"/>
   </g>
   <g id="line2d_79">
    <path d="M 162.032621 49.9241 
L 163.830044 49.9241 
" clip-path="url(#p7cfef66935)" style="fill: none; stroke: #474747; stroke-linecap: round"/>
   </g>
   <g id="line2d_80">
    <path d="M 162.032621 49.9241 
L 163.830044 49.9241 
" clip-path="url(#p7cfef66935)" style="fill: none; stroke: #474747; stroke-linecap: round"/>
   </g>
   <g id="line2d_81">
    <path d="M 41.305706 22.590749 
L 44.900552 22.590749 
" clip-path="url(#p7cfef66935)" style="fill: none; stroke: #474747; stroke-linecap: round"/>
   </g>
   <g id="line2d_82">
    <path d="M 53.288526 84.152351 
L 56.883372 84.152351 
" clip-path="url(#p7cfef66935)" style="fill: none; stroke: #474747; stroke-linecap: round"/>
   </g>
   <g id="line2d_83">
    <path d="M 65.271347 47.21539 
L 68.866193 47.21539 
" clip-path="url(#p7cfef66935)" style="fill: none; stroke: #474747; stroke-linecap: round"/>
   </g>
   <g id="line2d_84">
    <path d="M 77.254167 86.460911 
L 80.849013 86.460911 
" clip-path="url(#p7cfef66935)" style="fill: none; stroke: #474747; stroke-linecap: round"/>
   </g>
   <g id="line2d_85">
    <path d="M 89.236987 22.590749 
L 92.831833 22.590749 
" clip-path="url(#p7cfef66935)" style="fill: none; stroke: #474747; stroke-linecap: round"/>
   </g>
   <g id="line2d_86">
    <path d="M 101.219808 22.590749 
L 104.814654 22.590749 
" clip-path="url(#p7cfef66935)" style="fill: none; stroke: #474747; stroke-linecap: round"/>
   </g>
   <g id="line2d_87">
    <path d="M 113.202628 22.590749 
L 116.797474 22.590749 
" clip-path="url(#p7cfef66935)" style="fill: none; stroke: #474747; stroke-linecap: round"/>
   </g>
   <g id="line2d_88">
    <path d="M 125.185448 86.460911 
L 128.780294 86.460911 
" clip-path="url(#p7cfef66935)" style="fill: none; stroke: #474747; stroke-linecap: round"/>
   </g>
   <g id="line2d_89">
    <path d="M 137.168268 39.007175 
L 140.763115 39.007175 
" clip-path="url(#p7cfef66935)" style="fill: none; stroke: #474747; stroke-linecap: round"/>
   </g>
   <g id="line2d_90">
    <path d="M 149.151089 76.200643 
L 152.745935 76.200643 
" clip-path="url(#p7cfef66935)" style="fill: none; stroke: #474747; stroke-linecap: round"/>
   </g>
   <g id="line2d_91">
    <path d="M 161.133909 49.9241 
L 164.728755 49.9241 
" clip-path="url(#p7cfef66935)" style="fill: none; stroke: #474747; stroke-linecap: round"/>
   </g>
   <g id="patch_14">
    <path d="M 37.111719 94.643042 
L 37.111719 19.159688 
" style="fill: none; stroke: #262626; stroke-width: 0.5; stroke-linejoin: miter; stroke-linecap: square"/>
   </g>
   <g id="patch_15">
    <path d="M 168.922742 94.643042 
L 168.922742 19.159688 
" style="fill: none; stroke: #262626; stroke-width: 0.5; stroke-linejoin: miter; stroke-linecap: square"/>
   </g>
   <g id="patch_16">
    <path d="M 37.111719 94.643042 
L 168.922742 94.643042 
" style="fill: none; stroke: #262626; stroke-width: 0.5; stroke-linejoin: miter; stroke-linecap: square"/>
   </g>
   <g id="patch_17">
    <path d="M 37.111719 19.159688 
L 168.922742 19.159688 
" style="fill: none; stroke: #262626; stroke-width: 0.5; stroke-linejoin: miter; stroke-linecap: square"/>
   </g>
   <g id="patch_18">
    <path d="M 41.305706 22.590749 
L 44.900552 22.590749 
L 44.900552 22.590749 
L 41.305706 22.590749 
L 41.305706 22.590749 
L 41.305706 22.590749 
z
" clip-path="url(#p7cfef66935)" style="fill: none; stroke: #474747; stroke-linejoin: miter"/>
   </g>
   <g id="patch_19">
    <path d="M 53.288526 84.152351 
L 56.883372 84.152351 
L 56.883372 84.152351 
L 53.288526 84.152351 
L 53.288526 84.152351 
L 53.288526 84.152351 
z
" clip-path="url(#p7cfef66935)" style="fill: none; stroke: #474747; stroke-linejoin: miter"/>
   </g>
   <g id="patch_20">
    <path d="M 65.271347 47.21539 
L 68.866193 47.21539 
L 68.866193 47.21539 
L 65.271347 47.21539 
L 65.271347 47.21539 
L 65.271347 47.21539 
z
" clip-path="url(#p7cfef66935)" style="fill: none; stroke: #474747; stroke-linejoin: miter"/>
   </g>
   <g id="patch_21">
    <path d="M 77.254167 86.460911 
L 80.849013 86.460911 
L 80.849013 86.460911 
L 77.254167 86.460911 
L 77.254167 86.460911 
L 77.254167 86.460911 
z
" clip-path="url(#p7cfef66935)" style="fill: none; stroke: #474747; stroke-linejoin: miter"/>
   </g>
   <g id="patch_22">
    <path d="M 89.236987 22.590749 
L 92.831833 22.590749 
L 92.831833 22.590749 
L 89.236987 22.590749 
L 89.236987 22.590749 
L 89.236987 22.590749 
z
" clip-path="url(#p7cfef66935)" style="fill: none; stroke: #474747; stroke-linejoin: miter"/>
   </g>
   <g id="patch_23">
    <path d="M 101.219808 22.590749 
L 104.814654 22.590749 
L 104.814654 22.590749 
L 101.219808 22.590749 
L 101.219808 22.590749 
L 101.219808 22.590749 
z
" clip-path="url(#p7cfef66935)" style="fill: none; stroke: #474747; stroke-linejoin: miter"/>
   </g>
   <g id="patch_24">
    <path d="M 113.202628 22.590749 
L 116.797474 22.590749 
L 116.797474 22.590749 
L 113.202628 22.590749 
L 113.202628 22.590749 
L 113.202628 22.590749 
z
" clip-path="url(#p7cfef66935)" style="fill: none; stroke: #474747; stroke-linejoin: miter"/>
   </g>
   <g id="patch_25">
    <path d="M 125.185448 86.460911 
L 128.780294 86.460911 
L 128.780294 86.460911 
L 125.185448 86.460911 
L 125.185448 86.460911 
L 125.185448 86.460911 
z
" clip-path="url(#p7cfef66935)" style="fill: none; stroke: #474747; stroke-linejoin: miter"/>
   </g>
   <g id="patch_26">
    <path d="M 137.168268 39.007175 
L 140.763115 39.007175 
L 140.763115 39.007175 
L 137.168268 39.007175 
L 137.168268 39.007175 
L 137.168268 39.007175 
z
" clip-path="url(#p7cfef66935)" style="fill: none; stroke: #474747; stroke-linejoin: miter"/>
   </g>
   <g id="patch_27">
    <path d="M 149.151089 76.200643 
L 152.745935 76.200643 
L 152.745935 76.200643 
L 149.151089 76.200643 
L 149.151089 76.200643 
L 149.151089 76.200643 
z
" clip-path="url(#p7cfef66935)" style="fill: none; stroke: #474747; stroke-linejoin: miter"/>
   </g>
   <g id="patch_28">
    <path d="M 161.133909 49.9241 
L 164.728755 49.9241 
L 164.728755 49.9241 
L 161.133909 49.9241 
L 161.133909 49.9241 
L 161.133909 49.9241 
z
" clip-path="url(#p7cfef66935)" style="fill: none; stroke: #474747; stroke-linejoin: miter"/>
   </g>
   <g id="PathCollection_12">
    <defs>
     <path id="C0_0_0f522d99fb" d="M 0 0.55 
C 0.145862 0.55 0.285769 0.492049 0.388909 0.388909 
C 0.492049 0.285769 0.55 0.145862 0.55 -0 
C 0.55 -0.145862 0.492049 -0.285769 0.388909 -0.388909 
C 0.285769 -0.492049 0.145862 -0.55 0 -0.55 
C -0.145862 -0.55 -0.285769 -0.492049 -0.388909 -0.388909 
C -0.492049 -0.285769 -0.55 -0.145862 -0.55 0 
C -0.55 0.145862 -0.492049 0.285769 -0.388909 0.388909 
C -0.285769 0.492049 -0.145862 0.55 0 0.55 
z
"/>
    </defs>
    <g clip-path="url(#p7cfef66935)">
     <use xlink:href="#C0_0_0f522d99fb" x="44.792912" y="22.590749" style="fill: #66c2a5"/>
    </g>
    <g clip-path="url(#p7cfef66935)">
     <use xlink:href="#C0_0_0f522d99fb" x="43.551993" y="22.590749" style="fill: #66c2a5"/>
    </g>
    <g clip-path="url(#p7cfef66935)">
     <use xlink:href="#C0_0_0f522d99fb" x="45.706307" y="22.590749" style="fill: #66c2a5"/>
    </g>
    <g clip-path="url(#p7cfef66935)">
     <use xlink:href="#C0_0_0f522d99fb" x="43.508685" y="22.590749" style="fill: #66c2a5"/>
    </g>
    <g clip-path="url(#p7cfef66935)">
     <use xlink:href="#C0_0_0f522d99fb" x="45.69542" y="22.590749" style="fill: #66c2a5"/>
    </g>
    <g clip-path="url(#p7cfef66935)">
     <use xlink:href="#C0_0_0f522d99fb" x="43.953866" y="22.590749" style="fill: #66c2a5"/>
    </g>
    <g clip-path="url(#p7cfef66935)">
     <use xlink:href="#C0_0_0f522d99fb" x="44.230116" y="22.590749" style="fill: #66c2a5"/>
    </g>
    <g clip-path="url(#p7cfef66935)">
     <use xlink:href="#C0_0_0f522d99fb" x="43.401742" y="22.590749" style="fill: #66c2a5"/>
    </g>
    <g clip-path="url(#p7cfef66935)">
     <use xlink:href="#C0_0_0f522d99fb" x="45.699193" y="22.590749" style="fill: #66c2a5"/>
    </g>
    <g clip-path="url(#p7cfef66935)">
     <use xlink:href="#C0_0_0f522d99fb" x="44.629068" y="22.590749" style="fill: #66c2a5"/>
    </g>
    <g clip-path="url(#p7cfef66935)">
     <use xlink:href="#C0_0_0f522d99fb" x="45.017206" y="22.590749" style="fill: #66c2a5"/>
    </g>
    <g clip-path="url(#p7cfef66935)">
     <use xlink:href="#C0_0_0f522d99fb" x="44.457285" y="22.590749" style="fill: #66c2a5"/>
    </g>
    <g clip-path="url(#p7cfef66935)">
     <use xlink:href="#C0_0_0f522d99fb" x="44.109447" y="22.590749" style="fill: #66c2a5"/>
    </g>
    <g clip-path="url(#p7cfef66935)">
     <use xlink:href="#C0_0_0f522d99fb" x="44.432561" y="22.590749" style="fill: #66c2a5"/>
    </g>
    <g clip-path="url(#p7cfef66935)">
     <use xlink:href="#C0_0_0f522d99fb" x="44.252882" y="22.590749" style="fill: #66c2a5"/>
    </g>
    <g clip-path="url(#p7cfef66935)">
     <use xlink:href="#C0_0_0f522d99fb" x="44.763977" y="22.590749" style="fill: #66c2a5"/>
    </g>
    <g clip-path="url(#p7cfef66935)">
     <use xlink:href="#C0_0_0f522d99fb" x="45.207656" y="22.590749" style="fill: #66c2a5"/>
    </g>
    <g clip-path="url(#p7cfef66935)">
     <use xlink:href="#C0_0_0f522d99fb" x="45.499765" y="22.590749" style="fill: #66c2a5"/>
    </g>
   </g>
   <g id="PathCollection_13">
    <defs>
     <path id="C1_0_1cc7519451" d="M 0 0.55 
C 0.145862 0.55 0.285769 0.492049 0.388909 0.388909 
C 0.492049 0.285769 0.55 0.145862 0.55 -0 
C 0.55 -0.145862 0.492049 -0.285769 0.388909 -0.388909 
C 0.285769 -0.492049 0.145862 -0.55 0 -0.55 
C -0.145862 -0.55 -0.285769 -0.492049 -0.388909 -0.388909 
C -0.492049 -0.285769 -0.55 -0.145862 -0.55 0 
C -0.55 0.145862 -0.492049 0.285769 -0.388909 0.388909 
C -0.285769 0.492049 -0.145862 0.55 0 0.55 
z
"/>
    </defs>
    <g clip-path="url(#p7cfef66935)">
     <use xlink:href="#C1_0_1cc7519451" x="57.017679" y="84.152351" style="fill: #fc8d62"/>
    </g>
    <g clip-path="url(#p7cfef66935)">
     <use xlink:href="#C1_0_1cc7519451" x="56.061847" y="84.152351" style="fill: #fc8d62"/>
    </g>
    <g clip-path="url(#p7cfef66935)">
     <use xlink:href="#C1_0_1cc7519451" x="56.610684" y="84.152351" style="fill: #fc8d62"/>
    </g>
    <g clip-path="url(#p7cfef66935)">
     <use xlink:href="#C1_0_1cc7519451" x="55.555408" y="84.152351" style="fill: #fc8d62"/>
    </g>
    <g clip-path="url(#p7cfef66935)">
     <use xlink:href="#C1_0_1cc7519451" x="56.749679" y="84.152351" style="fill: #fc8d62"/>
    </g>
   </g>
   <g id="PathCollection_14">
    <defs>
     <path id="C2_0_bb4174623e" d="M 0 0.55 
C 0.145862 0.55 0.285769 0.492049 0.388909 0.388909 
C 0.492049 0.285769 0.55 0.145862 0.55 -0 
C 0.55 -0.145862 0.492049 -0.285769 0.388909 -0.388909 
C 0.285769 -0.492049 0.145862 -0.55 0 -0.55 
C -0.145862 -0.55 -0.285769 -0.492049 -0.388909 -0.388909 
C -0.492049 -0.285769 -0.55 -0.145862 -0.55 0 
C -0.55 0.145862 -0.492049 0.285769 -0.388909 0.388909 
C -0.285769 0.492049 -0.145862 0.55 0 0.55 
z
"/>
    </defs>
    <g clip-path="url(#p7cfef66935)">
     <use xlink:href="#C2_0_bb4174623e" x="68.890237" y="47.21539" style="fill: #8da0cb"/>
    </g>
    <g clip-path="url(#p7cfef66935)">
     <use xlink:href="#C2_0_bb4174623e" x="67.899501" y="47.21539" style="fill: #8da0cb"/>
    </g>
    <g clip-path="url(#p7cfef66935)">
     <use xlink:href="#C2_0_bb4174623e" x="69.553666" y="47.21539" style="fill: #8da0cb"/>
    </g>
    <g clip-path="url(#p7cfef66935)">
     <use xlink:href="#C2_0_bb4174623e" x="68.477634" y="47.21539" style="fill: #8da0cb"/>
    </g>
    <g clip-path="url(#p7cfef66935)">
     <use xlink:href="#C2_0_bb4174623e" x="68.823351" y="47.21539" style="fill: #8da0cb"/>
    </g>
    <g clip-path="url(#p7cfef66935)">
     <use xlink:href="#C2_0_bb4174623e" x="67.868501" y="47.21539" style="fill: #8da0cb"/>
    </g>
    <g clip-path="url(#p7cfef66935)">
     <use xlink:href="#C2_0_bb4174623e" x="68.787888" y="47.21539" style="fill: #8da0cb"/>
    </g>
    <g clip-path="url(#p7cfef66935)">
     <use xlink:href="#C2_0_bb4174623e" x="68.224903" y="47.21539" style="fill: #8da0cb"/>
    </g>
    <g clip-path="url(#p7cfef66935)">
     <use xlink:href="#C2_0_bb4174623e" x="68.235112" y="47.21539" style="fill: #8da0cb"/>
    </g>
    <g clip-path="url(#p7cfef66935)">
     <use xlink:href="#C2_0_bb4174623e" x="69.59186" y="47.21539" style="fill: #8da0cb"/>
    </g>
   </g>
   <g id="PathCollection_15">
    <defs>
     <path id="C3_0_df497a71a4" d="M 0 0.55 
C 0.145862 0.55 0.285769 0.492049 0.388909 0.388909 
C 0.492049 0.285769 0.55 0.145862 0.55 -0 
C 0.55 -0.145862 0.492049 -0.285769 0.388909 -0.388909 
C 0.285769 -0.492049 0.145862 -0.55 0 -0.55 
C -0.145862 -0.55 -0.285769 -0.492049 -0.388909 -0.388909 
C -0.492049 -0.285769 -0.55 -0.145862 -0.55 0 
C -0.55 0.145862 -0.492049 0.285769 -0.388909 0.388909 
C -0.285769 0.492049 -0.145862 0.55 0 0.55 
z
"/>
    </defs>
    <g clip-path="url(#p7cfef66935)">
     <use xlink:href="#C3_0_df497a71a4" x="80.798416" y="86.460911" style="fill: #e78ac3"/>
    </g>
    <g clip-path="url(#p7cfef66935)">
     <use xlink:href="#C3_0_df497a71a4" x="80.908868" y="86.460911" style="fill: #e78ac3"/>
    </g>
    <g clip-path="url(#p7cfef66935)">
     <use xlink:href="#C3_0_df497a71a4" x="79.461604" y="86.460911" style="fill: #e78ac3"/>
    </g>
    <g clip-path="url(#p7cfef66935)">
     <use xlink:href="#C3_0_df497a71a4" x="80.242006" y="86.460911" style="fill: #e78ac3"/>
    </g>
    <g clip-path="url(#p7cfef66935)">
     <use xlink:href="#C3_0_df497a71a4" x="80.261423" y="86.460911" style="fill: #e78ac3"/>
    </g>
    <g clip-path="url(#p7cfef66935)">
     <use xlink:href="#C3_0_df497a71a4" x="81.209037" y="86.460911" style="fill: #e78ac3"/>
    </g>
    <g clip-path="url(#p7cfef66935)">
     <use xlink:href="#C3_0_df497a71a4" x="80.941941" y="86.460911" style="fill: #e78ac3"/>
    </g>
    <g clip-path="url(#p7cfef66935)">
     <use xlink:href="#C3_0_df497a71a4" x="79.608508" y="86.460911" style="fill: #e78ac3"/>
    </g>
    <g clip-path="url(#p7cfef66935)">
     <use xlink:href="#C3_0_df497a71a4" x="79.465151" y="86.460911" style="fill: #e78ac3"/>
    </g>
    <g clip-path="url(#p7cfef66935)">
     <use xlink:href="#C3_0_df497a71a4" x="81.222447" y="86.460911" style="fill: #e78ac3"/>
    </g>
    <g clip-path="url(#p7cfef66935)">
     <use xlink:href="#C3_0_df497a71a4" x="81.156314" y="86.460911" style="fill: #e78ac3"/>
    </g>
    <g clip-path="url(#p7cfef66935)">
     <use xlink:href="#C3_0_df497a71a4" x="80.765902" y="86.460911" style="fill: #e78ac3"/>
    </g>
    <g clip-path="url(#p7cfef66935)">
     <use xlink:href="#C3_0_df497a71a4" x="79.392539" y="86.460911" style="fill: #e78ac3"/>
    </g>
    <g clip-path="url(#p7cfef66935)">
     <use xlink:href="#C3_0_df497a71a4" x="79.821919" y="86.460911" style="fill: #e78ac3"/>
    </g>
    <g clip-path="url(#p7cfef66935)">
     <use xlink:href="#C3_0_df497a71a4" x="79.924871" y="86.460911" style="fill: #e78ac3"/>
    </g>
   </g>
   <g id="PathCollection_16">
    <defs>
     <path id="C4_0_e02501642a" d="M 0 0.55 
C 0.145862 0.55 0.285769 0.492049 0.388909 0.388909 
C 0.492049 0.285769 0.55 0.145862 0.55 -0 
C 0.55 -0.145862 0.492049 -0.285769 0.388909 -0.388909 
C 0.285769 -0.492049 0.145862 -0.55 0 -0.55 
C -0.145862 -0.55 -0.285769 -0.492049 -0.388909 -0.388909 
C -0.492049 -0.285769 -0.55 -0.145862 -0.55 0 
C -0.55 0.145862 -0.492049 0.285769 -0.388909 0.388909 
C -0.285769 0.492049 -0.145862 0.55 0 0.55 
z
"/>
    </defs>
    <g clip-path="url(#p7cfef66935)">
     <use xlink:href="#C4_0_e02501642a" x="92.938172" y="22.590749" style="fill: #a6d854"/>
    </g>
    <g clip-path="url(#p7cfef66935)">
     <use xlink:href="#C4_0_e02501642a" x="91.724329" y="22.590749" style="fill: #a6d854"/>
    </g>
    <g clip-path="url(#p7cfef66935)">
     <use xlink:href="#C4_0_e02501642a" x="93.234711" y="22.590749" style="fill: #a6d854"/>
    </g>
    <g clip-path="url(#p7cfef66935)">
     <use xlink:href="#C4_0_e02501642a" x="92.891673" y="22.590749" style="fill: #a6d854"/>
    </g>
    <g clip-path="url(#p7cfef66935)">
     <use xlink:href="#C4_0_e02501642a" x="92.816886" y="22.590749" style="fill: #a6d854"/>
    </g>
    <g clip-path="url(#p7cfef66935)">
     <use xlink:href="#C4_0_e02501642a" x="91.34395" y="22.590749" style="fill: #a6d854"/>
    </g>
    <g clip-path="url(#p7cfef66935)">
     <use xlink:href="#C4_0_e02501642a" x="93.440255" y="22.590749" style="fill: #a6d854"/>
    </g>
    <g clip-path="url(#p7cfef66935)">
     <use xlink:href="#C4_0_e02501642a" x="93.101661" y="22.590749" style="fill: #a6d854"/>
    </g>
    <g clip-path="url(#p7cfef66935)">
     <use xlink:href="#C4_0_e02501642a" x="93.39729" y="22.590749" style="fill: #a6d854"/>
    </g>
    <g clip-path="url(#p7cfef66935)">
     <use xlink:href="#C4_0_e02501642a" x="91.909164" y="22.590749" style="fill: #a6d854"/>
    </g>
    <g clip-path="url(#p7cfef66935)">
     <use xlink:href="#C4_0_e02501642a" x="92.91438" y="22.590749" style="fill: #a6d854"/>
    </g>
    <g clip-path="url(#p7cfef66935)">
     <use xlink:href="#C4_0_e02501642a" x="91.74475" y="22.590749" style="fill: #a6d854"/>
    </g>
    <g clip-path="url(#p7cfef66935)">
     <use xlink:href="#C4_0_e02501642a" x="92.163712" y="22.590749" style="fill: #a6d854"/>
    </g>
    <g clip-path="url(#p7cfef66935)">
     <use xlink:href="#C4_0_e02501642a" x="91.60208" y="22.590749" style="fill: #a6d854"/>
    </g>
    <g clip-path="url(#p7cfef66935)">
     <use xlink:href="#C4_0_e02501642a" x="92.285713" y="22.590749" style="fill: #a6d854"/>
    </g>
    <g clip-path="url(#p7cfef66935)">
     <use xlink:href="#C4_0_e02501642a" x="92.080273" y="22.590749" style="fill: #a6d854"/>
    </g>
    <g clip-path="url(#p7cfef66935)">
     <use xlink:href="#C4_0_e02501642a" x="91.703031" y="22.590749" style="fill: #a6d854"/>
    </g>
    <g clip-path="url(#p7cfef66935)">
     <use xlink:href="#C4_0_e02501642a" x="92.818759" y="22.590749" style="fill: #a6d854"/>
    </g>
   </g>
   <g id="PathCollection_17">
    <defs>
     <path id="C5_0_fbe8c1bf52" d="M 0 0.55 
C 0.145862 0.55 0.285769 0.492049 0.388909 0.388909 
C 0.492049 0.285769 0.55 0.145862 0.55 -0 
C 0.55 -0.145862 0.492049 -0.285769 0.388909 -0.388909 
C 0.285769 -0.492049 0.145862 -0.55 0 -0.55 
C -0.145862 -0.55 -0.285769 -0.492049 -0.388909 -0.388909 
C -0.492049 -0.285769 -0.55 -0.145862 -0.55 0 
C -0.55 0.145862 -0.492049 0.285769 -0.388909 0.388909 
C -0.285769 0.492049 -0.145862 0.55 0 0.55 
z
"/>
    </defs>
    <g clip-path="url(#p7cfef66935)">
     <use xlink:href="#C5_0_fbe8c1bf52" x="104.789531" y="22.590749" style="fill: #ffd92f"/>
    </g>
    <g clip-path="url(#p7cfef66935)">
     <use xlink:href="#C5_0_fbe8c1bf52" x="104.77272" y="22.590749" style="fill: #ffd92f"/>
    </g>
    <g clip-path="url(#p7cfef66935)">
     <use xlink:href="#C5_0_fbe8c1bf52" x="104.101694" y="22.590749" style="fill: #ffd92f"/>
    </g>
    <g clip-path="url(#p7cfef66935)">
     <use xlink:href="#C5_0_fbe8c1bf52" x="104.369749" y="22.590749" style="fill: #ffd92f"/>
    </g>
    <g clip-path="url(#p7cfef66935)">
     <use xlink:href="#C5_0_fbe8c1bf52" x="104.909998" y="22.590749" style="fill: #ffd92f"/>
    </g>
    <g clip-path="url(#p7cfef66935)">
     <use xlink:href="#C5_0_fbe8c1bf52" x="105.441262" y="22.590749" style="fill: #ffd92f"/>
    </g>
    <g clip-path="url(#p7cfef66935)">
     <use xlink:href="#C5_0_fbe8c1bf52" x="104.071631" y="22.590749" style="fill: #ffd92f"/>
    </g>
    <g clip-path="url(#p7cfef66935)">
     <use xlink:href="#C5_0_fbe8c1bf52" x="104.393022" y="22.590749" style="fill: #ffd92f"/>
    </g>
    <g clip-path="url(#p7cfef66935)">
     <use xlink:href="#C5_0_fbe8c1bf52" x="104.509193" y="22.590749" style="fill: #ffd92f"/>
    </g>
    <g clip-path="url(#p7cfef66935)">
     <use xlink:href="#C5_0_fbe8c1bf52" x="104.117524" y="22.590749" style="fill: #ffd92f"/>
    </g>
    <g clip-path="url(#p7cfef66935)">
     <use xlink:href="#C5_0_fbe8c1bf52" x="104.689866" y="22.590749" style="fill: #ffd92f"/>
    </g>
    <g clip-path="url(#p7cfef66935)">
     <use xlink:href="#C5_0_fbe8c1bf52" x="105.443912" y="22.590749" style="fill: #ffd92f"/>
    </g>
    <g clip-path="url(#p7cfef66935)">
     <use xlink:href="#C5_0_fbe8c1bf52" x="103.98821" y="22.590749" style="fill: #ffd92f"/>
    </g>
    <g clip-path="url(#p7cfef66935)">
     <use xlink:href="#C5_0_fbe8c1bf52" x="103.757882" y="22.590749" style="fill: #ffd92f"/>
    </g>
    <g clip-path="url(#p7cfef66935)">
     <use xlink:href="#C5_0_fbe8c1bf52" x="103.739824" y="22.590749" style="fill: #ffd92f"/>
    </g>
    <g clip-path="url(#p7cfef66935)">
     <use xlink:href="#C5_0_fbe8c1bf52" x="105.228273" y="22.590749" style="fill: #ffd92f"/>
    </g>
    <g clip-path="url(#p7cfef66935)">
     <use xlink:href="#C5_0_fbe8c1bf52" x="104.393353" y="22.590749" style="fill: #ffd92f"/>
    </g>
    <g clip-path="url(#p7cfef66935)">
     <use xlink:href="#C5_0_fbe8c1bf52" x="105.160632" y="22.590749" style="fill: #ffd92f"/>
    </g>
   </g>
   <g id="PathCollection_18">
    <defs>
     <path id="C6_0_863551b255" d="M 0 0.55 
C 0.145862 0.55 0.285769 0.492049 0.388909 0.388909 
C 0.492049 0.285769 0.55 0.145862 0.55 -0 
C 0.55 -0.145862 0.492049 -0.285769 0.388909 -0.388909 
C 0.285769 -0.492049 0.145862 -0.55 0 -0.55 
C -0.145862 -0.55 -0.285769 -0.492049 -0.388909 -0.388909 
C -0.492049 -0.285769 -0.55 -0.145862 -0.55 0 
C -0.55 0.145862 -0.492049 0.285769 -0.388909 0.388909 
C -0.285769 0.492049 -0.145862 0.55 0 0.55 
z
"/>
    </defs>
    <g clip-path="url(#p7cfef66935)">
     <use xlink:href="#C6_0_863551b255" x="117.058444" y="22.590749" style="fill: #e5c494"/>
    </g>
    <g clip-path="url(#p7cfef66935)">
     <use xlink:href="#C6_0_863551b255" x="115.653528" y="22.590749" style="fill: #e5c494"/>
    </g>
    <g clip-path="url(#p7cfef66935)">
     <use xlink:href="#C6_0_863551b255" x="116.674731" y="22.590749" style="fill: #e5c494"/>
    </g>
    <g clip-path="url(#p7cfef66935)">
     <use xlink:href="#C6_0_863551b255" x="115.911506" y="22.590749" style="fill: #e5c494"/>
    </g>
    <g clip-path="url(#p7cfef66935)">
     <use xlink:href="#C6_0_863551b255" x="115.529609" y="22.590749" style="fill: #e5c494"/>
    </g>
    <g clip-path="url(#p7cfef66935)">
     <use xlink:href="#C6_0_863551b255" x="116.797054" y="22.590749" style="fill: #e5c494"/>
    </g>
    <g clip-path="url(#p7cfef66935)">
     <use xlink:href="#C6_0_863551b255" x="116.946587" y="22.590749" style="fill: #e5c494"/>
    </g>
    <g clip-path="url(#p7cfef66935)">
     <use xlink:href="#C6_0_863551b255" x="115.589251" y="22.590749" style="fill: #e5c494"/>
    </g>
    <g clip-path="url(#p7cfef66935)">
     <use xlink:href="#C6_0_863551b255" x="116.27581" y="22.590749" style="fill: #e5c494"/>
    </g>
    <g clip-path="url(#p7cfef66935)">
     <use xlink:href="#C6_0_863551b255" x="117.576696" y="22.590749" style="fill: #e5c494"/>
    </g>
    <g clip-path="url(#p7cfef66935)">
     <use xlink:href="#C6_0_863551b255" x="116.393944" y="22.590749" style="fill: #e5c494"/>
    </g>
    <g clip-path="url(#p7cfef66935)">
     <use xlink:href="#C6_0_863551b255" x="116.07519" y="22.590749" style="fill: #e5c494"/>
    </g>
    <g clip-path="url(#p7cfef66935)">
     <use xlink:href="#C6_0_863551b255" x="116.088641" y="22.590749" style="fill: #e5c494"/>
    </g>
    <g clip-path="url(#p7cfef66935)">
     <use xlink:href="#C6_0_863551b255" x="116.677437" y="22.590749" style="fill: #e5c494"/>
    </g>
    <g clip-path="url(#p7cfef66935)">
     <use xlink:href="#C6_0_863551b255" x="117.038104" y="22.590749" style="fill: #e5c494"/>
    </g>
    <g clip-path="url(#p7cfef66935)">
     <use xlink:href="#C6_0_863551b255" x="115.780042" y="22.590749" style="fill: #e5c494"/>
    </g>
    <g clip-path="url(#p7cfef66935)">
     <use xlink:href="#C6_0_863551b255" x="115.262723" y="22.590749" style="fill: #e5c494"/>
    </g>
    <g clip-path="url(#p7cfef66935)">
     <use xlink:href="#C6_0_863551b255" x="116.900661" y="22.590749" style="fill: #e5c494"/>
    </g>
   </g>
   <g id="PathCollection_19">
    <defs>
     <path id="C7_0_12c1978350" d="M 0 0.55 
C 0.145862 0.55 0.285769 0.492049 0.388909 0.388909 
C 0.492049 0.285769 0.55 0.145862 0.55 -0 
C 0.55 -0.145862 0.492049 -0.285769 0.388909 -0.388909 
C 0.285769 -0.492049 0.145862 -0.55 0 -0.55 
C -0.145862 -0.55 -0.285769 -0.492049 -0.388909 -0.388909 
C -0.492049 -0.285769 -0.55 -0.145862 -0.55 0 
C -0.55 0.145862 -0.492049 0.285769 -0.388909 0.388909 
C -0.285769 0.492049 -0.145862 0.55 0 0.55 
z
"/>
    </defs>
    <g clip-path="url(#p7cfef66935)">
     <use xlink:href="#C7_0_12c1978350" x="129.171052" y="86.460911" style="fill: #b3b3b3"/>
    </g>
    <g clip-path="url(#p7cfef66935)">
     <use xlink:href="#C7_0_12c1978350" x="128.691132" y="86.460911" style="fill: #b3b3b3"/>
    </g>
    <g clip-path="url(#p7cfef66935)">
     <use xlink:href="#C7_0_12c1978350" x="127.686446" y="86.460911" style="fill: #b3b3b3"/>
    </g>
    <g clip-path="url(#p7cfef66935)">
     <use xlink:href="#C7_0_12c1978350" x="128.25364" y="86.460911" style="fill: #b3b3b3"/>
    </g>
    <g clip-path="url(#p7cfef66935)">
     <use xlink:href="#C7_0_12c1978350" x="127.623321" y="86.460911" style="fill: #b3b3b3"/>
    </g>
    <g clip-path="url(#p7cfef66935)">
     <use xlink:href="#C7_0_12c1978350" x="127.581986" y="76.200643" style="fill: #b3b3b3"/>
    </g>
    <g clip-path="url(#p7cfef66935)">
     <use xlink:href="#C7_0_12c1978350" x="128.278835" y="76.200643" style="fill: #b3b3b3"/>
    </g>
    <g clip-path="url(#p7cfef66935)">
     <use xlink:href="#C7_0_12c1978350" x="128.342829" y="86.460911" style="fill: #b3b3b3"/>
    </g>
    <g clip-path="url(#p7cfef66935)">
     <use xlink:href="#C7_0_12c1978350" x="127.366141" y="86.460911" style="fill: #b3b3b3"/>
    </g>
    <g clip-path="url(#p7cfef66935)">
     <use xlink:href="#C7_0_12c1978350" x="127.694042" y="86.460911" style="fill: #b3b3b3"/>
    </g>
    <g clip-path="url(#p7cfef66935)">
     <use xlink:href="#C7_0_12c1978350" x="129.587932" y="86.460911" style="fill: #b3b3b3"/>
    </g>
    <g clip-path="url(#p7cfef66935)">
     <use xlink:href="#C7_0_12c1978350" x="127.893125" y="86.460911" style="fill: #b3b3b3"/>
    </g>
    <g clip-path="url(#p7cfef66935)">
     <use xlink:href="#C7_0_12c1978350" x="128.14932" y="86.460911" style="fill: #b3b3b3"/>
    </g>
    <g clip-path="url(#p7cfef66935)">
     <use xlink:href="#C7_0_12c1978350" x="129.153371" y="86.460911" style="fill: #b3b3b3"/>
    </g>
    <g clip-path="url(#p7cfef66935)">
     <use xlink:href="#C7_0_12c1978350" x="127.946328" y="76.200643" style="fill: #b3b3b3"/>
    </g>
    <g clip-path="url(#p7cfef66935)">
     <use xlink:href="#C7_0_12c1978350" x="129.443886" y="86.460911" style="fill: #b3b3b3"/>
    </g>
   </g>
   <g id="PathCollection_20">
    <defs>
     <path id="C8_0_305fb96d92" d="M 0 0.55 
C 0.145862 0.55 0.285769 0.492049 0.388909 0.388909 
C 0.492049 0.285769 0.55 0.145862 0.55 -0 
C 0.55 -0.145862 0.492049 -0.285769 0.388909 -0.388909 
C 0.285769 -0.492049 0.145862 -0.55 0 -0.55 
C -0.145862 -0.55 -0.285769 -0.492049 -0.388909 -0.388909 
C -0.492049 -0.285769 -0.55 -0.145862 -0.55 0 
C -0.55 0.145862 -0.492049 0.285769 -0.388909 0.388909 
C -0.285769 0.492049 -0.145862 0.55 0 0.55 
z
"/>
    </defs>
    <g clip-path="url(#p7cfef66935)">
     <use xlink:href="#C8_0_305fb96d92" x="139.627365" y="39.007175" style="fill: #66c2a5"/>
    </g>
    <g clip-path="url(#p7cfef66935)">
     <use xlink:href="#C8_0_305fb96d92" x="140.013454" y="39.007175" style="fill: #66c2a5"/>
    </g>
    <g clip-path="url(#p7cfef66935)">
     <use xlink:href="#C8_0_305fb96d92" x="139.568679" y="39.007175" style="fill: #66c2a5"/>
    </g>
    <g clip-path="url(#p7cfef66935)">
     <use xlink:href="#C8_0_305fb96d92" x="140.048282" y="39.007175" style="fill: #66c2a5"/>
    </g>
    <g clip-path="url(#p7cfef66935)">
     <use xlink:href="#C8_0_305fb96d92" x="139.984473" y="39.007175" style="fill: #66c2a5"/>
    </g>
    <g clip-path="url(#p7cfef66935)">
     <use xlink:href="#C8_0_305fb96d92" x="139.436337" y="39.007175" style="fill: #66c2a5"/>
    </g>
    <g clip-path="url(#p7cfef66935)">
     <use xlink:href="#C8_0_305fb96d92" x="139.376699" y="39.007175" style="fill: #66c2a5"/>
    </g>
    <g clip-path="url(#p7cfef66935)">
     <use xlink:href="#C8_0_305fb96d92" x="140.277604" y="39.007175" style="fill: #66c2a5"/>
    </g>
    <g clip-path="url(#p7cfef66935)">
     <use xlink:href="#C8_0_305fb96d92" x="139.86201" y="39.007175" style="fill: #66c2a5"/>
    </g>
    <g clip-path="url(#p7cfef66935)">
     <use xlink:href="#C8_0_305fb96d92" x="139.335101" y="39.007175" style="fill: #66c2a5"/>
    </g>
    <g clip-path="url(#p7cfef66935)">
     <use xlink:href="#C8_0_305fb96d92" x="140.830653" y="39.007175" style="fill: #66c2a5"/>
    </g>
    <g clip-path="url(#p7cfef66935)">
     <use xlink:href="#C8_0_305fb96d92" x="140.215315" y="39.007175" style="fill: #66c2a5"/>
    </g>
    <g clip-path="url(#p7cfef66935)">
     <use xlink:href="#C8_0_305fb96d92" x="140.258104" y="39.007175" style="fill: #66c2a5"/>
    </g>
    <g clip-path="url(#p7cfef66935)">
     <use xlink:href="#C8_0_305fb96d92" x="140.133033" y="39.007175" style="fill: #66c2a5"/>
    </g>
    <g clip-path="url(#p7cfef66935)">
     <use xlink:href="#C8_0_305fb96d92" x="140.160775" y="39.007175" style="fill: #66c2a5"/>
    </g>
    <g clip-path="url(#p7cfef66935)">
     <use xlink:href="#C8_0_305fb96d92" x="141.571189" y="39.007175" style="fill: #66c2a5"/>
    </g>
    <g clip-path="url(#p7cfef66935)">
     <use xlink:href="#C8_0_305fb96d92" x="140.122363" y="39.007175" style="fill: #66c2a5"/>
    </g>
    <g clip-path="url(#p7cfef66935)">
     <use xlink:href="#C8_0_305fb96d92" x="140.696391" y="39.007175" style="fill: #66c2a5"/>
    </g>
   </g>
   <g id="PathCollection_21">
    <defs>
     <path id="C9_0_2de0ad2a31" d="M 0 0.55 
C 0.145862 0.55 0.285769 0.492049 0.388909 0.388909 
C 0.492049 0.285769 0.55 0.145862 0.55 -0 
C 0.55 -0.145862 0.492049 -0.285769 0.388909 -0.388909 
C 0.285769 -0.492049 0.145862 -0.55 0 -0.55 
C -0.145862 -0.55 -0.285769 -0.492049 -0.388909 -0.388909 
C -0.492049 -0.285769 -0.55 -0.145862 -0.55 0 
C -0.55 0.145862 -0.492049 0.285769 -0.388909 0.388909 
C -0.285769 0.492049 -0.145862 0.55 0 0.55 
z
"/>
    </defs>
    <g clip-path="url(#p7cfef66935)">
     <use xlink:href="#C9_0_2de0ad2a31" x="153.15554" y="76.200643" style="fill: #fc8d62"/>
    </g>
    <g clip-path="url(#p7cfef66935)">
     <use xlink:href="#C9_0_2de0ad2a31" x="152.075839" y="76.200643" style="fill: #fc8d62"/>
    </g>
    <g clip-path="url(#p7cfef66935)">
     <use xlink:href="#C9_0_2de0ad2a31" x="152.95501" y="76.200643" style="fill: #fc8d62"/>
    </g>
    <g clip-path="url(#p7cfef66935)">
     <use xlink:href="#C9_0_2de0ad2a31" x="152.259516" y="76.200643" style="fill: #fc8d62"/>
    </g>
    <g clip-path="url(#p7cfef66935)">
     <use xlink:href="#C9_0_2de0ad2a31" x="151.210264" y="76.200643" style="fill: #fc8d62"/>
    </g>
    <g clip-path="url(#p7cfef66935)">
     <use xlink:href="#C9_0_2de0ad2a31" x="153.204957" y="76.200643" style="fill: #fc8d62"/>
    </g>
    <g clip-path="url(#p7cfef66935)">
     <use xlink:href="#C9_0_2de0ad2a31" x="152.418915" y="76.200643" style="fill: #fc8d62"/>
    </g>
    <g clip-path="url(#p7cfef66935)">
     <use xlink:href="#C9_0_2de0ad2a31" x="151.507627" y="76.200643" style="fill: #fc8d62"/>
    </g>
    <g clip-path="url(#p7cfef66935)">
     <use xlink:href="#C9_0_2de0ad2a31" x="153.258147" y="76.200643" style="fill: #fc8d62"/>
    </g>
    <g clip-path="url(#p7cfef66935)">
     <use xlink:href="#C9_0_2de0ad2a31" x="151.713787" y="76.200643" style="fill: #fc8d62"/>
    </g>
    <g clip-path="url(#p7cfef66935)">
     <use xlink:href="#C9_0_2de0ad2a31" x="151.668295" y="76.200643" style="fill: #fc8d62"/>
    </g>
    <g clip-path="url(#p7cfef66935)">
     <use xlink:href="#C9_0_2de0ad2a31" x="152.191181" y="76.200643" style="fill: #fc8d62"/>
    </g>
    <g clip-path="url(#p7cfef66935)">
     <use xlink:href="#C9_0_2de0ad2a31" x="152.028076" y="76.200643" style="fill: #fc8d62"/>
    </g>
    <g clip-path="url(#p7cfef66935)">
     <use xlink:href="#C9_0_2de0ad2a31" x="151.435758" y="76.200643" style="fill: #fc8d62"/>
    </g>
    <g clip-path="url(#p7cfef66935)">
     <use xlink:href="#C9_0_2de0ad2a31" x="152.264934" y="76.200643" style="fill: #fc8d62"/>
    </g>
    <g clip-path="url(#p7cfef66935)">
     <use xlink:href="#C9_0_2de0ad2a31" x="153.361208" y="76.200643" style="fill: #fc8d62"/>
    </g>
    <g clip-path="url(#p7cfef66935)">
     <use xlink:href="#C9_0_2de0ad2a31" x="152.241013" y="76.200643" style="fill: #fc8d62"/>
    </g>
    <g clip-path="url(#p7cfef66935)">
     <use xlink:href="#C9_0_2de0ad2a31" x="151.50071" y="76.200643" style="fill: #fc8d62"/>
    </g>
   </g>
   <g id="PathCollection_22">
    <defs>
     <path id="Ca_0_5d194d340c" d="M 0 0.55 
C 0.145862 0.55 0.285769 0.492049 0.388909 0.388909 
C 0.492049 0.285769 0.55 0.145862 0.55 -0 
C 0.55 -0.145862 0.492049 -0.285769 0.388909 -0.388909 
C 0.285769 -0.492049 0.145862 -0.55 0 -0.55 
C -0.145862 -0.55 -0.285769 -0.492049 -0.388909 -0.388909 
C -0.492049 -0.285769 -0.55 -0.145862 -0.55 0 
C -0.55 0.145862 -0.492049 0.285769 -0.388909 0.388909 
C -0.285769 0.492049 -0.145862 0.55 0 0.55 
z
"/>
    </defs>
    <g clip-path="url(#p7cfef66935)">
     <use xlink:href="#Ca_0_5d194d340c" x="164.942792" y="49.9241" style="fill: #8da0cb"/>
    </g>
    <g clip-path="url(#p7cfef66935)">
     <use xlink:href="#Ca_0_5d194d340c" x="163.786838" y="49.9241" style="fill: #8da0cb"/>
    </g>
    <g clip-path="url(#p7cfef66935)">
     <use xlink:href="#Ca_0_5d194d340c" x="165.45005" y="49.9241" style="fill: #8da0cb"/>
    </g>
    <g clip-path="url(#p7cfef66935)">
     <use xlink:href="#Ca_0_5d194d340c" x="163.526069" y="49.9241" style="fill: #8da0cb"/>
    </g>
    <g clip-path="url(#p7cfef66935)">
     <use xlink:href="#Ca_0_5d194d340c" x="165.10483" y="49.9241" style="fill: #8da0cb"/>
    </g>
    <g clip-path="url(#p7cfef66935)">
     <use xlink:href="#Ca_0_5d194d340c" x="163.921187" y="49.9241" style="fill: #8da0cb"/>
    </g>
    <g clip-path="url(#p7cfef66935)">
     <use xlink:href="#Ca_0_5d194d340c" x="165.320303" y="49.9241" style="fill: #8da0cb"/>
    </g>
    <g clip-path="url(#p7cfef66935)">
     <use xlink:href="#Ca_0_5d194d340c" x="163.885029" y="49.9241" style="fill: #8da0cb"/>
    </g>
    <g clip-path="url(#p7cfef66935)">
     <use xlink:href="#Ca_0_5d194d340c" x="164.614299" y="49.9241" style="fill: #8da0cb"/>
    </g>
    <g clip-path="url(#p7cfef66935)">
     <use xlink:href="#Ca_0_5d194d340c" x="163.49605" y="49.9241" style="fill: #8da0cb"/>
    </g>
    <g clip-path="url(#p7cfef66935)">
     <use xlink:href="#Ca_0_5d194d340c" x="163.211083" y="49.9241" style="fill: #8da0cb"/>
    </g>
    <g clip-path="url(#p7cfef66935)">
     <use xlink:href="#Ca_0_5d194d340c" x="165.4966" y="49.9241" style="fill: #8da0cb"/>
    </g>
    <g clip-path="url(#p7cfef66935)">
     <use xlink:href="#Ca_0_5d194d340c" x="164.252355" y="49.9241" style="fill: #8da0cb"/>
    </g>
    <g clip-path="url(#p7cfef66935)">
     <use xlink:href="#Ca_0_5d194d340c" x="163.216177" y="49.9241" style="fill: #8da0cb"/>
    </g>
    <g clip-path="url(#p7cfef66935)">
     <use xlink:href="#Ca_0_5d194d340c" x="164.405895" y="49.9241" style="fill: #8da0cb"/>
    </g>
    <g clip-path="url(#p7cfef66935)">
     <use xlink:href="#Ca_0_5d194d340c" x="163.894168" y="49.9241" style="fill: #8da0cb"/>
    </g>
    <g clip-path="url(#p7cfef66935)">
     <use xlink:href="#Ca_0_5d194d340c" x="164.906125" y="49.9241" style="fill: #8da0cb"/>
    </g>
    <g clip-path="url(#p7cfef66935)">
     <use xlink:href="#Ca_0_5d194d340c" x="164.641227" y="49.9241" style="fill: #8da0cb"/>
    </g>
   </g>
   <g id="text_15">
    <!-- Functional -->
    <g style="fill: #262626" transform="translate(82.265199 13.159688) scale(0.09 -0.09)">
     <defs>
      <path id="TimesNewRomanPS-BoldMT-46" d="M 1759 3994 
L 1759 2253 
L 1881 2253 
Q 2163 2253 2341 2337 
Q 2519 2422 2642 2622 
Q 2766 2822 2803 3163 
L 2913 3163 
L 2913 1034 
L 2803 1034 
Q 2744 1638 2480 1830 
Q 2216 2022 1881 2022 
L 1759 2022 
L 1759 725 
Q 1759 400 1795 319 
Q 1831 238 1936 177 
Q 2041 116 2219 116 
L 2359 116 
L 2359 0 
L 144 0 
L 144 116 
L 284 116 
Q 469 116 581 181 
Q 663 225 706 331 
Q 741 406 741 725 
L 741 3513 
Q 741 3838 706 3919 
Q 672 4000 567 4061 
Q 463 4122 284 4122 
L 144 4122 
L 144 4238 
L 3719 4238 
L 3719 3022 
L 3591 3022 
Q 3547 3450 3367 3656 
Q 3188 3863 2847 3947 
Q 2659 3994 2153 3994 
L 1759 3994 
z
" transform="scale(0.015625)"/>
      <path id="TimesNewRomanPS-BoldMT-75" d="M 3038 2922 
L 3038 634 
Q 3038 300 3100 217 
Q 3163 134 3353 113 
L 3353 0 
L 2163 0 
L 2163 391 
Q 1953 141 1743 26 
Q 1534 -88 1275 -88 
Q 1028 -88 836 64 
Q 644 216 578 419 
Q 513 622 513 1128 
L 513 2288 
Q 513 2619 452 2700 
Q 391 2781 197 2806 
L 197 2922 
L 1388 2922 
L 1388 925 
Q 1388 613 1417 522 
Q 1447 431 1511 384 
Q 1575 338 1659 338 
Q 1772 338 1863 397 
Q 1988 478 2163 725 
L 2163 2288 
Q 2163 2619 2102 2700 
Q 2041 2781 1847 2806 
L 1847 2922 
L 3038 2922 
z
" transform="scale(0.015625)"/>
      <path id="TimesNewRomanPS-BoldMT-6e" d="M 1409 2922 
L 1409 2544 
Q 1634 2788 1840 2898 
Q 2047 3009 2284 3009 
Q 2569 3009 2756 2851 
Q 2944 2694 3006 2459 
Q 3056 2281 3056 1775 
L 3056 638 
Q 3056 300 3117 217 
Q 3178 134 3372 113 
L 3372 0 
L 1894 0 
L 1894 113 
Q 2059 134 2131 250 
Q 2181 328 2181 638 
L 2181 1938 
Q 2181 2297 2153 2390 
Q 2125 2484 2058 2536 
Q 1991 2588 1909 2588 
Q 1641 2588 1409 2203 
L 1409 638 
Q 1409 309 1470 221 
Q 1531 134 1697 113 
L 1697 0 
L 219 0 
L 219 113 
Q 403 131 481 231 
Q 534 300 534 638 
L 534 2288 
Q 534 2619 473 2700 
Q 413 2781 219 2806 
L 219 2922 
L 1409 2922 
z
" transform="scale(0.015625)"/>
      <path id="TimesNewRomanPS-BoldMT-63" d="M 2600 753 
L 2697 678 
Q 2491 291 2183 101 
Q 1875 -88 1528 -88 
Q 944 -88 594 353 
Q 244 794 244 1413 
Q 244 2009 563 2463 
Q 947 3009 1622 3009 
Q 2075 3009 2342 2781 
Q 2609 2553 2609 2272 
Q 2609 2094 2501 1987 
Q 2394 1881 2219 1881 
Q 2034 1881 1914 2003 
Q 1794 2125 1766 2438 
Q 1747 2634 1675 2713 
Q 1603 2791 1506 2791 
Q 1356 2791 1250 2631 
Q 1088 2391 1088 1894 
Q 1088 1481 1219 1104 
Q 1350 728 1578 544 
Q 1750 409 1984 409 
Q 2138 409 2275 481 
Q 2413 553 2600 753 
z
" transform="scale(0.015625)"/>
      <path id="TimesNewRomanPS-BoldMT-69" d="M 919 4338 
Q 1122 4338 1262 4195 
Q 1403 4053 1403 3853 
Q 1403 3653 1261 3512 
Q 1119 3372 919 3372 
Q 719 3372 578 3512 
Q 438 3653 438 3853 
Q 438 4053 578 4195 
Q 719 4338 919 4338 
z
M 1356 2922 
L 1356 606 
Q 1356 297 1428 211 
Q 1500 125 1709 113 
L 1709 0 
L 131 0 
L 131 113 
Q 325 119 419 225 
Q 481 297 481 606 
L 481 2313 
Q 481 2622 409 2708 
Q 338 2794 131 2806 
L 131 2922 
L 1356 2922 
z
" transform="scale(0.015625)"/>
      <path id="TimesNewRomanPS-BoldMT-6f" d="M 1594 3009 
Q 1975 3009 2303 2812 
Q 2631 2616 2801 2253 
Q 2972 1891 2972 1459 
Q 2972 838 2656 419 
Q 2275 -88 1603 -88 
Q 944 -88 587 375 
Q 231 838 231 1447 
Q 231 2075 595 2542 
Q 959 3009 1594 3009 
z
M 1606 2788 
Q 1447 2788 1333 2667 
Q 1219 2547 1183 2192 
Q 1147 1838 1147 1206 
Q 1147 872 1191 581 
Q 1225 359 1337 243 
Q 1450 128 1594 128 
Q 1734 128 1828 206 
Q 1950 313 1991 503 
Q 2053 800 2053 1703 
Q 2053 2234 1993 2432 
Q 1934 2631 1819 2722 
Q 1738 2788 1606 2788 
z
" transform="scale(0.015625)"/>
      <path id="TimesNewRomanPS-BoldMT-6c" d="M 1359 4238 
L 1359 606 
Q 1359 297 1431 211 
Q 1503 125 1713 113 
L 1713 0 
L 134 0 
L 134 113 
Q 328 119 422 225 
Q 484 297 484 606 
L 484 3631 
Q 484 3938 412 4023 
Q 341 4109 134 4122 
L 134 4238 
L 1359 4238 
z
" transform="scale(0.015625)"/>
     </defs>
     <use xlink:href="#TimesNewRomanPS-BoldMT-46"/>
     <use xlink:href="#TimesNewRomanPS-BoldMT-75" x="61.083984"/>
     <use xlink:href="#TimesNewRomanPS-BoldMT-6e" x="116.699219"/>
     <use xlink:href="#TimesNewRomanPS-BoldMT-63" x="172.314453"/>
     <use xlink:href="#TimesNewRomanPS-BoldMT-74" x="216.699219"/>
     <use xlink:href="#TimesNewRomanPS-BoldMT-69" x="250"/>
     <use xlink:href="#TimesNewRomanPS-BoldMT-6f" x="277.783203"/>
     <use xlink:href="#TimesNewRomanPS-BoldMT-6e" x="327.783203"/>
     <use xlink:href="#TimesNewRomanPS-BoldMT-61" x="383.398438"/>
     <use xlink:href="#TimesNewRomanPS-BoldMT-6c" x="433.398438"/>
    </g>
   </g>
  </g>
 </g>
 <defs>
  <clipPath id="p7cfef66935">
   <rect x="37.111719" y="19.159688" width="131.811024" height="75.483354"/>
  </clipPath>
  <clipPath id="pfd94bc179c">
   <rect x="122.189743" y="71.449574" width="4.793128" height="19.762407"/>
  </clipPath>
 </defs>
</svg>
