<?xml version="1.0" encoding="utf-8" standalone="no"?>
<!DOCTYPE svg PUBLIC "-//W3C//DTD SVG 1.1//EN"
  "http://www.w3.org/Graphics/SVG/1.1/DTD/svg11.dtd">
<!-- Created with matplotlib (https://matplotlib.org/) -->
<svg height="85.03937pt" version="1.1" viewBox="0 0 127.559055 85.03937" width="127.559055pt" xmlns="http://www.w3.org/2000/svg" xmlns:xlink="http://www.w3.org/1999/xlink">
 <metadata>
  <rdf:RDF xmlns:cc="http://creativecommons.org/ns#" xmlns:dc="http://purl.org/dc/elements/1.1/" xmlns:rdf="http://www.w3.org/1999/02/22-rdf-syntax-ns#">
   <cc:Work>
    <dc:type rdf:resource="http://purl.org/dc/dcmitype/StillImage"/>
    <dc:date>2024-05-24T22:10:09.471987</dc:date>
    <dc:format>image/svg+xml</dc:format>
    <dc:creator>
     <cc:Agent>
      <dc:title>Matplotlib v3.3.4, https://matplotlib.org/</dc:title>
     </cc:Agent>
    </dc:creator>
   </cc:Work>
  </rdf:RDF>
 </metadata>
 <defs>
  <style type="text/css">*{stroke-linecap:butt;stroke-linejoin:round;}</style>
 </defs>
 <g id="figure_1">
  <g id="patch_1">
   <path d="M 0 85.03937 
L 127.559055 85.03937 
L 127.559055 0 
L 0 0 
z
" style="fill:#ffffff;"/>
  </g>
  <g id="axes_1">
   <g id="patch_2">
    <path d="M 33.05 60.03937 
L 111.166138 60.03937 
L 111.166138 10.8 
L 33.05 10.8 
z
" style="fill:#ffffff;"/>
   </g>
   <g id="patch_3">
    <path clip-path="url(#p9f326db0ac)" d="M 36.600734 53.884449 
L 60.272291 53.884449 
L 60.272291 47.729528 
L 36.600734 47.729528 
L 36.600734 53.884449 
z
" style="fill:#72b6a1;stroke:#595959;stroke-linejoin:miter;"/>
   </g>
   <g id="patch_4">
    <path clip-path="url(#p9f326db0ac)" d="M 83.943848 44.652067 
L 107.615405 44.652067 
L 107.615405 29.264764 
L 83.943848 29.264764 
L 83.943848 44.652067 
z
" style="fill:#e99675;stroke:#595959;stroke-linejoin:miter;"/>
   </g>
   <g id="matplotlib.axis_1">
    <g id="xtick_1">
     <g id="line2d_1">
      <defs>
       <path d="M 0 0 
L 0 3.5 
" id="mdc74176dfd" style="stroke:#000000;stroke-width:0.8;"/>
      </defs>
      <g>
       <use style="stroke:#000000;stroke-width:0.8;" x="48.436512" xlink:href="#mdc74176dfd" y="60.03937"/>
      </g>
     </g>
     <g id="text_1">
      <!-- original -->
      <g transform="translate(35.995262 72.59437)scale(0.08 -0.08)">
       <defs>
        <path d="M 25 46.046875 
Q 35.15625 46.046875 41.3125 38.328125 
Q 46.53125 31.734375 46.53125 23.1875 
Q 46.53125 17.1875 43.640625 11.03125 
Q 40.765625 4.890625 35.71875 1.75 
Q 30.671875 -1.375 24.46875 -1.375 
Q 14.359375 -1.375 8.40625 6.6875 
Q 3.375 13.484375 3.375 21.921875 
Q 3.375 28.078125 6.421875 34.15625 
Q 9.46875 40.234375 14.453125 43.140625 
Q 19.4375 46.046875 25 46.046875 
z
M 23.484375 42.875 
Q 20.90625 42.875 18.28125 41.328125 
Q 15.671875 39.796875 14.0625 35.9375 
Q 12.453125 32.078125 12.453125 26.03125 
Q 12.453125 16.265625 16.328125 9.171875 
Q 20.21875 2.09375 26.5625 2.09375 
Q 31.296875 2.09375 34.375 6 
Q 37.453125 9.90625 37.453125 19.4375 
Q 37.453125 31.34375 32.328125 38.1875 
Q 28.859375 42.875 23.484375 42.875 
z
" id="TimesNewRomanPSMT-111"/>
        <path d="M 16.21875 46.046875 
L 16.21875 35.984375 
Q 21.828125 46.046875 27.734375 46.046875 
Q 30.421875 46.046875 32.171875 44.40625 
Q 33.9375 42.78125 33.9375 40.625 
Q 33.9375 38.71875 32.65625 37.390625 
Q 31.390625 36.078125 29.640625 36.078125 
Q 27.9375 36.078125 25.8125 37.765625 
Q 23.6875 39.453125 22.65625 39.453125 
Q 21.78125 39.453125 20.75 38.484375 
Q 18.5625 36.46875 16.21875 31.890625 
L 16.21875 10.453125 
Q 16.21875 6.734375 17.140625 4.828125 
Q 17.78125 3.515625 19.390625 2.640625 
Q 21 1.765625 24.03125 1.765625 
L 24.03125 0 
L 1.125 0 
L 1.125 1.765625 
Q 4.546875 1.765625 6.203125 2.828125 
Q 7.421875 3.609375 7.90625 5.328125 
Q 8.15625 6.15625 8.15625 10.0625 
L 8.15625 27.390625 
Q 8.15625 35.203125 7.828125 36.6875 
Q 7.515625 38.1875 6.65625 38.859375 
Q 5.8125 39.546875 4.546875 39.546875 
Q 3.03125 39.546875 1.125 38.8125 
L 0.640625 40.578125 
L 14.15625 46.046875 
z
" id="TimesNewRomanPSMT-114"/>
        <path d="M 14.5 69.4375 
Q 16.546875 69.4375 17.984375 67.984375 
Q 19.4375 66.546875 19.4375 64.5 
Q 19.4375 62.453125 17.984375 60.984375 
Q 16.546875 59.515625 14.5 59.515625 
Q 12.453125 59.515625 10.984375 60.984375 
Q 9.515625 62.453125 9.515625 64.5 
Q 9.515625 66.546875 10.953125 67.984375 
Q 12.40625 69.4375 14.5 69.4375 
z
M 18.5625 46.046875 
L 18.5625 10.109375 
Q 18.5625 5.90625 19.171875 4.515625 
Q 19.78125 3.125 20.96875 2.4375 
Q 22.171875 1.765625 25.34375 1.765625 
L 25.34375 0 
L 3.609375 0 
L 3.609375 1.765625 
Q 6.890625 1.765625 8 2.390625 
Q 9.125 3.03125 9.78125 4.484375 
Q 10.453125 5.953125 10.453125 10.109375 
L 10.453125 27.34375 
Q 10.453125 34.625 10.015625 36.765625 
Q 9.671875 38.328125 8.9375 38.9375 
Q 8.203125 39.546875 6.9375 39.546875 
Q 5.5625 39.546875 3.609375 38.8125 
L 2.9375 40.578125 
L 16.40625 46.046875 
z
" id="TimesNewRomanPSMT-105"/>
        <path d="M 15.09375 16.3125 
Q 10.984375 18.3125 8.78125 21.890625 
Q 6.59375 25.484375 6.59375 29.828125 
Q 6.59375 36.46875 11.59375 41.25 
Q 16.609375 46.046875 24.421875 46.046875 
Q 30.8125 46.046875 35.5 42.921875 
L 44.96875 42.921875 
Q 47.078125 42.921875 47.40625 42.796875 
Q 47.75 42.671875 47.90625 42.390625 
Q 48.1875 41.9375 48.1875 40.828125 
Q 48.1875 39.546875 47.953125 39.0625 
Q 47.796875 38.8125 47.4375 38.671875 
Q 47.078125 38.53125 44.96875 38.53125 
L 39.15625 38.53125 
Q 41.890625 35.015625 41.890625 29.546875 
Q 41.890625 23.296875 37.109375 18.84375 
Q 32.328125 14.40625 24.265625 14.40625 
Q 20.953125 14.40625 17.484375 15.375 
Q 15.328125 13.53125 14.5625 12.140625 
Q 13.8125 10.75 13.8125 9.765625 
Q 13.8125 8.9375 14.625 8.15625 
Q 15.4375 7.375 17.78125 7.03125 
Q 19.140625 6.84375 24.609375 6.6875 
Q 34.671875 6.453125 37.640625 6 
Q 42.1875 5.375 44.890625 2.640625 
Q 47.609375 -0.09375 47.609375 -4.109375 
Q 47.609375 -9.625 42.4375 -14.453125 
Q 34.8125 -21.578125 22.5625 -21.578125 
Q 13.140625 -21.578125 6.640625 -17.328125 
Q 2.984375 -14.890625 2.984375 -12.25 
Q 2.984375 -11.078125 3.515625 -9.90625 
Q 4.34375 -8.109375 6.9375 -4.890625 
Q 7.28125 -4.4375 11.921875 0.390625 
Q 9.375 1.90625 8.328125 3.09375 
Q 7.28125 4.296875 7.28125 5.8125 
Q 7.28125 7.515625 8.671875 9.8125 
Q 10.0625 12.109375 15.09375 16.3125 
z
M 23.578125 43.703125 
Q 19.96875 43.703125 17.53125 40.8125 
Q 15.09375 37.9375 15.09375 31.984375 
Q 15.09375 24.265625 18.40625 20.015625 
Q 20.953125 16.796875 24.859375 16.796875 
Q 28.5625 16.796875 30.953125 19.578125 
Q 33.34375 22.359375 33.34375 28.328125 
Q 33.34375 36.078125 29.984375 40.484375 
Q 27.484375 43.703125 23.578125 43.703125 
z
M 14.59375 0 
Q 12.3125 -2.484375 11.140625 -4.625 
Q 9.96875 -6.78125 9.96875 -8.59375 
Q 9.96875 -10.9375 12.796875 -12.703125 
Q 17.671875 -15.71875 26.90625 -15.71875 
Q 35.6875 -15.71875 39.859375 -12.609375 
Q 44.046875 -9.515625 44.046875 -6 
Q 44.046875 -3.46875 41.546875 -2.390625 
Q 39.015625 -1.3125 31.5 -1.125 
Q 20.515625 -0.828125 14.59375 0 
z
" id="TimesNewRomanPSMT-103"/>
        <path d="M 16.15625 36.578125 
Q 24.03125 46.046875 31.15625 46.046875 
Q 34.8125 46.046875 37.453125 44.21875 
Q 40.09375 42.390625 41.65625 38.1875 
Q 42.71875 35.25 42.71875 29.203125 
L 42.71875 10.109375 
Q 42.71875 5.859375 43.40625 4.34375 
Q 43.953125 3.125 45.140625 2.4375 
Q 46.34375 1.765625 49.5625 1.765625 
L 49.5625 0 
L 27.4375 0 
L 27.4375 1.765625 
L 28.375 1.765625 
Q 31.5 1.765625 32.734375 2.703125 
Q 33.984375 3.65625 34.46875 5.515625 
Q 34.671875 6.25 34.671875 10.109375 
L 34.671875 28.421875 
Q 34.671875 34.515625 33.078125 37.28125 
Q 31.5 40.046875 27.734375 40.046875 
Q 21.921875 40.046875 16.15625 33.6875 
L 16.15625 10.109375 
Q 16.15625 5.5625 16.703125 4.5 
Q 17.390625 3.078125 18.578125 2.421875 
Q 19.78125 1.765625 23.4375 1.765625 
L 23.4375 0 
L 1.3125 0 
L 1.3125 1.765625 
L 2.296875 1.765625 
Q 5.71875 1.765625 6.90625 3.484375 
Q 8.109375 5.21875 8.109375 10.109375 
L 8.109375 26.703125 
Q 8.109375 34.765625 7.734375 36.515625 
Q 7.375 38.28125 6.609375 38.90625 
Q 5.859375 39.546875 4.59375 39.546875 
Q 3.21875 39.546875 1.3125 38.8125 
L 0.59375 40.578125 
L 14.0625 46.046875 
L 16.15625 46.046875 
z
" id="TimesNewRomanPSMT-110"/>
        <path d="M 28.46875 6.453125 
Q 21.578125 1.125 19.828125 0.296875 
Q 17.1875 -0.921875 14.203125 -0.921875 
Q 9.578125 -0.921875 6.5625 2.25 
Q 3.5625 5.421875 3.5625 10.59375 
Q 3.5625 13.875 5.03125 16.265625 
Q 7.03125 19.578125 11.984375 22.5 
Q 16.9375 25.4375 28.46875 29.640625 
L 28.46875 31.390625 
Q 28.46875 38.09375 26.34375 40.578125 
Q 24.21875 43.0625 20.171875 43.0625 
Q 17.09375 43.0625 15.28125 41.40625 
Q 13.421875 39.75 13.421875 37.59375 
L 13.53125 34.765625 
Q 13.53125 32.515625 12.375 31.296875 
Q 11.234375 30.078125 9.375 30.078125 
Q 7.5625 30.078125 6.421875 31.34375 
Q 5.28125 32.625 5.28125 34.8125 
Q 5.28125 39.015625 9.578125 42.53125 
Q 13.875 46.046875 21.625 46.046875 
Q 27.59375 46.046875 31.390625 44.046875 
Q 34.28125 42.53125 35.640625 39.3125 
Q 36.53125 37.203125 36.53125 30.71875 
L 36.53125 15.53125 
Q 36.53125 9.125 36.765625 7.6875 
Q 37.015625 6.25 37.578125 5.765625 
Q 38.140625 5.28125 38.875 5.28125 
Q 39.65625 5.28125 40.234375 5.609375 
Q 41.265625 6.25 44.1875 9.1875 
L 44.1875 6.453125 
Q 38.71875 -0.875 33.734375 -0.875 
Q 31.34375 -0.875 29.921875 0.78125 
Q 28.515625 2.4375 28.46875 6.453125 
z
M 28.46875 9.625 
L 28.46875 26.65625 
Q 21.09375 23.734375 18.953125 22.515625 
Q 15.09375 20.359375 13.421875 18.015625 
Q 11.765625 15.671875 11.765625 12.890625 
Q 11.765625 9.375 13.859375 7.046875 
Q 15.96875 4.734375 18.703125 4.734375 
Q 22.40625 4.734375 28.46875 9.625 
z
" id="TimesNewRomanPSMT-97"/>
        <path d="M 18.5 69.4375 
L 18.5 10.109375 
Q 18.5 5.90625 19.109375 4.53125 
Q 19.734375 3.171875 21 2.46875 
Q 22.265625 1.765625 25.734375 1.765625 
L 25.734375 0 
L 3.8125 0 
L 3.8125 1.765625 
Q 6.890625 1.765625 8 2.390625 
Q 9.125 3.03125 9.765625 4.484375 
Q 10.40625 5.953125 10.40625 10.109375 
L 10.40625 50.734375 
Q 10.40625 58.296875 10.0625 60.03125 
Q 9.71875 61.765625 8.953125 62.390625 
Q 8.203125 63.03125 7.03125 63.03125 
Q 5.765625 63.03125 3.8125 62.25 
L 2.984375 63.96875 
L 16.3125 69.4375 
z
" id="TimesNewRomanPSMT-108"/>
       </defs>
       <use xlink:href="#TimesNewRomanPSMT-111"/>
       <use x="50" xlink:href="#TimesNewRomanPSMT-114"/>
       <use x="83.300781" xlink:href="#TimesNewRomanPSMT-105"/>
       <use x="111.083984" xlink:href="#TimesNewRomanPSMT-103"/>
       <use x="161.083984" xlink:href="#TimesNewRomanPSMT-105"/>
       <use x="188.867188" xlink:href="#TimesNewRomanPSMT-110"/>
       <use x="238.867188" xlink:href="#TimesNewRomanPSMT-97"/>
       <use x="283.251953" xlink:href="#TimesNewRomanPSMT-108"/>
      </g>
     </g>
    </g>
    <g id="xtick_2">
     <g id="line2d_2">
      <g>
       <use style="stroke:#000000;stroke-width:0.8;" x="95.779626" xlink:href="#mdc74176dfd" y="60.03937"/>
      </g>
     </g>
     <g id="text_2">
      <!-- artifact induced -->
      <g transform="translate(70.792751 72.59437)scale(0.08 -0.08)">
       <defs>
        <path d="M 16.109375 59.421875 
L 16.109375 44.734375 
L 26.5625 44.734375 
L 26.5625 41.3125 
L 16.109375 41.3125 
L 16.109375 12.3125 
Q 16.109375 7.953125 17.359375 6.4375 
Q 18.609375 4.9375 20.5625 4.9375 
Q 22.171875 4.9375 23.6875 5.9375 
Q 25.203125 6.9375 26.03125 8.890625 
L 27.9375 8.890625 
Q 26.21875 4.109375 23.09375 1.6875 
Q 19.96875 -0.734375 16.65625 -0.734375 
Q 14.40625 -0.734375 12.25 0.515625 
Q 10.109375 1.765625 9.078125 4.078125 
Q 8.0625 6.390625 8.0625 11.234375 
L 8.0625 41.3125 
L 0.984375 41.3125 
L 0.984375 42.921875 
Q 3.65625 44 6.46875 46.5625 
Q 9.28125 49.125 11.46875 52.640625 
Q 12.59375 54.5 14.59375 59.421875 
z
" id="TimesNewRomanPSMT-116"/>
        <path d="M 20.609375 41.21875 
L 20.609375 11.8125 
Q 20.609375 5.5625 21.96875 3.90625 
Q 23.78125 1.765625 26.8125 1.765625 
L 30.859375 1.765625 
L 30.859375 0 
L 4.15625 0 
L 4.15625 1.765625 
L 6.15625 1.765625 
Q 8.109375 1.765625 9.71875 2.734375 
Q 11.328125 3.71875 11.9375 5.375 
Q 12.546875 7.03125 12.546875 11.8125 
L 12.546875 41.21875 
L 3.859375 41.21875 
L 3.859375 44.734375 
L 12.546875 44.734375 
L 12.546875 47.65625 
Q 12.546875 54.34375 14.6875 58.984375 
Q 16.84375 63.625 21.265625 66.484375 
Q 25.6875 69.34375 31.203125 69.34375 
Q 36.328125 69.34375 40.625 66.015625 
Q 43.453125 63.8125 43.453125 61.078125 
Q 43.453125 59.625 42.1875 58.328125 
Q 40.921875 57.03125 39.453125 57.03125 
Q 38.328125 57.03125 37.078125 57.828125 
Q 35.84375 58.640625 34.03125 61.296875 
Q 32.234375 63.96875 30.71875 64.890625 
Q 29.203125 65.828125 27.34375 65.828125 
Q 25.09375 65.828125 23.53125 64.625 
Q 21.96875 63.421875 21.28125 60.90625 
Q 20.609375 58.40625 20.609375 47.953125 
L 20.609375 44.734375 
L 32.125 44.734375 
L 32.125 41.21875 
z
" id="TimesNewRomanPSMT-102"/>
        <path d="M 41.109375 17 
Q 39.3125 8.15625 34.03125 3.390625 
Q 28.765625 -1.375 22.359375 -1.375 
Q 14.75 -1.375 9.078125 5.015625 
Q 3.421875 11.421875 3.421875 22.3125 
Q 3.421875 32.859375 9.6875 39.453125 
Q 15.96875 46.046875 24.75 46.046875 
Q 31.34375 46.046875 35.59375 42.546875 
Q 39.84375 39.0625 39.84375 35.296875 
Q 39.84375 33.453125 38.640625 32.296875 
Q 37.453125 31.15625 35.296875 31.15625 
Q 32.421875 31.15625 30.953125 33.015625 
Q 30.125 34.03125 29.859375 36.90625 
Q 29.59375 39.796875 27.875 41.3125 
Q 26.171875 42.78125 23.140625 42.78125 
Q 18.265625 42.78125 15.28125 39.15625 
Q 11.328125 34.375 11.328125 26.515625 
Q 11.328125 18.5 15.25 12.375 
Q 19.1875 6.25 25.875 6.25 
Q 30.671875 6.25 34.46875 9.515625 
Q 37.15625 11.765625 39.703125 17.671875 
z
" id="TimesNewRomanPSMT-99"/>
        <path id="TimesNewRomanPSMT-32"/>
        <path d="M 34.71875 5.03125 
Q 31.453125 1.609375 28.328125 0.109375 
Q 25.203125 -1.375 21.578125 -1.375 
Q 14.265625 -1.375 8.796875 4.75 
Q 3.328125 10.890625 3.328125 20.515625 
Q 3.328125 30.125 9.375 38.109375 
Q 15.4375 46.09375 24.953125 46.09375 
Q 30.859375 46.09375 34.71875 42.328125 
L 34.71875 50.59375 
Q 34.71875 58.25 34.34375 60 
Q 33.984375 61.765625 33.203125 62.390625 
Q 32.421875 63.03125 31.25 63.03125 
Q 29.984375 63.03125 27.875 62.25 
L 27.25 63.96875 
L 40.578125 69.4375 
L 42.78125 69.4375 
L 42.78125 17.71875 
Q 42.78125 9.859375 43.140625 8.125 
Q 43.5 6.390625 44.3125 5.703125 
Q 45.125 5.03125 46.1875 5.03125 
Q 47.515625 5.03125 49.703125 5.859375 
L 50.25 4.15625 
L 36.96875 -1.375 
L 34.71875 -1.375 
z
M 34.71875 8.453125 
L 34.71875 31.5 
Q 34.421875 34.8125 32.953125 37.546875 
Q 31.5 40.28125 29.078125 41.671875 
Q 26.65625 43.0625 24.359375 43.0625 
Q 20.0625 43.0625 16.703125 39.203125 
Q 12.25 34.125 12.25 24.359375 
Q 12.25 14.5 16.546875 9.25 
Q 20.84375 4 26.125 4 
Q 30.5625 4 34.71875 8.453125 
z
" id="TimesNewRomanPSMT-100"/>
        <path d="M 42.328125 44.734375 
L 42.328125 17.625 
Q 42.328125 9.859375 42.6875 8.125 
Q 43.0625 6.390625 43.859375 5.703125 
Q 44.671875 5.03125 45.75 5.03125 
Q 47.265625 5.03125 49.171875 5.859375 
L 49.859375 4.15625 
L 36.46875 -1.375 
L 34.28125 -1.375 
L 34.28125 8.109375 
Q 28.515625 1.859375 25.484375 0.234375 
Q 22.46875 -1.375 19.09375 -1.375 
Q 15.328125 -1.375 12.5625 0.796875 
Q 9.8125 2.984375 8.734375 6.390625 
Q 7.671875 9.8125 7.671875 16.0625 
L 7.671875 36.03125 
Q 7.671875 39.203125 6.984375 40.421875 
Q 6.296875 41.65625 4.953125 42.3125 
Q 3.609375 42.96875 0.09375 42.921875 
L 0.09375 44.734375 
L 15.765625 44.734375 
L 15.765625 14.796875 
Q 15.765625 8.546875 17.9375 6.59375 
Q 20.125 4.640625 23.1875 4.640625 
Q 25.296875 4.640625 27.953125 5.953125 
Q 30.609375 7.28125 34.28125 10.984375 
L 34.28125 36.328125 
Q 34.28125 40.140625 32.890625 41.484375 
Q 31.5 42.828125 27.09375 42.921875 
L 27.09375 44.734375 
z
" id="TimesNewRomanPSMT-117"/>
        <path d="M 10.640625 27.875 
Q 10.59375 17.921875 15.484375 12.25 
Q 20.359375 6.59375 26.953125 6.59375 
Q 31.34375 6.59375 34.59375 9 
Q 37.84375 11.421875 40.046875 17.28125 
L 41.546875 16.3125 
Q 40.53125 9.625 35.59375 4.125 
Q 30.671875 -1.375 23.25 -1.375 
Q 15.1875 -1.375 9.453125 4.90625 
Q 3.71875 11.1875 3.71875 21.78125 
Q 3.71875 33.25 9.59375 39.671875 
Q 15.484375 46.09375 24.359375 46.09375 
Q 31.890625 46.09375 36.71875 41.140625 
Q 41.546875 36.1875 41.546875 27.875 
z
M 10.640625 30.71875 
L 31.34375 30.71875 
Q 31.109375 35.015625 30.328125 36.765625 
Q 29.109375 39.5 26.6875 41.0625 
Q 24.265625 42.625 21.625 42.625 
Q 17.578125 42.625 14.375 39.46875 
Q 11.1875 36.328125 10.640625 30.71875 
z
" id="TimesNewRomanPSMT-101"/>
       </defs>
       <use xlink:href="#TimesNewRomanPSMT-97"/>
       <use x="44.384766" xlink:href="#TimesNewRomanPSMT-114"/>
       <use x="77.685547" xlink:href="#TimesNewRomanPSMT-116"/>
       <use x="105.46875" xlink:href="#TimesNewRomanPSMT-105"/>
       <use x="133.251953" xlink:href="#TimesNewRomanPSMT-102"/>
       <use x="166.552734" xlink:href="#TimesNewRomanPSMT-97"/>
       <use x="210.9375" xlink:href="#TimesNewRomanPSMT-99"/>
       <use x="255.322266" xlink:href="#TimesNewRomanPSMT-116"/>
       <use x="283.105469" xlink:href="#TimesNewRomanPSMT-32"/>
       <use x="308.105469" xlink:href="#TimesNewRomanPSMT-105"/>
       <use x="335.888672" xlink:href="#TimesNewRomanPSMT-110"/>
       <use x="385.888672" xlink:href="#TimesNewRomanPSMT-100"/>
       <use x="435.888672" xlink:href="#TimesNewRomanPSMT-117"/>
       <use x="485.888672" xlink:href="#TimesNewRomanPSMT-99"/>
       <use x="530.273438" xlink:href="#TimesNewRomanPSMT-101"/>
       <use x="574.658203" xlink:href="#TimesNewRomanPSMT-100"/>
      </g>
     </g>
    </g>
   </g>
   <g id="matplotlib.axis_2">
    <g id="ytick_1">
     <g id="line2d_3">
      <defs>
       <path d="M 0 0 
L -3.5 0 
" id="m7458f08000" style="stroke:#000000;stroke-width:0.8;"/>
      </defs>
      <g>
       <use style="stroke:#000000;stroke-width:0.8;" x="33.05" xlink:href="#m7458f08000" y="53.884449"/>
      </g>
     </g>
     <g id="text_3">
      <!-- 0 -->
      <g transform="translate(22.05 56.661949)scale(0.08 -0.08)">
       <defs>
        <path d="M 3.609375 32.71875 
Q 3.609375 44.046875 7.03125 52.21875 
Q 10.453125 60.40625 16.109375 64.40625 
Q 20.515625 67.578125 25.203125 67.578125 
Q 32.8125 67.578125 38.875 59.8125 
Q 46.4375 50.203125 46.4375 33.734375 
Q 46.4375 22.21875 43.109375 14.15625 
Q 39.796875 6.109375 34.640625 2.46875 
Q 29.5 -1.171875 24.703125 -1.171875 
Q 15.234375 -1.171875 8.9375 10.015625 
Q 3.609375 19.4375 3.609375 32.71875 
z
M 13.1875 31.5 
Q 13.1875 17.828125 16.546875 9.1875 
Q 19.34375 1.90625 24.859375 1.90625 
Q 27.484375 1.90625 30.3125 4.265625 
Q 33.15625 6.640625 34.625 12.203125 
Q 36.859375 20.609375 36.859375 35.890625 
Q 36.859375 47.21875 34.515625 54.78125 
Q 32.765625 60.40625 29.984375 62.75 
Q 27.984375 64.359375 25.140625 64.359375 
Q 21.828125 64.359375 19.234375 61.375 
Q 15.71875 57.328125 14.453125 48.625 
Q 13.1875 39.9375 13.1875 31.5 
z
" id="TimesNewRomanPSMT-48"/>
       </defs>
       <use xlink:href="#TimesNewRomanPSMT-48"/>
      </g>
     </g>
    </g>
    <g id="ytick_2">
     <g id="line2d_4">
      <g>
       <use style="stroke:#000000;stroke-width:0.8;" x="33.05" xlink:href="#m7458f08000" y="23.109843"/>
      </g>
     </g>
     <g id="text_4">
      <!-- 5 -->
      <g transform="translate(22.05 25.887343)scale(0.08 -0.08)">
       <defs>
        <path d="M 43.40625 66.21875 
L 39.59375 57.90625 
L 19.671875 57.90625 
L 15.328125 49.03125 
Q 28.265625 47.125 35.84375 39.40625 
Q 42.328125 32.765625 42.328125 23.78125 
Q 42.328125 18.5625 40.203125 14.109375 
Q 38.09375 9.671875 34.859375 6.546875 
Q 31.640625 3.421875 27.6875 1.515625 
Q 22.078125 -1.171875 16.15625 -1.171875 
Q 10.203125 -1.171875 7.484375 0.84375 
Q 4.78125 2.875 4.78125 5.328125 
Q 4.78125 6.6875 5.90625 7.734375 
Q 7.03125 8.796875 8.734375 8.796875 
Q 10.015625 8.796875 10.96875 8.40625 
Q 11.921875 8.015625 14.203125 6.390625 
Q 17.875 3.859375 21.625 3.859375 
Q 27.34375 3.859375 31.65625 8.171875 
Q 35.984375 12.5 35.984375 18.703125 
Q 35.984375 24.703125 32.125 29.90625 
Q 28.265625 35.109375 21.484375 37.9375 
Q 16.15625 40.140625 6.984375 40.484375 
L 19.671875 66.21875 
z
" id="TimesNewRomanPSMT-53"/>
       </defs>
       <use xlink:href="#TimesNewRomanPSMT-53"/>
      </g>
     </g>
    </g>
    <g id="text_5">
     <!-- Majority Votes -->
     <g transform="translate(16.32375 59.16531)rotate(-90)scale(0.08 -0.08)">
      <defs>
       <path d="M 40.921875 0 
L 15.328125 55.71875 
L 15.328125 11.46875 
Q 15.328125 5.375 16.65625 3.859375 
Q 18.453125 1.8125 22.359375 1.8125 
L 24.703125 1.8125 
L 24.703125 0 
L 1.65625 0 
L 1.65625 1.8125 
L 4 1.8125 
Q 8.203125 1.8125 9.96875 4.34375 
Q 11.03125 5.90625 11.03125 11.46875 
L 11.03125 54.734375 
Q 11.03125 59.125 10.0625 61.078125 
Q 9.375 62.5 7.546875 63.453125 
Q 5.71875 64.40625 1.65625 64.40625 
L 1.65625 66.21875 
L 20.40625 66.21875 
L 44.4375 14.40625 
L 68.0625 66.21875 
L 86.8125 66.21875 
L 86.8125 64.40625 
L 84.515625 64.40625 
Q 80.28125 64.40625 78.515625 61.859375 
Q 77.4375 60.296875 77.4375 54.734375 
L 77.4375 11.46875 
Q 77.4375 5.375 78.8125 3.859375 
Q 80.609375 1.8125 84.515625 1.8125 
L 86.8125 1.8125 
L 86.8125 0 
L 58.6875 0 
L 58.6875 1.8125 
L 61.03125 1.8125 
Q 65.28125 1.8125 67 4.34375 
Q 68.0625 5.90625 68.0625 11.46875 
L 68.0625 55.71875 
L 42.53125 0 
z
" id="TimesNewRomanPSMT-77"/>
       <path d="M 14.453125 69.484375 
Q 16.546875 69.484375 18.015625 68.015625 
Q 19.484375 66.546875 19.484375 64.453125 
Q 19.484375 62.40625 18.015625 60.9375 
Q 16.546875 59.46875 14.453125 59.46875 
Q 12.40625 59.46875 10.9375 60.9375 
Q 9.46875 62.40625 9.46875 64.453125 
Q 9.46875 66.546875 10.9375 68.015625 
Q 12.40625 69.484375 14.453125 69.484375 
z
M 18.65625 46.046875 
L 18.65625 1.03125 
Q 18.65625 -10.453125 13.765625 -16.015625 
Q 8.890625 -21.578125 1.078125 -21.578125 
Q -3.375 -21.578125 -5.515625 -19.96875 
Q -7.671875 -18.359375 -7.671875 -16.65625 
Q -7.671875 -14.9375 -6.46875 -13.71875 
Q -5.28125 -12.5 -3.65625 -12.5 
Q -2.390625 -12.5 -1.078125 -13.140625 
Q -0.25 -13.484375 2.125 -15.59375 
Q 4.5 -17.71875 6.109375 -17.71875 
Q 7.28125 -17.71875 8.390625 -16.8125 
Q 9.515625 -15.921875 10.046875 -13.796875 
Q 10.59375 -11.671875 10.59375 -4.59375 
L 10.59375 27.25 
Q 10.59375 34.625 10.15625 36.71875 
Q 9.8125 38.328125 9.078125 38.9375 
Q 8.34375 39.546875 7.078125 39.546875 
Q 5.71875 39.546875 3.765625 38.8125 
L 3.078125 40.578125 
L 16.546875 46.046875 
z
" id="TimesNewRomanPSMT-106"/>
       <path d="M 0.59375 44.734375 
L 21.4375 44.734375 
L 21.4375 42.921875 
L 20.40625 42.921875 
Q 18.21875 42.921875 17.109375 41.96875 
Q 16.015625 41.015625 16.015625 39.59375 
Q 16.015625 37.703125 17.625 34.328125 
L 28.515625 11.765625 
L 38.53125 36.46875 
Q 39.359375 38.484375 39.359375 40.4375 
Q 39.359375 41.3125 39.015625 41.75 
Q 38.625 42.28125 37.796875 42.59375 
Q 36.96875 42.921875 34.859375 42.921875 
L 34.859375 44.734375 
L 49.421875 44.734375 
L 49.421875 42.921875 
Q 47.609375 42.71875 46.625 42.125 
Q 45.65625 41.546875 44.484375 39.9375 
Q 44.046875 39.265625 42.828125 36.1875 
L 24.609375 -8.453125 
Q 21.96875 -14.9375 17.6875 -18.25 
Q 13.421875 -21.578125 9.46875 -21.578125 
Q 6.59375 -21.578125 4.734375 -19.921875 
Q 2.875 -18.265625 2.875 -16.109375 
Q 2.875 -14.0625 4.21875 -12.8125 
Q 5.5625 -11.578125 7.90625 -11.578125 
Q 9.515625 -11.578125 12.3125 -12.640625 
Q 14.265625 -13.375 14.75 -13.375 
Q 16.21875 -13.375 17.9375 -11.859375 
Q 19.671875 -10.359375 21.4375 -6 
L 24.609375 1.765625 
L 8.546875 35.5 
Q 7.8125 37.015625 6.203125 39.265625 
Q 4.984375 40.96875 4.203125 41.546875 
Q 3.078125 42.328125 0.59375 42.921875 
z
" id="TimesNewRomanPSMT-121"/>
       <path d="M 71 66.21875 
L 71 64.40625 
Q 67.484375 63.765625 65.671875 62.15625 
Q 63.09375 59.765625 61.078125 54.828125 
L 37.984375 -1.515625 
L 36.1875 -1.515625 
L 11.375 55.5625 
Q 9.46875 59.96875 8.6875 60.9375 
Q 7.46875 62.453125 5.6875 63.296875 
Q 3.90625 64.15625 0.875 64.40625 
L 0.875 66.21875 
L 27.9375 66.21875 
L 27.9375 64.40625 
Q 23.34375 63.96875 21.96875 62.84375 
Q 20.609375 61.71875 20.609375 59.96875 
Q 20.609375 57.515625 22.859375 52.34375 
L 39.703125 13.53125 
L 55.328125 51.859375 
Q 57.625 57.515625 57.625 59.71875 
Q 57.625 61.140625 56.203125 62.421875 
Q 54.78125 63.71875 51.421875 64.265625 
Q 51.171875 64.3125 50.59375 64.40625 
L 50.59375 66.21875 
z
" id="TimesNewRomanPSMT-86"/>
       <path d="M 32.03125 46.046875 
L 32.03125 30.8125 
L 30.421875 30.8125 
Q 28.5625 37.984375 25.65625 40.578125 
Q 22.75 43.171875 18.265625 43.171875 
Q 14.84375 43.171875 12.734375 41.359375 
Q 10.640625 39.546875 10.640625 37.359375 
Q 10.640625 34.625 12.203125 32.671875 
Q 13.71875 30.671875 18.359375 28.421875 
L 25.484375 24.953125 
Q 35.40625 20.125 35.40625 12.203125 
Q 35.40625 6.109375 30.78125 2.359375 
Q 26.171875 -1.375 20.453125 -1.375 
Q 16.359375 -1.375 11.078125 0.09375 
Q 9.46875 0.59375 8.453125 0.59375 
Q 7.328125 0.59375 6.6875 -0.6875 
L 5.078125 -0.6875 
L 5.078125 15.28125 
L 6.6875 15.28125 
Q 8.0625 8.453125 11.90625 4.984375 
Q 15.765625 1.515625 20.5625 1.515625 
Q 23.921875 1.515625 26.046875 3.484375 
Q 28.171875 5.46875 28.171875 8.25 
Q 28.171875 11.625 25.796875 13.921875 
Q 23.4375 16.21875 16.359375 19.734375 
Q 9.28125 23.25 7.078125 26.078125 
Q 4.890625 28.859375 4.890625 33.109375 
Q 4.890625 38.625 8.671875 42.328125 
Q 12.453125 46.046875 18.453125 46.046875 
Q 21.09375 46.046875 24.859375 44.921875 
Q 27.34375 44.1875 28.171875 44.1875 
Q 28.953125 44.1875 29.390625 44.53125 
Q 29.828125 44.875 30.421875 46.046875 
z
" id="TimesNewRomanPSMT-115"/>
      </defs>
      <use xlink:href="#TimesNewRomanPSMT-77"/>
      <use x="88.916016" xlink:href="#TimesNewRomanPSMT-97"/>
      <use x="133.300781" xlink:href="#TimesNewRomanPSMT-106"/>
      <use x="161.083984" xlink:href="#TimesNewRomanPSMT-111"/>
      <use x="211.083984" xlink:href="#TimesNewRomanPSMT-114"/>
      <use x="244.384766" xlink:href="#TimesNewRomanPSMT-105"/>
      <use x="272.167969" xlink:href="#TimesNewRomanPSMT-116"/>
      <use x="299.951172" xlink:href="#TimesNewRomanPSMT-121"/>
      <use x="349.951172" xlink:href="#TimesNewRomanPSMT-32"/>
      <use x="373.201172" xlink:href="#TimesNewRomanPSMT-86"/>
      <use x="432.542969" xlink:href="#TimesNewRomanPSMT-111"/>
      <use x="482.542969" xlink:href="#TimesNewRomanPSMT-116"/>
      <use x="510.326172" xlink:href="#TimesNewRomanPSMT-101"/>
      <use x="554.710938" xlink:href="#TimesNewRomanPSMT-115"/>
     </g>
    </g>
   </g>
   <g id="line2d_5">
    <path clip-path="url(#p9f326db0ac)" d="M 48.436512 53.884449 
L 48.436512 53.884449 
" style="fill:none;stroke:#595959;stroke-linecap:square;"/>
   </g>
   <g id="line2d_6">
    <path clip-path="url(#p9f326db0ac)" d="M 48.436512 47.729528 
L 48.436512 41.574606 
" style="fill:none;stroke:#595959;stroke-linecap:square;"/>
   </g>
   <g id="line2d_7">
    <path clip-path="url(#p9f326db0ac)" d="M 42.518623 53.884449 
L 54.354401 53.884449 
" style="fill:none;stroke:#595959;stroke-linecap:square;"/>
   </g>
   <g id="line2d_8">
    <path clip-path="url(#p9f326db0ac)" d="M 42.518623 41.574606 
L 54.354401 41.574606 
" style="fill:none;stroke:#595959;stroke-linecap:square;"/>
   </g>
   <g id="line2d_9">
    <path clip-path="url(#p9f326db0ac)" d="M 95.779626 44.652067 
L 95.779626 47.729528 
" style="fill:none;stroke:#595959;stroke-linecap:square;"/>
   </g>
   <g id="line2d_10">
    <path clip-path="url(#p9f326db0ac)" d="M 95.779626 29.264764 
L 95.779626 23.109843 
" style="fill:none;stroke:#595959;stroke-linecap:square;"/>
   </g>
   <g id="line2d_11">
    <path clip-path="url(#p9f326db0ac)" d="M 89.861737 47.729528 
L 101.697515 47.729528 
" style="fill:none;stroke:#595959;stroke-linecap:square;"/>
   </g>
   <g id="line2d_12">
    <path clip-path="url(#p9f326db0ac)" d="M 89.861737 23.109843 
L 101.697515 23.109843 
" style="fill:none;stroke:#595959;stroke-linecap:square;"/>
   </g>
   <g id="line2d_13">
    <path clip-path="url(#p9f326db0ac)" d="M 48.436512 50.515439 
L 95.779626 36.633331 
" style="fill:none;stroke:#808080;stroke-dasharray:1.48,0.64;stroke-dashoffset:0;stroke-width:0.4;"/>
   </g>
   <g id="line2d_14">
    <path clip-path="url(#p9f326db0ac)" d="M 36.600734 53.884449 
L 60.272291 53.884449 
" style="fill:none;stroke:#595959;stroke-linecap:square;"/>
   </g>
   <g id="line2d_15">
    <path clip-path="url(#p9f326db0ac)" d="M 83.943848 35.419685 
L 107.615405 35.419685 
" style="fill:none;stroke:#595959;stroke-linecap:square;"/>
   </g>
   <g id="patch_5">
    <path d="M 33.05 60.03937 
L 33.05 10.8 
" style="fill:none;stroke:#000000;stroke-linecap:square;stroke-linejoin:miter;stroke-width:0.8;"/>
   </g>
   <g id="patch_6">
    <path d="M 111.166138 60.03937 
L 111.166138 10.8 
" style="fill:none;stroke:#000000;stroke-linecap:square;stroke-linejoin:miter;stroke-width:0.8;"/>
   </g>
   <g id="patch_7">
    <path d="M 33.05 60.03937 
L 111.166138 60.03937 
" style="fill:none;stroke:#000000;stroke-linecap:square;stroke-linejoin:miter;stroke-width:0.8;"/>
   </g>
   <g id="patch_8">
    <path d="M 33.05 10.8 
L 111.166138 10.8 
" style="fill:none;stroke:#000000;stroke-linecap:square;stroke-linejoin:miter;stroke-width:0.8;"/>
   </g>
   <g id="PathCollection_1">
    <defs>
     <path d="M 0 1 
C 0.265203 1 0.51958 0.894634 0.707107 0.707107 
C 0.894634 0.51958 1 0.265203 1 -0 
C 1 -0.265203 0.894634 -0.51958 0.707107 -0.707107 
C 0.51958 -0.894634 0.265203 -1 0 -1 
C -0.265203 -1 -0.51958 -0.894634 -0.707107 -0.707107 
C -0.894634 -0.51958 -1 -0.265203 -1 0 
C -1 0.265203 -0.894634 0.51958 -0.707107 0.707107 
C -0.51958 0.894634 -0.265203 1 0 1 
z
" id="C0_0_4dc9e7c9d4"/>
    </defs>
    <g clip-path="url(#p9f326db0ac)">
     <use style="fill-opacity:0.5;" x="51.103006" xlink:href="#C0_0_4dc9e7c9d4" y="53.884449"/>
    </g>
    <g clip-path="url(#p9f326db0ac)">
     <use style="fill-opacity:0.5;" x="46.80429" xlink:href="#C0_0_4dc9e7c9d4" y="53.884449"/>
    </g>
    <g clip-path="url(#p9f326db0ac)">
     <use style="fill-opacity:0.5;" x="48.269564" xlink:href="#C0_0_4dc9e7c9d4" y="53.884449"/>
    </g>
    <g clip-path="url(#p9f326db0ac)">
     <use style="fill-opacity:0.5;" x="52.736387" xlink:href="#C0_0_4dc9e7c9d4" y="53.884449"/>
    </g>
    <g clip-path="url(#p9f326db0ac)">
     <use style="fill-opacity:0.5;" x="44.846465" xlink:href="#C0_0_4dc9e7c9d4" y="53.884449"/>
    </g>
    <g clip-path="url(#p9f326db0ac)">
     <use style="fill-opacity:0.5;" x="49.223792" xlink:href="#C0_0_4dc9e7c9d4" y="35.419685"/>
    </g>
    <g clip-path="url(#p9f326db0ac)">
     <use style="fill-opacity:0.5;" x="50.146619" xlink:href="#C0_0_4dc9e7c9d4" y="41.574606"/>
    </g>
    <g clip-path="url(#p9f326db0ac)">
     <use style="fill-opacity:0.5;" x="49.052527" xlink:href="#C0_0_4dc9e7c9d4" y="41.574606"/>
    </g>
    <g clip-path="url(#p9f326db0ac)">
     <use style="fill-opacity:0.5;" x="46.483613" xlink:href="#C0_0_4dc9e7c9d4" y="47.729528"/>
    </g>
    <g clip-path="url(#p9f326db0ac)">
     <use style="fill-opacity:0.5;" x="52.618132" xlink:href="#C0_0_4dc9e7c9d4" y="47.729528"/>
    </g>
    <g clip-path="url(#p9f326db0ac)">
     <use style="fill-opacity:0.5;" x="47.59233" xlink:href="#C0_0_4dc9e7c9d4" y="53.884449"/>
    </g>
    <g clip-path="url(#p9f326db0ac)">
     <use style="fill-opacity:0.5;" x="45.548322" xlink:href="#C0_0_4dc9e7c9d4" y="53.884449"/>
    </g>
    <g clip-path="url(#p9f326db0ac)">
     <use style="fill-opacity:0.5;" x="43.888192" xlink:href="#C0_0_4dc9e7c9d4" y="47.729528"/>
    </g>
    <g clip-path="url(#p9f326db0ac)">
     <use style="fill-opacity:0.5;" x="49.372332" xlink:href="#C0_0_4dc9e7c9d4" y="47.729528"/>
    </g>
    <g clip-path="url(#p9f326db0ac)">
     <use style="fill-opacity:0.5;" x="45.920748" xlink:href="#C0_0_4dc9e7c9d4" y="53.884449"/>
    </g>
    <g clip-path="url(#p9f326db0ac)">
     <use style="fill-opacity:0.5;" x="51.693836" xlink:href="#C0_0_4dc9e7c9d4" y="47.729528"/>
    </g>
    <g clip-path="url(#p9f326db0ac)">
     <use style="fill-opacity:0.5;" x="44.425423" xlink:href="#C0_0_4dc9e7c9d4" y="47.729528"/>
    </g>
    <g clip-path="url(#p9f326db0ac)">
     <use style="fill-opacity:0.5;" x="47.170429" xlink:href="#C0_0_4dc9e7c9d4" y="47.729528"/>
    </g>
    <g clip-path="url(#p9f326db0ac)">
     <use style="fill-opacity:0.5;" x="46.183913" xlink:href="#C0_0_4dc9e7c9d4" y="41.574606"/>
    </g>
    <g clip-path="url(#p9f326db0ac)">
     <use style="fill-opacity:0.5;" x="44.691599" xlink:href="#C0_0_4dc9e7c9d4" y="47.729528"/>
    </g>
    <g clip-path="url(#p9f326db0ac)">
     <use style="fill-opacity:0.5;" x="51.468508" xlink:href="#C0_0_4dc9e7c9d4" y="47.729528"/>
    </g>
    <g clip-path="url(#p9f326db0ac)">
     <use style="fill-opacity:0.5;" x="45.501767" xlink:href="#C0_0_4dc9e7c9d4" y="53.884449"/>
    </g>
    <g clip-path="url(#p9f326db0ac)">
     <use style="fill-opacity:0.5;" x="52.713428" xlink:href="#C0_0_4dc9e7c9d4" y="47.729528"/>
    </g>
    <g clip-path="url(#p9f326db0ac)">
     <use style="fill-opacity:0.5;" x="51.692697" xlink:href="#C0_0_4dc9e7c9d4" y="53.884449"/>
    </g>
    <g clip-path="url(#p9f326db0ac)">
     <use style="fill-opacity:0.5;" x="45.342167" xlink:href="#C0_0_4dc9e7c9d4" y="53.884449"/>
    </g>
    <g clip-path="url(#p9f326db0ac)">
     <use style="fill-opacity:0.5;" x="49.320915" xlink:href="#C0_0_4dc9e7c9d4" y="53.884449"/>
    </g>
    <g clip-path="url(#p9f326db0ac)">
     <use style="fill-opacity:0.5;" x="51.49093" xlink:href="#C0_0_4dc9e7c9d4" y="53.884449"/>
    </g>
    <g clip-path="url(#p9f326db0ac)">
     <use style="fill-opacity:0.5;" x="50.34501" xlink:href="#C0_0_4dc9e7c9d4" y="53.884449"/>
    </g>
    <g clip-path="url(#p9f326db0ac)">
     <use style="fill-opacity:0.5;" x="51.173494" xlink:href="#C0_0_4dc9e7c9d4" y="53.884449"/>
    </g>
    <g clip-path="url(#p9f326db0ac)">
     <use style="fill-opacity:0.5;" x="44.192298" xlink:href="#C0_0_4dc9e7c9d4" y="53.884449"/>
    </g>
    <g clip-path="url(#p9f326db0ac)">
     <use style="fill-opacity:0.5;" x="52.523697" xlink:href="#C0_0_4dc9e7c9d4" y="53.884449"/>
    </g>
    <g clip-path="url(#p9f326db0ac)">
     <use style="fill-opacity:0.5;" x="47.387149" xlink:href="#C0_0_4dc9e7c9d4" y="53.884449"/>
    </g>
    <g clip-path="url(#p9f326db0ac)">
     <use style="fill-opacity:0.5;" x="50.680496" xlink:href="#C0_0_4dc9e7c9d4" y="53.884449"/>
    </g>
    <g clip-path="url(#p9f326db0ac)">
     <use style="fill-opacity:0.5;" x="44.601442" xlink:href="#C0_0_4dc9e7c9d4" y="53.884449"/>
    </g>
    <g clip-path="url(#p9f326db0ac)">
     <use style="fill-opacity:0.5;" x="50.865109" xlink:href="#C0_0_4dc9e7c9d4" y="53.884449"/>
    </g>
    <g clip-path="url(#p9f326db0ac)">
     <use style="fill-opacity:0.5;" x="52.587457" xlink:href="#C0_0_4dc9e7c9d4" y="53.884449"/>
    </g>
    <g clip-path="url(#p9f326db0ac)">
     <use style="fill-opacity:0.5;" x="52.105762" xlink:href="#C0_0_4dc9e7c9d4" y="53.884449"/>
    </g>
    <g clip-path="url(#p9f326db0ac)">
     <use style="fill-opacity:0.5;" x="45.872509" xlink:href="#C0_0_4dc9e7c9d4" y="53.884449"/>
    </g>
    <g clip-path="url(#p9f326db0ac)">
     <use style="fill-opacity:0.5;" x="51.346102" xlink:href="#C0_0_4dc9e7c9d4" y="53.884449"/>
    </g>
    <g clip-path="url(#p9f326db0ac)">
     <use style="fill-opacity:0.5;" x="50.400739" xlink:href="#C0_0_4dc9e7c9d4" y="53.884449"/>
    </g>
    <g clip-path="url(#p9f326db0ac)">
     <use style="fill-opacity:0.5;" x="45.464389" xlink:href="#C0_0_4dc9e7c9d4" y="53.884449"/>
    </g>
    <g clip-path="url(#p9f326db0ac)">
     <use style="fill-opacity:0.5;" x="44.425711" xlink:href="#C0_0_4dc9e7c9d4" y="53.884449"/>
    </g>
    <g clip-path="url(#p9f326db0ac)">
     <use style="fill-opacity:0.5;" x="51.968162" xlink:href="#C0_0_4dc9e7c9d4" y="53.884449"/>
    </g>
    <g clip-path="url(#p9f326db0ac)">
     <use style="fill-opacity:0.5;" x="47.833737" xlink:href="#C0_0_4dc9e7c9d4" y="53.884449"/>
    </g>
    <g clip-path="url(#p9f326db0ac)">
     <use style="fill-opacity:0.5;" x="48.256677" xlink:href="#C0_0_4dc9e7c9d4" y="53.884449"/>
    </g>
    <g clip-path="url(#p9f326db0ac)">
     <use style="fill-opacity:0.5;" x="50.39327" xlink:href="#C0_0_4dc9e7c9d4" y="41.574606"/>
    </g>
    <g clip-path="url(#p9f326db0ac)">
     <use style="fill-opacity:0.5;" x="50.595358" xlink:href="#C0_0_4dc9e7c9d4" y="35.419685"/>
    </g>
    <g clip-path="url(#p9f326db0ac)">
     <use style="fill-opacity:0.5;" x="47.064216" xlink:href="#C0_0_4dc9e7c9d4" y="47.729528"/>
    </g>
    <g clip-path="url(#p9f326db0ac)">
     <use style="fill-opacity:0.5;" x="48.940704" xlink:href="#C0_0_4dc9e7c9d4" y="35.419685"/>
    </g>
    <g clip-path="url(#p9f326db0ac)">
     <use style="fill-opacity:0.5;" x="47.236814" xlink:href="#C0_0_4dc9e7c9d4" y="41.574606"/>
    </g>
    <g clip-path="url(#p9f326db0ac)">
     <use style="fill-opacity:0.5;" x="52.686498" xlink:href="#C0_0_4dc9e7c9d4" y="47.729528"/>
    </g>
    <g clip-path="url(#p9f326db0ac)">
     <use style="fill-opacity:0.5;" x="50.628355" xlink:href="#C0_0_4dc9e7c9d4" y="41.574606"/>
    </g>
    <g clip-path="url(#p9f326db0ac)">
     <use style="fill-opacity:0.5;" x="47.4322" xlink:href="#C0_0_4dc9e7c9d4" y="47.729528"/>
    </g>
    <g clip-path="url(#p9f326db0ac)">
     <use style="fill-opacity:0.5;" x="49.788038" xlink:href="#C0_0_4dc9e7c9d4" y="41.574606"/>
    </g>
    <g clip-path="url(#p9f326db0ac)">
     <use style="fill-opacity:0.5;" x="45.77373" xlink:href="#C0_0_4dc9e7c9d4" y="47.729528"/>
    </g>
    <g clip-path="url(#p9f326db0ac)">
     <use style="fill-opacity:0.5;" x="46.246345" xlink:href="#C0_0_4dc9e7c9d4" y="47.729528"/>
    </g>
    <g clip-path="url(#p9f326db0ac)">
     <use style="fill-opacity:0.5;" x="51.902065" xlink:href="#C0_0_4dc9e7c9d4" y="47.729528"/>
    </g>
    <g clip-path="url(#p9f326db0ac)">
     <use style="fill-opacity:0.5;" x="47.964206" xlink:href="#C0_0_4dc9e7c9d4" y="53.884449"/>
    </g>
    <g clip-path="url(#p9f326db0ac)">
     <use style="fill-opacity:0.5;" x="47.499855" xlink:href="#C0_0_4dc9e7c9d4" y="53.884449"/>
    </g>
    <g clip-path="url(#p9f326db0ac)">
     <use style="fill-opacity:0.5;" x="49.439882" xlink:href="#C0_0_4dc9e7c9d4" y="53.884449"/>
    </g>
    <g clip-path="url(#p9f326db0ac)">
     <use style="fill-opacity:0.5;" x="46.044702" xlink:href="#C0_0_4dc9e7c9d4" y="53.884449"/>
    </g>
    <g clip-path="url(#p9f326db0ac)">
     <use style="fill-opacity:0.5;" x="47.948073" xlink:href="#C0_0_4dc9e7c9d4" y="53.884449"/>
    </g>
    <g clip-path="url(#p9f326db0ac)">
     <use style="fill-opacity:0.5;" x="51.479545" xlink:href="#C0_0_4dc9e7c9d4" y="53.884449"/>
    </g>
    <g clip-path="url(#p9f326db0ac)">
     <use style="fill-opacity:0.5;" x="50.445546" xlink:href="#C0_0_4dc9e7c9d4" y="53.884449"/>
    </g>
    <g clip-path="url(#p9f326db0ac)">
     <use style="fill-opacity:0.5;" x="51.346576" xlink:href="#C0_0_4dc9e7c9d4" y="53.884449"/>
    </g>
    <g clip-path="url(#p9f326db0ac)">
     <use style="fill-opacity:0.5;" x="51.718121" xlink:href="#C0_0_4dc9e7c9d4" y="53.884449"/>
    </g>
    <g clip-path="url(#p9f326db0ac)">
     <use style="fill-opacity:0.5;" x="52.66624" xlink:href="#C0_0_4dc9e7c9d4" y="53.884449"/>
    </g>
    <g clip-path="url(#p9f326db0ac)">
     <use style="fill-opacity:0.5;" x="48.911772" xlink:href="#C0_0_4dc9e7c9d4" y="53.884449"/>
    </g>
    <g clip-path="url(#p9f326db0ac)">
     <use style="fill-opacity:0.5;" x="51.28541" xlink:href="#C0_0_4dc9e7c9d4" y="53.884449"/>
    </g>
    <g clip-path="url(#p9f326db0ac)">
     <use style="fill-opacity:0.5;" x="49.458292" xlink:href="#C0_0_4dc9e7c9d4" y="47.729528"/>
    </g>
    <g clip-path="url(#p9f326db0ac)">
     <use style="fill-opacity:0.5;" x="43.818557" xlink:href="#C0_0_4dc9e7c9d4" y="47.729528"/>
    </g>
    <g clip-path="url(#p9f326db0ac)">
     <use style="fill-opacity:0.5;" x="51.347982" xlink:href="#C0_0_4dc9e7c9d4" y="53.884449"/>
    </g>
    <g clip-path="url(#p9f326db0ac)">
     <use style="fill-opacity:0.5;" x="51.98312" xlink:href="#C0_0_4dc9e7c9d4" y="53.884449"/>
    </g>
    <g clip-path="url(#p9f326db0ac)">
     <use style="fill-opacity:0.5;" x="47.419266" xlink:href="#C0_0_4dc9e7c9d4" y="53.884449"/>
    </g>
    <g clip-path="url(#p9f326db0ac)">
     <use style="fill-opacity:0.5;" x="44.340357" xlink:href="#C0_0_4dc9e7c9d4" y="53.884449"/>
    </g>
    <g clip-path="url(#p9f326db0ac)">
     <use style="fill-opacity:0.5;" x="46.213087" xlink:href="#C0_0_4dc9e7c9d4" y="53.884449"/>
    </g>
    <g clip-path="url(#p9f326db0ac)">
     <use style="fill-opacity:0.5;" x="44.342402" xlink:href="#C0_0_4dc9e7c9d4" y="41.574606"/>
    </g>
    <g clip-path="url(#p9f326db0ac)">
     <use style="fill-opacity:0.5;" x="49.671959" xlink:href="#C0_0_4dc9e7c9d4" y="47.729528"/>
    </g>
    <g clip-path="url(#p9f326db0ac)">
     <use style="fill-opacity:0.5;" x="44.306742" xlink:href="#C0_0_4dc9e7c9d4" y="47.729528"/>
    </g>
    <g clip-path="url(#p9f326db0ac)">
     <use style="fill-opacity:0.5;" x="45.558775" xlink:href="#C0_0_4dc9e7c9d4" y="53.884449"/>
    </g>
    <g clip-path="url(#p9f326db0ac)">
     <use style="fill-opacity:0.5;" x="47.528833" xlink:href="#C0_0_4dc9e7c9d4" y="53.884449"/>
    </g>
    <g clip-path="url(#p9f326db0ac)">
     <use style="fill-opacity:0.5;" x="51.630295" xlink:href="#C0_0_4dc9e7c9d4" y="47.729528"/>
    </g>
    <g clip-path="url(#p9f326db0ac)">
     <use style="fill-opacity:0.5;" x="44.980516" xlink:href="#C0_0_4dc9e7c9d4" y="53.884449"/>
    </g>
    <g clip-path="url(#p9f326db0ac)">
     <use style="fill-opacity:0.5;" x="50.507014" xlink:href="#C0_0_4dc9e7c9d4" y="53.884449"/>
    </g>
    <g clip-path="url(#p9f326db0ac)">
     <use style="fill-opacity:0.5;" x="50.206598" xlink:href="#C0_0_4dc9e7c9d4" y="53.884449"/>
    </g>
    <g clip-path="url(#p9f326db0ac)">
     <use style="fill-opacity:0.5;" x="52.153356" xlink:href="#C0_0_4dc9e7c9d4" y="53.884449"/>
    </g>
    <g clip-path="url(#p9f326db0ac)">
     <use style="fill-opacity:0.5;" x="47.891649" xlink:href="#C0_0_4dc9e7c9d4" y="53.884449"/>
    </g>
    <g clip-path="url(#p9f326db0ac)">
     <use style="fill-opacity:0.5;" x="52.167419" xlink:href="#C0_0_4dc9e7c9d4" y="53.884449"/>
    </g>
    <g clip-path="url(#p9f326db0ac)">
     <use style="fill-opacity:0.5;" x="47.983346" xlink:href="#C0_0_4dc9e7c9d4" y="53.884449"/>
    </g>
    <g clip-path="url(#p9f326db0ac)">
     <use style="fill-opacity:0.5;" x="50.914735" xlink:href="#C0_0_4dc9e7c9d4" y="53.884449"/>
    </g>
    <g clip-path="url(#p9f326db0ac)">
     <use style="fill-opacity:0.5;" x="46.472957" xlink:href="#C0_0_4dc9e7c9d4" y="53.884449"/>
    </g>
    <g clip-path="url(#p9f326db0ac)">
     <use style="fill-opacity:0.5;" x="50.226225" xlink:href="#C0_0_4dc9e7c9d4" y="41.574606"/>
    </g>
    <g clip-path="url(#p9f326db0ac)">
     <use style="fill-opacity:0.5;" x="45.40232" xlink:href="#C0_0_4dc9e7c9d4" y="41.574606"/>
    </g>
    <g clip-path="url(#p9f326db0ac)">
     <use style="fill-opacity:0.5;" x="45.059235" xlink:href="#C0_0_4dc9e7c9d4" y="47.729528"/>
    </g>
    <g clip-path="url(#p9f326db0ac)">
     <use style="fill-opacity:0.5;" x="52.33909" xlink:href="#C0_0_4dc9e7c9d4" y="47.729528"/>
    </g>
   </g>
   <g id="PathCollection_2">
    <defs>
     <path d="M 0 1 
C 0.265203 1 0.51958 0.894634 0.707107 0.707107 
C 0.894634 0.51958 1 0.265203 1 -0 
C 1 -0.265203 0.894634 -0.51958 0.707107 -0.707107 
C 0.51958 -0.894634 0.265203 -1 0 -1 
C -0.265203 -1 -0.51958 -0.894634 -0.707107 -0.707107 
C -0.894634 -0.51958 -1 -0.265203 -1 0 
C -1 0.265203 -0.894634 0.51958 -0.707107 0.707107 
C -0.51958 0.894634 -0.265203 1 0 1 
z
" id="C1_0_23919fe0b9"/>
    </defs>
    <g clip-path="url(#p9f326db0ac)">
     <use style="fill-opacity:0.5;" x="94.695035" xlink:href="#C1_0_23919fe0b9" y="29.264764"/>
    </g>
    <g clip-path="url(#p9f326db0ac)">
     <use style="fill-opacity:0.5;" x="97.039169" xlink:href="#C1_0_23919fe0b9" y="29.264764"/>
    </g>
    <g clip-path="url(#p9f326db0ac)">
     <use style="fill-opacity:0.5;" x="97.392243" xlink:href="#C1_0_23919fe0b9" y="29.264764"/>
    </g>
    <g clip-path="url(#p9f326db0ac)">
     <use style="fill-opacity:0.5;" x="99.370348" xlink:href="#C1_0_23919fe0b9" y="47.729528"/>
    </g>
    <g clip-path="url(#p9f326db0ac)">
     <use style="fill-opacity:0.5;" x="95.302495" xlink:href="#C1_0_23919fe0b9" y="29.264764"/>
    </g>
    <g clip-path="url(#p9f326db0ac)">
     <use style="fill-opacity:0.5;" x="98.089509" xlink:href="#C1_0_23919fe0b9" y="29.264764"/>
    </g>
    <g clip-path="url(#p9f326db0ac)">
     <use style="fill-opacity:0.5;" x="95.925193" xlink:href="#C1_0_23919fe0b9" y="29.264764"/>
    </g>
    <g clip-path="url(#p9f326db0ac)">
     <use style="fill-opacity:0.5;" x="95.468478" xlink:href="#C1_0_23919fe0b9" y="47.729528"/>
    </g>
    <g clip-path="url(#p9f326db0ac)">
     <use style="fill-opacity:0.5;" x="95.581476" xlink:href="#C1_0_23919fe0b9" y="29.264764"/>
    </g>
    <g clip-path="url(#p9f326db0ac)">
     <use style="fill-opacity:0.5;" x="99.284049" xlink:href="#C1_0_23919fe0b9" y="29.264764"/>
    </g>
    <g clip-path="url(#p9f326db0ac)">
     <use style="fill-opacity:0.5;" x="98.78848" xlink:href="#C1_0_23919fe0b9" y="29.264764"/>
    </g>
    <g clip-path="url(#p9f326db0ac)">
     <use style="fill-opacity:0.5;" x="97.250203" xlink:href="#C1_0_23919fe0b9" y="29.264764"/>
    </g>
    <g clip-path="url(#p9f326db0ac)">
     <use style="fill-opacity:0.5;" x="96.661827" xlink:href="#C1_0_23919fe0b9" y="41.574606"/>
    </g>
    <g clip-path="url(#p9f326db0ac)">
     <use style="fill-opacity:0.5;" x="97.593742" xlink:href="#C1_0_23919fe0b9" y="29.264764"/>
    </g>
    <g clip-path="url(#p9f326db0ac)">
     <use style="fill-opacity:0.5;" x="98.858845" xlink:href="#C1_0_23919fe0b9" y="29.264764"/>
    </g>
    <g clip-path="url(#p9f326db0ac)">
     <use style="fill-opacity:0.5;" x="94.263892" xlink:href="#C1_0_23919fe0b9" y="41.574606"/>
    </g>
    <g clip-path="url(#p9f326db0ac)">
     <use style="fill-opacity:0.5;" x="91.251211" xlink:href="#C1_0_23919fe0b9" y="35.419685"/>
    </g>
    <g clip-path="url(#p9f326db0ac)">
     <use style="fill-opacity:0.5;" x="95.194053" xlink:href="#C1_0_23919fe0b9" y="29.264764"/>
    </g>
    <g clip-path="url(#p9f326db0ac)">
     <use style="fill-opacity:0.5;" x="97.350638" xlink:href="#C1_0_23919fe0b9" y="47.729528"/>
    </g>
    <g clip-path="url(#p9f326db0ac)">
     <use style="fill-opacity:0.5;" x="94.047265" xlink:href="#C1_0_23919fe0b9" y="35.419685"/>
    </g>
    <g clip-path="url(#p9f326db0ac)">
     <use style="fill-opacity:0.5;" x="98.72988" xlink:href="#C1_0_23919fe0b9" y="29.264764"/>
    </g>
    <g clip-path="url(#p9f326db0ac)">
     <use style="fill-opacity:0.5;" x="93.902122" xlink:href="#C1_0_23919fe0b9" y="47.729528"/>
    </g>
    <g clip-path="url(#p9f326db0ac)">
     <use style="fill-opacity:0.5;" x="97.291807" xlink:href="#C1_0_23919fe0b9" y="29.264764"/>
    </g>
    <g clip-path="url(#p9f326db0ac)">
     <use style="fill-opacity:0.5;" x="98.406982" xlink:href="#C1_0_23919fe0b9" y="29.264764"/>
    </g>
    <g clip-path="url(#p9f326db0ac)">
     <use style="fill-opacity:0.5;" x="93.756405" xlink:href="#C1_0_23919fe0b9" y="41.574606"/>
    </g>
    <g clip-path="url(#p9f326db0ac)">
     <use style="fill-opacity:0.5;" x="96.021737" xlink:href="#C1_0_23919fe0b9" y="29.264764"/>
    </g>
    <g clip-path="url(#p9f326db0ac)">
     <use style="fill-opacity:0.5;" x="95.994913" xlink:href="#C1_0_23919fe0b9" y="47.729528"/>
    </g>
    <g clip-path="url(#p9f326db0ac)">
     <use style="fill-opacity:0.5;" x="95.658806" xlink:href="#C1_0_23919fe0b9" y="35.419685"/>
    </g>
    <g clip-path="url(#p9f326db0ac)">
     <use style="fill-opacity:0.5;" x="97.363959" xlink:href="#C1_0_23919fe0b9" y="29.264764"/>
    </g>
    <g clip-path="url(#p9f326db0ac)">
     <use style="fill-opacity:0.5;" x="95.367354" xlink:href="#C1_0_23919fe0b9" y="47.729528"/>
    </g>
    <g clip-path="url(#p9f326db0ac)">
     <use style="fill-opacity:0.5;" x="99.673517" xlink:href="#C1_0_23919fe0b9" y="29.264764"/>
    </g>
    <g clip-path="url(#p9f326db0ac)">
     <use style="fill-opacity:0.5;" x="94.061009" xlink:href="#C1_0_23919fe0b9" y="41.574606"/>
    </g>
    <g clip-path="url(#p9f326db0ac)">
     <use style="fill-opacity:0.5;" x="99.378272" xlink:href="#C1_0_23919fe0b9" y="47.729528"/>
    </g>
    <g clip-path="url(#p9f326db0ac)">
     <use style="fill-opacity:0.5;" x="94.949895" xlink:href="#C1_0_23919fe0b9" y="29.264764"/>
    </g>
    <g clip-path="url(#p9f326db0ac)">
     <use style="fill-opacity:0.5;" x="92.60995" xlink:href="#C1_0_23919fe0b9" y="47.729528"/>
    </g>
    <g clip-path="url(#p9f326db0ac)">
     <use style="fill-opacity:0.5;" x="92.232322" xlink:href="#C1_0_23919fe0b9" y="29.264764"/>
    </g>
    <g clip-path="url(#p9f326db0ac)">
     <use style="fill-opacity:0.5;" x="96.18214" xlink:href="#C1_0_23919fe0b9" y="47.729528"/>
    </g>
    <g clip-path="url(#p9f326db0ac)">
     <use style="fill-opacity:0.5;" x="91.130409" xlink:href="#C1_0_23919fe0b9" y="23.109843"/>
    </g>
    <g clip-path="url(#p9f326db0ac)">
     <use style="fill-opacity:0.5;" x="94.071118" xlink:href="#C1_0_23919fe0b9" y="29.264764"/>
    </g>
    <g clip-path="url(#p9f326db0ac)">
     <use style="fill-opacity:0.5;" x="95.768111" xlink:href="#C1_0_23919fe0b9" y="41.574606"/>
    </g>
    <g clip-path="url(#p9f326db0ac)">
     <use style="fill-opacity:0.5;" x="92.760321" xlink:href="#C1_0_23919fe0b9" y="41.574606"/>
    </g>
    <g clip-path="url(#p9f326db0ac)">
     <use style="fill-opacity:0.5;" x="93.844329" xlink:href="#C1_0_23919fe0b9" y="29.264764"/>
    </g>
    <g clip-path="url(#p9f326db0ac)">
     <use style="fill-opacity:0.5;" x="94.57804" xlink:href="#C1_0_23919fe0b9" y="41.574606"/>
    </g>
    <g clip-path="url(#p9f326db0ac)">
     <use style="fill-opacity:0.5;" x="94.374846" xlink:href="#C1_0_23919fe0b9" y="41.574606"/>
    </g>
    <g clip-path="url(#p9f326db0ac)">
     <use style="fill-opacity:0.5;" x="94.71671" xlink:href="#C1_0_23919fe0b9" y="29.264764"/>
    </g>
    <g clip-path="url(#p9f326db0ac)">
     <use style="fill-opacity:0.5;" x="97.518169" xlink:href="#C1_0_23919fe0b9" y="41.574606"/>
    </g>
    <g clip-path="url(#p9f326db0ac)">
     <use style="fill-opacity:0.5;" x="93.602327" xlink:href="#C1_0_23919fe0b9" y="41.574606"/>
    </g>
    <g clip-path="url(#p9f326db0ac)">
     <use style="fill-opacity:0.5;" x="99.066454" xlink:href="#C1_0_23919fe0b9" y="29.264764"/>
    </g>
    <g clip-path="url(#p9f326db0ac)">
     <use style="fill-opacity:0.5;" x="95.641646" xlink:href="#C1_0_23919fe0b9" y="47.729528"/>
    </g>
    <g clip-path="url(#p9f326db0ac)">
     <use style="fill-opacity:0.5;" x="91.865399" xlink:href="#C1_0_23919fe0b9" y="41.574606"/>
    </g>
    <g clip-path="url(#p9f326db0ac)">
     <use style="fill-opacity:0.5;" x="92.671029" xlink:href="#C1_0_23919fe0b9" y="29.264764"/>
    </g>
    <g clip-path="url(#p9f326db0ac)">
     <use style="fill-opacity:0.5;" x="96.954987" xlink:href="#C1_0_23919fe0b9" y="29.264764"/>
    </g>
    <g clip-path="url(#p9f326db0ac)">
     <use style="fill-opacity:0.5;" x="93.13362" xlink:href="#C1_0_23919fe0b9" y="41.574606"/>
    </g>
    <g clip-path="url(#p9f326db0ac)">
     <use style="fill-opacity:0.5;" x="95.792344" xlink:href="#C1_0_23919fe0b9" y="41.574606"/>
    </g>
    <g clip-path="url(#p9f326db0ac)">
     <use style="fill-opacity:0.5;" x="96.274257" xlink:href="#C1_0_23919fe0b9" y="29.264764"/>
    </g>
    <g clip-path="url(#p9f326db0ac)">
     <use style="fill-opacity:0.5;" x="96.520402" xlink:href="#C1_0_23919fe0b9" y="47.729528"/>
    </g>
    <g clip-path="url(#p9f326db0ac)">
     <use style="fill-opacity:0.5;" x="97.031462" xlink:href="#C1_0_23919fe0b9" y="47.729528"/>
    </g>
    <g clip-path="url(#p9f326db0ac)">
     <use style="fill-opacity:0.5;" x="99.303256" xlink:href="#C1_0_23919fe0b9" y="29.264764"/>
    </g>
    <g clip-path="url(#p9f326db0ac)">
     <use style="fill-opacity:0.5;" x="95.576119" xlink:href="#C1_0_23919fe0b9" y="29.264764"/>
    </g>
    <g clip-path="url(#p9f326db0ac)">
     <use style="fill-opacity:0.5;" x="97.967603" xlink:href="#C1_0_23919fe0b9" y="47.729528"/>
    </g>
    <g clip-path="url(#p9f326db0ac)">
     <use style="fill-opacity:0.5;" x="96.961712" xlink:href="#C1_0_23919fe0b9" y="47.729528"/>
    </g>
    <g clip-path="url(#p9f326db0ac)">
     <use style="fill-opacity:0.5;" x="99.98573" xlink:href="#C1_0_23919fe0b9" y="47.729528"/>
    </g>
    <g clip-path="url(#p9f326db0ac)">
     <use style="fill-opacity:0.5;" x="96.697191" xlink:href="#C1_0_23919fe0b9" y="29.264764"/>
    </g>
    <g clip-path="url(#p9f326db0ac)">
     <use style="fill-opacity:0.5;" x="97.326504" xlink:href="#C1_0_23919fe0b9" y="47.729528"/>
    </g>
    <g clip-path="url(#p9f326db0ac)">
     <use style="fill-opacity:0.5;" x="92.366084" xlink:href="#C1_0_23919fe0b9" y="41.574606"/>
    </g>
    <g clip-path="url(#p9f326db0ac)">
     <use style="fill-opacity:0.5;" x="93.703405" xlink:href="#C1_0_23919fe0b9" y="29.264764"/>
    </g>
    <g clip-path="url(#p9f326db0ac)">
     <use style="fill-opacity:0.5;" x="92.87205" xlink:href="#C1_0_23919fe0b9" y="47.729528"/>
    </g>
    <g clip-path="url(#p9f326db0ac)">
     <use style="fill-opacity:0.5;" x="98.450424" xlink:href="#C1_0_23919fe0b9" y="35.419685"/>
    </g>
    <g clip-path="url(#p9f326db0ac)">
     <use style="fill-opacity:0.5;" x="97.162671" xlink:href="#C1_0_23919fe0b9" y="29.264764"/>
    </g>
    <g clip-path="url(#p9f326db0ac)">
     <use style="fill-opacity:0.5;" x="94.967364" xlink:href="#C1_0_23919fe0b9" y="47.729528"/>
    </g>
    <g clip-path="url(#p9f326db0ac)">
     <use style="fill-opacity:0.5;" x="96.791861" xlink:href="#C1_0_23919fe0b9" y="29.264764"/>
    </g>
   </g>
  </g>
 </g>
 <defs>
  <clipPath id="p9f326db0ac">
   <rect height="49.23937" width="78.116138" x="33.05" y="10.8"/>
  </clipPath>
 </defs>
</svg>
